0
SECTION
2
HEADER
9
$INSUNITS
70
1
9
$ACADVER
1
AC1014
9
$HANDSEED
5
FFFF
0
ENDSEC
0
SECTION
2
TABLES
0
TABLE
2
VPORT
5
8
100
AcDbSymbolTable
0
ENDTAB
0
TABLE
2
LTYPE
5
5
100
AcDbSymbolTable
0
LTYPE
5
14
100
AcDbSymbolTableRecord
100
AcDbLinetypeTableRecord
2
BYBLOCK
70
0
0
LTYPE
5
15
100
AcDbSymbolTableRecord
100
AcDbLinetypeTableRecord
2
BYLAYER
70
0
0
ENDTAB
0
TABLE
2
LAYER
5
2
100
AcDbSymbolTable
70
2
0
LAYER
5
50
100
AcDbSymbolTableRecord
100
AcDbLayerTableRecord
2
0
70
0
6
CONTINUOUS
0
ENDTAB
0
TABLE
2
STYLE
5
3
100
AcDbSymbolTable
70
1
0
STYLE
5
11
100
AcDbSymbolTableRecord
100
AcDbTextStyleTableRecord
2
STANDARD
70
0
0
ENDTAB
0
TABLE
2
VIEW
5
6
100
AcDbSymbolTable
70
0
0
ENDTAB
0
TABLE
2
UCS
5
7
100
AcDbSymbolTable
70
0
0
ENDTAB
0
TABLE
2
APPID
5
9
100
AcDbSymbolTable
70
2
0
APPID
5
12
100
AcDbSymbolTableRecord
100
AcDbRegAppTableRecord
2
ACAD
70
0
0
ENDTAB
0
TABLE
2
DIMSTYLE
5
A
100
AcDbSymbolTable
70
1
0
ENDTAB
0
TABLE
2
BLOCK_RECORD
5
1
100
AcDbSymbolTable
70
1
0
BLOCK_RECORD
5
1F
100
AcDbSymbolTableRecord
100
AcDbBlockTableRecord
2
*MODEL_SPACE
0
BLOCK_RECORD
5
1B
100
AcDbSymbolTableRecord
100
AcDbBlockTableRecord
2
*PAPER_SPACE
0
ENDTAB
0
ENDSEC
0
SECTION
2
BLOCKS
0
BLOCK
5
20
100
AcDbEntity
100
AcDbBlockBegin
2
*MODEL_SPACE
0
ENDBLK
5
21
100
AcDbEntity
100
AcDbBlockEnd
0
BLOCK
5
1C
100
AcDbEntity
100
AcDbBlockBegin
2
*PAPER_SPACE
0
ENDBLK
5
1D
100
AcDbEntity
100
AcDbBlockEnd
0
ENDSEC
0
SECTION
2
ENTITIES
0
CIRCLE
5
100
100
AcDbEntity
8
0
100
AcDbCircle
10
-2.8199999999999998
20
2.73
30
0
40
0.059055118110236178
210
0
220
-0
230
1
0
CIRCLE
5
101
100
AcDbEntity
8
0
100
AcDbCircle
10
-5.9000000000000004
20
2.73
30
0
40
0.059055118110236358
210
0
220
-0
230
1
0
LWPOLYLINE
5
102
100
AcDbEntity
8
0
100
AcDbPolyline
90
4
70
1
43
0.0
10
-3.0279306557566632
20
2.9764392298448392
10
-2.6079306557566628
20
2.9764392298448419
10
-2.6079306557566651
20
3.2464392298448419
10
-3.0279306557566654
20
3.2464392298448392
0
CIRCLE
5
103
100
AcDbEntity
8
0
100
AcDbCircle
10
-2.8199999999999998
20
5.1100000000000003
30
0
40
0.059055118110236178
210
0
220
-0
230
1
0
CIRCLE
5
104
100
AcDbEntity
8
0
100
AcDbCircle
10
-5.9000000000000004
20
5.1100000000000003
30
0
40
0.059055118110236358
210
0
220
-0
230
1
0
LWPOLYLINE
5
105
100
AcDbEntity
8
0
100
AcDbPolyline
90
4
70
1
43
0.0
10
-2.6079306557566726
20
3.5276203322070461
10
-2.6079306557566739
20
3.7976203322070456
10
-3.0279306557566739
20
3.7976203322070434
10
-3.0279306557566721
20
3.5276203322070434
0
LWPOLYLINE
5
106
100
AcDbEntity
8
0
100
AcDbPolyline
90
4
70
1
43
0.0
10
-2.6079306557566797
20
4.0788014345692503
10
-2.6079306557566819
20
4.3488014345692498
10
-3.0279306557566805
20
4.3488014345692472
10
-3.0279306557566787
20
4.0788014345692476
0
LWPOLYLINE
5
107
100
AcDbEntity
8
0
100
AcDbPolyline
90
4
70
1
43
0.0
10
-2.6079306557566841
20
4.629982536931454
10
-2.6079306557566859
20
4.8999825369314536
10
-3.027930655756685
20
4.8999825369314518
10
-3.0279306557566832
20
4.6299825369314513
0
LWPOLYLINE
5
108
100
AcDbEntity
8
0
100
AcDbPolyline
90
4
70
1
43
0.0
10
-5.6984818368590258
20
2.9764392298448579
10
-5.6984818368590284
20
3.246439229844857
10
-6.1184818368590275
20
3.2464392298448539
10
-6.1184818368590257
20
2.9764392298448548
0
LWPOLYLINE
5
109
100
AcDbEntity
8
0
100
AcDbPolyline
90
4
70
1
43
0.0
10
-5.6984818368590355
20
3.5276203322070412
10
-5.6984818368590373
20
3.7976203322070408
10
-6.1184818368590363
20
3.7976203322070377
10
-6.1184818368590355
20
3.5276203322070385
0
LWPOLYLINE
5
110
100
AcDbEntity
8
0
100
AcDbPolyline
90
4
70
1
43
0.0
10
-5.6984818368590426
20
4.0788014345692449
10
-5.6984818368590444
20
4.3488014345692436
10
-6.1184818368590435
20
4.348801434569241
10
-6.1184818368590408
20
4.0788014345692414
0
CIRCLE
5
111
100
AcDbEntity
8
0
100
AcDbCircle
10
-4.8123550534803332
20
5.1756683385391078
30
0
40
0.099999999999999992
210
0
220
-0
230
1
0
LWPOLYLINE
5
112
100
AcDbEntity
8
0
100
AcDbPolyline
90
4
70
1
43
0.0
10
-5.698481836859048
20
4.6299825369314487
10
-5.6984818368590489
20
4.8999825369314474
10
-6.1184818368590479
20
4.8999825369314447
10
-6.118481836859047
20
4.629982536931446
0
CIRCLE
5
113
100
AcDbEntity
8
0
100
AcDbCircle
10
-4.3653646885337878
20
5.1831538032259665
30
0
40
0.10000000000000017
210
0
220
-0
230
1
0
CIRCLE
5
114
100
AcDbEntity
8
0
100
AcDbCircle
10
-3.9173228930183281
20
5.1771654314764834
30
0
40
0.10000000000000007
210
0
220
-0
230
1
0
CIRCLE
5
115
100
AcDbEntity
8
0
100
AcDbCircle
10
-4.3600000000000003
20
3.9299999999999997
30
0
40
0.17500000000000004
210
0
220
-0
230
1
0
LWPOLYLINE
5
116
100
AcDbEntity
8
0
100
AcDbPolyline
90
4
70
1
43
0.0
10
-6.3553661417322829
20
5.4740517012770988
10
-2.3553661417322833
20
5.4740517012770988
10
-2.3553661417322833
20
1.4740517012770988
10
-6.3553661417322829
20
1.4740517012770993
0
ENDSEC
0
SECTION
2
OBJECTS
0
DICTIONARY
5
C
100
AcDbDictionary
3
ACAD_GROUP
350
D
3
ACAD_MLINESTYLE
350
17
0
DICTIONARY
5
D
100
AcDbDictionary
0
DICTIONARY
5
1A
330
C
100
AcDbDictionary
0
DICTIONARY
5
17
100
AcDbDictionary
0
ENDSEC
0
EOF
