G04 #@! TF.GenerationSoftware,KiCad,Pcbnew,(5.1.5)-3*
G04 #@! TF.CreationDate,2022-01-05T12:17:47-05:00*
G04 #@! TF.ProjectId,K3_RVFO,4b335f52-5646-44f2-9e6b-696361645f70,rev?*
G04 #@! TF.SameCoordinates,Original*
G04 #@! TF.FileFunction,Copper,L1,Top*
G04 #@! TF.FilePolarity,Positive*
%FSLAX46Y46*%
G04 Gerber Fmt 4.6, Leading zero omitted, Abs format (unit mm)*
G04 Created by KiCad (PCBNEW (5.1.5)-3) date 2022-01-05 12:17:48*
%MOMM*%
%LPD*%
G04 APERTURE LIST*
%ADD10O,1.000000X1.000000*%
%ADD11R,1.000000X1.000000*%
%ADD12R,1.520000X1.520000*%
%ADD13C,1.520000*%
%ADD14C,0.100000*%
%ADD15O,1.700000X1.700000*%
%ADD16R,1.700000X1.700000*%
%ADD17C,6.000000*%
%ADD18C,1.700000*%
%ADD19R,0.599440X1.198880*%
%ADD20C,1.879600*%
%ADD21R,1.900000X1.200000*%
%ADD22O,1.900000X1.200000*%
%ADD23R,1.900000X1.500000*%
%ADD24C,1.450000*%
%ADD25R,1.350000X0.400000*%
%ADD26C,4.000000*%
%ADD27C,1.600000*%
%ADD28R,1.600000X1.600000*%
%ADD29R,0.797560X1.198880*%
%ADD30C,0.800000*%
%ADD31C,0.250000*%
%ADD32C,0.381000*%
G04 APERTURE END LIST*
D10*
X113792000Y-77978000D03*
X112522000Y-77978000D03*
X111252000Y-77978000D03*
X109982000Y-77978000D03*
X108712000Y-77978000D03*
D11*
X107442000Y-77978000D03*
D12*
X48768000Y-73914000D03*
D13*
X51308000Y-72644000D03*
X48768000Y-71374000D03*
X51308000Y-70104000D03*
X48768000Y-68834000D03*
X51308000Y-67564000D03*
G04 #@! TA.AperFunction,SMDPad,CuDef*
D14*
G36*
X150049142Y-44513174D02*
G01*
X150072803Y-44516684D01*
X150096007Y-44522496D01*
X150118529Y-44530554D01*
X150140153Y-44540782D01*
X150160670Y-44553079D01*
X150179883Y-44567329D01*
X150197607Y-44583393D01*
X150213671Y-44601117D01*
X150227921Y-44620330D01*
X150240218Y-44640847D01*
X150250446Y-44662471D01*
X150258504Y-44684993D01*
X150264316Y-44708197D01*
X150267826Y-44731858D01*
X150269000Y-44755750D01*
X150269000Y-45668250D01*
X150267826Y-45692142D01*
X150264316Y-45715803D01*
X150258504Y-45739007D01*
X150250446Y-45761529D01*
X150240218Y-45783153D01*
X150227921Y-45803670D01*
X150213671Y-45822883D01*
X150197607Y-45840607D01*
X150179883Y-45856671D01*
X150160670Y-45870921D01*
X150140153Y-45883218D01*
X150118529Y-45893446D01*
X150096007Y-45901504D01*
X150072803Y-45907316D01*
X150049142Y-45910826D01*
X150025250Y-45912000D01*
X149537750Y-45912000D01*
X149513858Y-45910826D01*
X149490197Y-45907316D01*
X149466993Y-45901504D01*
X149444471Y-45893446D01*
X149422847Y-45883218D01*
X149402330Y-45870921D01*
X149383117Y-45856671D01*
X149365393Y-45840607D01*
X149349329Y-45822883D01*
X149335079Y-45803670D01*
X149322782Y-45783153D01*
X149312554Y-45761529D01*
X149304496Y-45739007D01*
X149298684Y-45715803D01*
X149295174Y-45692142D01*
X149294000Y-45668250D01*
X149294000Y-44755750D01*
X149295174Y-44731858D01*
X149298684Y-44708197D01*
X149304496Y-44684993D01*
X149312554Y-44662471D01*
X149322782Y-44640847D01*
X149335079Y-44620330D01*
X149349329Y-44601117D01*
X149365393Y-44583393D01*
X149383117Y-44567329D01*
X149402330Y-44553079D01*
X149422847Y-44540782D01*
X149444471Y-44530554D01*
X149466993Y-44522496D01*
X149490197Y-44516684D01*
X149513858Y-44513174D01*
X149537750Y-44512000D01*
X150025250Y-44512000D01*
X150049142Y-44513174D01*
G37*
G04 #@! TD.AperFunction*
G04 #@! TA.AperFunction,SMDPad,CuDef*
G36*
X148174142Y-44513174D02*
G01*
X148197803Y-44516684D01*
X148221007Y-44522496D01*
X148243529Y-44530554D01*
X148265153Y-44540782D01*
X148285670Y-44553079D01*
X148304883Y-44567329D01*
X148322607Y-44583393D01*
X148338671Y-44601117D01*
X148352921Y-44620330D01*
X148365218Y-44640847D01*
X148375446Y-44662471D01*
X148383504Y-44684993D01*
X148389316Y-44708197D01*
X148392826Y-44731858D01*
X148394000Y-44755750D01*
X148394000Y-45668250D01*
X148392826Y-45692142D01*
X148389316Y-45715803D01*
X148383504Y-45739007D01*
X148375446Y-45761529D01*
X148365218Y-45783153D01*
X148352921Y-45803670D01*
X148338671Y-45822883D01*
X148322607Y-45840607D01*
X148304883Y-45856671D01*
X148285670Y-45870921D01*
X148265153Y-45883218D01*
X148243529Y-45893446D01*
X148221007Y-45901504D01*
X148197803Y-45907316D01*
X148174142Y-45910826D01*
X148150250Y-45912000D01*
X147662750Y-45912000D01*
X147638858Y-45910826D01*
X147615197Y-45907316D01*
X147591993Y-45901504D01*
X147569471Y-45893446D01*
X147547847Y-45883218D01*
X147527330Y-45870921D01*
X147508117Y-45856671D01*
X147490393Y-45840607D01*
X147474329Y-45822883D01*
X147460079Y-45803670D01*
X147447782Y-45783153D01*
X147437554Y-45761529D01*
X147429496Y-45739007D01*
X147423684Y-45715803D01*
X147420174Y-45692142D01*
X147419000Y-45668250D01*
X147419000Y-44755750D01*
X147420174Y-44731858D01*
X147423684Y-44708197D01*
X147429496Y-44684993D01*
X147437554Y-44662471D01*
X147447782Y-44640847D01*
X147460079Y-44620330D01*
X147474329Y-44601117D01*
X147490393Y-44583393D01*
X147508117Y-44567329D01*
X147527330Y-44553079D01*
X147547847Y-44540782D01*
X147569471Y-44530554D01*
X147591993Y-44522496D01*
X147615197Y-44516684D01*
X147638858Y-44513174D01*
X147662750Y-44512000D01*
X148150250Y-44512000D01*
X148174142Y-44513174D01*
G37*
G04 #@! TD.AperFunction*
G04 #@! TA.AperFunction,SMDPad,CuDef*
G36*
X150049142Y-48069174D02*
G01*
X150072803Y-48072684D01*
X150096007Y-48078496D01*
X150118529Y-48086554D01*
X150140153Y-48096782D01*
X150160670Y-48109079D01*
X150179883Y-48123329D01*
X150197607Y-48139393D01*
X150213671Y-48157117D01*
X150227921Y-48176330D01*
X150240218Y-48196847D01*
X150250446Y-48218471D01*
X150258504Y-48240993D01*
X150264316Y-48264197D01*
X150267826Y-48287858D01*
X150269000Y-48311750D01*
X150269000Y-49224250D01*
X150267826Y-49248142D01*
X150264316Y-49271803D01*
X150258504Y-49295007D01*
X150250446Y-49317529D01*
X150240218Y-49339153D01*
X150227921Y-49359670D01*
X150213671Y-49378883D01*
X150197607Y-49396607D01*
X150179883Y-49412671D01*
X150160670Y-49426921D01*
X150140153Y-49439218D01*
X150118529Y-49449446D01*
X150096007Y-49457504D01*
X150072803Y-49463316D01*
X150049142Y-49466826D01*
X150025250Y-49468000D01*
X149537750Y-49468000D01*
X149513858Y-49466826D01*
X149490197Y-49463316D01*
X149466993Y-49457504D01*
X149444471Y-49449446D01*
X149422847Y-49439218D01*
X149402330Y-49426921D01*
X149383117Y-49412671D01*
X149365393Y-49396607D01*
X149349329Y-49378883D01*
X149335079Y-49359670D01*
X149322782Y-49339153D01*
X149312554Y-49317529D01*
X149304496Y-49295007D01*
X149298684Y-49271803D01*
X149295174Y-49248142D01*
X149294000Y-49224250D01*
X149294000Y-48311750D01*
X149295174Y-48287858D01*
X149298684Y-48264197D01*
X149304496Y-48240993D01*
X149312554Y-48218471D01*
X149322782Y-48196847D01*
X149335079Y-48176330D01*
X149349329Y-48157117D01*
X149365393Y-48139393D01*
X149383117Y-48123329D01*
X149402330Y-48109079D01*
X149422847Y-48096782D01*
X149444471Y-48086554D01*
X149466993Y-48078496D01*
X149490197Y-48072684D01*
X149513858Y-48069174D01*
X149537750Y-48068000D01*
X150025250Y-48068000D01*
X150049142Y-48069174D01*
G37*
G04 #@! TD.AperFunction*
G04 #@! TA.AperFunction,SMDPad,CuDef*
G36*
X148174142Y-48069174D02*
G01*
X148197803Y-48072684D01*
X148221007Y-48078496D01*
X148243529Y-48086554D01*
X148265153Y-48096782D01*
X148285670Y-48109079D01*
X148304883Y-48123329D01*
X148322607Y-48139393D01*
X148338671Y-48157117D01*
X148352921Y-48176330D01*
X148365218Y-48196847D01*
X148375446Y-48218471D01*
X148383504Y-48240993D01*
X148389316Y-48264197D01*
X148392826Y-48287858D01*
X148394000Y-48311750D01*
X148394000Y-49224250D01*
X148392826Y-49248142D01*
X148389316Y-49271803D01*
X148383504Y-49295007D01*
X148375446Y-49317529D01*
X148365218Y-49339153D01*
X148352921Y-49359670D01*
X148338671Y-49378883D01*
X148322607Y-49396607D01*
X148304883Y-49412671D01*
X148285670Y-49426921D01*
X148265153Y-49439218D01*
X148243529Y-49449446D01*
X148221007Y-49457504D01*
X148197803Y-49463316D01*
X148174142Y-49466826D01*
X148150250Y-49468000D01*
X147662750Y-49468000D01*
X147638858Y-49466826D01*
X147615197Y-49463316D01*
X147591993Y-49457504D01*
X147569471Y-49449446D01*
X147547847Y-49439218D01*
X147527330Y-49426921D01*
X147508117Y-49412671D01*
X147490393Y-49396607D01*
X147474329Y-49378883D01*
X147460079Y-49359670D01*
X147447782Y-49339153D01*
X147437554Y-49317529D01*
X147429496Y-49295007D01*
X147423684Y-49271803D01*
X147420174Y-49248142D01*
X147419000Y-49224250D01*
X147419000Y-48311750D01*
X147420174Y-48287858D01*
X147423684Y-48264197D01*
X147429496Y-48240993D01*
X147437554Y-48218471D01*
X147447782Y-48196847D01*
X147460079Y-48176330D01*
X147474329Y-48157117D01*
X147490393Y-48139393D01*
X147508117Y-48123329D01*
X147527330Y-48109079D01*
X147547847Y-48096782D01*
X147569471Y-48086554D01*
X147591993Y-48078496D01*
X147615197Y-48072684D01*
X147638858Y-48069174D01*
X147662750Y-48068000D01*
X148150250Y-48068000D01*
X148174142Y-48069174D01*
G37*
G04 #@! TD.AperFunction*
D15*
X117348000Y-71628000D03*
X114808000Y-71628000D03*
X112268000Y-71628000D03*
X109728000Y-71628000D03*
X107188000Y-71628000D03*
D16*
X104648000Y-71628000D03*
G04 #@! TA.AperFunction,SMDPad,CuDef*
D14*
G36*
X88712504Y-55111204D02*
G01*
X88736773Y-55114804D01*
X88760571Y-55120765D01*
X88783671Y-55129030D01*
X88805849Y-55139520D01*
X88826893Y-55152133D01*
X88846598Y-55166747D01*
X88864777Y-55183223D01*
X88881253Y-55201402D01*
X88895867Y-55221107D01*
X88908480Y-55242151D01*
X88918970Y-55264329D01*
X88927235Y-55287429D01*
X88933196Y-55311227D01*
X88936796Y-55335496D01*
X88938000Y-55360000D01*
X88938000Y-57460000D01*
X88936796Y-57484504D01*
X88933196Y-57508773D01*
X88927235Y-57532571D01*
X88918970Y-57555671D01*
X88908480Y-57577849D01*
X88895867Y-57598893D01*
X88881253Y-57618598D01*
X88864777Y-57636777D01*
X88846598Y-57653253D01*
X88826893Y-57667867D01*
X88805849Y-57680480D01*
X88783671Y-57690970D01*
X88760571Y-57699235D01*
X88736773Y-57705196D01*
X88712504Y-57708796D01*
X88688000Y-57710000D01*
X87588000Y-57710000D01*
X87563496Y-57708796D01*
X87539227Y-57705196D01*
X87515429Y-57699235D01*
X87492329Y-57690970D01*
X87470151Y-57680480D01*
X87449107Y-57667867D01*
X87429402Y-57653253D01*
X87411223Y-57636777D01*
X87394747Y-57618598D01*
X87380133Y-57598893D01*
X87367520Y-57577849D01*
X87357030Y-57555671D01*
X87348765Y-57532571D01*
X87342804Y-57508773D01*
X87339204Y-57484504D01*
X87338000Y-57460000D01*
X87338000Y-55360000D01*
X87339204Y-55335496D01*
X87342804Y-55311227D01*
X87348765Y-55287429D01*
X87357030Y-55264329D01*
X87367520Y-55242151D01*
X87380133Y-55221107D01*
X87394747Y-55201402D01*
X87411223Y-55183223D01*
X87429402Y-55166747D01*
X87449107Y-55152133D01*
X87470151Y-55139520D01*
X87492329Y-55129030D01*
X87515429Y-55120765D01*
X87539227Y-55114804D01*
X87563496Y-55111204D01*
X87588000Y-55110000D01*
X88688000Y-55110000D01*
X88712504Y-55111204D01*
G37*
G04 #@! TD.AperFunction*
G04 #@! TA.AperFunction,SMDPad,CuDef*
G36*
X88712504Y-51511204D02*
G01*
X88736773Y-51514804D01*
X88760571Y-51520765D01*
X88783671Y-51529030D01*
X88805849Y-51539520D01*
X88826893Y-51552133D01*
X88846598Y-51566747D01*
X88864777Y-51583223D01*
X88881253Y-51601402D01*
X88895867Y-51621107D01*
X88908480Y-51642151D01*
X88918970Y-51664329D01*
X88927235Y-51687429D01*
X88933196Y-51711227D01*
X88936796Y-51735496D01*
X88938000Y-51760000D01*
X88938000Y-53860000D01*
X88936796Y-53884504D01*
X88933196Y-53908773D01*
X88927235Y-53932571D01*
X88918970Y-53955671D01*
X88908480Y-53977849D01*
X88895867Y-53998893D01*
X88881253Y-54018598D01*
X88864777Y-54036777D01*
X88846598Y-54053253D01*
X88826893Y-54067867D01*
X88805849Y-54080480D01*
X88783671Y-54090970D01*
X88760571Y-54099235D01*
X88736773Y-54105196D01*
X88712504Y-54108796D01*
X88688000Y-54110000D01*
X87588000Y-54110000D01*
X87563496Y-54108796D01*
X87539227Y-54105196D01*
X87515429Y-54099235D01*
X87492329Y-54090970D01*
X87470151Y-54080480D01*
X87449107Y-54067867D01*
X87429402Y-54053253D01*
X87411223Y-54036777D01*
X87394747Y-54018598D01*
X87380133Y-53998893D01*
X87367520Y-53977849D01*
X87357030Y-53955671D01*
X87348765Y-53932571D01*
X87342804Y-53908773D01*
X87339204Y-53884504D01*
X87338000Y-53860000D01*
X87338000Y-51760000D01*
X87339204Y-51735496D01*
X87342804Y-51711227D01*
X87348765Y-51687429D01*
X87357030Y-51664329D01*
X87367520Y-51642151D01*
X87380133Y-51621107D01*
X87394747Y-51601402D01*
X87411223Y-51583223D01*
X87429402Y-51566747D01*
X87449107Y-51552133D01*
X87470151Y-51539520D01*
X87492329Y-51529030D01*
X87515429Y-51520765D01*
X87539227Y-51514804D01*
X87563496Y-51511204D01*
X87588000Y-51510000D01*
X88688000Y-51510000D01*
X88712504Y-51511204D01*
G37*
G04 #@! TD.AperFunction*
G04 #@! TA.AperFunction,SMDPad,CuDef*
G36*
X122146142Y-54377674D02*
G01*
X122169803Y-54381184D01*
X122193007Y-54386996D01*
X122215529Y-54395054D01*
X122237153Y-54405282D01*
X122257670Y-54417579D01*
X122276883Y-54431829D01*
X122294607Y-54447893D01*
X122310671Y-54465617D01*
X122324921Y-54484830D01*
X122337218Y-54505347D01*
X122347446Y-54526971D01*
X122355504Y-54549493D01*
X122361316Y-54572697D01*
X122364826Y-54596358D01*
X122366000Y-54620250D01*
X122366000Y-55107750D01*
X122364826Y-55131642D01*
X122361316Y-55155303D01*
X122355504Y-55178507D01*
X122347446Y-55201029D01*
X122337218Y-55222653D01*
X122324921Y-55243170D01*
X122310671Y-55262383D01*
X122294607Y-55280107D01*
X122276883Y-55296171D01*
X122257670Y-55310421D01*
X122237153Y-55322718D01*
X122215529Y-55332946D01*
X122193007Y-55341004D01*
X122169803Y-55346816D01*
X122146142Y-55350326D01*
X122122250Y-55351500D01*
X121209750Y-55351500D01*
X121185858Y-55350326D01*
X121162197Y-55346816D01*
X121138993Y-55341004D01*
X121116471Y-55332946D01*
X121094847Y-55322718D01*
X121074330Y-55310421D01*
X121055117Y-55296171D01*
X121037393Y-55280107D01*
X121021329Y-55262383D01*
X121007079Y-55243170D01*
X120994782Y-55222653D01*
X120984554Y-55201029D01*
X120976496Y-55178507D01*
X120970684Y-55155303D01*
X120967174Y-55131642D01*
X120966000Y-55107750D01*
X120966000Y-54620250D01*
X120967174Y-54596358D01*
X120970684Y-54572697D01*
X120976496Y-54549493D01*
X120984554Y-54526971D01*
X120994782Y-54505347D01*
X121007079Y-54484830D01*
X121021329Y-54465617D01*
X121037393Y-54447893D01*
X121055117Y-54431829D01*
X121074330Y-54417579D01*
X121094847Y-54405282D01*
X121116471Y-54395054D01*
X121138993Y-54386996D01*
X121162197Y-54381184D01*
X121185858Y-54377674D01*
X121209750Y-54376500D01*
X122122250Y-54376500D01*
X122146142Y-54377674D01*
G37*
G04 #@! TD.AperFunction*
G04 #@! TA.AperFunction,SMDPad,CuDef*
G36*
X122146142Y-56252674D02*
G01*
X122169803Y-56256184D01*
X122193007Y-56261996D01*
X122215529Y-56270054D01*
X122237153Y-56280282D01*
X122257670Y-56292579D01*
X122276883Y-56306829D01*
X122294607Y-56322893D01*
X122310671Y-56340617D01*
X122324921Y-56359830D01*
X122337218Y-56380347D01*
X122347446Y-56401971D01*
X122355504Y-56424493D01*
X122361316Y-56447697D01*
X122364826Y-56471358D01*
X122366000Y-56495250D01*
X122366000Y-56982750D01*
X122364826Y-57006642D01*
X122361316Y-57030303D01*
X122355504Y-57053507D01*
X122347446Y-57076029D01*
X122337218Y-57097653D01*
X122324921Y-57118170D01*
X122310671Y-57137383D01*
X122294607Y-57155107D01*
X122276883Y-57171171D01*
X122257670Y-57185421D01*
X122237153Y-57197718D01*
X122215529Y-57207946D01*
X122193007Y-57216004D01*
X122169803Y-57221816D01*
X122146142Y-57225326D01*
X122122250Y-57226500D01*
X121209750Y-57226500D01*
X121185858Y-57225326D01*
X121162197Y-57221816D01*
X121138993Y-57216004D01*
X121116471Y-57207946D01*
X121094847Y-57197718D01*
X121074330Y-57185421D01*
X121055117Y-57171171D01*
X121037393Y-57155107D01*
X121021329Y-57137383D01*
X121007079Y-57118170D01*
X120994782Y-57097653D01*
X120984554Y-57076029D01*
X120976496Y-57053507D01*
X120970684Y-57030303D01*
X120967174Y-57006642D01*
X120966000Y-56982750D01*
X120966000Y-56495250D01*
X120967174Y-56471358D01*
X120970684Y-56447697D01*
X120976496Y-56424493D01*
X120984554Y-56401971D01*
X120994782Y-56380347D01*
X121007079Y-56359830D01*
X121021329Y-56340617D01*
X121037393Y-56322893D01*
X121055117Y-56306829D01*
X121074330Y-56292579D01*
X121094847Y-56280282D01*
X121116471Y-56270054D01*
X121138993Y-56261996D01*
X121162197Y-56256184D01*
X121185858Y-56252674D01*
X121209750Y-56251500D01*
X122122250Y-56251500D01*
X122146142Y-56252674D01*
G37*
G04 #@! TD.AperFunction*
G04 #@! TA.AperFunction,SMDPad,CuDef*
G36*
X119606142Y-50567674D02*
G01*
X119629803Y-50571184D01*
X119653007Y-50576996D01*
X119675529Y-50585054D01*
X119697153Y-50595282D01*
X119717670Y-50607579D01*
X119736883Y-50621829D01*
X119754607Y-50637893D01*
X119770671Y-50655617D01*
X119784921Y-50674830D01*
X119797218Y-50695347D01*
X119807446Y-50716971D01*
X119815504Y-50739493D01*
X119821316Y-50762697D01*
X119824826Y-50786358D01*
X119826000Y-50810250D01*
X119826000Y-51297750D01*
X119824826Y-51321642D01*
X119821316Y-51345303D01*
X119815504Y-51368507D01*
X119807446Y-51391029D01*
X119797218Y-51412653D01*
X119784921Y-51433170D01*
X119770671Y-51452383D01*
X119754607Y-51470107D01*
X119736883Y-51486171D01*
X119717670Y-51500421D01*
X119697153Y-51512718D01*
X119675529Y-51522946D01*
X119653007Y-51531004D01*
X119629803Y-51536816D01*
X119606142Y-51540326D01*
X119582250Y-51541500D01*
X118669750Y-51541500D01*
X118645858Y-51540326D01*
X118622197Y-51536816D01*
X118598993Y-51531004D01*
X118576471Y-51522946D01*
X118554847Y-51512718D01*
X118534330Y-51500421D01*
X118515117Y-51486171D01*
X118497393Y-51470107D01*
X118481329Y-51452383D01*
X118467079Y-51433170D01*
X118454782Y-51412653D01*
X118444554Y-51391029D01*
X118436496Y-51368507D01*
X118430684Y-51345303D01*
X118427174Y-51321642D01*
X118426000Y-51297750D01*
X118426000Y-50810250D01*
X118427174Y-50786358D01*
X118430684Y-50762697D01*
X118436496Y-50739493D01*
X118444554Y-50716971D01*
X118454782Y-50695347D01*
X118467079Y-50674830D01*
X118481329Y-50655617D01*
X118497393Y-50637893D01*
X118515117Y-50621829D01*
X118534330Y-50607579D01*
X118554847Y-50595282D01*
X118576471Y-50585054D01*
X118598993Y-50576996D01*
X118622197Y-50571184D01*
X118645858Y-50567674D01*
X118669750Y-50566500D01*
X119582250Y-50566500D01*
X119606142Y-50567674D01*
G37*
G04 #@! TD.AperFunction*
G04 #@! TA.AperFunction,SMDPad,CuDef*
G36*
X119606142Y-52442674D02*
G01*
X119629803Y-52446184D01*
X119653007Y-52451996D01*
X119675529Y-52460054D01*
X119697153Y-52470282D01*
X119717670Y-52482579D01*
X119736883Y-52496829D01*
X119754607Y-52512893D01*
X119770671Y-52530617D01*
X119784921Y-52549830D01*
X119797218Y-52570347D01*
X119807446Y-52591971D01*
X119815504Y-52614493D01*
X119821316Y-52637697D01*
X119824826Y-52661358D01*
X119826000Y-52685250D01*
X119826000Y-53172750D01*
X119824826Y-53196642D01*
X119821316Y-53220303D01*
X119815504Y-53243507D01*
X119807446Y-53266029D01*
X119797218Y-53287653D01*
X119784921Y-53308170D01*
X119770671Y-53327383D01*
X119754607Y-53345107D01*
X119736883Y-53361171D01*
X119717670Y-53375421D01*
X119697153Y-53387718D01*
X119675529Y-53397946D01*
X119653007Y-53406004D01*
X119629803Y-53411816D01*
X119606142Y-53415326D01*
X119582250Y-53416500D01*
X118669750Y-53416500D01*
X118645858Y-53415326D01*
X118622197Y-53411816D01*
X118598993Y-53406004D01*
X118576471Y-53397946D01*
X118554847Y-53387718D01*
X118534330Y-53375421D01*
X118515117Y-53361171D01*
X118497393Y-53345107D01*
X118481329Y-53327383D01*
X118467079Y-53308170D01*
X118454782Y-53287653D01*
X118444554Y-53266029D01*
X118436496Y-53243507D01*
X118430684Y-53220303D01*
X118427174Y-53196642D01*
X118426000Y-53172750D01*
X118426000Y-52685250D01*
X118427174Y-52661358D01*
X118430684Y-52637697D01*
X118436496Y-52614493D01*
X118444554Y-52591971D01*
X118454782Y-52570347D01*
X118467079Y-52549830D01*
X118481329Y-52530617D01*
X118497393Y-52512893D01*
X118515117Y-52496829D01*
X118534330Y-52482579D01*
X118554847Y-52470282D01*
X118576471Y-52460054D01*
X118598993Y-52451996D01*
X118622197Y-52446184D01*
X118645858Y-52442674D01*
X118669750Y-52441500D01*
X119582250Y-52441500D01*
X119606142Y-52442674D01*
G37*
G04 #@! TD.AperFunction*
G04 #@! TA.AperFunction,SMDPad,CuDef*
G36*
X117066142Y-54377674D02*
G01*
X117089803Y-54381184D01*
X117113007Y-54386996D01*
X117135529Y-54395054D01*
X117157153Y-54405282D01*
X117177670Y-54417579D01*
X117196883Y-54431829D01*
X117214607Y-54447893D01*
X117230671Y-54465617D01*
X117244921Y-54484830D01*
X117257218Y-54505347D01*
X117267446Y-54526971D01*
X117275504Y-54549493D01*
X117281316Y-54572697D01*
X117284826Y-54596358D01*
X117286000Y-54620250D01*
X117286000Y-55107750D01*
X117284826Y-55131642D01*
X117281316Y-55155303D01*
X117275504Y-55178507D01*
X117267446Y-55201029D01*
X117257218Y-55222653D01*
X117244921Y-55243170D01*
X117230671Y-55262383D01*
X117214607Y-55280107D01*
X117196883Y-55296171D01*
X117177670Y-55310421D01*
X117157153Y-55322718D01*
X117135529Y-55332946D01*
X117113007Y-55341004D01*
X117089803Y-55346816D01*
X117066142Y-55350326D01*
X117042250Y-55351500D01*
X116129750Y-55351500D01*
X116105858Y-55350326D01*
X116082197Y-55346816D01*
X116058993Y-55341004D01*
X116036471Y-55332946D01*
X116014847Y-55322718D01*
X115994330Y-55310421D01*
X115975117Y-55296171D01*
X115957393Y-55280107D01*
X115941329Y-55262383D01*
X115927079Y-55243170D01*
X115914782Y-55222653D01*
X115904554Y-55201029D01*
X115896496Y-55178507D01*
X115890684Y-55155303D01*
X115887174Y-55131642D01*
X115886000Y-55107750D01*
X115886000Y-54620250D01*
X115887174Y-54596358D01*
X115890684Y-54572697D01*
X115896496Y-54549493D01*
X115904554Y-54526971D01*
X115914782Y-54505347D01*
X115927079Y-54484830D01*
X115941329Y-54465617D01*
X115957393Y-54447893D01*
X115975117Y-54431829D01*
X115994330Y-54417579D01*
X116014847Y-54405282D01*
X116036471Y-54395054D01*
X116058993Y-54386996D01*
X116082197Y-54381184D01*
X116105858Y-54377674D01*
X116129750Y-54376500D01*
X117042250Y-54376500D01*
X117066142Y-54377674D01*
G37*
G04 #@! TD.AperFunction*
G04 #@! TA.AperFunction,SMDPad,CuDef*
G36*
X117066142Y-56252674D02*
G01*
X117089803Y-56256184D01*
X117113007Y-56261996D01*
X117135529Y-56270054D01*
X117157153Y-56280282D01*
X117177670Y-56292579D01*
X117196883Y-56306829D01*
X117214607Y-56322893D01*
X117230671Y-56340617D01*
X117244921Y-56359830D01*
X117257218Y-56380347D01*
X117267446Y-56401971D01*
X117275504Y-56424493D01*
X117281316Y-56447697D01*
X117284826Y-56471358D01*
X117286000Y-56495250D01*
X117286000Y-56982750D01*
X117284826Y-57006642D01*
X117281316Y-57030303D01*
X117275504Y-57053507D01*
X117267446Y-57076029D01*
X117257218Y-57097653D01*
X117244921Y-57118170D01*
X117230671Y-57137383D01*
X117214607Y-57155107D01*
X117196883Y-57171171D01*
X117177670Y-57185421D01*
X117157153Y-57197718D01*
X117135529Y-57207946D01*
X117113007Y-57216004D01*
X117089803Y-57221816D01*
X117066142Y-57225326D01*
X117042250Y-57226500D01*
X116129750Y-57226500D01*
X116105858Y-57225326D01*
X116082197Y-57221816D01*
X116058993Y-57216004D01*
X116036471Y-57207946D01*
X116014847Y-57197718D01*
X115994330Y-57185421D01*
X115975117Y-57171171D01*
X115957393Y-57155107D01*
X115941329Y-57137383D01*
X115927079Y-57118170D01*
X115914782Y-57097653D01*
X115904554Y-57076029D01*
X115896496Y-57053507D01*
X115890684Y-57030303D01*
X115887174Y-57006642D01*
X115886000Y-56982750D01*
X115886000Y-56495250D01*
X115887174Y-56471358D01*
X115890684Y-56447697D01*
X115896496Y-56424493D01*
X115904554Y-56401971D01*
X115914782Y-56380347D01*
X115927079Y-56359830D01*
X115941329Y-56340617D01*
X115957393Y-56322893D01*
X115975117Y-56306829D01*
X115994330Y-56292579D01*
X116014847Y-56280282D01*
X116036471Y-56270054D01*
X116058993Y-56261996D01*
X116082197Y-56256184D01*
X116105858Y-56252674D01*
X116129750Y-56251500D01*
X117042250Y-56251500D01*
X117066142Y-56252674D01*
G37*
G04 #@! TD.AperFunction*
G04 #@! TA.AperFunction,SMDPad,CuDef*
G36*
X114526142Y-50567674D02*
G01*
X114549803Y-50571184D01*
X114573007Y-50576996D01*
X114595529Y-50585054D01*
X114617153Y-50595282D01*
X114637670Y-50607579D01*
X114656883Y-50621829D01*
X114674607Y-50637893D01*
X114690671Y-50655617D01*
X114704921Y-50674830D01*
X114717218Y-50695347D01*
X114727446Y-50716971D01*
X114735504Y-50739493D01*
X114741316Y-50762697D01*
X114744826Y-50786358D01*
X114746000Y-50810250D01*
X114746000Y-51297750D01*
X114744826Y-51321642D01*
X114741316Y-51345303D01*
X114735504Y-51368507D01*
X114727446Y-51391029D01*
X114717218Y-51412653D01*
X114704921Y-51433170D01*
X114690671Y-51452383D01*
X114674607Y-51470107D01*
X114656883Y-51486171D01*
X114637670Y-51500421D01*
X114617153Y-51512718D01*
X114595529Y-51522946D01*
X114573007Y-51531004D01*
X114549803Y-51536816D01*
X114526142Y-51540326D01*
X114502250Y-51541500D01*
X113589750Y-51541500D01*
X113565858Y-51540326D01*
X113542197Y-51536816D01*
X113518993Y-51531004D01*
X113496471Y-51522946D01*
X113474847Y-51512718D01*
X113454330Y-51500421D01*
X113435117Y-51486171D01*
X113417393Y-51470107D01*
X113401329Y-51452383D01*
X113387079Y-51433170D01*
X113374782Y-51412653D01*
X113364554Y-51391029D01*
X113356496Y-51368507D01*
X113350684Y-51345303D01*
X113347174Y-51321642D01*
X113346000Y-51297750D01*
X113346000Y-50810250D01*
X113347174Y-50786358D01*
X113350684Y-50762697D01*
X113356496Y-50739493D01*
X113364554Y-50716971D01*
X113374782Y-50695347D01*
X113387079Y-50674830D01*
X113401329Y-50655617D01*
X113417393Y-50637893D01*
X113435117Y-50621829D01*
X113454330Y-50607579D01*
X113474847Y-50595282D01*
X113496471Y-50585054D01*
X113518993Y-50576996D01*
X113542197Y-50571184D01*
X113565858Y-50567674D01*
X113589750Y-50566500D01*
X114502250Y-50566500D01*
X114526142Y-50567674D01*
G37*
G04 #@! TD.AperFunction*
G04 #@! TA.AperFunction,SMDPad,CuDef*
G36*
X114526142Y-52442674D02*
G01*
X114549803Y-52446184D01*
X114573007Y-52451996D01*
X114595529Y-52460054D01*
X114617153Y-52470282D01*
X114637670Y-52482579D01*
X114656883Y-52496829D01*
X114674607Y-52512893D01*
X114690671Y-52530617D01*
X114704921Y-52549830D01*
X114717218Y-52570347D01*
X114727446Y-52591971D01*
X114735504Y-52614493D01*
X114741316Y-52637697D01*
X114744826Y-52661358D01*
X114746000Y-52685250D01*
X114746000Y-53172750D01*
X114744826Y-53196642D01*
X114741316Y-53220303D01*
X114735504Y-53243507D01*
X114727446Y-53266029D01*
X114717218Y-53287653D01*
X114704921Y-53308170D01*
X114690671Y-53327383D01*
X114674607Y-53345107D01*
X114656883Y-53361171D01*
X114637670Y-53375421D01*
X114617153Y-53387718D01*
X114595529Y-53397946D01*
X114573007Y-53406004D01*
X114549803Y-53411816D01*
X114526142Y-53415326D01*
X114502250Y-53416500D01*
X113589750Y-53416500D01*
X113565858Y-53415326D01*
X113542197Y-53411816D01*
X113518993Y-53406004D01*
X113496471Y-53397946D01*
X113474847Y-53387718D01*
X113454330Y-53375421D01*
X113435117Y-53361171D01*
X113417393Y-53345107D01*
X113401329Y-53327383D01*
X113387079Y-53308170D01*
X113374782Y-53287653D01*
X113364554Y-53266029D01*
X113356496Y-53243507D01*
X113350684Y-53220303D01*
X113347174Y-53196642D01*
X113346000Y-53172750D01*
X113346000Y-52685250D01*
X113347174Y-52661358D01*
X113350684Y-52637697D01*
X113356496Y-52614493D01*
X113364554Y-52591971D01*
X113374782Y-52570347D01*
X113387079Y-52549830D01*
X113401329Y-52530617D01*
X113417393Y-52512893D01*
X113435117Y-52496829D01*
X113454330Y-52482579D01*
X113474847Y-52470282D01*
X113496471Y-52460054D01*
X113518993Y-52451996D01*
X113542197Y-52446184D01*
X113565858Y-52442674D01*
X113589750Y-52441500D01*
X114502250Y-52441500D01*
X114526142Y-52442674D01*
G37*
G04 #@! TD.AperFunction*
G04 #@! TA.AperFunction,SMDPad,CuDef*
G36*
X111986142Y-54377674D02*
G01*
X112009803Y-54381184D01*
X112033007Y-54386996D01*
X112055529Y-54395054D01*
X112077153Y-54405282D01*
X112097670Y-54417579D01*
X112116883Y-54431829D01*
X112134607Y-54447893D01*
X112150671Y-54465617D01*
X112164921Y-54484830D01*
X112177218Y-54505347D01*
X112187446Y-54526971D01*
X112195504Y-54549493D01*
X112201316Y-54572697D01*
X112204826Y-54596358D01*
X112206000Y-54620250D01*
X112206000Y-55107750D01*
X112204826Y-55131642D01*
X112201316Y-55155303D01*
X112195504Y-55178507D01*
X112187446Y-55201029D01*
X112177218Y-55222653D01*
X112164921Y-55243170D01*
X112150671Y-55262383D01*
X112134607Y-55280107D01*
X112116883Y-55296171D01*
X112097670Y-55310421D01*
X112077153Y-55322718D01*
X112055529Y-55332946D01*
X112033007Y-55341004D01*
X112009803Y-55346816D01*
X111986142Y-55350326D01*
X111962250Y-55351500D01*
X111049750Y-55351500D01*
X111025858Y-55350326D01*
X111002197Y-55346816D01*
X110978993Y-55341004D01*
X110956471Y-55332946D01*
X110934847Y-55322718D01*
X110914330Y-55310421D01*
X110895117Y-55296171D01*
X110877393Y-55280107D01*
X110861329Y-55262383D01*
X110847079Y-55243170D01*
X110834782Y-55222653D01*
X110824554Y-55201029D01*
X110816496Y-55178507D01*
X110810684Y-55155303D01*
X110807174Y-55131642D01*
X110806000Y-55107750D01*
X110806000Y-54620250D01*
X110807174Y-54596358D01*
X110810684Y-54572697D01*
X110816496Y-54549493D01*
X110824554Y-54526971D01*
X110834782Y-54505347D01*
X110847079Y-54484830D01*
X110861329Y-54465617D01*
X110877393Y-54447893D01*
X110895117Y-54431829D01*
X110914330Y-54417579D01*
X110934847Y-54405282D01*
X110956471Y-54395054D01*
X110978993Y-54386996D01*
X111002197Y-54381184D01*
X111025858Y-54377674D01*
X111049750Y-54376500D01*
X111962250Y-54376500D01*
X111986142Y-54377674D01*
G37*
G04 #@! TD.AperFunction*
G04 #@! TA.AperFunction,SMDPad,CuDef*
G36*
X111986142Y-56252674D02*
G01*
X112009803Y-56256184D01*
X112033007Y-56261996D01*
X112055529Y-56270054D01*
X112077153Y-56280282D01*
X112097670Y-56292579D01*
X112116883Y-56306829D01*
X112134607Y-56322893D01*
X112150671Y-56340617D01*
X112164921Y-56359830D01*
X112177218Y-56380347D01*
X112187446Y-56401971D01*
X112195504Y-56424493D01*
X112201316Y-56447697D01*
X112204826Y-56471358D01*
X112206000Y-56495250D01*
X112206000Y-56982750D01*
X112204826Y-57006642D01*
X112201316Y-57030303D01*
X112195504Y-57053507D01*
X112187446Y-57076029D01*
X112177218Y-57097653D01*
X112164921Y-57118170D01*
X112150671Y-57137383D01*
X112134607Y-57155107D01*
X112116883Y-57171171D01*
X112097670Y-57185421D01*
X112077153Y-57197718D01*
X112055529Y-57207946D01*
X112033007Y-57216004D01*
X112009803Y-57221816D01*
X111986142Y-57225326D01*
X111962250Y-57226500D01*
X111049750Y-57226500D01*
X111025858Y-57225326D01*
X111002197Y-57221816D01*
X110978993Y-57216004D01*
X110956471Y-57207946D01*
X110934847Y-57197718D01*
X110914330Y-57185421D01*
X110895117Y-57171171D01*
X110877393Y-57155107D01*
X110861329Y-57137383D01*
X110847079Y-57118170D01*
X110834782Y-57097653D01*
X110824554Y-57076029D01*
X110816496Y-57053507D01*
X110810684Y-57030303D01*
X110807174Y-57006642D01*
X110806000Y-56982750D01*
X110806000Y-56495250D01*
X110807174Y-56471358D01*
X110810684Y-56447697D01*
X110816496Y-56424493D01*
X110824554Y-56401971D01*
X110834782Y-56380347D01*
X110847079Y-56359830D01*
X110861329Y-56340617D01*
X110877393Y-56322893D01*
X110895117Y-56306829D01*
X110914330Y-56292579D01*
X110934847Y-56280282D01*
X110956471Y-56270054D01*
X110978993Y-56261996D01*
X111002197Y-56256184D01*
X111025858Y-56252674D01*
X111049750Y-56251500D01*
X111962250Y-56251500D01*
X111986142Y-56252674D01*
G37*
G04 #@! TD.AperFunction*
G04 #@! TA.AperFunction,SMDPad,CuDef*
G36*
X109446142Y-50567674D02*
G01*
X109469803Y-50571184D01*
X109493007Y-50576996D01*
X109515529Y-50585054D01*
X109537153Y-50595282D01*
X109557670Y-50607579D01*
X109576883Y-50621829D01*
X109594607Y-50637893D01*
X109610671Y-50655617D01*
X109624921Y-50674830D01*
X109637218Y-50695347D01*
X109647446Y-50716971D01*
X109655504Y-50739493D01*
X109661316Y-50762697D01*
X109664826Y-50786358D01*
X109666000Y-50810250D01*
X109666000Y-51297750D01*
X109664826Y-51321642D01*
X109661316Y-51345303D01*
X109655504Y-51368507D01*
X109647446Y-51391029D01*
X109637218Y-51412653D01*
X109624921Y-51433170D01*
X109610671Y-51452383D01*
X109594607Y-51470107D01*
X109576883Y-51486171D01*
X109557670Y-51500421D01*
X109537153Y-51512718D01*
X109515529Y-51522946D01*
X109493007Y-51531004D01*
X109469803Y-51536816D01*
X109446142Y-51540326D01*
X109422250Y-51541500D01*
X108509750Y-51541500D01*
X108485858Y-51540326D01*
X108462197Y-51536816D01*
X108438993Y-51531004D01*
X108416471Y-51522946D01*
X108394847Y-51512718D01*
X108374330Y-51500421D01*
X108355117Y-51486171D01*
X108337393Y-51470107D01*
X108321329Y-51452383D01*
X108307079Y-51433170D01*
X108294782Y-51412653D01*
X108284554Y-51391029D01*
X108276496Y-51368507D01*
X108270684Y-51345303D01*
X108267174Y-51321642D01*
X108266000Y-51297750D01*
X108266000Y-50810250D01*
X108267174Y-50786358D01*
X108270684Y-50762697D01*
X108276496Y-50739493D01*
X108284554Y-50716971D01*
X108294782Y-50695347D01*
X108307079Y-50674830D01*
X108321329Y-50655617D01*
X108337393Y-50637893D01*
X108355117Y-50621829D01*
X108374330Y-50607579D01*
X108394847Y-50595282D01*
X108416471Y-50585054D01*
X108438993Y-50576996D01*
X108462197Y-50571184D01*
X108485858Y-50567674D01*
X108509750Y-50566500D01*
X109422250Y-50566500D01*
X109446142Y-50567674D01*
G37*
G04 #@! TD.AperFunction*
G04 #@! TA.AperFunction,SMDPad,CuDef*
G36*
X109446142Y-52442674D02*
G01*
X109469803Y-52446184D01*
X109493007Y-52451996D01*
X109515529Y-52460054D01*
X109537153Y-52470282D01*
X109557670Y-52482579D01*
X109576883Y-52496829D01*
X109594607Y-52512893D01*
X109610671Y-52530617D01*
X109624921Y-52549830D01*
X109637218Y-52570347D01*
X109647446Y-52591971D01*
X109655504Y-52614493D01*
X109661316Y-52637697D01*
X109664826Y-52661358D01*
X109666000Y-52685250D01*
X109666000Y-53172750D01*
X109664826Y-53196642D01*
X109661316Y-53220303D01*
X109655504Y-53243507D01*
X109647446Y-53266029D01*
X109637218Y-53287653D01*
X109624921Y-53308170D01*
X109610671Y-53327383D01*
X109594607Y-53345107D01*
X109576883Y-53361171D01*
X109557670Y-53375421D01*
X109537153Y-53387718D01*
X109515529Y-53397946D01*
X109493007Y-53406004D01*
X109469803Y-53411816D01*
X109446142Y-53415326D01*
X109422250Y-53416500D01*
X108509750Y-53416500D01*
X108485858Y-53415326D01*
X108462197Y-53411816D01*
X108438993Y-53406004D01*
X108416471Y-53397946D01*
X108394847Y-53387718D01*
X108374330Y-53375421D01*
X108355117Y-53361171D01*
X108337393Y-53345107D01*
X108321329Y-53327383D01*
X108307079Y-53308170D01*
X108294782Y-53287653D01*
X108284554Y-53266029D01*
X108276496Y-53243507D01*
X108270684Y-53220303D01*
X108267174Y-53196642D01*
X108266000Y-53172750D01*
X108266000Y-52685250D01*
X108267174Y-52661358D01*
X108270684Y-52637697D01*
X108276496Y-52614493D01*
X108284554Y-52591971D01*
X108294782Y-52570347D01*
X108307079Y-52549830D01*
X108321329Y-52530617D01*
X108337393Y-52512893D01*
X108355117Y-52496829D01*
X108374330Y-52482579D01*
X108394847Y-52470282D01*
X108416471Y-52460054D01*
X108438993Y-52451996D01*
X108462197Y-52446184D01*
X108485858Y-52442674D01*
X108509750Y-52441500D01*
X109422250Y-52441500D01*
X109446142Y-52442674D01*
G37*
G04 #@! TD.AperFunction*
G04 #@! TA.AperFunction,SMDPad,CuDef*
G36*
X106906142Y-54377674D02*
G01*
X106929803Y-54381184D01*
X106953007Y-54386996D01*
X106975529Y-54395054D01*
X106997153Y-54405282D01*
X107017670Y-54417579D01*
X107036883Y-54431829D01*
X107054607Y-54447893D01*
X107070671Y-54465617D01*
X107084921Y-54484830D01*
X107097218Y-54505347D01*
X107107446Y-54526971D01*
X107115504Y-54549493D01*
X107121316Y-54572697D01*
X107124826Y-54596358D01*
X107126000Y-54620250D01*
X107126000Y-55107750D01*
X107124826Y-55131642D01*
X107121316Y-55155303D01*
X107115504Y-55178507D01*
X107107446Y-55201029D01*
X107097218Y-55222653D01*
X107084921Y-55243170D01*
X107070671Y-55262383D01*
X107054607Y-55280107D01*
X107036883Y-55296171D01*
X107017670Y-55310421D01*
X106997153Y-55322718D01*
X106975529Y-55332946D01*
X106953007Y-55341004D01*
X106929803Y-55346816D01*
X106906142Y-55350326D01*
X106882250Y-55351500D01*
X105969750Y-55351500D01*
X105945858Y-55350326D01*
X105922197Y-55346816D01*
X105898993Y-55341004D01*
X105876471Y-55332946D01*
X105854847Y-55322718D01*
X105834330Y-55310421D01*
X105815117Y-55296171D01*
X105797393Y-55280107D01*
X105781329Y-55262383D01*
X105767079Y-55243170D01*
X105754782Y-55222653D01*
X105744554Y-55201029D01*
X105736496Y-55178507D01*
X105730684Y-55155303D01*
X105727174Y-55131642D01*
X105726000Y-55107750D01*
X105726000Y-54620250D01*
X105727174Y-54596358D01*
X105730684Y-54572697D01*
X105736496Y-54549493D01*
X105744554Y-54526971D01*
X105754782Y-54505347D01*
X105767079Y-54484830D01*
X105781329Y-54465617D01*
X105797393Y-54447893D01*
X105815117Y-54431829D01*
X105834330Y-54417579D01*
X105854847Y-54405282D01*
X105876471Y-54395054D01*
X105898993Y-54386996D01*
X105922197Y-54381184D01*
X105945858Y-54377674D01*
X105969750Y-54376500D01*
X106882250Y-54376500D01*
X106906142Y-54377674D01*
G37*
G04 #@! TD.AperFunction*
G04 #@! TA.AperFunction,SMDPad,CuDef*
G36*
X106906142Y-56252674D02*
G01*
X106929803Y-56256184D01*
X106953007Y-56261996D01*
X106975529Y-56270054D01*
X106997153Y-56280282D01*
X107017670Y-56292579D01*
X107036883Y-56306829D01*
X107054607Y-56322893D01*
X107070671Y-56340617D01*
X107084921Y-56359830D01*
X107097218Y-56380347D01*
X107107446Y-56401971D01*
X107115504Y-56424493D01*
X107121316Y-56447697D01*
X107124826Y-56471358D01*
X107126000Y-56495250D01*
X107126000Y-56982750D01*
X107124826Y-57006642D01*
X107121316Y-57030303D01*
X107115504Y-57053507D01*
X107107446Y-57076029D01*
X107097218Y-57097653D01*
X107084921Y-57118170D01*
X107070671Y-57137383D01*
X107054607Y-57155107D01*
X107036883Y-57171171D01*
X107017670Y-57185421D01*
X106997153Y-57197718D01*
X106975529Y-57207946D01*
X106953007Y-57216004D01*
X106929803Y-57221816D01*
X106906142Y-57225326D01*
X106882250Y-57226500D01*
X105969750Y-57226500D01*
X105945858Y-57225326D01*
X105922197Y-57221816D01*
X105898993Y-57216004D01*
X105876471Y-57207946D01*
X105854847Y-57197718D01*
X105834330Y-57185421D01*
X105815117Y-57171171D01*
X105797393Y-57155107D01*
X105781329Y-57137383D01*
X105767079Y-57118170D01*
X105754782Y-57097653D01*
X105744554Y-57076029D01*
X105736496Y-57053507D01*
X105730684Y-57030303D01*
X105727174Y-57006642D01*
X105726000Y-56982750D01*
X105726000Y-56495250D01*
X105727174Y-56471358D01*
X105730684Y-56447697D01*
X105736496Y-56424493D01*
X105744554Y-56401971D01*
X105754782Y-56380347D01*
X105767079Y-56359830D01*
X105781329Y-56340617D01*
X105797393Y-56322893D01*
X105815117Y-56306829D01*
X105834330Y-56292579D01*
X105854847Y-56280282D01*
X105876471Y-56270054D01*
X105898993Y-56261996D01*
X105922197Y-56256184D01*
X105945858Y-56252674D01*
X105969750Y-56251500D01*
X106882250Y-56251500D01*
X106906142Y-56252674D01*
G37*
G04 #@! TD.AperFunction*
G04 #@! TA.AperFunction,SMDPad,CuDef*
G36*
X104366142Y-50567674D02*
G01*
X104389803Y-50571184D01*
X104413007Y-50576996D01*
X104435529Y-50585054D01*
X104457153Y-50595282D01*
X104477670Y-50607579D01*
X104496883Y-50621829D01*
X104514607Y-50637893D01*
X104530671Y-50655617D01*
X104544921Y-50674830D01*
X104557218Y-50695347D01*
X104567446Y-50716971D01*
X104575504Y-50739493D01*
X104581316Y-50762697D01*
X104584826Y-50786358D01*
X104586000Y-50810250D01*
X104586000Y-51297750D01*
X104584826Y-51321642D01*
X104581316Y-51345303D01*
X104575504Y-51368507D01*
X104567446Y-51391029D01*
X104557218Y-51412653D01*
X104544921Y-51433170D01*
X104530671Y-51452383D01*
X104514607Y-51470107D01*
X104496883Y-51486171D01*
X104477670Y-51500421D01*
X104457153Y-51512718D01*
X104435529Y-51522946D01*
X104413007Y-51531004D01*
X104389803Y-51536816D01*
X104366142Y-51540326D01*
X104342250Y-51541500D01*
X103429750Y-51541500D01*
X103405858Y-51540326D01*
X103382197Y-51536816D01*
X103358993Y-51531004D01*
X103336471Y-51522946D01*
X103314847Y-51512718D01*
X103294330Y-51500421D01*
X103275117Y-51486171D01*
X103257393Y-51470107D01*
X103241329Y-51452383D01*
X103227079Y-51433170D01*
X103214782Y-51412653D01*
X103204554Y-51391029D01*
X103196496Y-51368507D01*
X103190684Y-51345303D01*
X103187174Y-51321642D01*
X103186000Y-51297750D01*
X103186000Y-50810250D01*
X103187174Y-50786358D01*
X103190684Y-50762697D01*
X103196496Y-50739493D01*
X103204554Y-50716971D01*
X103214782Y-50695347D01*
X103227079Y-50674830D01*
X103241329Y-50655617D01*
X103257393Y-50637893D01*
X103275117Y-50621829D01*
X103294330Y-50607579D01*
X103314847Y-50595282D01*
X103336471Y-50585054D01*
X103358993Y-50576996D01*
X103382197Y-50571184D01*
X103405858Y-50567674D01*
X103429750Y-50566500D01*
X104342250Y-50566500D01*
X104366142Y-50567674D01*
G37*
G04 #@! TD.AperFunction*
G04 #@! TA.AperFunction,SMDPad,CuDef*
G36*
X104366142Y-52442674D02*
G01*
X104389803Y-52446184D01*
X104413007Y-52451996D01*
X104435529Y-52460054D01*
X104457153Y-52470282D01*
X104477670Y-52482579D01*
X104496883Y-52496829D01*
X104514607Y-52512893D01*
X104530671Y-52530617D01*
X104544921Y-52549830D01*
X104557218Y-52570347D01*
X104567446Y-52591971D01*
X104575504Y-52614493D01*
X104581316Y-52637697D01*
X104584826Y-52661358D01*
X104586000Y-52685250D01*
X104586000Y-53172750D01*
X104584826Y-53196642D01*
X104581316Y-53220303D01*
X104575504Y-53243507D01*
X104567446Y-53266029D01*
X104557218Y-53287653D01*
X104544921Y-53308170D01*
X104530671Y-53327383D01*
X104514607Y-53345107D01*
X104496883Y-53361171D01*
X104477670Y-53375421D01*
X104457153Y-53387718D01*
X104435529Y-53397946D01*
X104413007Y-53406004D01*
X104389803Y-53411816D01*
X104366142Y-53415326D01*
X104342250Y-53416500D01*
X103429750Y-53416500D01*
X103405858Y-53415326D01*
X103382197Y-53411816D01*
X103358993Y-53406004D01*
X103336471Y-53397946D01*
X103314847Y-53387718D01*
X103294330Y-53375421D01*
X103275117Y-53361171D01*
X103257393Y-53345107D01*
X103241329Y-53327383D01*
X103227079Y-53308170D01*
X103214782Y-53287653D01*
X103204554Y-53266029D01*
X103196496Y-53243507D01*
X103190684Y-53220303D01*
X103187174Y-53196642D01*
X103186000Y-53172750D01*
X103186000Y-52685250D01*
X103187174Y-52661358D01*
X103190684Y-52637697D01*
X103196496Y-52614493D01*
X103204554Y-52591971D01*
X103214782Y-52570347D01*
X103227079Y-52549830D01*
X103241329Y-52530617D01*
X103257393Y-52512893D01*
X103275117Y-52496829D01*
X103294330Y-52482579D01*
X103314847Y-52470282D01*
X103336471Y-52460054D01*
X103358993Y-52451996D01*
X103382197Y-52446184D01*
X103405858Y-52442674D01*
X103429750Y-52441500D01*
X104342250Y-52441500D01*
X104366142Y-52442674D01*
G37*
G04 #@! TD.AperFunction*
G04 #@! TA.AperFunction,SMDPad,CuDef*
G36*
X132306142Y-52091674D02*
G01*
X132329803Y-52095184D01*
X132353007Y-52100996D01*
X132375529Y-52109054D01*
X132397153Y-52119282D01*
X132417670Y-52131579D01*
X132436883Y-52145829D01*
X132454607Y-52161893D01*
X132470671Y-52179617D01*
X132484921Y-52198830D01*
X132497218Y-52219347D01*
X132507446Y-52240971D01*
X132515504Y-52263493D01*
X132521316Y-52286697D01*
X132524826Y-52310358D01*
X132526000Y-52334250D01*
X132526000Y-52821750D01*
X132524826Y-52845642D01*
X132521316Y-52869303D01*
X132515504Y-52892507D01*
X132507446Y-52915029D01*
X132497218Y-52936653D01*
X132484921Y-52957170D01*
X132470671Y-52976383D01*
X132454607Y-52994107D01*
X132436883Y-53010171D01*
X132417670Y-53024421D01*
X132397153Y-53036718D01*
X132375529Y-53046946D01*
X132353007Y-53055004D01*
X132329803Y-53060816D01*
X132306142Y-53064326D01*
X132282250Y-53065500D01*
X131369750Y-53065500D01*
X131345858Y-53064326D01*
X131322197Y-53060816D01*
X131298993Y-53055004D01*
X131276471Y-53046946D01*
X131254847Y-53036718D01*
X131234330Y-53024421D01*
X131215117Y-53010171D01*
X131197393Y-52994107D01*
X131181329Y-52976383D01*
X131167079Y-52957170D01*
X131154782Y-52936653D01*
X131144554Y-52915029D01*
X131136496Y-52892507D01*
X131130684Y-52869303D01*
X131127174Y-52845642D01*
X131126000Y-52821750D01*
X131126000Y-52334250D01*
X131127174Y-52310358D01*
X131130684Y-52286697D01*
X131136496Y-52263493D01*
X131144554Y-52240971D01*
X131154782Y-52219347D01*
X131167079Y-52198830D01*
X131181329Y-52179617D01*
X131197393Y-52161893D01*
X131215117Y-52145829D01*
X131234330Y-52131579D01*
X131254847Y-52119282D01*
X131276471Y-52109054D01*
X131298993Y-52100996D01*
X131322197Y-52095184D01*
X131345858Y-52091674D01*
X131369750Y-52090500D01*
X132282250Y-52090500D01*
X132306142Y-52091674D01*
G37*
G04 #@! TD.AperFunction*
G04 #@! TA.AperFunction,SMDPad,CuDef*
G36*
X132306142Y-50216674D02*
G01*
X132329803Y-50220184D01*
X132353007Y-50225996D01*
X132375529Y-50234054D01*
X132397153Y-50244282D01*
X132417670Y-50256579D01*
X132436883Y-50270829D01*
X132454607Y-50286893D01*
X132470671Y-50304617D01*
X132484921Y-50323830D01*
X132497218Y-50344347D01*
X132507446Y-50365971D01*
X132515504Y-50388493D01*
X132521316Y-50411697D01*
X132524826Y-50435358D01*
X132526000Y-50459250D01*
X132526000Y-50946750D01*
X132524826Y-50970642D01*
X132521316Y-50994303D01*
X132515504Y-51017507D01*
X132507446Y-51040029D01*
X132497218Y-51061653D01*
X132484921Y-51082170D01*
X132470671Y-51101383D01*
X132454607Y-51119107D01*
X132436883Y-51135171D01*
X132417670Y-51149421D01*
X132397153Y-51161718D01*
X132375529Y-51171946D01*
X132353007Y-51180004D01*
X132329803Y-51185816D01*
X132306142Y-51189326D01*
X132282250Y-51190500D01*
X131369750Y-51190500D01*
X131345858Y-51189326D01*
X131322197Y-51185816D01*
X131298993Y-51180004D01*
X131276471Y-51171946D01*
X131254847Y-51161718D01*
X131234330Y-51149421D01*
X131215117Y-51135171D01*
X131197393Y-51119107D01*
X131181329Y-51101383D01*
X131167079Y-51082170D01*
X131154782Y-51061653D01*
X131144554Y-51040029D01*
X131136496Y-51017507D01*
X131130684Y-50994303D01*
X131127174Y-50970642D01*
X131126000Y-50946750D01*
X131126000Y-50459250D01*
X131127174Y-50435358D01*
X131130684Y-50411697D01*
X131136496Y-50388493D01*
X131144554Y-50365971D01*
X131154782Y-50344347D01*
X131167079Y-50323830D01*
X131181329Y-50304617D01*
X131197393Y-50286893D01*
X131215117Y-50270829D01*
X131234330Y-50256579D01*
X131254847Y-50244282D01*
X131276471Y-50234054D01*
X131298993Y-50225996D01*
X131322197Y-50220184D01*
X131345858Y-50216674D01*
X131369750Y-50215500D01*
X132282250Y-50215500D01*
X132306142Y-50216674D01*
G37*
G04 #@! TD.AperFunction*
G04 #@! TA.AperFunction,SMDPad,CuDef*
G36*
X134846142Y-47949174D02*
G01*
X134869803Y-47952684D01*
X134893007Y-47958496D01*
X134915529Y-47966554D01*
X134937153Y-47976782D01*
X134957670Y-47989079D01*
X134976883Y-48003329D01*
X134994607Y-48019393D01*
X135010671Y-48037117D01*
X135024921Y-48056330D01*
X135037218Y-48076847D01*
X135047446Y-48098471D01*
X135055504Y-48120993D01*
X135061316Y-48144197D01*
X135064826Y-48167858D01*
X135066000Y-48191750D01*
X135066000Y-48679250D01*
X135064826Y-48703142D01*
X135061316Y-48726803D01*
X135055504Y-48750007D01*
X135047446Y-48772529D01*
X135037218Y-48794153D01*
X135024921Y-48814670D01*
X135010671Y-48833883D01*
X134994607Y-48851607D01*
X134976883Y-48867671D01*
X134957670Y-48881921D01*
X134937153Y-48894218D01*
X134915529Y-48904446D01*
X134893007Y-48912504D01*
X134869803Y-48918316D01*
X134846142Y-48921826D01*
X134822250Y-48923000D01*
X133909750Y-48923000D01*
X133885858Y-48921826D01*
X133862197Y-48918316D01*
X133838993Y-48912504D01*
X133816471Y-48904446D01*
X133794847Y-48894218D01*
X133774330Y-48881921D01*
X133755117Y-48867671D01*
X133737393Y-48851607D01*
X133721329Y-48833883D01*
X133707079Y-48814670D01*
X133694782Y-48794153D01*
X133684554Y-48772529D01*
X133676496Y-48750007D01*
X133670684Y-48726803D01*
X133667174Y-48703142D01*
X133666000Y-48679250D01*
X133666000Y-48191750D01*
X133667174Y-48167858D01*
X133670684Y-48144197D01*
X133676496Y-48120993D01*
X133684554Y-48098471D01*
X133694782Y-48076847D01*
X133707079Y-48056330D01*
X133721329Y-48037117D01*
X133737393Y-48019393D01*
X133755117Y-48003329D01*
X133774330Y-47989079D01*
X133794847Y-47976782D01*
X133816471Y-47966554D01*
X133838993Y-47958496D01*
X133862197Y-47952684D01*
X133885858Y-47949174D01*
X133909750Y-47948000D01*
X134822250Y-47948000D01*
X134846142Y-47949174D01*
G37*
G04 #@! TD.AperFunction*
G04 #@! TA.AperFunction,SMDPad,CuDef*
G36*
X134846142Y-46074174D02*
G01*
X134869803Y-46077684D01*
X134893007Y-46083496D01*
X134915529Y-46091554D01*
X134937153Y-46101782D01*
X134957670Y-46114079D01*
X134976883Y-46128329D01*
X134994607Y-46144393D01*
X135010671Y-46162117D01*
X135024921Y-46181330D01*
X135037218Y-46201847D01*
X135047446Y-46223471D01*
X135055504Y-46245993D01*
X135061316Y-46269197D01*
X135064826Y-46292858D01*
X135066000Y-46316750D01*
X135066000Y-46804250D01*
X135064826Y-46828142D01*
X135061316Y-46851803D01*
X135055504Y-46875007D01*
X135047446Y-46897529D01*
X135037218Y-46919153D01*
X135024921Y-46939670D01*
X135010671Y-46958883D01*
X134994607Y-46976607D01*
X134976883Y-46992671D01*
X134957670Y-47006921D01*
X134937153Y-47019218D01*
X134915529Y-47029446D01*
X134893007Y-47037504D01*
X134869803Y-47043316D01*
X134846142Y-47046826D01*
X134822250Y-47048000D01*
X133909750Y-47048000D01*
X133885858Y-47046826D01*
X133862197Y-47043316D01*
X133838993Y-47037504D01*
X133816471Y-47029446D01*
X133794847Y-47019218D01*
X133774330Y-47006921D01*
X133755117Y-46992671D01*
X133737393Y-46976607D01*
X133721329Y-46958883D01*
X133707079Y-46939670D01*
X133694782Y-46919153D01*
X133684554Y-46897529D01*
X133676496Y-46875007D01*
X133670684Y-46851803D01*
X133667174Y-46828142D01*
X133666000Y-46804250D01*
X133666000Y-46316750D01*
X133667174Y-46292858D01*
X133670684Y-46269197D01*
X133676496Y-46245993D01*
X133684554Y-46223471D01*
X133694782Y-46201847D01*
X133707079Y-46181330D01*
X133721329Y-46162117D01*
X133737393Y-46144393D01*
X133755117Y-46128329D01*
X133774330Y-46114079D01*
X133794847Y-46101782D01*
X133816471Y-46091554D01*
X133838993Y-46083496D01*
X133862197Y-46077684D01*
X133885858Y-46074174D01*
X133909750Y-46073000D01*
X134822250Y-46073000D01*
X134846142Y-46074174D01*
G37*
G04 #@! TD.AperFunction*
G04 #@! TA.AperFunction,SMDPad,CuDef*
G36*
X129766142Y-47870674D02*
G01*
X129789803Y-47874184D01*
X129813007Y-47879996D01*
X129835529Y-47888054D01*
X129857153Y-47898282D01*
X129877670Y-47910579D01*
X129896883Y-47924829D01*
X129914607Y-47940893D01*
X129930671Y-47958617D01*
X129944921Y-47977830D01*
X129957218Y-47998347D01*
X129967446Y-48019971D01*
X129975504Y-48042493D01*
X129981316Y-48065697D01*
X129984826Y-48089358D01*
X129986000Y-48113250D01*
X129986000Y-48600750D01*
X129984826Y-48624642D01*
X129981316Y-48648303D01*
X129975504Y-48671507D01*
X129967446Y-48694029D01*
X129957218Y-48715653D01*
X129944921Y-48736170D01*
X129930671Y-48755383D01*
X129914607Y-48773107D01*
X129896883Y-48789171D01*
X129877670Y-48803421D01*
X129857153Y-48815718D01*
X129835529Y-48825946D01*
X129813007Y-48834004D01*
X129789803Y-48839816D01*
X129766142Y-48843326D01*
X129742250Y-48844500D01*
X128829750Y-48844500D01*
X128805858Y-48843326D01*
X128782197Y-48839816D01*
X128758993Y-48834004D01*
X128736471Y-48825946D01*
X128714847Y-48815718D01*
X128694330Y-48803421D01*
X128675117Y-48789171D01*
X128657393Y-48773107D01*
X128641329Y-48755383D01*
X128627079Y-48736170D01*
X128614782Y-48715653D01*
X128604554Y-48694029D01*
X128596496Y-48671507D01*
X128590684Y-48648303D01*
X128587174Y-48624642D01*
X128586000Y-48600750D01*
X128586000Y-48113250D01*
X128587174Y-48089358D01*
X128590684Y-48065697D01*
X128596496Y-48042493D01*
X128604554Y-48019971D01*
X128614782Y-47998347D01*
X128627079Y-47977830D01*
X128641329Y-47958617D01*
X128657393Y-47940893D01*
X128675117Y-47924829D01*
X128694330Y-47910579D01*
X128714847Y-47898282D01*
X128736471Y-47888054D01*
X128758993Y-47879996D01*
X128782197Y-47874184D01*
X128805858Y-47870674D01*
X128829750Y-47869500D01*
X129742250Y-47869500D01*
X129766142Y-47870674D01*
G37*
G04 #@! TD.AperFunction*
G04 #@! TA.AperFunction,SMDPad,CuDef*
G36*
X129766142Y-45995674D02*
G01*
X129789803Y-45999184D01*
X129813007Y-46004996D01*
X129835529Y-46013054D01*
X129857153Y-46023282D01*
X129877670Y-46035579D01*
X129896883Y-46049829D01*
X129914607Y-46065893D01*
X129930671Y-46083617D01*
X129944921Y-46102830D01*
X129957218Y-46123347D01*
X129967446Y-46144971D01*
X129975504Y-46167493D01*
X129981316Y-46190697D01*
X129984826Y-46214358D01*
X129986000Y-46238250D01*
X129986000Y-46725750D01*
X129984826Y-46749642D01*
X129981316Y-46773303D01*
X129975504Y-46796507D01*
X129967446Y-46819029D01*
X129957218Y-46840653D01*
X129944921Y-46861170D01*
X129930671Y-46880383D01*
X129914607Y-46898107D01*
X129896883Y-46914171D01*
X129877670Y-46928421D01*
X129857153Y-46940718D01*
X129835529Y-46950946D01*
X129813007Y-46959004D01*
X129789803Y-46964816D01*
X129766142Y-46968326D01*
X129742250Y-46969500D01*
X128829750Y-46969500D01*
X128805858Y-46968326D01*
X128782197Y-46964816D01*
X128758993Y-46959004D01*
X128736471Y-46950946D01*
X128714847Y-46940718D01*
X128694330Y-46928421D01*
X128675117Y-46914171D01*
X128657393Y-46898107D01*
X128641329Y-46880383D01*
X128627079Y-46861170D01*
X128614782Y-46840653D01*
X128604554Y-46819029D01*
X128596496Y-46796507D01*
X128590684Y-46773303D01*
X128587174Y-46749642D01*
X128586000Y-46725750D01*
X128586000Y-46238250D01*
X128587174Y-46214358D01*
X128590684Y-46190697D01*
X128596496Y-46167493D01*
X128604554Y-46144971D01*
X128614782Y-46123347D01*
X128627079Y-46102830D01*
X128641329Y-46083617D01*
X128657393Y-46065893D01*
X128675117Y-46049829D01*
X128694330Y-46035579D01*
X128714847Y-46023282D01*
X128736471Y-46013054D01*
X128758993Y-46004996D01*
X128782197Y-45999184D01*
X128805858Y-45995674D01*
X128829750Y-45994500D01*
X129742250Y-45994500D01*
X129766142Y-45995674D01*
G37*
G04 #@! TD.AperFunction*
D17*
X71628000Y-129794000D03*
X149860000Y-69342000D03*
X149860000Y-129794000D03*
X71628000Y-69342000D03*
D18*
X144526000Y-42926000D03*
X144526000Y-60706000D03*
X141986000Y-42926000D03*
X141986000Y-60706000D03*
X139446000Y-42926000D03*
X139446000Y-60706000D03*
X136906000Y-42926000D03*
X136906000Y-60706000D03*
X134366000Y-42926000D03*
X134366000Y-60706000D03*
X131826000Y-42926000D03*
X131826000Y-60706000D03*
X129286000Y-42926000D03*
X129286000Y-60706000D03*
X126746000Y-42926000D03*
X126746000Y-60706000D03*
X124206000Y-42926000D03*
X124206000Y-60706000D03*
X121666000Y-42926000D03*
X121666000Y-60706000D03*
X119126000Y-42926000D03*
X119126000Y-60706000D03*
X116586000Y-42926000D03*
X116586000Y-60706000D03*
X114046000Y-42926000D03*
X114046000Y-60706000D03*
X111506000Y-42926000D03*
X111506000Y-60706000D03*
X108966000Y-42926000D03*
X108966000Y-60706000D03*
X106426000Y-42926000D03*
X106426000Y-60706000D03*
D16*
X103886000Y-42926000D03*
D18*
X103886000Y-60706000D03*
X97536000Y-55626000D03*
X97536000Y-53086000D03*
X97536000Y-50546000D03*
X97536000Y-48006000D03*
D19*
X78867000Y-59938920D03*
X80137000Y-59938920D03*
X81407000Y-59938920D03*
X82677000Y-59938920D03*
X83947000Y-59938920D03*
X85217000Y-59938920D03*
X86487000Y-59938920D03*
X87757000Y-59938920D03*
X87757000Y-65537080D03*
X86487000Y-65537080D03*
X85217000Y-65537080D03*
X83947000Y-65537080D03*
X82677000Y-65537080D03*
X81407000Y-65537080D03*
X80137000Y-65537080D03*
X78867000Y-65537080D03*
G04 #@! TA.AperFunction,SMDPad,CuDef*
D14*
G36*
X141261703Y-48366722D02*
G01*
X141276264Y-48368882D01*
X141290543Y-48372459D01*
X141304403Y-48377418D01*
X141317710Y-48383712D01*
X141330336Y-48391280D01*
X141342159Y-48400048D01*
X141353066Y-48409934D01*
X141362952Y-48420841D01*
X141371720Y-48432664D01*
X141379288Y-48445290D01*
X141385582Y-48458597D01*
X141390541Y-48472457D01*
X141394118Y-48486736D01*
X141396278Y-48501297D01*
X141397000Y-48516000D01*
X141397000Y-50166000D01*
X141396278Y-50180703D01*
X141394118Y-50195264D01*
X141390541Y-50209543D01*
X141385582Y-50223403D01*
X141379288Y-50236710D01*
X141371720Y-50249336D01*
X141362952Y-50261159D01*
X141353066Y-50272066D01*
X141342159Y-50281952D01*
X141330336Y-50290720D01*
X141317710Y-50298288D01*
X141304403Y-50304582D01*
X141290543Y-50309541D01*
X141276264Y-50313118D01*
X141261703Y-50315278D01*
X141247000Y-50316000D01*
X140947000Y-50316000D01*
X140932297Y-50315278D01*
X140917736Y-50313118D01*
X140903457Y-50309541D01*
X140889597Y-50304582D01*
X140876290Y-50298288D01*
X140863664Y-50290720D01*
X140851841Y-50281952D01*
X140840934Y-50272066D01*
X140831048Y-50261159D01*
X140822280Y-50249336D01*
X140814712Y-50236710D01*
X140808418Y-50223403D01*
X140803459Y-50209543D01*
X140799882Y-50195264D01*
X140797722Y-50180703D01*
X140797000Y-50166000D01*
X140797000Y-48516000D01*
X140797722Y-48501297D01*
X140799882Y-48486736D01*
X140803459Y-48472457D01*
X140808418Y-48458597D01*
X140814712Y-48445290D01*
X140822280Y-48432664D01*
X140831048Y-48420841D01*
X140840934Y-48409934D01*
X140851841Y-48400048D01*
X140863664Y-48391280D01*
X140876290Y-48383712D01*
X140889597Y-48377418D01*
X140903457Y-48372459D01*
X140917736Y-48368882D01*
X140932297Y-48366722D01*
X140947000Y-48366000D01*
X141247000Y-48366000D01*
X141261703Y-48366722D01*
G37*
G04 #@! TD.AperFunction*
G04 #@! TA.AperFunction,SMDPad,CuDef*
G36*
X142531703Y-48366722D02*
G01*
X142546264Y-48368882D01*
X142560543Y-48372459D01*
X142574403Y-48377418D01*
X142587710Y-48383712D01*
X142600336Y-48391280D01*
X142612159Y-48400048D01*
X142623066Y-48409934D01*
X142632952Y-48420841D01*
X142641720Y-48432664D01*
X142649288Y-48445290D01*
X142655582Y-48458597D01*
X142660541Y-48472457D01*
X142664118Y-48486736D01*
X142666278Y-48501297D01*
X142667000Y-48516000D01*
X142667000Y-50166000D01*
X142666278Y-50180703D01*
X142664118Y-50195264D01*
X142660541Y-50209543D01*
X142655582Y-50223403D01*
X142649288Y-50236710D01*
X142641720Y-50249336D01*
X142632952Y-50261159D01*
X142623066Y-50272066D01*
X142612159Y-50281952D01*
X142600336Y-50290720D01*
X142587710Y-50298288D01*
X142574403Y-50304582D01*
X142560543Y-50309541D01*
X142546264Y-50313118D01*
X142531703Y-50315278D01*
X142517000Y-50316000D01*
X142217000Y-50316000D01*
X142202297Y-50315278D01*
X142187736Y-50313118D01*
X142173457Y-50309541D01*
X142159597Y-50304582D01*
X142146290Y-50298288D01*
X142133664Y-50290720D01*
X142121841Y-50281952D01*
X142110934Y-50272066D01*
X142101048Y-50261159D01*
X142092280Y-50249336D01*
X142084712Y-50236710D01*
X142078418Y-50223403D01*
X142073459Y-50209543D01*
X142069882Y-50195264D01*
X142067722Y-50180703D01*
X142067000Y-50166000D01*
X142067000Y-48516000D01*
X142067722Y-48501297D01*
X142069882Y-48486736D01*
X142073459Y-48472457D01*
X142078418Y-48458597D01*
X142084712Y-48445290D01*
X142092280Y-48432664D01*
X142101048Y-48420841D01*
X142110934Y-48409934D01*
X142121841Y-48400048D01*
X142133664Y-48391280D01*
X142146290Y-48383712D01*
X142159597Y-48377418D01*
X142173457Y-48372459D01*
X142187736Y-48368882D01*
X142202297Y-48366722D01*
X142217000Y-48366000D01*
X142517000Y-48366000D01*
X142531703Y-48366722D01*
G37*
G04 #@! TD.AperFunction*
G04 #@! TA.AperFunction,SMDPad,CuDef*
G36*
X143801703Y-48366722D02*
G01*
X143816264Y-48368882D01*
X143830543Y-48372459D01*
X143844403Y-48377418D01*
X143857710Y-48383712D01*
X143870336Y-48391280D01*
X143882159Y-48400048D01*
X143893066Y-48409934D01*
X143902952Y-48420841D01*
X143911720Y-48432664D01*
X143919288Y-48445290D01*
X143925582Y-48458597D01*
X143930541Y-48472457D01*
X143934118Y-48486736D01*
X143936278Y-48501297D01*
X143937000Y-48516000D01*
X143937000Y-50166000D01*
X143936278Y-50180703D01*
X143934118Y-50195264D01*
X143930541Y-50209543D01*
X143925582Y-50223403D01*
X143919288Y-50236710D01*
X143911720Y-50249336D01*
X143902952Y-50261159D01*
X143893066Y-50272066D01*
X143882159Y-50281952D01*
X143870336Y-50290720D01*
X143857710Y-50298288D01*
X143844403Y-50304582D01*
X143830543Y-50309541D01*
X143816264Y-50313118D01*
X143801703Y-50315278D01*
X143787000Y-50316000D01*
X143487000Y-50316000D01*
X143472297Y-50315278D01*
X143457736Y-50313118D01*
X143443457Y-50309541D01*
X143429597Y-50304582D01*
X143416290Y-50298288D01*
X143403664Y-50290720D01*
X143391841Y-50281952D01*
X143380934Y-50272066D01*
X143371048Y-50261159D01*
X143362280Y-50249336D01*
X143354712Y-50236710D01*
X143348418Y-50223403D01*
X143343459Y-50209543D01*
X143339882Y-50195264D01*
X143337722Y-50180703D01*
X143337000Y-50166000D01*
X143337000Y-48516000D01*
X143337722Y-48501297D01*
X143339882Y-48486736D01*
X143343459Y-48472457D01*
X143348418Y-48458597D01*
X143354712Y-48445290D01*
X143362280Y-48432664D01*
X143371048Y-48420841D01*
X143380934Y-48409934D01*
X143391841Y-48400048D01*
X143403664Y-48391280D01*
X143416290Y-48383712D01*
X143429597Y-48377418D01*
X143443457Y-48372459D01*
X143457736Y-48368882D01*
X143472297Y-48366722D01*
X143487000Y-48366000D01*
X143787000Y-48366000D01*
X143801703Y-48366722D01*
G37*
G04 #@! TD.AperFunction*
G04 #@! TA.AperFunction,SMDPad,CuDef*
G36*
X145071703Y-48366722D02*
G01*
X145086264Y-48368882D01*
X145100543Y-48372459D01*
X145114403Y-48377418D01*
X145127710Y-48383712D01*
X145140336Y-48391280D01*
X145152159Y-48400048D01*
X145163066Y-48409934D01*
X145172952Y-48420841D01*
X145181720Y-48432664D01*
X145189288Y-48445290D01*
X145195582Y-48458597D01*
X145200541Y-48472457D01*
X145204118Y-48486736D01*
X145206278Y-48501297D01*
X145207000Y-48516000D01*
X145207000Y-50166000D01*
X145206278Y-50180703D01*
X145204118Y-50195264D01*
X145200541Y-50209543D01*
X145195582Y-50223403D01*
X145189288Y-50236710D01*
X145181720Y-50249336D01*
X145172952Y-50261159D01*
X145163066Y-50272066D01*
X145152159Y-50281952D01*
X145140336Y-50290720D01*
X145127710Y-50298288D01*
X145114403Y-50304582D01*
X145100543Y-50309541D01*
X145086264Y-50313118D01*
X145071703Y-50315278D01*
X145057000Y-50316000D01*
X144757000Y-50316000D01*
X144742297Y-50315278D01*
X144727736Y-50313118D01*
X144713457Y-50309541D01*
X144699597Y-50304582D01*
X144686290Y-50298288D01*
X144673664Y-50290720D01*
X144661841Y-50281952D01*
X144650934Y-50272066D01*
X144641048Y-50261159D01*
X144632280Y-50249336D01*
X144624712Y-50236710D01*
X144618418Y-50223403D01*
X144613459Y-50209543D01*
X144609882Y-50195264D01*
X144607722Y-50180703D01*
X144607000Y-50166000D01*
X144607000Y-48516000D01*
X144607722Y-48501297D01*
X144609882Y-48486736D01*
X144613459Y-48472457D01*
X144618418Y-48458597D01*
X144624712Y-48445290D01*
X144632280Y-48432664D01*
X144641048Y-48420841D01*
X144650934Y-48409934D01*
X144661841Y-48400048D01*
X144673664Y-48391280D01*
X144686290Y-48383712D01*
X144699597Y-48377418D01*
X144713457Y-48372459D01*
X144727736Y-48368882D01*
X144742297Y-48366722D01*
X144757000Y-48366000D01*
X145057000Y-48366000D01*
X145071703Y-48366722D01*
G37*
G04 #@! TD.AperFunction*
G04 #@! TA.AperFunction,SMDPad,CuDef*
G36*
X145071703Y-53316722D02*
G01*
X145086264Y-53318882D01*
X145100543Y-53322459D01*
X145114403Y-53327418D01*
X145127710Y-53333712D01*
X145140336Y-53341280D01*
X145152159Y-53350048D01*
X145163066Y-53359934D01*
X145172952Y-53370841D01*
X145181720Y-53382664D01*
X145189288Y-53395290D01*
X145195582Y-53408597D01*
X145200541Y-53422457D01*
X145204118Y-53436736D01*
X145206278Y-53451297D01*
X145207000Y-53466000D01*
X145207000Y-55116000D01*
X145206278Y-55130703D01*
X145204118Y-55145264D01*
X145200541Y-55159543D01*
X145195582Y-55173403D01*
X145189288Y-55186710D01*
X145181720Y-55199336D01*
X145172952Y-55211159D01*
X145163066Y-55222066D01*
X145152159Y-55231952D01*
X145140336Y-55240720D01*
X145127710Y-55248288D01*
X145114403Y-55254582D01*
X145100543Y-55259541D01*
X145086264Y-55263118D01*
X145071703Y-55265278D01*
X145057000Y-55266000D01*
X144757000Y-55266000D01*
X144742297Y-55265278D01*
X144727736Y-55263118D01*
X144713457Y-55259541D01*
X144699597Y-55254582D01*
X144686290Y-55248288D01*
X144673664Y-55240720D01*
X144661841Y-55231952D01*
X144650934Y-55222066D01*
X144641048Y-55211159D01*
X144632280Y-55199336D01*
X144624712Y-55186710D01*
X144618418Y-55173403D01*
X144613459Y-55159543D01*
X144609882Y-55145264D01*
X144607722Y-55130703D01*
X144607000Y-55116000D01*
X144607000Y-53466000D01*
X144607722Y-53451297D01*
X144609882Y-53436736D01*
X144613459Y-53422457D01*
X144618418Y-53408597D01*
X144624712Y-53395290D01*
X144632280Y-53382664D01*
X144641048Y-53370841D01*
X144650934Y-53359934D01*
X144661841Y-53350048D01*
X144673664Y-53341280D01*
X144686290Y-53333712D01*
X144699597Y-53327418D01*
X144713457Y-53322459D01*
X144727736Y-53318882D01*
X144742297Y-53316722D01*
X144757000Y-53316000D01*
X145057000Y-53316000D01*
X145071703Y-53316722D01*
G37*
G04 #@! TD.AperFunction*
G04 #@! TA.AperFunction,SMDPad,CuDef*
G36*
X143801703Y-53316722D02*
G01*
X143816264Y-53318882D01*
X143830543Y-53322459D01*
X143844403Y-53327418D01*
X143857710Y-53333712D01*
X143870336Y-53341280D01*
X143882159Y-53350048D01*
X143893066Y-53359934D01*
X143902952Y-53370841D01*
X143911720Y-53382664D01*
X143919288Y-53395290D01*
X143925582Y-53408597D01*
X143930541Y-53422457D01*
X143934118Y-53436736D01*
X143936278Y-53451297D01*
X143937000Y-53466000D01*
X143937000Y-55116000D01*
X143936278Y-55130703D01*
X143934118Y-55145264D01*
X143930541Y-55159543D01*
X143925582Y-55173403D01*
X143919288Y-55186710D01*
X143911720Y-55199336D01*
X143902952Y-55211159D01*
X143893066Y-55222066D01*
X143882159Y-55231952D01*
X143870336Y-55240720D01*
X143857710Y-55248288D01*
X143844403Y-55254582D01*
X143830543Y-55259541D01*
X143816264Y-55263118D01*
X143801703Y-55265278D01*
X143787000Y-55266000D01*
X143487000Y-55266000D01*
X143472297Y-55265278D01*
X143457736Y-55263118D01*
X143443457Y-55259541D01*
X143429597Y-55254582D01*
X143416290Y-55248288D01*
X143403664Y-55240720D01*
X143391841Y-55231952D01*
X143380934Y-55222066D01*
X143371048Y-55211159D01*
X143362280Y-55199336D01*
X143354712Y-55186710D01*
X143348418Y-55173403D01*
X143343459Y-55159543D01*
X143339882Y-55145264D01*
X143337722Y-55130703D01*
X143337000Y-55116000D01*
X143337000Y-53466000D01*
X143337722Y-53451297D01*
X143339882Y-53436736D01*
X143343459Y-53422457D01*
X143348418Y-53408597D01*
X143354712Y-53395290D01*
X143362280Y-53382664D01*
X143371048Y-53370841D01*
X143380934Y-53359934D01*
X143391841Y-53350048D01*
X143403664Y-53341280D01*
X143416290Y-53333712D01*
X143429597Y-53327418D01*
X143443457Y-53322459D01*
X143457736Y-53318882D01*
X143472297Y-53316722D01*
X143487000Y-53316000D01*
X143787000Y-53316000D01*
X143801703Y-53316722D01*
G37*
G04 #@! TD.AperFunction*
G04 #@! TA.AperFunction,SMDPad,CuDef*
G36*
X142531703Y-53316722D02*
G01*
X142546264Y-53318882D01*
X142560543Y-53322459D01*
X142574403Y-53327418D01*
X142587710Y-53333712D01*
X142600336Y-53341280D01*
X142612159Y-53350048D01*
X142623066Y-53359934D01*
X142632952Y-53370841D01*
X142641720Y-53382664D01*
X142649288Y-53395290D01*
X142655582Y-53408597D01*
X142660541Y-53422457D01*
X142664118Y-53436736D01*
X142666278Y-53451297D01*
X142667000Y-53466000D01*
X142667000Y-55116000D01*
X142666278Y-55130703D01*
X142664118Y-55145264D01*
X142660541Y-55159543D01*
X142655582Y-55173403D01*
X142649288Y-55186710D01*
X142641720Y-55199336D01*
X142632952Y-55211159D01*
X142623066Y-55222066D01*
X142612159Y-55231952D01*
X142600336Y-55240720D01*
X142587710Y-55248288D01*
X142574403Y-55254582D01*
X142560543Y-55259541D01*
X142546264Y-55263118D01*
X142531703Y-55265278D01*
X142517000Y-55266000D01*
X142217000Y-55266000D01*
X142202297Y-55265278D01*
X142187736Y-55263118D01*
X142173457Y-55259541D01*
X142159597Y-55254582D01*
X142146290Y-55248288D01*
X142133664Y-55240720D01*
X142121841Y-55231952D01*
X142110934Y-55222066D01*
X142101048Y-55211159D01*
X142092280Y-55199336D01*
X142084712Y-55186710D01*
X142078418Y-55173403D01*
X142073459Y-55159543D01*
X142069882Y-55145264D01*
X142067722Y-55130703D01*
X142067000Y-55116000D01*
X142067000Y-53466000D01*
X142067722Y-53451297D01*
X142069882Y-53436736D01*
X142073459Y-53422457D01*
X142078418Y-53408597D01*
X142084712Y-53395290D01*
X142092280Y-53382664D01*
X142101048Y-53370841D01*
X142110934Y-53359934D01*
X142121841Y-53350048D01*
X142133664Y-53341280D01*
X142146290Y-53333712D01*
X142159597Y-53327418D01*
X142173457Y-53322459D01*
X142187736Y-53318882D01*
X142202297Y-53316722D01*
X142217000Y-53316000D01*
X142517000Y-53316000D01*
X142531703Y-53316722D01*
G37*
G04 #@! TD.AperFunction*
G04 #@! TA.AperFunction,SMDPad,CuDef*
G36*
X141261703Y-53316722D02*
G01*
X141276264Y-53318882D01*
X141290543Y-53322459D01*
X141304403Y-53327418D01*
X141317710Y-53333712D01*
X141330336Y-53341280D01*
X141342159Y-53350048D01*
X141353066Y-53359934D01*
X141362952Y-53370841D01*
X141371720Y-53382664D01*
X141379288Y-53395290D01*
X141385582Y-53408597D01*
X141390541Y-53422457D01*
X141394118Y-53436736D01*
X141396278Y-53451297D01*
X141397000Y-53466000D01*
X141397000Y-55116000D01*
X141396278Y-55130703D01*
X141394118Y-55145264D01*
X141390541Y-55159543D01*
X141385582Y-55173403D01*
X141379288Y-55186710D01*
X141371720Y-55199336D01*
X141362952Y-55211159D01*
X141353066Y-55222066D01*
X141342159Y-55231952D01*
X141330336Y-55240720D01*
X141317710Y-55248288D01*
X141304403Y-55254582D01*
X141290543Y-55259541D01*
X141276264Y-55263118D01*
X141261703Y-55265278D01*
X141247000Y-55266000D01*
X140947000Y-55266000D01*
X140932297Y-55265278D01*
X140917736Y-55263118D01*
X140903457Y-55259541D01*
X140889597Y-55254582D01*
X140876290Y-55248288D01*
X140863664Y-55240720D01*
X140851841Y-55231952D01*
X140840934Y-55222066D01*
X140831048Y-55211159D01*
X140822280Y-55199336D01*
X140814712Y-55186710D01*
X140808418Y-55173403D01*
X140803459Y-55159543D01*
X140799882Y-55145264D01*
X140797722Y-55130703D01*
X140797000Y-55116000D01*
X140797000Y-53466000D01*
X140797722Y-53451297D01*
X140799882Y-53436736D01*
X140803459Y-53422457D01*
X140808418Y-53408597D01*
X140814712Y-53395290D01*
X140822280Y-53382664D01*
X140831048Y-53370841D01*
X140840934Y-53359934D01*
X140851841Y-53350048D01*
X140863664Y-53341280D01*
X140876290Y-53333712D01*
X140889597Y-53327418D01*
X140903457Y-53322459D01*
X140917736Y-53318882D01*
X140932297Y-53316722D01*
X140947000Y-53316000D01*
X141247000Y-53316000D01*
X141261703Y-53316722D01*
G37*
G04 #@! TD.AperFunction*
D20*
X147599400Y-124155200D03*
X147599400Y-117652800D03*
X152120600Y-124155200D03*
X152120600Y-117652800D03*
X152120600Y-103598132D03*
X152120600Y-110100532D03*
X147599400Y-103598132D03*
X147599400Y-110100532D03*
X147599400Y-96045866D03*
X147599400Y-89543466D03*
X152120600Y-96045866D03*
X152120600Y-89543466D03*
X152120600Y-75488800D03*
X152120600Y-81991200D03*
X147599400Y-75488800D03*
X147599400Y-81991200D03*
X73888600Y-117906800D03*
X73888600Y-124409200D03*
X69367400Y-117906800D03*
X69367400Y-124409200D03*
X69367400Y-110354532D03*
X69367400Y-103852132D03*
X73888600Y-110354532D03*
X73888600Y-103852132D03*
X69367400Y-96299866D03*
X69367400Y-89797466D03*
X73888600Y-96299866D03*
X73888600Y-89797466D03*
X73888600Y-75742800D03*
X73888600Y-82245200D03*
X69367400Y-75742800D03*
X69367400Y-82245200D03*
G04 #@! TA.AperFunction,SMDPad,CuDef*
D14*
G36*
X121384142Y-122274174D02*
G01*
X121407803Y-122277684D01*
X121431007Y-122283496D01*
X121453529Y-122291554D01*
X121475153Y-122301782D01*
X121495670Y-122314079D01*
X121514883Y-122328329D01*
X121532607Y-122344393D01*
X121548671Y-122362117D01*
X121562921Y-122381330D01*
X121575218Y-122401847D01*
X121585446Y-122423471D01*
X121593504Y-122445993D01*
X121599316Y-122469197D01*
X121602826Y-122492858D01*
X121604000Y-122516750D01*
X121604000Y-123004250D01*
X121602826Y-123028142D01*
X121599316Y-123051803D01*
X121593504Y-123075007D01*
X121585446Y-123097529D01*
X121575218Y-123119153D01*
X121562921Y-123139670D01*
X121548671Y-123158883D01*
X121532607Y-123176607D01*
X121514883Y-123192671D01*
X121495670Y-123206921D01*
X121475153Y-123219218D01*
X121453529Y-123229446D01*
X121431007Y-123237504D01*
X121407803Y-123243316D01*
X121384142Y-123246826D01*
X121360250Y-123248000D01*
X120447750Y-123248000D01*
X120423858Y-123246826D01*
X120400197Y-123243316D01*
X120376993Y-123237504D01*
X120354471Y-123229446D01*
X120332847Y-123219218D01*
X120312330Y-123206921D01*
X120293117Y-123192671D01*
X120275393Y-123176607D01*
X120259329Y-123158883D01*
X120245079Y-123139670D01*
X120232782Y-123119153D01*
X120222554Y-123097529D01*
X120214496Y-123075007D01*
X120208684Y-123051803D01*
X120205174Y-123028142D01*
X120204000Y-123004250D01*
X120204000Y-122516750D01*
X120205174Y-122492858D01*
X120208684Y-122469197D01*
X120214496Y-122445993D01*
X120222554Y-122423471D01*
X120232782Y-122401847D01*
X120245079Y-122381330D01*
X120259329Y-122362117D01*
X120275393Y-122344393D01*
X120293117Y-122328329D01*
X120312330Y-122314079D01*
X120332847Y-122301782D01*
X120354471Y-122291554D01*
X120376993Y-122283496D01*
X120400197Y-122277684D01*
X120423858Y-122274174D01*
X120447750Y-122273000D01*
X121360250Y-122273000D01*
X121384142Y-122274174D01*
G37*
G04 #@! TD.AperFunction*
G04 #@! TA.AperFunction,SMDPad,CuDef*
G36*
X121384142Y-124149174D02*
G01*
X121407803Y-124152684D01*
X121431007Y-124158496D01*
X121453529Y-124166554D01*
X121475153Y-124176782D01*
X121495670Y-124189079D01*
X121514883Y-124203329D01*
X121532607Y-124219393D01*
X121548671Y-124237117D01*
X121562921Y-124256330D01*
X121575218Y-124276847D01*
X121585446Y-124298471D01*
X121593504Y-124320993D01*
X121599316Y-124344197D01*
X121602826Y-124367858D01*
X121604000Y-124391750D01*
X121604000Y-124879250D01*
X121602826Y-124903142D01*
X121599316Y-124926803D01*
X121593504Y-124950007D01*
X121585446Y-124972529D01*
X121575218Y-124994153D01*
X121562921Y-125014670D01*
X121548671Y-125033883D01*
X121532607Y-125051607D01*
X121514883Y-125067671D01*
X121495670Y-125081921D01*
X121475153Y-125094218D01*
X121453529Y-125104446D01*
X121431007Y-125112504D01*
X121407803Y-125118316D01*
X121384142Y-125121826D01*
X121360250Y-125123000D01*
X120447750Y-125123000D01*
X120423858Y-125121826D01*
X120400197Y-125118316D01*
X120376993Y-125112504D01*
X120354471Y-125104446D01*
X120332847Y-125094218D01*
X120312330Y-125081921D01*
X120293117Y-125067671D01*
X120275393Y-125051607D01*
X120259329Y-125033883D01*
X120245079Y-125014670D01*
X120232782Y-124994153D01*
X120222554Y-124972529D01*
X120214496Y-124950007D01*
X120208684Y-124926803D01*
X120205174Y-124903142D01*
X120204000Y-124879250D01*
X120204000Y-124391750D01*
X120205174Y-124367858D01*
X120208684Y-124344197D01*
X120214496Y-124320993D01*
X120222554Y-124298471D01*
X120232782Y-124276847D01*
X120245079Y-124256330D01*
X120259329Y-124237117D01*
X120275393Y-124219393D01*
X120293117Y-124203329D01*
X120312330Y-124189079D01*
X120332847Y-124176782D01*
X120354471Y-124166554D01*
X120376993Y-124158496D01*
X120400197Y-124152684D01*
X120423858Y-124149174D01*
X120447750Y-124148000D01*
X121360250Y-124148000D01*
X121384142Y-124149174D01*
G37*
G04 #@! TD.AperFunction*
G04 #@! TA.AperFunction,SMDPad,CuDef*
G36*
X109954142Y-122274174D02*
G01*
X109977803Y-122277684D01*
X110001007Y-122283496D01*
X110023529Y-122291554D01*
X110045153Y-122301782D01*
X110065670Y-122314079D01*
X110084883Y-122328329D01*
X110102607Y-122344393D01*
X110118671Y-122362117D01*
X110132921Y-122381330D01*
X110145218Y-122401847D01*
X110155446Y-122423471D01*
X110163504Y-122445993D01*
X110169316Y-122469197D01*
X110172826Y-122492858D01*
X110174000Y-122516750D01*
X110174000Y-123004250D01*
X110172826Y-123028142D01*
X110169316Y-123051803D01*
X110163504Y-123075007D01*
X110155446Y-123097529D01*
X110145218Y-123119153D01*
X110132921Y-123139670D01*
X110118671Y-123158883D01*
X110102607Y-123176607D01*
X110084883Y-123192671D01*
X110065670Y-123206921D01*
X110045153Y-123219218D01*
X110023529Y-123229446D01*
X110001007Y-123237504D01*
X109977803Y-123243316D01*
X109954142Y-123246826D01*
X109930250Y-123248000D01*
X109017750Y-123248000D01*
X108993858Y-123246826D01*
X108970197Y-123243316D01*
X108946993Y-123237504D01*
X108924471Y-123229446D01*
X108902847Y-123219218D01*
X108882330Y-123206921D01*
X108863117Y-123192671D01*
X108845393Y-123176607D01*
X108829329Y-123158883D01*
X108815079Y-123139670D01*
X108802782Y-123119153D01*
X108792554Y-123097529D01*
X108784496Y-123075007D01*
X108778684Y-123051803D01*
X108775174Y-123028142D01*
X108774000Y-123004250D01*
X108774000Y-122516750D01*
X108775174Y-122492858D01*
X108778684Y-122469197D01*
X108784496Y-122445993D01*
X108792554Y-122423471D01*
X108802782Y-122401847D01*
X108815079Y-122381330D01*
X108829329Y-122362117D01*
X108845393Y-122344393D01*
X108863117Y-122328329D01*
X108882330Y-122314079D01*
X108902847Y-122301782D01*
X108924471Y-122291554D01*
X108946993Y-122283496D01*
X108970197Y-122277684D01*
X108993858Y-122274174D01*
X109017750Y-122273000D01*
X109930250Y-122273000D01*
X109954142Y-122274174D01*
G37*
G04 #@! TD.AperFunction*
G04 #@! TA.AperFunction,SMDPad,CuDef*
G36*
X109954142Y-124149174D02*
G01*
X109977803Y-124152684D01*
X110001007Y-124158496D01*
X110023529Y-124166554D01*
X110045153Y-124176782D01*
X110065670Y-124189079D01*
X110084883Y-124203329D01*
X110102607Y-124219393D01*
X110118671Y-124237117D01*
X110132921Y-124256330D01*
X110145218Y-124276847D01*
X110155446Y-124298471D01*
X110163504Y-124320993D01*
X110169316Y-124344197D01*
X110172826Y-124367858D01*
X110174000Y-124391750D01*
X110174000Y-124879250D01*
X110172826Y-124903142D01*
X110169316Y-124926803D01*
X110163504Y-124950007D01*
X110155446Y-124972529D01*
X110145218Y-124994153D01*
X110132921Y-125014670D01*
X110118671Y-125033883D01*
X110102607Y-125051607D01*
X110084883Y-125067671D01*
X110065670Y-125081921D01*
X110045153Y-125094218D01*
X110023529Y-125104446D01*
X110001007Y-125112504D01*
X109977803Y-125118316D01*
X109954142Y-125121826D01*
X109930250Y-125123000D01*
X109017750Y-125123000D01*
X108993858Y-125121826D01*
X108970197Y-125118316D01*
X108946993Y-125112504D01*
X108924471Y-125104446D01*
X108902847Y-125094218D01*
X108882330Y-125081921D01*
X108863117Y-125067671D01*
X108845393Y-125051607D01*
X108829329Y-125033883D01*
X108815079Y-125014670D01*
X108802782Y-124994153D01*
X108792554Y-124972529D01*
X108784496Y-124950007D01*
X108778684Y-124926803D01*
X108775174Y-124903142D01*
X108774000Y-124879250D01*
X108774000Y-124391750D01*
X108775174Y-124367858D01*
X108778684Y-124344197D01*
X108784496Y-124320993D01*
X108792554Y-124298471D01*
X108802782Y-124276847D01*
X108815079Y-124256330D01*
X108829329Y-124237117D01*
X108845393Y-124219393D01*
X108863117Y-124203329D01*
X108882330Y-124189079D01*
X108902847Y-124176782D01*
X108924471Y-124166554D01*
X108946993Y-124158496D01*
X108970197Y-124152684D01*
X108993858Y-124149174D01*
X109017750Y-124148000D01*
X109930250Y-124148000D01*
X109954142Y-124149174D01*
G37*
G04 #@! TD.AperFunction*
G04 #@! TA.AperFunction,SMDPad,CuDef*
G36*
X98778142Y-122274174D02*
G01*
X98801803Y-122277684D01*
X98825007Y-122283496D01*
X98847529Y-122291554D01*
X98869153Y-122301782D01*
X98889670Y-122314079D01*
X98908883Y-122328329D01*
X98926607Y-122344393D01*
X98942671Y-122362117D01*
X98956921Y-122381330D01*
X98969218Y-122401847D01*
X98979446Y-122423471D01*
X98987504Y-122445993D01*
X98993316Y-122469197D01*
X98996826Y-122492858D01*
X98998000Y-122516750D01*
X98998000Y-123004250D01*
X98996826Y-123028142D01*
X98993316Y-123051803D01*
X98987504Y-123075007D01*
X98979446Y-123097529D01*
X98969218Y-123119153D01*
X98956921Y-123139670D01*
X98942671Y-123158883D01*
X98926607Y-123176607D01*
X98908883Y-123192671D01*
X98889670Y-123206921D01*
X98869153Y-123219218D01*
X98847529Y-123229446D01*
X98825007Y-123237504D01*
X98801803Y-123243316D01*
X98778142Y-123246826D01*
X98754250Y-123248000D01*
X97841750Y-123248000D01*
X97817858Y-123246826D01*
X97794197Y-123243316D01*
X97770993Y-123237504D01*
X97748471Y-123229446D01*
X97726847Y-123219218D01*
X97706330Y-123206921D01*
X97687117Y-123192671D01*
X97669393Y-123176607D01*
X97653329Y-123158883D01*
X97639079Y-123139670D01*
X97626782Y-123119153D01*
X97616554Y-123097529D01*
X97608496Y-123075007D01*
X97602684Y-123051803D01*
X97599174Y-123028142D01*
X97598000Y-123004250D01*
X97598000Y-122516750D01*
X97599174Y-122492858D01*
X97602684Y-122469197D01*
X97608496Y-122445993D01*
X97616554Y-122423471D01*
X97626782Y-122401847D01*
X97639079Y-122381330D01*
X97653329Y-122362117D01*
X97669393Y-122344393D01*
X97687117Y-122328329D01*
X97706330Y-122314079D01*
X97726847Y-122301782D01*
X97748471Y-122291554D01*
X97770993Y-122283496D01*
X97794197Y-122277684D01*
X97817858Y-122274174D01*
X97841750Y-122273000D01*
X98754250Y-122273000D01*
X98778142Y-122274174D01*
G37*
G04 #@! TD.AperFunction*
G04 #@! TA.AperFunction,SMDPad,CuDef*
G36*
X98778142Y-124149174D02*
G01*
X98801803Y-124152684D01*
X98825007Y-124158496D01*
X98847529Y-124166554D01*
X98869153Y-124176782D01*
X98889670Y-124189079D01*
X98908883Y-124203329D01*
X98926607Y-124219393D01*
X98942671Y-124237117D01*
X98956921Y-124256330D01*
X98969218Y-124276847D01*
X98979446Y-124298471D01*
X98987504Y-124320993D01*
X98993316Y-124344197D01*
X98996826Y-124367858D01*
X98998000Y-124391750D01*
X98998000Y-124879250D01*
X98996826Y-124903142D01*
X98993316Y-124926803D01*
X98987504Y-124950007D01*
X98979446Y-124972529D01*
X98969218Y-124994153D01*
X98956921Y-125014670D01*
X98942671Y-125033883D01*
X98926607Y-125051607D01*
X98908883Y-125067671D01*
X98889670Y-125081921D01*
X98869153Y-125094218D01*
X98847529Y-125104446D01*
X98825007Y-125112504D01*
X98801803Y-125118316D01*
X98778142Y-125121826D01*
X98754250Y-125123000D01*
X97841750Y-125123000D01*
X97817858Y-125121826D01*
X97794197Y-125118316D01*
X97770993Y-125112504D01*
X97748471Y-125104446D01*
X97726847Y-125094218D01*
X97706330Y-125081921D01*
X97687117Y-125067671D01*
X97669393Y-125051607D01*
X97653329Y-125033883D01*
X97639079Y-125014670D01*
X97626782Y-124994153D01*
X97616554Y-124972529D01*
X97608496Y-124950007D01*
X97602684Y-124926803D01*
X97599174Y-124903142D01*
X97598000Y-124879250D01*
X97598000Y-124391750D01*
X97599174Y-124367858D01*
X97602684Y-124344197D01*
X97608496Y-124320993D01*
X97616554Y-124298471D01*
X97626782Y-124276847D01*
X97639079Y-124256330D01*
X97653329Y-124237117D01*
X97669393Y-124219393D01*
X97687117Y-124203329D01*
X97706330Y-124189079D01*
X97726847Y-124176782D01*
X97748471Y-124166554D01*
X97770993Y-124158496D01*
X97794197Y-124152684D01*
X97817858Y-124149174D01*
X97841750Y-124148000D01*
X98754250Y-124148000D01*
X98778142Y-124149174D01*
G37*
G04 #@! TD.AperFunction*
D12*
X73152000Y-55880000D03*
D13*
X74422000Y-53340000D03*
X75692000Y-55880000D03*
X76962000Y-53340000D03*
X78232000Y-55880000D03*
X79502000Y-53340000D03*
D21*
X63406000Y-59288000D03*
X63406000Y-53488000D03*
D22*
X63406000Y-52888000D03*
X63406000Y-59888000D03*
D23*
X63406000Y-57388000D03*
D24*
X60706000Y-53888000D03*
D25*
X60706000Y-56388000D03*
X60706000Y-55738000D03*
X60706000Y-55088000D03*
X60706000Y-57688000D03*
X60706000Y-57038000D03*
D24*
X60706000Y-58888000D03*
D23*
X63406000Y-55388000D03*
D26*
X62998000Y-96566000D03*
X37998000Y-96566000D03*
D27*
X54653000Y-99106000D03*
X51883000Y-99106000D03*
X49113000Y-99106000D03*
X46343000Y-99106000D03*
X56038000Y-96266000D03*
X53268000Y-96266000D03*
X50498000Y-96266000D03*
X47728000Y-96266000D03*
D28*
X44958000Y-96266000D03*
D26*
X37998000Y-46436000D03*
X62998000Y-46436000D03*
D27*
X54653000Y-43896000D03*
X51883000Y-43896000D03*
X49113000Y-43896000D03*
X46343000Y-43896000D03*
X56038000Y-46736000D03*
X53268000Y-46736000D03*
X50498000Y-46736000D03*
X47728000Y-46736000D03*
D28*
X44958000Y-46736000D03*
D20*
X123444000Y-131572000D03*
X120904000Y-131572000D03*
X112141000Y-131572000D03*
X109601000Y-131572000D03*
X100838000Y-131572000D03*
X98298000Y-131572000D03*
D29*
X75300840Y-65278000D03*
X77099160Y-65278000D03*
X88920320Y-68580000D03*
X87122000Y-68580000D03*
X75300840Y-59944000D03*
X77099160Y-59944000D03*
X84856320Y-68580000D03*
X83058000Y-68580000D03*
X80909160Y-68580000D03*
X79110840Y-68580000D03*
D30*
X73914000Y-63754000D03*
X86106000Y-56388000D03*
X147320000Y-51816000D03*
X88646000Y-70357996D03*
X83820000Y-57912000D03*
X85090000Y-58420000D03*
X93980000Y-60960036D03*
X95250000Y-59145010D03*
X139381000Y-49341000D03*
X77978000Y-61722000D03*
X90170022Y-49784000D03*
X111506007Y-66293993D03*
X122935990Y-64516000D03*
X111506000Y-64770000D03*
X122015840Y-75543159D03*
X107188000Y-64008000D03*
X120904002Y-64008000D03*
X101346000Y-62992000D03*
X57912000Y-55626000D03*
X56896000Y-57658000D03*
X52070000Y-57658000D03*
D31*
X75300840Y-56271160D02*
X75692000Y-55880000D01*
X75300840Y-59944000D02*
X75300840Y-56271160D01*
X75300840Y-65278000D02*
X75300840Y-64428560D01*
X74626280Y-63754000D02*
X73914000Y-63754000D01*
X75300840Y-64428560D02*
X74626280Y-63754000D01*
X88138000Y-56410000D02*
X86128000Y-56410000D01*
X86128000Y-56410000D02*
X86106000Y-56388000D01*
X144907000Y-54291000D02*
X143637000Y-54291000D01*
X143637000Y-54291000D02*
X142367000Y-54291000D01*
X142367000Y-54291000D02*
X141097000Y-54291000D01*
X142367000Y-54291000D02*
X142367000Y-51943000D01*
X147320000Y-51816000D02*
X142494000Y-51816000D01*
X142367000Y-51943000D02*
X142494000Y-51816000D01*
X142494000Y-51816000D02*
X142367000Y-49341000D01*
X88920320Y-70083676D02*
X88646000Y-70357996D01*
X88920320Y-68580000D02*
X88920320Y-70083676D01*
X79248000Y-57658000D02*
X77470000Y-57658000D01*
X80137000Y-59938920D02*
X80137000Y-58547000D01*
X77470000Y-57658000D02*
X75692000Y-55880000D01*
X80137000Y-58547000D02*
X79248000Y-57658000D01*
X107442000Y-71882000D02*
X107188000Y-71628000D01*
X107442000Y-77978000D02*
X107442000Y-71882000D01*
X108712000Y-77978000D02*
X107442000Y-77978000D01*
D32*
X98998000Y-122760500D02*
X109474000Y-122760500D01*
X98298000Y-122760500D02*
X98998000Y-122760500D01*
X110174000Y-122760500D02*
X120904000Y-122760500D01*
X109474000Y-122760500D02*
X110174000Y-122760500D01*
X143676001Y-42076001D02*
X144526000Y-42926000D01*
X94996000Y-40386000D02*
X141986000Y-40386000D01*
X141986000Y-40386000D02*
X143676001Y-42076001D01*
X88138000Y-52810000D02*
X88138000Y-47244000D01*
X88138000Y-47244000D02*
X94996000Y-40386000D01*
X87608000Y-53340000D02*
X79502000Y-53340000D01*
X88138000Y-52810000D02*
X87608000Y-53340000D01*
X117348000Y-74676000D02*
X117348000Y-71628000D01*
X136144000Y-93472000D02*
X117348000Y-74676000D01*
X120904000Y-122760500D02*
X136144000Y-107520500D01*
X136144000Y-107520500D02*
X136144000Y-93472000D01*
D31*
X117094000Y-74676000D02*
X117348000Y-74676000D01*
X113792000Y-77978000D02*
X117094000Y-74676000D01*
X80909160Y-68580000D02*
X80909160Y-67730560D01*
X81407000Y-67232720D02*
X81407000Y-65537080D01*
X80909160Y-67730560D02*
X81407000Y-67232720D01*
X79110840Y-65780920D02*
X78867000Y-65537080D01*
X79110840Y-68580000D02*
X79110840Y-65780920D01*
X84856320Y-67295840D02*
X84856320Y-68580000D01*
X83947000Y-65537080D02*
X83947000Y-66386520D01*
X83947000Y-66386520D02*
X84856320Y-67295840D01*
X82677000Y-68199000D02*
X83058000Y-68580000D01*
X82677000Y-65537080D02*
X82677000Y-68199000D01*
X87122000Y-68379340D02*
X87122000Y-68580000D01*
X86473220Y-67730560D02*
X87122000Y-68379340D01*
X86272560Y-67730560D02*
X86473220Y-67730560D01*
X85217000Y-66675000D02*
X86272560Y-67730560D01*
X85217000Y-65537080D02*
X85217000Y-66675000D01*
X80137000Y-64687640D02*
X79203360Y-63754000D01*
X80137000Y-65537080D02*
X80137000Y-64687640D01*
X77773720Y-63754000D02*
X77099160Y-64428560D01*
X77099160Y-64428560D02*
X77099160Y-65278000D01*
X79203360Y-63754000D02*
X77773720Y-63754000D01*
X51883000Y-76004590D02*
X51883000Y-97974630D01*
X51883000Y-48073000D02*
X54102000Y-50292000D01*
X51883000Y-97974630D02*
X51883000Y-99106000D01*
X54102000Y-50292000D02*
X54102000Y-73785590D01*
X51883000Y-43896000D02*
X51883000Y-48073000D01*
X54102000Y-73785590D02*
X51883000Y-76004590D01*
X48778815Y-43896000D02*
X49113000Y-43896000D01*
X46482000Y-96774000D02*
X46482000Y-46192815D01*
X46482000Y-46192815D02*
X48778815Y-43896000D01*
X49113000Y-99106000D02*
X48814000Y-99106000D01*
X48814000Y-99106000D02*
X46482000Y-96774000D01*
X53268000Y-96266000D02*
X53268000Y-75256000D01*
X54912999Y-73611001D02*
X54912999Y-49989001D01*
X53268000Y-75256000D02*
X54912999Y-73611001D01*
X53268000Y-48344002D02*
X53268000Y-46736000D01*
X54912999Y-49989001D02*
X53268000Y-48344002D01*
X53340000Y-68072000D02*
X52067999Y-69344001D01*
X53340000Y-50709370D02*
X53340000Y-68072000D01*
X52067999Y-69344001D02*
X51308000Y-70104000D01*
X50498000Y-46736000D02*
X50498000Y-47867370D01*
X50498000Y-47867370D02*
X53340000Y-50709370D01*
X48527999Y-47535999D02*
X47728000Y-46736000D01*
X49726011Y-48734011D02*
X48527999Y-47535999D01*
X48768000Y-68834000D02*
X49726011Y-67875989D01*
X49726011Y-67875989D02*
X49726011Y-48734011D01*
X50498000Y-73454000D02*
X51308000Y-72644000D01*
X50498000Y-96266000D02*
X50498000Y-73454000D01*
X47728000Y-74954000D02*
X47728000Y-96266000D01*
X48768000Y-73914000D02*
X47728000Y-74954000D01*
X72142000Y-55880000D02*
X73152000Y-55880000D01*
X71628000Y-56394000D02*
X72142000Y-55880000D01*
X71628000Y-60452000D02*
X71628000Y-56394000D01*
X72898000Y-61722000D02*
X71628000Y-60452000D01*
X77629998Y-62447002D02*
X76904996Y-61722000D01*
X87757000Y-65537080D02*
X87757000Y-64135000D01*
X76904996Y-61722000D02*
X72898000Y-61722000D01*
X87757000Y-64135000D02*
X85344000Y-61722000D01*
X79051004Y-61722000D02*
X78326002Y-62447002D01*
X85344000Y-61722000D02*
X79051004Y-61722000D01*
X78326002Y-62447002D02*
X77629998Y-62447002D01*
X86487000Y-65537080D02*
X86487000Y-64135000D01*
X71882000Y-62484000D02*
X70866000Y-61468000D01*
X70866000Y-61468000D02*
X70866000Y-55821198D01*
X86487000Y-64135000D02*
X84836000Y-62484000D01*
X73347198Y-53340000D02*
X74422000Y-53340000D01*
X78512402Y-62897013D02*
X77443598Y-62897013D01*
X70866000Y-55821198D02*
X73347198Y-53340000D01*
X77030585Y-62484000D02*
X71882000Y-62484000D01*
X77443598Y-62897013D02*
X77030585Y-62484000D01*
X84836000Y-62484000D02*
X78925415Y-62484000D01*
X78925415Y-62484000D02*
X78512402Y-62897013D01*
X77896198Y-53340000D02*
X76962000Y-53340000D01*
X82677000Y-59938920D02*
X82677000Y-58120802D01*
X82677000Y-58120802D02*
X77896198Y-53340000D01*
X81407000Y-57785000D02*
X81407000Y-59938920D01*
X78232000Y-55880000D02*
X79502000Y-55880000D01*
X79502000Y-55880000D02*
X81407000Y-57785000D01*
X83820000Y-59811920D02*
X83947000Y-59938920D01*
X83820000Y-57912000D02*
X83820000Y-59811920D01*
X85090000Y-59811920D02*
X85217000Y-59938920D01*
X85090000Y-58420000D02*
X85090000Y-59811920D01*
X93414315Y-60960036D02*
X93980000Y-60960036D01*
X86487000Y-59938920D02*
X86487000Y-60788360D01*
X86487000Y-60788360D02*
X86658676Y-60960036D01*
X86658676Y-60960036D02*
X93414315Y-60960036D01*
X94684315Y-59145010D02*
X95250000Y-59145010D01*
X93959986Y-59145010D02*
X94684315Y-59145010D01*
X87757000Y-59938920D02*
X93166076Y-59938920D01*
X93166076Y-59938920D02*
X93959986Y-59145010D01*
D32*
X78861920Y-59944000D02*
X78867000Y-59938920D01*
X135271500Y-49341000D02*
X134366000Y-48435500D01*
X141097000Y-49341000D02*
X135271500Y-49341000D01*
X129286000Y-52070000D02*
X129286000Y-48357000D01*
X129794000Y-52578000D02*
X129286000Y-52070000D01*
X134366000Y-48435500D02*
X134366000Y-51562000D01*
X133350000Y-52578000D02*
X131826000Y-52578000D01*
X134366000Y-51562000D02*
X133350000Y-52578000D01*
X127762000Y-54864000D02*
X130048000Y-52578000D01*
X121666000Y-54864000D02*
X127762000Y-54864000D01*
X131826000Y-52578000D02*
X130048000Y-52578000D01*
X130048000Y-52578000D02*
X129794000Y-52578000D01*
X106426000Y-54864000D02*
X106426000Y-51054000D01*
X108966000Y-51054000D02*
X106426000Y-51054000D01*
X106426000Y-51054000D02*
X103886000Y-51054000D01*
X111506000Y-54864000D02*
X111506000Y-51054000D01*
X114046000Y-51054000D02*
X111506000Y-51054000D01*
X111506000Y-51054000D02*
X108966000Y-51054000D01*
X116586000Y-54864000D02*
X116586000Y-51054000D01*
X119126000Y-51054000D02*
X116586000Y-51054000D01*
X116586000Y-51054000D02*
X114046000Y-51054000D01*
X120650000Y-51054000D02*
X119126000Y-51054000D01*
X121666000Y-54864000D02*
X121666000Y-52070000D01*
X121666000Y-52070000D02*
X120650000Y-51054000D01*
X77978000Y-59944000D02*
X77978000Y-61722000D01*
X77978000Y-59944000D02*
X78861920Y-59944000D01*
X77099160Y-59944000D02*
X77978000Y-59944000D01*
X94488000Y-49784000D02*
X90170022Y-49784000D01*
X98806000Y-51816000D02*
X96520000Y-51816000D01*
X103886000Y-51054000D02*
X99568000Y-51054000D01*
X96520000Y-51816000D02*
X94488000Y-49784000D01*
X99568000Y-51054000D02*
X98806000Y-51816000D01*
D31*
X141986000Y-42926000D02*
X143510000Y-44450000D01*
X143510000Y-44450000D02*
X146050000Y-44450000D01*
X146050000Y-44450000D02*
X147320000Y-43180000D01*
X147320000Y-43180000D02*
X149352000Y-43180000D01*
X149781500Y-43609500D02*
X149781500Y-45212000D01*
X149352000Y-43180000D02*
X149781500Y-43609500D01*
X149781500Y-45912000D02*
X149781500Y-48768000D01*
X149781500Y-45212000D02*
X149781500Y-45912000D01*
X103886000Y-53416500D02*
X103886000Y-60706000D01*
X103886000Y-52929000D02*
X103886000Y-53416500D01*
X103886000Y-62738000D02*
X103886000Y-60706000D01*
X76826534Y-89797466D02*
X103886000Y-62738000D01*
X73888600Y-89797466D02*
X76826534Y-89797466D01*
X106426000Y-57226500D02*
X106426000Y-60706000D01*
X106426000Y-56739000D02*
X106426000Y-57226500D01*
X106426000Y-61908081D02*
X106426000Y-60706000D01*
X78543989Y-99196743D02*
X78543989Y-89790092D01*
X73888600Y-103852132D02*
X78543989Y-99196743D01*
X78543989Y-89790092D02*
X106426000Y-61908081D01*
X108966000Y-53416500D02*
X108966000Y-60706000D01*
X108966000Y-52929000D02*
X108966000Y-53416500D01*
X111506000Y-66294000D02*
X111506007Y-66293993D01*
X109728000Y-66294000D02*
X111506000Y-66294000D01*
X108966000Y-60706000D02*
X108966000Y-65532000D01*
X108966000Y-65532000D02*
X109728000Y-66294000D01*
X123335989Y-71011989D02*
X123335989Y-64915999D01*
X123335989Y-64915999D02*
X122935990Y-64516000D01*
X147599400Y-81991200D02*
X134315200Y-81991200D01*
X134315200Y-81991200D02*
X123335989Y-71011989D01*
X111506000Y-56739000D02*
X111506000Y-60706000D01*
X111506000Y-64770000D02*
X111506000Y-60706000D01*
X123444000Y-75438000D02*
X122120999Y-75438000D01*
X147480868Y-109982000D02*
X142494000Y-109982000D01*
X122120999Y-75438000D02*
X122015840Y-75543159D01*
X147599400Y-110100532D02*
X147480868Y-109982000D01*
X142494000Y-109982000D02*
X138176000Y-105664000D01*
X138176000Y-90170000D02*
X123444000Y-75438000D01*
X138176000Y-105664000D02*
X138176000Y-90170000D01*
X114046000Y-53416500D02*
X114046000Y-60706000D01*
X114046000Y-52929000D02*
X114046000Y-53416500D01*
X114895999Y-61555999D02*
X114046000Y-60706000D01*
X137160000Y-107213400D02*
X137160000Y-92964000D01*
X137160000Y-92964000D02*
X120328399Y-76132399D01*
X120328399Y-76132399D02*
X120328399Y-66988399D01*
X147599400Y-117652800D02*
X137160000Y-107213400D01*
X120328399Y-66988399D02*
X114895999Y-61555999D01*
X116586000Y-57226500D02*
X116586000Y-60706000D01*
X116586000Y-56739000D02*
X116586000Y-57226500D01*
X116586000Y-61908081D02*
X116586000Y-60706000D01*
X118777998Y-64733004D02*
X116586000Y-62541006D01*
X116586000Y-62541006D02*
X116586000Y-61908081D01*
X139835466Y-89543466D02*
X121666000Y-71374000D01*
X147599400Y-89543466D02*
X139835466Y-89543466D01*
X121666000Y-71374000D02*
X121666000Y-67564000D01*
X118835004Y-64733004D02*
X118777998Y-64733004D01*
X121666000Y-67564000D02*
X118835004Y-64733004D01*
X119126000Y-52929000D02*
X119126000Y-60706000D01*
X78994000Y-90932000D02*
X105918000Y-64008000D01*
X78994000Y-119380000D02*
X78994000Y-90932000D01*
X105918000Y-64008000D02*
X107188000Y-64008000D01*
X73888600Y-124409200D02*
X73964800Y-124409200D01*
X73964800Y-124409200D02*
X78994000Y-119380000D01*
X120904002Y-62484002D02*
X120904002Y-64008000D01*
X119126000Y-60706000D02*
X120904002Y-62484002D01*
X121666000Y-57226500D02*
X121666000Y-60706000D01*
X121666000Y-56739000D02*
X121666000Y-57226500D01*
X73888600Y-82245200D02*
X82092800Y-82245200D01*
X82092800Y-82245200D02*
X101346000Y-62992000D01*
X58450000Y-55088000D02*
X60706000Y-55088000D01*
X57912000Y-55626000D02*
X58450000Y-55088000D01*
X57912000Y-55626000D02*
X57912000Y-55626000D01*
X59182000Y-56134000D02*
X58420000Y-56134000D01*
X60706000Y-55738000D02*
X59578000Y-55738000D01*
X58420000Y-56134000D02*
X57912000Y-55626000D01*
X59578000Y-55738000D02*
X59182000Y-56134000D01*
D32*
X60706000Y-57688000D02*
X56926000Y-57688000D01*
X56926000Y-57688000D02*
X56896000Y-57658000D01*
X52067999Y-57914001D02*
X52070000Y-57912000D01*
X51308000Y-58420000D02*
X51670001Y-58057999D01*
X51308000Y-67564000D02*
X51308000Y-58420000D01*
X52070000Y-57912000D02*
X52070000Y-57658000D01*
X51670001Y-58057999D02*
X52070000Y-57658000D01*
D31*
X143637000Y-49341000D02*
X143637000Y-47371000D01*
X143637000Y-47371000D02*
X142494000Y-46228000D01*
X142494000Y-46228000D02*
X138938000Y-46228000D01*
X136906000Y-44196000D02*
X136906000Y-42926000D01*
X138938000Y-46228000D02*
X136906000Y-44196000D01*
X143637000Y-49341000D02*
X143637000Y-50673000D01*
X143637000Y-50673000D02*
X144018000Y-51054000D01*
X145620500Y-51054000D02*
X147906500Y-48768000D01*
X144018000Y-51054000D02*
X145620500Y-51054000D01*
X140208000Y-45466000D02*
X139446000Y-44704000D01*
X144907000Y-49341000D02*
X144907000Y-45466000D01*
X139446000Y-44704000D02*
X139446000Y-42926000D01*
X144907000Y-45466000D02*
X140208000Y-45466000D01*
X145161000Y-45212000D02*
X147906500Y-45212000D01*
X144907000Y-45466000D02*
X145161000Y-45212000D01*
X98298000Y-124635500D02*
X98298000Y-131572000D01*
X109474000Y-131445000D02*
X109601000Y-131572000D01*
X109474000Y-124635500D02*
X109474000Y-131445000D01*
X120904000Y-124635500D02*
X120904000Y-131572000D01*
X127508000Y-46482000D02*
X129286000Y-46482000D01*
X126746000Y-42926000D02*
X126746000Y-45720000D01*
X126746000Y-45720000D02*
X127508000Y-46482000D01*
X112522000Y-77978000D02*
X112522000Y-76200000D01*
X114808000Y-73914000D02*
X114808000Y-71628000D01*
X112522000Y-76200000D02*
X114808000Y-73914000D01*
X131826000Y-50703000D02*
X131826000Y-42926000D01*
X111252000Y-72644000D02*
X112268000Y-71628000D01*
X111252000Y-77978000D02*
X111252000Y-72644000D01*
X134366000Y-46560500D02*
X134366000Y-42926000D01*
X109982000Y-71882000D02*
X109728000Y-71628000D01*
X109982000Y-77978000D02*
X109982000Y-71882000D01*
M02*
