G04 #@! TF.GenerationSoftware,KiCad,Pcbnew,(5.1.5)-3*
G04 #@! TF.CreationDate,2022-01-01T12:53:55-05:00*
G04 #@! TF.ProjectId,K3_RVFO,4b335f52-5646-44f2-9e6b-696361645f70,rev?*
G04 #@! TF.SameCoordinates,Original*
G04 #@! TF.FileFunction,Legend,Top*
G04 #@! TF.FilePolarity,Positive*
%FSLAX46Y46*%
G04 Gerber Fmt 4.6, Leading zero omitted, Abs format (unit mm)*
G04 Created by KiCad (PCBNEW (5.1.5)-3) date 2022-01-01 12:53:55*
%MOMM*%
%LPD*%
G04 APERTURE LIST*
%ADD10C,0.150000*%
%ADD11C,0.120000*%
%ADD12C,0.100000*%
%ADD13C,0.203200*%
%ADD14C,0.254000*%
%ADD15C,0.127000*%
G04 APERTURE END LIST*
D10*
X36719142Y-53046380D02*
X36242952Y-53046380D01*
X36195333Y-53522571D01*
X36242952Y-53474952D01*
X36338190Y-53427333D01*
X36576285Y-53427333D01*
X36671523Y-53474952D01*
X36719142Y-53522571D01*
X36766761Y-53617809D01*
X36766761Y-53855904D01*
X36719142Y-53951142D01*
X36671523Y-53998761D01*
X36576285Y-54046380D01*
X36338190Y-54046380D01*
X36242952Y-53998761D01*
X36195333Y-53951142D01*
X37052476Y-53046380D02*
X37385809Y-54046380D01*
X37719142Y-53046380D01*
X38814380Y-54046380D02*
X38814380Y-53046380D01*
X39195333Y-53046380D01*
X39290571Y-53094000D01*
X39338190Y-53141619D01*
X39385809Y-53236857D01*
X39385809Y-53379714D01*
X39338190Y-53474952D01*
X39290571Y-53522571D01*
X39195333Y-53570190D01*
X38814380Y-53570190D01*
X39719142Y-53046380D02*
X39957238Y-54046380D01*
X40147714Y-53332095D01*
X40338190Y-54046380D01*
X40576285Y-53046380D01*
X41528666Y-54046380D02*
X41195333Y-53570190D01*
X40957238Y-54046380D02*
X40957238Y-53046380D01*
X41338190Y-53046380D01*
X41433428Y-53094000D01*
X41481047Y-53141619D01*
X41528666Y-53236857D01*
X41528666Y-53379714D01*
X41481047Y-53474952D01*
X41433428Y-53522571D01*
X41338190Y-53570190D01*
X40957238Y-53570190D01*
X58634666Y-51744571D02*
X58301333Y-51744571D01*
X58301333Y-52268380D02*
X58301333Y-51268380D01*
X58777523Y-51268380D01*
X59729904Y-52268380D02*
X59396571Y-51792190D01*
X59158476Y-52268380D02*
X59158476Y-51268380D01*
X59539428Y-51268380D01*
X59634666Y-51316000D01*
X59682285Y-51363619D01*
X59729904Y-51458857D01*
X59729904Y-51601714D01*
X59682285Y-51696952D01*
X59634666Y-51744571D01*
X59539428Y-51792190D01*
X59158476Y-51792190D01*
X60348952Y-51268380D02*
X60539428Y-51268380D01*
X60634666Y-51316000D01*
X60729904Y-51411238D01*
X60777523Y-51601714D01*
X60777523Y-51935047D01*
X60729904Y-52125523D01*
X60634666Y-52220761D01*
X60539428Y-52268380D01*
X60348952Y-52268380D01*
X60253714Y-52220761D01*
X60158476Y-52125523D01*
X60110857Y-51935047D01*
X60110857Y-51601714D01*
X60158476Y-51411238D01*
X60253714Y-51316000D01*
X60348952Y-51268380D01*
X61206095Y-52268380D02*
X61206095Y-51268380D01*
X61539428Y-51982666D01*
X61872761Y-51268380D01*
X61872761Y-52268380D01*
X63110857Y-52268380D02*
X63110857Y-51268380D01*
X63491809Y-51268380D01*
X63587047Y-51316000D01*
X63634666Y-51363619D01*
X63682285Y-51458857D01*
X63682285Y-51601714D01*
X63634666Y-51696952D01*
X63587047Y-51744571D01*
X63491809Y-51792190D01*
X63110857Y-51792190D01*
X64682285Y-52173142D02*
X64634666Y-52220761D01*
X64491809Y-52268380D01*
X64396571Y-52268380D01*
X64253714Y-52220761D01*
X64158476Y-52125523D01*
X64110857Y-52030285D01*
X64063238Y-51839809D01*
X64063238Y-51696952D01*
X64110857Y-51506476D01*
X64158476Y-51411238D01*
X64253714Y-51316000D01*
X64396571Y-51268380D01*
X64491809Y-51268380D01*
X64634666Y-51316000D01*
X64682285Y-51363619D01*
X37957428Y-90384380D02*
X38528857Y-90384380D01*
X38243142Y-91384380D02*
X38243142Y-90384380D01*
X39052666Y-90384380D02*
X39243142Y-90384380D01*
X39338380Y-90432000D01*
X39433619Y-90527238D01*
X39481238Y-90717714D01*
X39481238Y-91051047D01*
X39433619Y-91241523D01*
X39338380Y-91336761D01*
X39243142Y-91384380D01*
X39052666Y-91384380D01*
X38957428Y-91336761D01*
X38862190Y-91241523D01*
X38814571Y-91051047D01*
X38814571Y-90717714D01*
X38862190Y-90527238D01*
X38957428Y-90432000D01*
X39052666Y-90384380D01*
X41243142Y-91384380D02*
X40909809Y-90908190D01*
X40671714Y-91384380D02*
X40671714Y-90384380D01*
X41052666Y-90384380D01*
X41147904Y-90432000D01*
X41195523Y-90479619D01*
X41243142Y-90574857D01*
X41243142Y-90717714D01*
X41195523Y-90812952D01*
X41147904Y-90860571D01*
X41052666Y-90908190D01*
X40671714Y-90908190D01*
X41671714Y-91384380D02*
X41671714Y-90384380D01*
X42671714Y-90432000D02*
X42576476Y-90384380D01*
X42433619Y-90384380D01*
X42290761Y-90432000D01*
X42195523Y-90527238D01*
X42147904Y-90622476D01*
X42100285Y-90812952D01*
X42100285Y-90955809D01*
X42147904Y-91146285D01*
X42195523Y-91241523D01*
X42290761Y-91336761D01*
X42433619Y-91384380D01*
X42528857Y-91384380D01*
X42671714Y-91336761D01*
X42719333Y-91289142D01*
X42719333Y-90955809D01*
X42528857Y-90955809D01*
X78105809Y-128976380D02*
X78105809Y-127976380D01*
X78677238Y-128976380D02*
X78248666Y-128404952D01*
X78677238Y-127976380D02*
X78105809Y-128547809D01*
X79010571Y-127976380D02*
X79629619Y-127976380D01*
X79296285Y-128357333D01*
X79439142Y-128357333D01*
X79534380Y-128404952D01*
X79582000Y-128452571D01*
X79629619Y-128547809D01*
X79629619Y-128785904D01*
X79582000Y-128881142D01*
X79534380Y-128928761D01*
X79439142Y-128976380D01*
X79153428Y-128976380D01*
X79058190Y-128928761D01*
X79010571Y-128881142D01*
X79820095Y-129071619D02*
X80582000Y-129071619D01*
X81391523Y-128976380D02*
X81058190Y-128500190D01*
X80820095Y-128976380D02*
X80820095Y-127976380D01*
X81201047Y-127976380D01*
X81296285Y-128024000D01*
X81343904Y-128071619D01*
X81391523Y-128166857D01*
X81391523Y-128309714D01*
X81343904Y-128404952D01*
X81296285Y-128452571D01*
X81201047Y-128500190D01*
X80820095Y-128500190D01*
X81677238Y-127976380D02*
X82010571Y-128976380D01*
X82343904Y-127976380D01*
X83010571Y-128452571D02*
X82677238Y-128452571D01*
X82677238Y-128976380D02*
X82677238Y-127976380D01*
X83153428Y-127976380D01*
X83724857Y-127976380D02*
X83915333Y-127976380D01*
X84010571Y-128024000D01*
X84105809Y-128119238D01*
X84153428Y-128309714D01*
X84153428Y-128643047D01*
X84105809Y-128833523D01*
X84010571Y-128928761D01*
X83915333Y-128976380D01*
X83724857Y-128976380D01*
X83629619Y-128928761D01*
X83534380Y-128833523D01*
X83486761Y-128643047D01*
X83486761Y-128309714D01*
X83534380Y-128119238D01*
X83629619Y-128024000D01*
X83724857Y-127976380D01*
X84343904Y-129071619D02*
X85105809Y-129071619D01*
X85343904Y-128452571D02*
X85677238Y-128452571D01*
X85820095Y-128976380D02*
X85343904Y-128976380D01*
X85343904Y-127976380D01*
X85820095Y-127976380D01*
X87582000Y-128976380D02*
X87248666Y-128500190D01*
X87010571Y-128976380D02*
X87010571Y-127976380D01*
X87391523Y-127976380D01*
X87486761Y-128024000D01*
X87534380Y-128071619D01*
X87582000Y-128166857D01*
X87582000Y-128309714D01*
X87534380Y-128404952D01*
X87486761Y-128452571D01*
X87391523Y-128500190D01*
X87010571Y-128500190D01*
X88010571Y-128452571D02*
X88343904Y-128452571D01*
X88486761Y-128976380D02*
X88010571Y-128976380D01*
X88010571Y-127976380D01*
X88486761Y-127976380D01*
X88772476Y-127976380D02*
X89105809Y-128976380D01*
X89439142Y-127976380D01*
X90867714Y-128452571D02*
X91010571Y-128500190D01*
X91058190Y-128547809D01*
X91105809Y-128643047D01*
X91105809Y-128785904D01*
X91058190Y-128881142D01*
X91010571Y-128928761D01*
X90915333Y-128976380D01*
X90534380Y-128976380D01*
X90534380Y-127976380D01*
X90867714Y-127976380D01*
X90962952Y-128024000D01*
X91010571Y-128071619D01*
X91058190Y-128166857D01*
X91058190Y-128262095D01*
X91010571Y-128357333D01*
X90962952Y-128404952D01*
X90867714Y-128452571D01*
X90534380Y-128452571D01*
X79042285Y-129754380D02*
X79280380Y-130754380D01*
X79470857Y-130040095D01*
X79661333Y-130754380D01*
X79899428Y-129754380D01*
X80851809Y-130754380D02*
X80518476Y-130278190D01*
X80280380Y-130754380D02*
X80280380Y-129754380D01*
X80661333Y-129754380D01*
X80756571Y-129802000D01*
X80804190Y-129849619D01*
X80851809Y-129944857D01*
X80851809Y-130087714D01*
X80804190Y-130182952D01*
X80756571Y-130230571D01*
X80661333Y-130278190D01*
X80280380Y-130278190D01*
X81328000Y-130754380D02*
X81518476Y-130754380D01*
X81613714Y-130706761D01*
X81661333Y-130659142D01*
X81756571Y-130516285D01*
X81804190Y-130325809D01*
X81804190Y-129944857D01*
X81756571Y-129849619D01*
X81708952Y-129802000D01*
X81613714Y-129754380D01*
X81423238Y-129754380D01*
X81328000Y-129802000D01*
X81280380Y-129849619D01*
X81232761Y-129944857D01*
X81232761Y-130182952D01*
X81280380Y-130278190D01*
X81328000Y-130325809D01*
X81423238Y-130373428D01*
X81613714Y-130373428D01*
X81708952Y-130325809D01*
X81756571Y-130278190D01*
X81804190Y-130182952D01*
X82804190Y-130754380D02*
X82470857Y-130278190D01*
X82232761Y-130754380D02*
X82232761Y-129754380D01*
X82613714Y-129754380D01*
X82708952Y-129802000D01*
X82756571Y-129849619D01*
X82804190Y-129944857D01*
X82804190Y-130087714D01*
X82756571Y-130182952D01*
X82708952Y-130230571D01*
X82613714Y-130278190D01*
X82232761Y-130278190D01*
X84280380Y-131135333D02*
X84232761Y-131087714D01*
X84137523Y-130944857D01*
X84089904Y-130849619D01*
X84042285Y-130706761D01*
X83994666Y-130468666D01*
X83994666Y-130278190D01*
X84042285Y-130040095D01*
X84089904Y-129897238D01*
X84137523Y-129802000D01*
X84232761Y-129659142D01*
X84280380Y-129611523D01*
X85089904Y-130706761D02*
X84994666Y-130754380D01*
X84804190Y-130754380D01*
X84708952Y-130706761D01*
X84661333Y-130659142D01*
X84613714Y-130563904D01*
X84613714Y-130278190D01*
X84661333Y-130182952D01*
X84708952Y-130135333D01*
X84804190Y-130087714D01*
X84994666Y-130087714D01*
X85089904Y-130135333D01*
X85423238Y-131135333D02*
X85470857Y-131087714D01*
X85566095Y-130944857D01*
X85613714Y-130849619D01*
X85661333Y-130706761D01*
X85708952Y-130468666D01*
X85708952Y-130278190D01*
X85661333Y-130040095D01*
X85613714Y-129897238D01*
X85566095Y-129802000D01*
X85470857Y-129659142D01*
X85423238Y-129611523D01*
X86137523Y-129849619D02*
X86185142Y-129802000D01*
X86280380Y-129754380D01*
X86518476Y-129754380D01*
X86613714Y-129802000D01*
X86661333Y-129849619D01*
X86708952Y-129944857D01*
X86708952Y-130040095D01*
X86661333Y-130182952D01*
X86089904Y-130754380D01*
X86708952Y-130754380D01*
X87328000Y-129754380D02*
X87423238Y-129754380D01*
X87518476Y-129802000D01*
X87566095Y-129849619D01*
X87613714Y-129944857D01*
X87661333Y-130135333D01*
X87661333Y-130373428D01*
X87613714Y-130563904D01*
X87566095Y-130659142D01*
X87518476Y-130706761D01*
X87423238Y-130754380D01*
X87328000Y-130754380D01*
X87232761Y-130706761D01*
X87185142Y-130659142D01*
X87137523Y-130563904D01*
X87089904Y-130373428D01*
X87089904Y-130135333D01*
X87137523Y-129944857D01*
X87185142Y-129849619D01*
X87232761Y-129802000D01*
X87328000Y-129754380D01*
X88042285Y-129849619D02*
X88089904Y-129802000D01*
X88185142Y-129754380D01*
X88423238Y-129754380D01*
X88518476Y-129802000D01*
X88566095Y-129849619D01*
X88613714Y-129944857D01*
X88613714Y-130040095D01*
X88566095Y-130182952D01*
X87994666Y-130754380D01*
X88613714Y-130754380D01*
X89566095Y-130754380D02*
X88994666Y-130754380D01*
X89280380Y-130754380D02*
X89280380Y-129754380D01*
X89185142Y-129897238D01*
X89089904Y-129992476D01*
X88994666Y-130040095D01*
X37536380Y-82215809D02*
X36536380Y-82215809D01*
X37536380Y-81644380D02*
X36964952Y-82072952D01*
X36536380Y-81644380D02*
X37107809Y-82215809D01*
X36536380Y-81311047D02*
X36536380Y-80692000D01*
X36917333Y-81025333D01*
X36917333Y-80882476D01*
X36964952Y-80787238D01*
X37012571Y-80739619D01*
X37107809Y-80692000D01*
X37345904Y-80692000D01*
X37441142Y-80739619D01*
X37488761Y-80787238D01*
X37536380Y-80882476D01*
X37536380Y-81168190D01*
X37488761Y-81263428D01*
X37441142Y-81311047D01*
X37631619Y-80501523D02*
X37631619Y-79739619D01*
X37536380Y-78930095D02*
X37060190Y-79263428D01*
X37536380Y-79501523D02*
X36536380Y-79501523D01*
X36536380Y-79120571D01*
X36584000Y-79025333D01*
X36631619Y-78977714D01*
X36726857Y-78930095D01*
X36869714Y-78930095D01*
X36964952Y-78977714D01*
X37012571Y-79025333D01*
X37060190Y-79120571D01*
X37060190Y-79501523D01*
X36536380Y-78644380D02*
X37536380Y-78311047D01*
X36536380Y-77977714D01*
X37012571Y-77311047D02*
X37012571Y-77644380D01*
X37536380Y-77644380D02*
X36536380Y-77644380D01*
X36536380Y-77168190D01*
X36536380Y-76596761D02*
X36536380Y-76406285D01*
X36584000Y-76311047D01*
X36679238Y-76215809D01*
X36869714Y-76168190D01*
X37203047Y-76168190D01*
X37393523Y-76215809D01*
X37488761Y-76311047D01*
X37536380Y-76406285D01*
X37536380Y-76596761D01*
X37488761Y-76692000D01*
X37393523Y-76787238D01*
X37203047Y-76834857D01*
X36869714Y-76834857D01*
X36679238Y-76787238D01*
X36584000Y-76692000D01*
X36536380Y-76596761D01*
X37631619Y-75977714D02*
X37631619Y-75215809D01*
X37441142Y-74406285D02*
X37488761Y-74453904D01*
X37536380Y-74596761D01*
X37536380Y-74692000D01*
X37488761Y-74834857D01*
X37393523Y-74930095D01*
X37298285Y-74977714D01*
X37107809Y-75025333D01*
X36964952Y-75025333D01*
X36774476Y-74977714D01*
X36679238Y-74930095D01*
X36584000Y-74834857D01*
X36536380Y-74692000D01*
X36536380Y-74596761D01*
X36584000Y-74453904D01*
X36631619Y-74406285D01*
X37536380Y-72644380D02*
X37060190Y-72977714D01*
X37536380Y-73215809D02*
X36536380Y-73215809D01*
X36536380Y-72834857D01*
X36584000Y-72739619D01*
X36631619Y-72692000D01*
X36726857Y-72644380D01*
X36869714Y-72644380D01*
X36964952Y-72692000D01*
X37012571Y-72739619D01*
X37060190Y-72834857D01*
X37060190Y-73215809D01*
X37012571Y-72215809D02*
X37012571Y-71882476D01*
X37536380Y-71739619D02*
X37536380Y-72215809D01*
X36536380Y-72215809D01*
X36536380Y-71739619D01*
X36536380Y-71453904D02*
X37536380Y-71120571D01*
X36536380Y-70787238D01*
X37012571Y-69358666D02*
X37060190Y-69215809D01*
X37107809Y-69168190D01*
X37203047Y-69120571D01*
X37345904Y-69120571D01*
X37441142Y-69168190D01*
X37488761Y-69215809D01*
X37536380Y-69311047D01*
X37536380Y-69692000D01*
X36536380Y-69692000D01*
X36536380Y-69358666D01*
X36584000Y-69263428D01*
X36631619Y-69215809D01*
X36726857Y-69168190D01*
X36822095Y-69168190D01*
X36917333Y-69215809D01*
X36964952Y-69263428D01*
X37012571Y-69358666D01*
X37012571Y-69692000D01*
X38314380Y-81231714D02*
X39314380Y-80993619D01*
X38600095Y-80803142D01*
X39314380Y-80612666D01*
X38314380Y-80374571D01*
X39314380Y-79422190D02*
X38838190Y-79755523D01*
X39314380Y-79993619D02*
X38314380Y-79993619D01*
X38314380Y-79612666D01*
X38362000Y-79517428D01*
X38409619Y-79469809D01*
X38504857Y-79422190D01*
X38647714Y-79422190D01*
X38742952Y-79469809D01*
X38790571Y-79517428D01*
X38838190Y-79612666D01*
X38838190Y-79993619D01*
X39314380Y-78946000D02*
X39314380Y-78755523D01*
X39266761Y-78660285D01*
X39219142Y-78612666D01*
X39076285Y-78517428D01*
X38885809Y-78469809D01*
X38504857Y-78469809D01*
X38409619Y-78517428D01*
X38362000Y-78565047D01*
X38314380Y-78660285D01*
X38314380Y-78850761D01*
X38362000Y-78946000D01*
X38409619Y-78993619D01*
X38504857Y-79041238D01*
X38742952Y-79041238D01*
X38838190Y-78993619D01*
X38885809Y-78946000D01*
X38933428Y-78850761D01*
X38933428Y-78660285D01*
X38885809Y-78565047D01*
X38838190Y-78517428D01*
X38742952Y-78469809D01*
X39314380Y-77469809D02*
X38838190Y-77803142D01*
X39314380Y-78041238D02*
X38314380Y-78041238D01*
X38314380Y-77660285D01*
X38362000Y-77565047D01*
X38409619Y-77517428D01*
X38504857Y-77469809D01*
X38647714Y-77469809D01*
X38742952Y-77517428D01*
X38790571Y-77565047D01*
X38838190Y-77660285D01*
X38838190Y-78041238D01*
X39695333Y-75993619D02*
X39647714Y-76041238D01*
X39504857Y-76136476D01*
X39409619Y-76184095D01*
X39266761Y-76231714D01*
X39028666Y-76279333D01*
X38838190Y-76279333D01*
X38600095Y-76231714D01*
X38457238Y-76184095D01*
X38362000Y-76136476D01*
X38219142Y-76041238D01*
X38171523Y-75993619D01*
X39266761Y-75184095D02*
X39314380Y-75279333D01*
X39314380Y-75469809D01*
X39266761Y-75565047D01*
X39219142Y-75612666D01*
X39123904Y-75660285D01*
X38838190Y-75660285D01*
X38742952Y-75612666D01*
X38695333Y-75565047D01*
X38647714Y-75469809D01*
X38647714Y-75279333D01*
X38695333Y-75184095D01*
X39695333Y-74850761D02*
X39647714Y-74803142D01*
X39504857Y-74707904D01*
X39409619Y-74660285D01*
X39266761Y-74612666D01*
X39028666Y-74565047D01*
X38838190Y-74565047D01*
X38600095Y-74612666D01*
X38457238Y-74660285D01*
X38362000Y-74707904D01*
X38219142Y-74803142D01*
X38171523Y-74850761D01*
X38409619Y-74136476D02*
X38362000Y-74088857D01*
X38314380Y-73993619D01*
X38314380Y-73755523D01*
X38362000Y-73660285D01*
X38409619Y-73612666D01*
X38504857Y-73565047D01*
X38600095Y-73565047D01*
X38742952Y-73612666D01*
X39314380Y-74184095D01*
X39314380Y-73565047D01*
X38314380Y-72946000D02*
X38314380Y-72850761D01*
X38362000Y-72755523D01*
X38409619Y-72707904D01*
X38504857Y-72660285D01*
X38695333Y-72612666D01*
X38933428Y-72612666D01*
X39123904Y-72660285D01*
X39219142Y-72707904D01*
X39266761Y-72755523D01*
X39314380Y-72850761D01*
X39314380Y-72946000D01*
X39266761Y-73041238D01*
X39219142Y-73088857D01*
X39123904Y-73136476D01*
X38933428Y-73184095D01*
X38695333Y-73184095D01*
X38504857Y-73136476D01*
X38409619Y-73088857D01*
X38362000Y-73041238D01*
X38314380Y-72946000D01*
X38409619Y-72231714D02*
X38362000Y-72184095D01*
X38314380Y-72088857D01*
X38314380Y-71850761D01*
X38362000Y-71755523D01*
X38409619Y-71707904D01*
X38504857Y-71660285D01*
X38600095Y-71660285D01*
X38742952Y-71707904D01*
X39314380Y-72279333D01*
X39314380Y-71660285D01*
X39314380Y-70707904D02*
X39314380Y-71279333D01*
X39314380Y-70993619D02*
X38314380Y-70993619D01*
X38457238Y-71088857D01*
X38552476Y-71184095D01*
X38600095Y-71279333D01*
D11*
X47538000Y-77344000D02*
X47538000Y-64144000D01*
X47538000Y-64144000D02*
X56558000Y-64144000D01*
D12*
X65418000Y-64144000D02*
X65538000Y-64144000D01*
D11*
X65538000Y-64144000D02*
X58758000Y-64144000D01*
D12*
X65528000Y-64144000D02*
X65538000Y-64144000D01*
D11*
X65538000Y-64144000D02*
X65538000Y-77344000D01*
X65538000Y-77344000D02*
X58758000Y-77344000D01*
D12*
X56488000Y-77344000D02*
X56558000Y-77344000D01*
D11*
X56558000Y-77344000D02*
X47538000Y-77344000D01*
X49538000Y-77814000D02*
X48008000Y-77814000D01*
X148585422Y-45922000D02*
X149102578Y-45922000D01*
X148585422Y-44502000D02*
X149102578Y-44502000D01*
X148585422Y-49478000D02*
X149102578Y-49478000D01*
X148585422Y-48058000D02*
X149102578Y-48058000D01*
X89948000Y-51860000D02*
X89448000Y-51860000D01*
X89698000Y-51610000D02*
X89698000Y-52110000D01*
X86942437Y-52350000D02*
X85878000Y-53414437D01*
X89333563Y-52350000D02*
X90398000Y-53414437D01*
X89333563Y-52350000D02*
X89198000Y-52350000D01*
X86942437Y-52350000D02*
X87078000Y-52350000D01*
X85878000Y-53414437D02*
X85878000Y-56870000D01*
X90398000Y-53414437D02*
X90398000Y-56870000D01*
X90398000Y-56870000D02*
X89198000Y-56870000D01*
X85878000Y-56870000D02*
X87078000Y-56870000D01*
X122376000Y-56060078D02*
X122376000Y-55542922D01*
X120956000Y-56060078D02*
X120956000Y-55542922D01*
X119836000Y-52250078D02*
X119836000Y-51732922D01*
X118416000Y-52250078D02*
X118416000Y-51732922D01*
X117296000Y-56060078D02*
X117296000Y-55542922D01*
X115876000Y-56060078D02*
X115876000Y-55542922D01*
X114756000Y-52250078D02*
X114756000Y-51732922D01*
X113336000Y-52250078D02*
X113336000Y-51732922D01*
X112216000Y-56060078D02*
X112216000Y-55542922D01*
X110796000Y-56060078D02*
X110796000Y-55542922D01*
X109676000Y-52250078D02*
X109676000Y-51732922D01*
X108256000Y-52250078D02*
X108256000Y-51732922D01*
X107136000Y-56060078D02*
X107136000Y-55542922D01*
X105716000Y-56060078D02*
X105716000Y-55542922D01*
X104596000Y-52250078D02*
X104596000Y-51732922D01*
X103176000Y-52250078D02*
X103176000Y-51732922D01*
X131116000Y-51381922D02*
X131116000Y-51899078D01*
X132536000Y-51381922D02*
X132536000Y-51899078D01*
X133656000Y-47239422D02*
X133656000Y-47756578D01*
X135076000Y-47239422D02*
X135076000Y-47756578D01*
X128576000Y-47160922D02*
X128576000Y-47678078D01*
X129996000Y-47160922D02*
X129996000Y-47678078D01*
D13*
X78105000Y-63398400D02*
G75*
G03X78105000Y-62128400I0J635000D01*
G01*
X78056740Y-64401700D02*
G75*
G03X78435200Y-64683640I330200J48260D01*
G01*
X88569800Y-61173360D02*
G75*
G03X88188800Y-60792360I-381000J0D01*
G01*
X78435200Y-60792360D02*
G75*
G03X78054200Y-61274960I50800J-431800D01*
G01*
X88285320Y-64683640D02*
G75*
G03X88569800Y-64302640I-48260J332740D01*
G01*
X78054200Y-64401700D02*
X78054200Y-63398400D01*
X78054200Y-61287660D02*
X78054200Y-62128400D01*
X88569800Y-64302640D02*
X88569800Y-61173360D01*
X78435200Y-64683640D02*
X88287860Y-64683640D01*
X88188800Y-60792360D02*
X78435200Y-60792360D01*
D14*
X77851000Y-65151000D02*
G75*
G03X77851000Y-65151000I-127000J0D01*
G01*
X77978000Y-65151000D02*
G75*
G03X77978000Y-65151000I-254000J0D01*
G01*
D11*
X140442000Y-51816000D02*
X140442000Y-55266000D01*
X140442000Y-51816000D02*
X140442000Y-49866000D01*
X145562000Y-51816000D02*
X145562000Y-53766000D01*
X145562000Y-51816000D02*
X145562000Y-49866000D01*
D13*
X151638000Y-120904000D02*
G75*
G03X151638000Y-120904000I-1778000J0D01*
G01*
X150886160Y-117856000D02*
X148844000Y-117856000D01*
X150855680Y-123952000D02*
X148844000Y-123952000D01*
X146812000Y-118745000D02*
X146812000Y-123063000D01*
X152908000Y-123063000D02*
X152908000Y-118745000D01*
X151638000Y-106849332D02*
G75*
G03X151638000Y-106849332I-1778000J0D01*
G01*
X148833840Y-109897332D02*
X150876000Y-109897332D01*
X148864320Y-103801332D02*
X150876000Y-103801332D01*
X152908000Y-109008332D02*
X152908000Y-104690332D01*
X146812000Y-104690332D02*
X146812000Y-109008332D01*
X151638000Y-92794666D02*
G75*
G03X151638000Y-92794666I-1778000J0D01*
G01*
X150886160Y-89746666D02*
X148844000Y-89746666D01*
X150855680Y-95842666D02*
X148844000Y-95842666D01*
X146812000Y-90635666D02*
X146812000Y-94953666D01*
X152908000Y-94953666D02*
X152908000Y-90635666D01*
X151638000Y-78740000D02*
G75*
G03X151638000Y-78740000I-1778000J0D01*
G01*
X148833840Y-81788000D02*
X150876000Y-81788000D01*
X148864320Y-75692000D02*
X150876000Y-75692000D01*
X152908000Y-80899000D02*
X152908000Y-76581000D01*
X146812000Y-76581000D02*
X146812000Y-80899000D01*
X73406000Y-121158000D02*
G75*
G03X73406000Y-121158000I-1778000J0D01*
G01*
X70601840Y-124206000D02*
X72644000Y-124206000D01*
X70632320Y-118110000D02*
X72644000Y-118110000D01*
X74676000Y-123317000D02*
X74676000Y-118999000D01*
X68580000Y-118999000D02*
X68580000Y-123317000D01*
X73406000Y-107103332D02*
G75*
G03X73406000Y-107103332I-1778000J0D01*
G01*
X72654160Y-104055332D02*
X70612000Y-104055332D01*
X72623680Y-110151332D02*
X70612000Y-110151332D01*
X68580000Y-104944332D02*
X68580000Y-109262332D01*
X74676000Y-109262332D02*
X74676000Y-104944332D01*
X73406000Y-93048666D02*
G75*
G03X73406000Y-93048666I-1778000J0D01*
G01*
X72654160Y-90000666D02*
X70612000Y-90000666D01*
X72623680Y-96096666D02*
X70612000Y-96096666D01*
X68580000Y-90889666D02*
X68580000Y-95207666D01*
X74676000Y-95207666D02*
X74676000Y-90889666D01*
X73406000Y-78994000D02*
G75*
G03X73406000Y-78994000I-1778000J0D01*
G01*
X70601840Y-82042000D02*
X72644000Y-82042000D01*
X70632320Y-75946000D02*
X72644000Y-75946000D01*
X74676000Y-81153000D02*
X74676000Y-76835000D01*
X68580000Y-76835000D02*
X68580000Y-81153000D01*
D11*
X121614000Y-123956578D02*
X121614000Y-123439422D01*
X120194000Y-123956578D02*
X120194000Y-123439422D01*
X110184000Y-123956578D02*
X110184000Y-123439422D01*
X108764000Y-123956578D02*
X108764000Y-123439422D01*
X99008000Y-123956578D02*
X99008000Y-123439422D01*
X97588000Y-123956578D02*
X97588000Y-123439422D01*
X59856000Y-58088000D02*
X60306000Y-58088000D01*
X59856000Y-58088000D02*
X59856000Y-57638000D01*
X60406000Y-52488000D02*
X60406000Y-52938000D01*
X62256000Y-52488000D02*
X60406000Y-52488000D01*
X64806000Y-60288000D02*
X64556000Y-60288000D01*
X64806000Y-52488000D02*
X64556000Y-52488000D01*
X62256000Y-60288000D02*
X60406000Y-60288000D01*
X60406000Y-60288000D02*
X60406000Y-59838000D01*
X44958000Y-93044675D02*
X44708000Y-92611662D01*
X45208000Y-92611662D02*
X44958000Y-93044675D01*
X44708000Y-92611662D02*
X45208000Y-92611662D01*
X65983000Y-93506000D02*
X65983000Y-103986000D01*
X35013000Y-93506000D02*
X65983000Y-93506000D01*
X35013000Y-103986000D02*
X35013000Y-93506000D01*
X44958000Y-49957325D02*
X45208000Y-50390338D01*
X44708000Y-50390338D02*
X44958000Y-49957325D01*
X45208000Y-50390338D02*
X44708000Y-50390338D01*
X35013000Y-49496000D02*
X35013000Y-39016000D01*
X65983000Y-49496000D02*
X35013000Y-49496000D01*
X65983000Y-39016000D02*
X65983000Y-49496000D01*
D14*
X120410701Y-132581851D02*
G75*
G03X122174000Y-133604000I1763299J1009851D01*
G01*
X122176552Y-133601386D02*
G75*
G03X123723400Y-132882640I-2552J2029386D01*
G01*
X122173025Y-129542540D02*
G75*
G03X120383300Y-130616960I975J-2029460D01*
G01*
X123732880Y-130268574D02*
G75*
G03X122174000Y-129540000I-1558880J-1303426D01*
G01*
X120410701Y-132581851D02*
G75*
G03X122174000Y-133604000I1763299J1009851D01*
G01*
X122176552Y-133601386D02*
G75*
G03X123723400Y-132882640I-2552J2029386D01*
G01*
X122173025Y-129542540D02*
G75*
G03X120383300Y-130616960I975J-2029460D01*
G01*
X123732880Y-130268574D02*
G75*
G03X122174000Y-129540000I-1558880J-1303426D01*
G01*
X123748800Y-132864860D02*
X123748800Y-132410200D01*
X123748800Y-130279140D02*
X123748800Y-130784600D01*
X123748800Y-132864860D02*
X123748800Y-132410200D01*
X123748800Y-130279140D02*
X123748800Y-130784600D01*
X109107701Y-132581851D02*
G75*
G03X110871000Y-133604000I1763299J1009851D01*
G01*
X110873552Y-133601386D02*
G75*
G03X112420400Y-132882640I-2552J2029386D01*
G01*
X110870025Y-129542540D02*
G75*
G03X109080300Y-130616960I975J-2029460D01*
G01*
X112429880Y-130268574D02*
G75*
G03X110871000Y-129540000I-1558880J-1303426D01*
G01*
X109107701Y-132581851D02*
G75*
G03X110871000Y-133604000I1763299J1009851D01*
G01*
X110873552Y-133601386D02*
G75*
G03X112420400Y-132882640I-2552J2029386D01*
G01*
X110870025Y-129542540D02*
G75*
G03X109080300Y-130616960I975J-2029460D01*
G01*
X112429880Y-130268574D02*
G75*
G03X110871000Y-129540000I-1558880J-1303426D01*
G01*
X112445800Y-132864860D02*
X112445800Y-132410200D01*
X112445800Y-130279140D02*
X112445800Y-130784600D01*
X112445800Y-132864860D02*
X112445800Y-132410200D01*
X112445800Y-130279140D02*
X112445800Y-130784600D01*
X97804701Y-132581851D02*
G75*
G03X99568000Y-133604000I1763299J1009851D01*
G01*
X99570552Y-133601386D02*
G75*
G03X101117400Y-132882640I-2552J2029386D01*
G01*
X99567025Y-129542540D02*
G75*
G03X97777300Y-130616960I975J-2029460D01*
G01*
X101126880Y-130268574D02*
G75*
G03X99568000Y-129540000I-1558880J-1303426D01*
G01*
X97804701Y-132581851D02*
G75*
G03X99568000Y-133604000I1763299J1009851D01*
G01*
X99570552Y-133601386D02*
G75*
G03X101117400Y-132882640I-2552J2029386D01*
G01*
X99567025Y-129542540D02*
G75*
G03X97777300Y-130616960I975J-2029460D01*
G01*
X101126880Y-130268574D02*
G75*
G03X99568000Y-129540000I-1558880J-1303426D01*
G01*
X101142800Y-132864860D02*
X101142800Y-132410200D01*
X101142800Y-130279140D02*
X101142800Y-130784600D01*
X101142800Y-132864860D02*
X101142800Y-132410200D01*
X101142800Y-130279140D02*
X101142800Y-130784600D01*
D10*
X46060380Y-75917333D02*
X46774666Y-75917333D01*
X46917523Y-75964952D01*
X47012761Y-76060190D01*
X47060380Y-76203047D01*
X47060380Y-76298285D01*
X46393714Y-75012571D02*
X47060380Y-75012571D01*
X46012761Y-75250666D02*
X46727047Y-75488761D01*
X46727047Y-74869714D01*
X148201142Y-44014380D02*
X147867809Y-43538190D01*
X147629714Y-44014380D02*
X147629714Y-43014380D01*
X148010666Y-43014380D01*
X148105904Y-43062000D01*
X148153523Y-43109619D01*
X148201142Y-43204857D01*
X148201142Y-43347714D01*
X148153523Y-43442952D01*
X148105904Y-43490571D01*
X148010666Y-43538190D01*
X147629714Y-43538190D01*
X149153523Y-44014380D02*
X148582095Y-44014380D01*
X148867809Y-44014380D02*
X148867809Y-43014380D01*
X148772571Y-43157238D01*
X148677333Y-43252476D01*
X148582095Y-43300095D01*
X150010666Y-43014380D02*
X149820190Y-43014380D01*
X149724952Y-43062000D01*
X149677333Y-43109619D01*
X149582095Y-43252476D01*
X149534476Y-43442952D01*
X149534476Y-43823904D01*
X149582095Y-43919142D01*
X149629714Y-43966761D01*
X149724952Y-44014380D01*
X149915428Y-44014380D01*
X150010666Y-43966761D01*
X150058285Y-43919142D01*
X150105904Y-43823904D01*
X150105904Y-43585809D01*
X150058285Y-43490571D01*
X150010666Y-43442952D01*
X149915428Y-43395333D01*
X149724952Y-43395333D01*
X149629714Y-43442952D01*
X149582095Y-43490571D01*
X149534476Y-43585809D01*
X148201142Y-47442380D02*
X147867809Y-46966190D01*
X147629714Y-47442380D02*
X147629714Y-46442380D01*
X148010666Y-46442380D01*
X148105904Y-46490000D01*
X148153523Y-46537619D01*
X148201142Y-46632857D01*
X148201142Y-46775714D01*
X148153523Y-46870952D01*
X148105904Y-46918571D01*
X148010666Y-46966190D01*
X147629714Y-46966190D01*
X149153523Y-47442380D02*
X148582095Y-47442380D01*
X148867809Y-47442380D02*
X148867809Y-46442380D01*
X148772571Y-46585238D01*
X148677333Y-46680476D01*
X148582095Y-46728095D01*
X150058285Y-46442380D02*
X149582095Y-46442380D01*
X149534476Y-46918571D01*
X149582095Y-46870952D01*
X149677333Y-46823333D01*
X149915428Y-46823333D01*
X150010666Y-46870952D01*
X150058285Y-46918571D01*
X150105904Y-47013809D01*
X150105904Y-47251904D01*
X150058285Y-47347142D01*
X150010666Y-47394761D01*
X149915428Y-47442380D01*
X149677333Y-47442380D01*
X149582095Y-47394761D01*
X149534476Y-47347142D01*
X91695142Y-54776666D02*
X91742761Y-54824285D01*
X91790380Y-54967142D01*
X91790380Y-55062380D01*
X91742761Y-55205238D01*
X91647523Y-55300476D01*
X91552285Y-55348095D01*
X91361809Y-55395714D01*
X91218952Y-55395714D01*
X91028476Y-55348095D01*
X90933238Y-55300476D01*
X90838000Y-55205238D01*
X90790380Y-55062380D01*
X90790380Y-54967142D01*
X90838000Y-54824285D01*
X90885619Y-54776666D01*
X91790380Y-53824285D02*
X91790380Y-54395714D01*
X91790380Y-54110000D02*
X90790380Y-54110000D01*
X90933238Y-54205238D01*
X91028476Y-54300476D01*
X91076095Y-54395714D01*
X120468380Y-56444357D02*
X119992190Y-56777690D01*
X120468380Y-57015785D02*
X119468380Y-57015785D01*
X119468380Y-56634833D01*
X119516000Y-56539595D01*
X119563619Y-56491976D01*
X119658857Y-56444357D01*
X119801714Y-56444357D01*
X119896952Y-56491976D01*
X119944571Y-56539595D01*
X119992190Y-56634833D01*
X119992190Y-57015785D01*
X120468380Y-55491976D02*
X120468380Y-56063404D01*
X120468380Y-55777690D02*
X119468380Y-55777690D01*
X119611238Y-55872928D01*
X119706476Y-55968166D01*
X119754095Y-56063404D01*
X119801714Y-54634833D02*
X120468380Y-54634833D01*
X119420761Y-54872928D02*
X120135047Y-55111023D01*
X120135047Y-54491976D01*
X117928380Y-52634357D02*
X117452190Y-52967690D01*
X117928380Y-53205785D02*
X116928380Y-53205785D01*
X116928380Y-52824833D01*
X116976000Y-52729595D01*
X117023619Y-52681976D01*
X117118857Y-52634357D01*
X117261714Y-52634357D01*
X117356952Y-52681976D01*
X117404571Y-52729595D01*
X117452190Y-52824833D01*
X117452190Y-53205785D01*
X117928380Y-51681976D02*
X117928380Y-52253404D01*
X117928380Y-51967690D02*
X116928380Y-51967690D01*
X117071238Y-52062928D01*
X117166476Y-52158166D01*
X117214095Y-52253404D01*
X116928380Y-51348642D02*
X116928380Y-50729595D01*
X117309333Y-51062928D01*
X117309333Y-50920071D01*
X117356952Y-50824833D01*
X117404571Y-50777214D01*
X117499809Y-50729595D01*
X117737904Y-50729595D01*
X117833142Y-50777214D01*
X117880761Y-50824833D01*
X117928380Y-50920071D01*
X117928380Y-51205785D01*
X117880761Y-51301023D01*
X117833142Y-51348642D01*
X115388380Y-56444357D02*
X114912190Y-56777690D01*
X115388380Y-57015785D02*
X114388380Y-57015785D01*
X114388380Y-56634833D01*
X114436000Y-56539595D01*
X114483619Y-56491976D01*
X114578857Y-56444357D01*
X114721714Y-56444357D01*
X114816952Y-56491976D01*
X114864571Y-56539595D01*
X114912190Y-56634833D01*
X114912190Y-57015785D01*
X115388380Y-55491976D02*
X115388380Y-56063404D01*
X115388380Y-55777690D02*
X114388380Y-55777690D01*
X114531238Y-55872928D01*
X114626476Y-55968166D01*
X114674095Y-56063404D01*
X114483619Y-55111023D02*
X114436000Y-55063404D01*
X114388380Y-54968166D01*
X114388380Y-54730071D01*
X114436000Y-54634833D01*
X114483619Y-54587214D01*
X114578857Y-54539595D01*
X114674095Y-54539595D01*
X114816952Y-54587214D01*
X115388380Y-55158642D01*
X115388380Y-54539595D01*
X112848380Y-52634357D02*
X112372190Y-52967690D01*
X112848380Y-53205785D02*
X111848380Y-53205785D01*
X111848380Y-52824833D01*
X111896000Y-52729595D01*
X111943619Y-52681976D01*
X112038857Y-52634357D01*
X112181714Y-52634357D01*
X112276952Y-52681976D01*
X112324571Y-52729595D01*
X112372190Y-52824833D01*
X112372190Y-53205785D01*
X112848380Y-51681976D02*
X112848380Y-52253404D01*
X112848380Y-51967690D02*
X111848380Y-51967690D01*
X111991238Y-52062928D01*
X112086476Y-52158166D01*
X112134095Y-52253404D01*
X112848380Y-50729595D02*
X112848380Y-51301023D01*
X112848380Y-51015309D02*
X111848380Y-51015309D01*
X111991238Y-51110547D01*
X112086476Y-51205785D01*
X112134095Y-51301023D01*
X110308380Y-56444357D02*
X109832190Y-56777690D01*
X110308380Y-57015785D02*
X109308380Y-57015785D01*
X109308380Y-56634833D01*
X109356000Y-56539595D01*
X109403619Y-56491976D01*
X109498857Y-56444357D01*
X109641714Y-56444357D01*
X109736952Y-56491976D01*
X109784571Y-56539595D01*
X109832190Y-56634833D01*
X109832190Y-57015785D01*
X110308380Y-55491976D02*
X110308380Y-56063404D01*
X110308380Y-55777690D02*
X109308380Y-55777690D01*
X109451238Y-55872928D01*
X109546476Y-55968166D01*
X109594095Y-56063404D01*
X109308380Y-54872928D02*
X109308380Y-54777690D01*
X109356000Y-54682452D01*
X109403619Y-54634833D01*
X109498857Y-54587214D01*
X109689333Y-54539595D01*
X109927428Y-54539595D01*
X110117904Y-54587214D01*
X110213142Y-54634833D01*
X110260761Y-54682452D01*
X110308380Y-54777690D01*
X110308380Y-54872928D01*
X110260761Y-54968166D01*
X110213142Y-55015785D01*
X110117904Y-55063404D01*
X109927428Y-55111023D01*
X109689333Y-55111023D01*
X109498857Y-55063404D01*
X109403619Y-55015785D01*
X109356000Y-54968166D01*
X109308380Y-54872928D01*
X107768380Y-52158166D02*
X107292190Y-52491500D01*
X107768380Y-52729595D02*
X106768380Y-52729595D01*
X106768380Y-52348642D01*
X106816000Y-52253404D01*
X106863619Y-52205785D01*
X106958857Y-52158166D01*
X107101714Y-52158166D01*
X107196952Y-52205785D01*
X107244571Y-52253404D01*
X107292190Y-52348642D01*
X107292190Y-52729595D01*
X107768380Y-51681976D02*
X107768380Y-51491500D01*
X107720761Y-51396261D01*
X107673142Y-51348642D01*
X107530285Y-51253404D01*
X107339809Y-51205785D01*
X106958857Y-51205785D01*
X106863619Y-51253404D01*
X106816000Y-51301023D01*
X106768380Y-51396261D01*
X106768380Y-51586738D01*
X106816000Y-51681976D01*
X106863619Y-51729595D01*
X106958857Y-51777214D01*
X107196952Y-51777214D01*
X107292190Y-51729595D01*
X107339809Y-51681976D01*
X107387428Y-51586738D01*
X107387428Y-51396261D01*
X107339809Y-51301023D01*
X107292190Y-51253404D01*
X107196952Y-51205785D01*
X105228380Y-55968166D02*
X104752190Y-56301500D01*
X105228380Y-56539595D02*
X104228380Y-56539595D01*
X104228380Y-56158642D01*
X104276000Y-56063404D01*
X104323619Y-56015785D01*
X104418857Y-55968166D01*
X104561714Y-55968166D01*
X104656952Y-56015785D01*
X104704571Y-56063404D01*
X104752190Y-56158642D01*
X104752190Y-56539595D01*
X104656952Y-55396738D02*
X104609333Y-55491976D01*
X104561714Y-55539595D01*
X104466476Y-55587214D01*
X104418857Y-55587214D01*
X104323619Y-55539595D01*
X104276000Y-55491976D01*
X104228380Y-55396738D01*
X104228380Y-55206261D01*
X104276000Y-55111023D01*
X104323619Y-55063404D01*
X104418857Y-55015785D01*
X104466476Y-55015785D01*
X104561714Y-55063404D01*
X104609333Y-55111023D01*
X104656952Y-55206261D01*
X104656952Y-55396738D01*
X104704571Y-55491976D01*
X104752190Y-55539595D01*
X104847428Y-55587214D01*
X105037904Y-55587214D01*
X105133142Y-55539595D01*
X105180761Y-55491976D01*
X105228380Y-55396738D01*
X105228380Y-55206261D01*
X105180761Y-55111023D01*
X105133142Y-55063404D01*
X105037904Y-55015785D01*
X104847428Y-55015785D01*
X104752190Y-55063404D01*
X104704571Y-55111023D01*
X104656952Y-55206261D01*
X102688380Y-52158166D02*
X102212190Y-52491500D01*
X102688380Y-52729595D02*
X101688380Y-52729595D01*
X101688380Y-52348642D01*
X101736000Y-52253404D01*
X101783619Y-52205785D01*
X101878857Y-52158166D01*
X102021714Y-52158166D01*
X102116952Y-52205785D01*
X102164571Y-52253404D01*
X102212190Y-52348642D01*
X102212190Y-52729595D01*
X101688380Y-51824833D02*
X101688380Y-51158166D01*
X102688380Y-51586738D01*
X133928380Y-51807166D02*
X133452190Y-52140500D01*
X133928380Y-52378595D02*
X132928380Y-52378595D01*
X132928380Y-51997642D01*
X132976000Y-51902404D01*
X133023619Y-51854785D01*
X133118857Y-51807166D01*
X133261714Y-51807166D01*
X133356952Y-51854785D01*
X133404571Y-51902404D01*
X133452190Y-51997642D01*
X133452190Y-52378595D01*
X132928380Y-50950023D02*
X132928380Y-51140500D01*
X132976000Y-51235738D01*
X133023619Y-51283357D01*
X133166476Y-51378595D01*
X133356952Y-51426214D01*
X133737904Y-51426214D01*
X133833142Y-51378595D01*
X133880761Y-51330976D01*
X133928380Y-51235738D01*
X133928380Y-51045261D01*
X133880761Y-50950023D01*
X133833142Y-50902404D01*
X133737904Y-50854785D01*
X133499809Y-50854785D01*
X133404571Y-50902404D01*
X133356952Y-50950023D01*
X133309333Y-51045261D01*
X133309333Y-51235738D01*
X133356952Y-51330976D01*
X133404571Y-51378595D01*
X133499809Y-51426214D01*
X136468380Y-47664666D02*
X135992190Y-47998000D01*
X136468380Y-48236095D02*
X135468380Y-48236095D01*
X135468380Y-47855142D01*
X135516000Y-47759904D01*
X135563619Y-47712285D01*
X135658857Y-47664666D01*
X135801714Y-47664666D01*
X135896952Y-47712285D01*
X135944571Y-47759904D01*
X135992190Y-47855142D01*
X135992190Y-48236095D01*
X135468380Y-46759904D02*
X135468380Y-47236095D01*
X135944571Y-47283714D01*
X135896952Y-47236095D01*
X135849333Y-47140857D01*
X135849333Y-46902761D01*
X135896952Y-46807523D01*
X135944571Y-46759904D01*
X136039809Y-46712285D01*
X136277904Y-46712285D01*
X136373142Y-46759904D01*
X136420761Y-46807523D01*
X136468380Y-46902761D01*
X136468380Y-47140857D01*
X136420761Y-47236095D01*
X136373142Y-47283714D01*
X131388380Y-47586166D02*
X130912190Y-47919500D01*
X131388380Y-48157595D02*
X130388380Y-48157595D01*
X130388380Y-47776642D01*
X130436000Y-47681404D01*
X130483619Y-47633785D01*
X130578857Y-47586166D01*
X130721714Y-47586166D01*
X130816952Y-47633785D01*
X130864571Y-47681404D01*
X130912190Y-47776642D01*
X130912190Y-48157595D01*
X130721714Y-46729023D02*
X131388380Y-46729023D01*
X130340761Y-46967119D02*
X131055047Y-47205214D01*
X131055047Y-46586166D01*
X70866095Y-126246380D02*
X70866095Y-125246380D01*
X70866095Y-125722571D02*
X71437523Y-125722571D01*
X71437523Y-126246380D02*
X71437523Y-125246380D01*
X72342285Y-125579714D02*
X72342285Y-126246380D01*
X72104190Y-125198761D02*
X71866095Y-125913047D01*
X72485142Y-125913047D01*
X149098095Y-65794380D02*
X149098095Y-64794380D01*
X149098095Y-65270571D02*
X149669523Y-65270571D01*
X149669523Y-65794380D02*
X149669523Y-64794380D01*
X150050476Y-64794380D02*
X150669523Y-64794380D01*
X150336190Y-65175333D01*
X150479047Y-65175333D01*
X150574285Y-65222952D01*
X150621904Y-65270571D01*
X150669523Y-65365809D01*
X150669523Y-65603904D01*
X150621904Y-65699142D01*
X150574285Y-65746761D01*
X150479047Y-65794380D01*
X150193333Y-65794380D01*
X150098095Y-65746761D01*
X150050476Y-65699142D01*
X149098095Y-126246380D02*
X149098095Y-125246380D01*
X149098095Y-125722571D02*
X149669523Y-125722571D01*
X149669523Y-126246380D02*
X149669523Y-125246380D01*
X150098095Y-125341619D02*
X150145714Y-125294000D01*
X150240952Y-125246380D01*
X150479047Y-125246380D01*
X150574285Y-125294000D01*
X150621904Y-125341619D01*
X150669523Y-125436857D01*
X150669523Y-125532095D01*
X150621904Y-125674952D01*
X150050476Y-126246380D01*
X150669523Y-126246380D01*
X70866095Y-65794380D02*
X70866095Y-64794380D01*
X70866095Y-65270571D02*
X71437523Y-65270571D01*
X71437523Y-65794380D02*
X71437523Y-64794380D01*
X72437523Y-65794380D02*
X71866095Y-65794380D01*
X72151809Y-65794380D02*
X72151809Y-64794380D01*
X72056571Y-64937238D01*
X71961333Y-65032476D01*
X71866095Y-65080095D01*
D15*
X77009171Y-63202457D02*
X77502657Y-63202457D01*
X77560714Y-63173428D01*
X77589742Y-63144400D01*
X77618771Y-63086342D01*
X77618771Y-62970228D01*
X77589742Y-62912171D01*
X77560714Y-62883142D01*
X77502657Y-62854114D01*
X77009171Y-62854114D01*
X77009171Y-62621885D02*
X77009171Y-62244514D01*
X77241400Y-62447714D01*
X77241400Y-62360628D01*
X77270428Y-62302571D01*
X77299457Y-62273542D01*
X77357514Y-62244514D01*
X77502657Y-62244514D01*
X77560714Y-62273542D01*
X77589742Y-62302571D01*
X77618771Y-62360628D01*
X77618771Y-62534800D01*
X77589742Y-62592857D01*
X77560714Y-62621885D01*
X89527742Y-65873085D02*
X89556771Y-65786000D01*
X89556771Y-65640857D01*
X89527742Y-65582800D01*
X89498714Y-65553771D01*
X89440657Y-65524742D01*
X89382600Y-65524742D01*
X89324542Y-65553771D01*
X89295514Y-65582800D01*
X89266485Y-65640857D01*
X89237457Y-65756971D01*
X89208428Y-65815028D01*
X89179400Y-65844057D01*
X89121342Y-65873085D01*
X89063285Y-65873085D01*
X89005228Y-65844057D01*
X88976200Y-65815028D01*
X88947171Y-65756971D01*
X88947171Y-65611828D01*
X88976200Y-65524742D01*
X89556771Y-65263485D02*
X88947171Y-65263485D01*
X88947171Y-65031257D01*
X88976200Y-64973200D01*
X89005228Y-64944171D01*
X89063285Y-64915142D01*
X89150371Y-64915142D01*
X89208428Y-64944171D01*
X89237457Y-64973200D01*
X89266485Y-65031257D01*
X89266485Y-65263485D01*
X88947171Y-64711942D02*
X88947171Y-64334571D01*
X89179400Y-64537771D01*
X89179400Y-64450685D01*
X89208428Y-64392628D01*
X89237457Y-64363600D01*
X89295514Y-64334571D01*
X89440657Y-64334571D01*
X89498714Y-64363600D01*
X89527742Y-64392628D01*
X89556771Y-64450685D01*
X89556771Y-64624857D01*
X89527742Y-64682914D01*
X89498714Y-64711942D01*
X89005228Y-64102342D02*
X88976200Y-64073314D01*
X88947171Y-64015257D01*
X88947171Y-63870114D01*
X88976200Y-63812057D01*
X89005228Y-63783028D01*
X89063285Y-63754000D01*
X89121342Y-63754000D01*
X89208428Y-63783028D01*
X89556771Y-64131371D01*
X89556771Y-63754000D01*
X88947171Y-63550800D02*
X88947171Y-63173428D01*
X89179400Y-63376628D01*
X89179400Y-63289542D01*
X89208428Y-63231485D01*
X89237457Y-63202457D01*
X89295514Y-63173428D01*
X89440657Y-63173428D01*
X89498714Y-63202457D01*
X89527742Y-63231485D01*
X89556771Y-63289542D01*
X89556771Y-63463714D01*
X89527742Y-63521771D01*
X89498714Y-63550800D01*
X89005228Y-62941200D02*
X88976200Y-62912171D01*
X88947171Y-62854114D01*
X88947171Y-62708971D01*
X88976200Y-62650914D01*
X89005228Y-62621885D01*
X89063285Y-62592857D01*
X89121342Y-62592857D01*
X89208428Y-62621885D01*
X89556771Y-62970228D01*
X89556771Y-62592857D01*
X89237457Y-62331600D02*
X89237457Y-62128400D01*
X89556771Y-62041314D02*
X89556771Y-62331600D01*
X88947171Y-62331600D01*
X88947171Y-62041314D01*
X89237457Y-61780057D02*
X89237457Y-61576857D01*
X89556771Y-61489771D02*
X89556771Y-61780057D01*
X88947171Y-61780057D01*
X88947171Y-61489771D01*
X89556771Y-61228514D02*
X88947171Y-61228514D01*
X89556771Y-60880171D01*
X88947171Y-60880171D01*
X89324542Y-60589885D02*
X89324542Y-60125428D01*
X89556771Y-59544857D02*
X89556771Y-59835142D01*
X88947171Y-59835142D01*
D10*
X139054380Y-52577904D02*
X139863904Y-52577904D01*
X139959142Y-52530285D01*
X140006761Y-52482666D01*
X140054380Y-52387428D01*
X140054380Y-52196952D01*
X140006761Y-52101714D01*
X139959142Y-52054095D01*
X139863904Y-52006476D01*
X139054380Y-52006476D01*
X140054380Y-51006476D02*
X140054380Y-51577904D01*
X140054380Y-51292190D02*
X139054380Y-51292190D01*
X139197238Y-51387428D01*
X139292476Y-51482666D01*
X139340095Y-51577904D01*
D15*
X153789742Y-121368457D02*
X153818771Y-121281371D01*
X153818771Y-121136228D01*
X153789742Y-121078171D01*
X153760714Y-121049142D01*
X153702657Y-121020114D01*
X153644600Y-121020114D01*
X153586542Y-121049142D01*
X153557514Y-121078171D01*
X153528485Y-121136228D01*
X153499457Y-121252342D01*
X153470428Y-121310400D01*
X153441400Y-121339428D01*
X153383342Y-121368457D01*
X153325285Y-121368457D01*
X153267228Y-121339428D01*
X153238200Y-121310400D01*
X153209171Y-121252342D01*
X153209171Y-121107200D01*
X153238200Y-121020114D01*
X153818771Y-120729828D02*
X153818771Y-120613714D01*
X153789742Y-120555657D01*
X153760714Y-120526628D01*
X153673628Y-120468571D01*
X153557514Y-120439542D01*
X153325285Y-120439542D01*
X153267228Y-120468571D01*
X153238200Y-120497600D01*
X153209171Y-120555657D01*
X153209171Y-120671771D01*
X153238200Y-120729828D01*
X153267228Y-120758857D01*
X153325285Y-120787885D01*
X153470428Y-120787885D01*
X153528485Y-120758857D01*
X153557514Y-120729828D01*
X153586542Y-120671771D01*
X153586542Y-120555657D01*
X153557514Y-120497600D01*
X153528485Y-120468571D01*
X153470428Y-120439542D01*
X146325771Y-121368457D02*
X145716171Y-121368457D01*
X145716171Y-121136228D01*
X145745200Y-121078171D01*
X145774228Y-121049142D01*
X145832285Y-121020114D01*
X145919371Y-121020114D01*
X145977428Y-121049142D01*
X146006457Y-121078171D01*
X146035485Y-121136228D01*
X146035485Y-121368457D01*
X146006457Y-120555657D02*
X146035485Y-120468571D01*
X146064514Y-120439542D01*
X146122571Y-120410514D01*
X146209657Y-120410514D01*
X146267714Y-120439542D01*
X146296742Y-120468571D01*
X146325771Y-120526628D01*
X146325771Y-120758857D01*
X145716171Y-120758857D01*
X145716171Y-120555657D01*
X145745200Y-120497600D01*
X145774228Y-120468571D01*
X145832285Y-120439542D01*
X145890342Y-120439542D01*
X145948400Y-120468571D01*
X145977428Y-120497600D01*
X146006457Y-120555657D01*
X146006457Y-120758857D01*
X146423742Y-107313789D02*
X146452771Y-107226703D01*
X146452771Y-107081560D01*
X146423742Y-107023503D01*
X146394714Y-106994474D01*
X146336657Y-106965446D01*
X146278600Y-106965446D01*
X146220542Y-106994474D01*
X146191514Y-107023503D01*
X146162485Y-107081560D01*
X146133457Y-107197674D01*
X146104428Y-107255732D01*
X146075400Y-107284760D01*
X146017342Y-107313789D01*
X145959285Y-107313789D01*
X145901228Y-107284760D01*
X145872200Y-107255732D01*
X145843171Y-107197674D01*
X145843171Y-107052532D01*
X145872200Y-106965446D01*
X146104428Y-106617103D02*
X146075400Y-106675160D01*
X146046371Y-106704189D01*
X145988314Y-106733217D01*
X145959285Y-106733217D01*
X145901228Y-106704189D01*
X145872200Y-106675160D01*
X145843171Y-106617103D01*
X145843171Y-106500989D01*
X145872200Y-106442932D01*
X145901228Y-106413903D01*
X145959285Y-106384874D01*
X145988314Y-106384874D01*
X146046371Y-106413903D01*
X146075400Y-106442932D01*
X146104428Y-106500989D01*
X146104428Y-106617103D01*
X146133457Y-106675160D01*
X146162485Y-106704189D01*
X146220542Y-106733217D01*
X146336657Y-106733217D01*
X146394714Y-106704189D01*
X146423742Y-106675160D01*
X146452771Y-106617103D01*
X146452771Y-106500989D01*
X146423742Y-106442932D01*
X146394714Y-106413903D01*
X146336657Y-106384874D01*
X146220542Y-106384874D01*
X146162485Y-106413903D01*
X146133457Y-106442932D01*
X146104428Y-106500989D01*
X153945771Y-107313789D02*
X153336171Y-107313789D01*
X153336171Y-107081560D01*
X153365200Y-107023503D01*
X153394228Y-106994474D01*
X153452285Y-106965446D01*
X153539371Y-106965446D01*
X153597428Y-106994474D01*
X153626457Y-107023503D01*
X153655485Y-107081560D01*
X153655485Y-107313789D01*
X153626457Y-106500989D02*
X153655485Y-106413903D01*
X153684514Y-106384874D01*
X153742571Y-106355846D01*
X153829657Y-106355846D01*
X153887714Y-106384874D01*
X153916742Y-106413903D01*
X153945771Y-106471960D01*
X153945771Y-106704189D01*
X153336171Y-106704189D01*
X153336171Y-106500989D01*
X153365200Y-106442932D01*
X153394228Y-106413903D01*
X153452285Y-106384874D01*
X153510342Y-106384874D01*
X153568400Y-106413903D01*
X153597428Y-106442932D01*
X153626457Y-106500989D01*
X153626457Y-106704189D01*
X153789742Y-93259123D02*
X153818771Y-93172037D01*
X153818771Y-93026894D01*
X153789742Y-92968837D01*
X153760714Y-92939808D01*
X153702657Y-92910780D01*
X153644600Y-92910780D01*
X153586542Y-92939808D01*
X153557514Y-92968837D01*
X153528485Y-93026894D01*
X153499457Y-93143008D01*
X153470428Y-93201066D01*
X153441400Y-93230094D01*
X153383342Y-93259123D01*
X153325285Y-93259123D01*
X153267228Y-93230094D01*
X153238200Y-93201066D01*
X153209171Y-93143008D01*
X153209171Y-92997866D01*
X153238200Y-92910780D01*
X153209171Y-92707580D02*
X153209171Y-92301180D01*
X153818771Y-92562437D01*
X146325771Y-93259123D02*
X145716171Y-93259123D01*
X145716171Y-93026894D01*
X145745200Y-92968837D01*
X145774228Y-92939808D01*
X145832285Y-92910780D01*
X145919371Y-92910780D01*
X145977428Y-92939808D01*
X146006457Y-92968837D01*
X146035485Y-93026894D01*
X146035485Y-93259123D01*
X146006457Y-92446323D02*
X146035485Y-92359237D01*
X146064514Y-92330208D01*
X146122571Y-92301180D01*
X146209657Y-92301180D01*
X146267714Y-92330208D01*
X146296742Y-92359237D01*
X146325771Y-92417294D01*
X146325771Y-92649523D01*
X145716171Y-92649523D01*
X145716171Y-92446323D01*
X145745200Y-92388266D01*
X145774228Y-92359237D01*
X145832285Y-92330208D01*
X145890342Y-92330208D01*
X145948400Y-92359237D01*
X145977428Y-92388266D01*
X146006457Y-92446323D01*
X146006457Y-92649523D01*
X146423742Y-79204457D02*
X146452771Y-79117371D01*
X146452771Y-78972228D01*
X146423742Y-78914171D01*
X146394714Y-78885142D01*
X146336657Y-78856114D01*
X146278600Y-78856114D01*
X146220542Y-78885142D01*
X146191514Y-78914171D01*
X146162485Y-78972228D01*
X146133457Y-79088342D01*
X146104428Y-79146400D01*
X146075400Y-79175428D01*
X146017342Y-79204457D01*
X145959285Y-79204457D01*
X145901228Y-79175428D01*
X145872200Y-79146400D01*
X145843171Y-79088342D01*
X145843171Y-78943200D01*
X145872200Y-78856114D01*
X145843171Y-78333600D02*
X145843171Y-78449714D01*
X145872200Y-78507771D01*
X145901228Y-78536800D01*
X145988314Y-78594857D01*
X146104428Y-78623885D01*
X146336657Y-78623885D01*
X146394714Y-78594857D01*
X146423742Y-78565828D01*
X146452771Y-78507771D01*
X146452771Y-78391657D01*
X146423742Y-78333600D01*
X146394714Y-78304571D01*
X146336657Y-78275542D01*
X146191514Y-78275542D01*
X146133457Y-78304571D01*
X146104428Y-78333600D01*
X146075400Y-78391657D01*
X146075400Y-78507771D01*
X146104428Y-78565828D01*
X146133457Y-78594857D01*
X146191514Y-78623885D01*
X153945771Y-79204457D02*
X153336171Y-79204457D01*
X153336171Y-78972228D01*
X153365200Y-78914171D01*
X153394228Y-78885142D01*
X153452285Y-78856114D01*
X153539371Y-78856114D01*
X153597428Y-78885142D01*
X153626457Y-78914171D01*
X153655485Y-78972228D01*
X153655485Y-79204457D01*
X153626457Y-78391657D02*
X153655485Y-78304571D01*
X153684514Y-78275542D01*
X153742571Y-78246514D01*
X153829657Y-78246514D01*
X153887714Y-78275542D01*
X153916742Y-78304571D01*
X153945771Y-78362628D01*
X153945771Y-78594857D01*
X153336171Y-78594857D01*
X153336171Y-78391657D01*
X153365200Y-78333600D01*
X153394228Y-78304571D01*
X153452285Y-78275542D01*
X153510342Y-78275542D01*
X153568400Y-78304571D01*
X153597428Y-78333600D01*
X153626457Y-78391657D01*
X153626457Y-78594857D01*
X68191742Y-121622457D02*
X68220771Y-121535371D01*
X68220771Y-121390228D01*
X68191742Y-121332171D01*
X68162714Y-121303142D01*
X68104657Y-121274114D01*
X68046600Y-121274114D01*
X67988542Y-121303142D01*
X67959514Y-121332171D01*
X67930485Y-121390228D01*
X67901457Y-121506342D01*
X67872428Y-121564400D01*
X67843400Y-121593428D01*
X67785342Y-121622457D01*
X67727285Y-121622457D01*
X67669228Y-121593428D01*
X67640200Y-121564400D01*
X67611171Y-121506342D01*
X67611171Y-121361200D01*
X67640200Y-121274114D01*
X67611171Y-120722571D02*
X67611171Y-121012857D01*
X67901457Y-121041885D01*
X67872428Y-121012857D01*
X67843400Y-120954800D01*
X67843400Y-120809657D01*
X67872428Y-120751600D01*
X67901457Y-120722571D01*
X67959514Y-120693542D01*
X68104657Y-120693542D01*
X68162714Y-120722571D01*
X68191742Y-120751600D01*
X68220771Y-120809657D01*
X68220771Y-120954800D01*
X68191742Y-121012857D01*
X68162714Y-121041885D01*
X75713771Y-121622457D02*
X75104171Y-121622457D01*
X75104171Y-121390228D01*
X75133200Y-121332171D01*
X75162228Y-121303142D01*
X75220285Y-121274114D01*
X75307371Y-121274114D01*
X75365428Y-121303142D01*
X75394457Y-121332171D01*
X75423485Y-121390228D01*
X75423485Y-121622457D01*
X75394457Y-120809657D02*
X75423485Y-120722571D01*
X75452514Y-120693542D01*
X75510571Y-120664514D01*
X75597657Y-120664514D01*
X75655714Y-120693542D01*
X75684742Y-120722571D01*
X75713771Y-120780628D01*
X75713771Y-121012857D01*
X75104171Y-121012857D01*
X75104171Y-120809657D01*
X75133200Y-120751600D01*
X75162228Y-120722571D01*
X75220285Y-120693542D01*
X75278342Y-120693542D01*
X75336400Y-120722571D01*
X75365428Y-120751600D01*
X75394457Y-120809657D01*
X75394457Y-121012857D01*
X75557742Y-107567789D02*
X75586771Y-107480703D01*
X75586771Y-107335560D01*
X75557742Y-107277503D01*
X75528714Y-107248474D01*
X75470657Y-107219446D01*
X75412600Y-107219446D01*
X75354542Y-107248474D01*
X75325514Y-107277503D01*
X75296485Y-107335560D01*
X75267457Y-107451674D01*
X75238428Y-107509732D01*
X75209400Y-107538760D01*
X75151342Y-107567789D01*
X75093285Y-107567789D01*
X75035228Y-107538760D01*
X75006200Y-107509732D01*
X74977171Y-107451674D01*
X74977171Y-107306532D01*
X75006200Y-107219446D01*
X75180371Y-106696932D02*
X75586771Y-106696932D01*
X74948142Y-106842074D02*
X75383571Y-106987217D01*
X75383571Y-106609846D01*
X68093771Y-107567789D02*
X67484171Y-107567789D01*
X67484171Y-107335560D01*
X67513200Y-107277503D01*
X67542228Y-107248474D01*
X67600285Y-107219446D01*
X67687371Y-107219446D01*
X67745428Y-107248474D01*
X67774457Y-107277503D01*
X67803485Y-107335560D01*
X67803485Y-107567789D01*
X67774457Y-106754989D02*
X67803485Y-106667903D01*
X67832514Y-106638874D01*
X67890571Y-106609846D01*
X67977657Y-106609846D01*
X68035714Y-106638874D01*
X68064742Y-106667903D01*
X68093771Y-106725960D01*
X68093771Y-106958189D01*
X67484171Y-106958189D01*
X67484171Y-106754989D01*
X67513200Y-106696932D01*
X67542228Y-106667903D01*
X67600285Y-106638874D01*
X67658342Y-106638874D01*
X67716400Y-106667903D01*
X67745428Y-106696932D01*
X67774457Y-106754989D01*
X67774457Y-106958189D01*
X75557742Y-93513123D02*
X75586771Y-93426037D01*
X75586771Y-93280894D01*
X75557742Y-93222837D01*
X75528714Y-93193808D01*
X75470657Y-93164780D01*
X75412600Y-93164780D01*
X75354542Y-93193808D01*
X75325514Y-93222837D01*
X75296485Y-93280894D01*
X75267457Y-93397008D01*
X75238428Y-93455066D01*
X75209400Y-93484094D01*
X75151342Y-93513123D01*
X75093285Y-93513123D01*
X75035228Y-93484094D01*
X75006200Y-93455066D01*
X74977171Y-93397008D01*
X74977171Y-93251866D01*
X75006200Y-93164780D01*
X74977171Y-92961580D02*
X74977171Y-92584208D01*
X75209400Y-92787408D01*
X75209400Y-92700323D01*
X75238428Y-92642266D01*
X75267457Y-92613237D01*
X75325514Y-92584208D01*
X75470657Y-92584208D01*
X75528714Y-92613237D01*
X75557742Y-92642266D01*
X75586771Y-92700323D01*
X75586771Y-92874494D01*
X75557742Y-92932551D01*
X75528714Y-92961580D01*
X68093771Y-93513123D02*
X67484171Y-93513123D01*
X67484171Y-93280894D01*
X67513200Y-93222837D01*
X67542228Y-93193808D01*
X67600285Y-93164780D01*
X67687371Y-93164780D01*
X67745428Y-93193808D01*
X67774457Y-93222837D01*
X67803485Y-93280894D01*
X67803485Y-93513123D01*
X67774457Y-92700323D02*
X67803485Y-92613237D01*
X67832514Y-92584208D01*
X67890571Y-92555180D01*
X67977657Y-92555180D01*
X68035714Y-92584208D01*
X68064742Y-92613237D01*
X68093771Y-92671294D01*
X68093771Y-92903523D01*
X67484171Y-92903523D01*
X67484171Y-92700323D01*
X67513200Y-92642266D01*
X67542228Y-92613237D01*
X67600285Y-92584208D01*
X67658342Y-92584208D01*
X67716400Y-92613237D01*
X67745428Y-92642266D01*
X67774457Y-92700323D01*
X67774457Y-92903523D01*
X68191742Y-79458457D02*
X68220771Y-79371371D01*
X68220771Y-79226228D01*
X68191742Y-79168171D01*
X68162714Y-79139142D01*
X68104657Y-79110114D01*
X68046600Y-79110114D01*
X67988542Y-79139142D01*
X67959514Y-79168171D01*
X67930485Y-79226228D01*
X67901457Y-79342342D01*
X67872428Y-79400400D01*
X67843400Y-79429428D01*
X67785342Y-79458457D01*
X67727285Y-79458457D01*
X67669228Y-79429428D01*
X67640200Y-79400400D01*
X67611171Y-79342342D01*
X67611171Y-79197200D01*
X67640200Y-79110114D01*
X67669228Y-78877885D02*
X67640200Y-78848857D01*
X67611171Y-78790800D01*
X67611171Y-78645657D01*
X67640200Y-78587600D01*
X67669228Y-78558571D01*
X67727285Y-78529542D01*
X67785342Y-78529542D01*
X67872428Y-78558571D01*
X68220771Y-78906914D01*
X68220771Y-78529542D01*
X75713771Y-79458457D02*
X75104171Y-79458457D01*
X75104171Y-79226228D01*
X75133200Y-79168171D01*
X75162228Y-79139142D01*
X75220285Y-79110114D01*
X75307371Y-79110114D01*
X75365428Y-79139142D01*
X75394457Y-79168171D01*
X75423485Y-79226228D01*
X75423485Y-79458457D01*
X75394457Y-78645657D02*
X75423485Y-78558571D01*
X75452514Y-78529542D01*
X75510571Y-78500514D01*
X75597657Y-78500514D01*
X75655714Y-78529542D01*
X75684742Y-78558571D01*
X75713771Y-78616628D01*
X75713771Y-78848857D01*
X75104171Y-78848857D01*
X75104171Y-78645657D01*
X75133200Y-78587600D01*
X75162228Y-78558571D01*
X75220285Y-78529542D01*
X75278342Y-78529542D01*
X75336400Y-78558571D01*
X75365428Y-78587600D01*
X75394457Y-78645657D01*
X75394457Y-78848857D01*
D10*
X119706380Y-123864666D02*
X119230190Y-124198000D01*
X119706380Y-124436095D02*
X118706380Y-124436095D01*
X118706380Y-124055142D01*
X118754000Y-123959904D01*
X118801619Y-123912285D01*
X118896857Y-123864666D01*
X119039714Y-123864666D01*
X119134952Y-123912285D01*
X119182571Y-123959904D01*
X119230190Y-124055142D01*
X119230190Y-124436095D01*
X118706380Y-123531333D02*
X118706380Y-122912285D01*
X119087333Y-123245619D01*
X119087333Y-123102761D01*
X119134952Y-123007523D01*
X119182571Y-122959904D01*
X119277809Y-122912285D01*
X119515904Y-122912285D01*
X119611142Y-122959904D01*
X119658761Y-123007523D01*
X119706380Y-123102761D01*
X119706380Y-123388476D01*
X119658761Y-123483714D01*
X119611142Y-123531333D01*
X108276380Y-123864666D02*
X107800190Y-124198000D01*
X108276380Y-124436095D02*
X107276380Y-124436095D01*
X107276380Y-124055142D01*
X107324000Y-123959904D01*
X107371619Y-123912285D01*
X107466857Y-123864666D01*
X107609714Y-123864666D01*
X107704952Y-123912285D01*
X107752571Y-123959904D01*
X107800190Y-124055142D01*
X107800190Y-124436095D01*
X107371619Y-123483714D02*
X107324000Y-123436095D01*
X107276380Y-123340857D01*
X107276380Y-123102761D01*
X107324000Y-123007523D01*
X107371619Y-122959904D01*
X107466857Y-122912285D01*
X107562095Y-122912285D01*
X107704952Y-122959904D01*
X108276380Y-123531333D01*
X108276380Y-122912285D01*
X97100380Y-123864666D02*
X96624190Y-124198000D01*
X97100380Y-124436095D02*
X96100380Y-124436095D01*
X96100380Y-124055142D01*
X96148000Y-123959904D01*
X96195619Y-123912285D01*
X96290857Y-123864666D01*
X96433714Y-123864666D01*
X96528952Y-123912285D01*
X96576571Y-123959904D01*
X96624190Y-124055142D01*
X96624190Y-124436095D01*
X97100380Y-122912285D02*
X97100380Y-123483714D01*
X97100380Y-123198000D02*
X96100380Y-123198000D01*
X96243238Y-123293238D01*
X96338476Y-123388476D01*
X96386095Y-123483714D01*
X58508380Y-56721333D02*
X59222666Y-56721333D01*
X59365523Y-56768952D01*
X59460761Y-56864190D01*
X59508380Y-57007047D01*
X59508380Y-57102285D01*
X58508380Y-56340380D02*
X58508380Y-55721333D01*
X58889333Y-56054666D01*
X58889333Y-55911809D01*
X58936952Y-55816571D01*
X58984571Y-55768952D01*
X59079809Y-55721333D01*
X59317904Y-55721333D01*
X59413142Y-55768952D01*
X59460761Y-55816571D01*
X59508380Y-55911809D01*
X59508380Y-56197523D01*
X59460761Y-56292761D01*
X59413142Y-56340380D01*
X50164666Y-92018380D02*
X50164666Y-92732666D01*
X50117047Y-92875523D01*
X50021809Y-92970761D01*
X49878952Y-93018380D01*
X49783714Y-93018380D01*
X50593238Y-92113619D02*
X50640857Y-92066000D01*
X50736095Y-92018380D01*
X50974190Y-92018380D01*
X51069428Y-92066000D01*
X51117047Y-92113619D01*
X51164666Y-92208857D01*
X51164666Y-92304095D01*
X51117047Y-92446952D01*
X50545619Y-93018380D01*
X51164666Y-93018380D01*
X50164666Y-49888380D02*
X50164666Y-50602666D01*
X50117047Y-50745523D01*
X50021809Y-50840761D01*
X49878952Y-50888380D01*
X49783714Y-50888380D01*
X51164666Y-50888380D02*
X50593238Y-50888380D01*
X50878952Y-50888380D02*
X50878952Y-49888380D01*
X50783714Y-50031238D01*
X50688476Y-50126476D01*
X50593238Y-50174095D01*
D15*
X121724057Y-129259511D02*
X121724057Y-128649911D01*
X121869200Y-128649911D01*
X121956285Y-128678940D01*
X122014342Y-128736997D01*
X122043371Y-128795054D01*
X122072400Y-128911168D01*
X122072400Y-128998254D01*
X122043371Y-129114368D01*
X122014342Y-129172425D01*
X121956285Y-129230482D01*
X121869200Y-129259511D01*
X121724057Y-129259511D01*
X122275600Y-128649911D02*
X122652971Y-128649911D01*
X122449771Y-128882140D01*
X122536857Y-128882140D01*
X122594914Y-128911168D01*
X122623942Y-128940197D01*
X122652971Y-128998254D01*
X122652971Y-129143397D01*
X122623942Y-129201454D01*
X122594914Y-129230482D01*
X122536857Y-129259511D01*
X122362685Y-129259511D01*
X122304628Y-129230482D01*
X122275600Y-129201454D01*
X121782114Y-134514771D02*
X121491828Y-134514771D01*
X121491828Y-133905171D01*
X121985314Y-134195457D02*
X122188514Y-134195457D01*
X122275600Y-134514771D02*
X121985314Y-134514771D01*
X121985314Y-133905171D01*
X122275600Y-133905171D01*
X122536857Y-134514771D02*
X122536857Y-133905171D01*
X122682000Y-133905171D01*
X122769085Y-133934200D01*
X122827142Y-133992257D01*
X122856171Y-134050314D01*
X122885200Y-134166428D01*
X122885200Y-134253514D01*
X122856171Y-134369628D01*
X122827142Y-134427685D01*
X122769085Y-134485742D01*
X122682000Y-134514771D01*
X122536857Y-134514771D01*
X110421057Y-129259511D02*
X110421057Y-128649911D01*
X110566200Y-128649911D01*
X110653285Y-128678940D01*
X110711342Y-128736997D01*
X110740371Y-128795054D01*
X110769400Y-128911168D01*
X110769400Y-128998254D01*
X110740371Y-129114368D01*
X110711342Y-129172425D01*
X110653285Y-129230482D01*
X110566200Y-129259511D01*
X110421057Y-129259511D01*
X111001628Y-128707968D02*
X111030657Y-128678940D01*
X111088714Y-128649911D01*
X111233857Y-128649911D01*
X111291914Y-128678940D01*
X111320942Y-128707968D01*
X111349971Y-128766025D01*
X111349971Y-128824082D01*
X111320942Y-128911168D01*
X110972600Y-129259511D01*
X111349971Y-129259511D01*
X110479114Y-134514771D02*
X110188828Y-134514771D01*
X110188828Y-133905171D01*
X110682314Y-134195457D02*
X110885514Y-134195457D01*
X110972600Y-134514771D02*
X110682314Y-134514771D01*
X110682314Y-133905171D01*
X110972600Y-133905171D01*
X111233857Y-134514771D02*
X111233857Y-133905171D01*
X111379000Y-133905171D01*
X111466085Y-133934200D01*
X111524142Y-133992257D01*
X111553171Y-134050314D01*
X111582200Y-134166428D01*
X111582200Y-134253514D01*
X111553171Y-134369628D01*
X111524142Y-134427685D01*
X111466085Y-134485742D01*
X111379000Y-134514771D01*
X111233857Y-134514771D01*
X99118057Y-129259511D02*
X99118057Y-128649911D01*
X99263200Y-128649911D01*
X99350285Y-128678940D01*
X99408342Y-128736997D01*
X99437371Y-128795054D01*
X99466400Y-128911168D01*
X99466400Y-128998254D01*
X99437371Y-129114368D01*
X99408342Y-129172425D01*
X99350285Y-129230482D01*
X99263200Y-129259511D01*
X99118057Y-129259511D01*
X100046971Y-129259511D02*
X99698628Y-129259511D01*
X99872800Y-129259511D02*
X99872800Y-128649911D01*
X99814742Y-128736997D01*
X99756685Y-128795054D01*
X99698628Y-128824082D01*
X99176114Y-134514771D02*
X98885828Y-134514771D01*
X98885828Y-133905171D01*
X99379314Y-134195457D02*
X99582514Y-134195457D01*
X99669600Y-134514771D02*
X99379314Y-134514771D01*
X99379314Y-133905171D01*
X99669600Y-133905171D01*
X99930857Y-134514771D02*
X99930857Y-133905171D01*
X100076000Y-133905171D01*
X100163085Y-133934200D01*
X100221142Y-133992257D01*
X100250171Y-134050314D01*
X100279200Y-134166428D01*
X100279200Y-134253514D01*
X100250171Y-134369628D01*
X100221142Y-134427685D01*
X100163085Y-134485742D01*
X100076000Y-134514771D01*
X99930857Y-134514771D01*
X76098400Y-66765714D02*
X76069371Y-66794742D01*
X75982285Y-66823771D01*
X75924228Y-66823771D01*
X75837142Y-66794742D01*
X75779085Y-66736685D01*
X75750057Y-66678628D01*
X75721028Y-66562514D01*
X75721028Y-66475428D01*
X75750057Y-66359314D01*
X75779085Y-66301257D01*
X75837142Y-66243200D01*
X75924228Y-66214171D01*
X75982285Y-66214171D01*
X76069371Y-66243200D01*
X76098400Y-66272228D01*
X76620914Y-66214171D02*
X76504800Y-66214171D01*
X76446742Y-66243200D01*
X76417714Y-66272228D01*
X76359657Y-66359314D01*
X76330628Y-66475428D01*
X76330628Y-66707657D01*
X76359657Y-66765714D01*
X76388685Y-66794742D01*
X76446742Y-66823771D01*
X76562857Y-66823771D01*
X76620914Y-66794742D01*
X76649942Y-66765714D01*
X76678971Y-66707657D01*
X76678971Y-66562514D01*
X76649942Y-66504457D01*
X76620914Y-66475428D01*
X76562857Y-66446400D01*
X76446742Y-66446400D01*
X76388685Y-66475428D01*
X76359657Y-66504457D01*
X76330628Y-66562514D01*
X75198514Y-63674171D02*
X75256571Y-63674171D01*
X75314628Y-63703200D01*
X75343657Y-63732228D01*
X75372685Y-63790285D01*
X75401714Y-63906400D01*
X75401714Y-64051542D01*
X75372685Y-64167657D01*
X75343657Y-64225714D01*
X75314628Y-64254742D01*
X75256571Y-64283771D01*
X75198514Y-64283771D01*
X75140457Y-64254742D01*
X75111428Y-64225714D01*
X75082400Y-64167657D01*
X75053371Y-64051542D01*
X75053371Y-63906400D01*
X75082400Y-63790285D01*
X75111428Y-63732228D01*
X75140457Y-63703200D01*
X75198514Y-63674171D01*
X75662971Y-64225714D02*
X75692000Y-64254742D01*
X75662971Y-64283771D01*
X75633942Y-64254742D01*
X75662971Y-64225714D01*
X75662971Y-64283771D01*
X76272571Y-64283771D02*
X75924228Y-64283771D01*
X76098400Y-64283771D02*
X76098400Y-63674171D01*
X76040342Y-63761257D01*
X75982285Y-63819314D01*
X75924228Y-63848342D01*
X76795085Y-63877371D02*
X76795085Y-64283771D01*
X76533828Y-63877371D02*
X76533828Y-64196685D01*
X76562857Y-64254742D01*
X76620914Y-64283771D01*
X76708000Y-64283771D01*
X76766057Y-64254742D01*
X76795085Y-64225714D01*
X77288571Y-63964457D02*
X77085371Y-63964457D01*
X77085371Y-64283771D02*
X77085371Y-63674171D01*
X77375657Y-63674171D01*
X87919560Y-67527714D02*
X87890531Y-67556742D01*
X87803445Y-67585771D01*
X87745388Y-67585771D01*
X87658302Y-67556742D01*
X87600245Y-67498685D01*
X87571217Y-67440628D01*
X87542188Y-67324514D01*
X87542188Y-67237428D01*
X87571217Y-67121314D01*
X87600245Y-67063257D01*
X87658302Y-67005200D01*
X87745388Y-66976171D01*
X87803445Y-66976171D01*
X87890531Y-67005200D01*
X87919560Y-67034228D01*
X88471102Y-66976171D02*
X88180817Y-66976171D01*
X88151788Y-67266457D01*
X88180817Y-67237428D01*
X88238874Y-67208400D01*
X88384017Y-67208400D01*
X88442074Y-67237428D01*
X88471102Y-67266457D01*
X88500131Y-67324514D01*
X88500131Y-67469657D01*
X88471102Y-67527714D01*
X88442074Y-67556742D01*
X88384017Y-67585771D01*
X88238874Y-67585771D01*
X88180817Y-67556742D01*
X88151788Y-67527714D01*
X87019674Y-69516171D02*
X87077731Y-69516171D01*
X87135788Y-69545200D01*
X87164817Y-69574228D01*
X87193845Y-69632285D01*
X87222874Y-69748400D01*
X87222874Y-69893542D01*
X87193845Y-70009657D01*
X87164817Y-70067714D01*
X87135788Y-70096742D01*
X87077731Y-70125771D01*
X87019674Y-70125771D01*
X86961617Y-70096742D01*
X86932588Y-70067714D01*
X86903560Y-70009657D01*
X86874531Y-69893542D01*
X86874531Y-69748400D01*
X86903560Y-69632285D01*
X86932588Y-69574228D01*
X86961617Y-69545200D01*
X87019674Y-69516171D01*
X87484131Y-70067714D02*
X87513160Y-70096742D01*
X87484131Y-70125771D01*
X87455102Y-70096742D01*
X87484131Y-70067714D01*
X87484131Y-70125771D01*
X88093731Y-70125771D02*
X87745388Y-70125771D01*
X87919560Y-70125771D02*
X87919560Y-69516171D01*
X87861502Y-69603257D01*
X87803445Y-69661314D01*
X87745388Y-69690342D01*
X88616245Y-69719371D02*
X88616245Y-70125771D01*
X88354988Y-69719371D02*
X88354988Y-70038685D01*
X88384017Y-70096742D01*
X88442074Y-70125771D01*
X88529160Y-70125771D01*
X88587217Y-70096742D01*
X88616245Y-70067714D01*
X89109731Y-69806457D02*
X88906531Y-69806457D01*
X88906531Y-70125771D02*
X88906531Y-69516171D01*
X89196817Y-69516171D01*
X76098400Y-61431714D02*
X76069371Y-61460742D01*
X75982285Y-61489771D01*
X75924228Y-61489771D01*
X75837142Y-61460742D01*
X75779085Y-61402685D01*
X75750057Y-61344628D01*
X75721028Y-61228514D01*
X75721028Y-61141428D01*
X75750057Y-61025314D01*
X75779085Y-60967257D01*
X75837142Y-60909200D01*
X75924228Y-60880171D01*
X75982285Y-60880171D01*
X76069371Y-60909200D01*
X76098400Y-60938228D01*
X76620914Y-61083371D02*
X76620914Y-61489771D01*
X76475771Y-60851142D02*
X76330628Y-61286571D01*
X76708000Y-61286571D01*
X75198514Y-58340171D02*
X75256571Y-58340171D01*
X75314628Y-58369200D01*
X75343657Y-58398228D01*
X75372685Y-58456285D01*
X75401714Y-58572400D01*
X75401714Y-58717542D01*
X75372685Y-58833657D01*
X75343657Y-58891714D01*
X75314628Y-58920742D01*
X75256571Y-58949771D01*
X75198514Y-58949771D01*
X75140457Y-58920742D01*
X75111428Y-58891714D01*
X75082400Y-58833657D01*
X75053371Y-58717542D01*
X75053371Y-58572400D01*
X75082400Y-58456285D01*
X75111428Y-58398228D01*
X75140457Y-58369200D01*
X75198514Y-58340171D01*
X75662971Y-58891714D02*
X75692000Y-58920742D01*
X75662971Y-58949771D01*
X75633942Y-58920742D01*
X75662971Y-58891714D01*
X75662971Y-58949771D01*
X76272571Y-58949771D02*
X75924228Y-58949771D01*
X76098400Y-58949771D02*
X76098400Y-58340171D01*
X76040342Y-58427257D01*
X75982285Y-58485314D01*
X75924228Y-58514342D01*
X76795085Y-58543371D02*
X76795085Y-58949771D01*
X76533828Y-58543371D02*
X76533828Y-58862685D01*
X76562857Y-58920742D01*
X76620914Y-58949771D01*
X76708000Y-58949771D01*
X76766057Y-58920742D01*
X76795085Y-58891714D01*
X77288571Y-58630457D02*
X77085371Y-58630457D01*
X77085371Y-58949771D02*
X77085371Y-58340171D01*
X77375657Y-58340171D01*
X83855560Y-67527714D02*
X83826531Y-67556742D01*
X83739445Y-67585771D01*
X83681388Y-67585771D01*
X83594302Y-67556742D01*
X83536245Y-67498685D01*
X83507217Y-67440628D01*
X83478188Y-67324514D01*
X83478188Y-67237428D01*
X83507217Y-67121314D01*
X83536245Y-67063257D01*
X83594302Y-67005200D01*
X83681388Y-66976171D01*
X83739445Y-66976171D01*
X83826531Y-67005200D01*
X83855560Y-67034228D01*
X84058760Y-66976171D02*
X84436131Y-66976171D01*
X84232931Y-67208400D01*
X84320017Y-67208400D01*
X84378074Y-67237428D01*
X84407102Y-67266457D01*
X84436131Y-67324514D01*
X84436131Y-67469657D01*
X84407102Y-67527714D01*
X84378074Y-67556742D01*
X84320017Y-67585771D01*
X84145845Y-67585771D01*
X84087788Y-67556742D01*
X84058760Y-67527714D01*
X82955674Y-69516171D02*
X83013731Y-69516171D01*
X83071788Y-69545200D01*
X83100817Y-69574228D01*
X83129845Y-69632285D01*
X83158874Y-69748400D01*
X83158874Y-69893542D01*
X83129845Y-70009657D01*
X83100817Y-70067714D01*
X83071788Y-70096742D01*
X83013731Y-70125771D01*
X82955674Y-70125771D01*
X82897617Y-70096742D01*
X82868588Y-70067714D01*
X82839560Y-70009657D01*
X82810531Y-69893542D01*
X82810531Y-69748400D01*
X82839560Y-69632285D01*
X82868588Y-69574228D01*
X82897617Y-69545200D01*
X82955674Y-69516171D01*
X83420131Y-70067714D02*
X83449160Y-70096742D01*
X83420131Y-70125771D01*
X83391102Y-70096742D01*
X83420131Y-70067714D01*
X83420131Y-70125771D01*
X84029731Y-70125771D02*
X83681388Y-70125771D01*
X83855560Y-70125771D02*
X83855560Y-69516171D01*
X83797502Y-69603257D01*
X83739445Y-69661314D01*
X83681388Y-69690342D01*
X84552245Y-69719371D02*
X84552245Y-70125771D01*
X84290988Y-69719371D02*
X84290988Y-70038685D01*
X84320017Y-70096742D01*
X84378074Y-70125771D01*
X84465160Y-70125771D01*
X84523217Y-70096742D01*
X84552245Y-70067714D01*
X85045731Y-69806457D02*
X84842531Y-69806457D01*
X84842531Y-70125771D02*
X84842531Y-69516171D01*
X85132817Y-69516171D01*
X79908400Y-67527714D02*
X79879371Y-67556742D01*
X79792285Y-67585771D01*
X79734228Y-67585771D01*
X79647142Y-67556742D01*
X79589085Y-67498685D01*
X79560057Y-67440628D01*
X79531028Y-67324514D01*
X79531028Y-67237428D01*
X79560057Y-67121314D01*
X79589085Y-67063257D01*
X79647142Y-67005200D01*
X79734228Y-66976171D01*
X79792285Y-66976171D01*
X79879371Y-67005200D01*
X79908400Y-67034228D01*
X80140628Y-67034228D02*
X80169657Y-67005200D01*
X80227714Y-66976171D01*
X80372857Y-66976171D01*
X80430914Y-67005200D01*
X80459942Y-67034228D01*
X80488971Y-67092285D01*
X80488971Y-67150342D01*
X80459942Y-67237428D01*
X80111600Y-67585771D01*
X80488971Y-67585771D01*
X79008514Y-69516171D02*
X79066571Y-69516171D01*
X79124628Y-69545200D01*
X79153657Y-69574228D01*
X79182685Y-69632285D01*
X79211714Y-69748400D01*
X79211714Y-69893542D01*
X79182685Y-70009657D01*
X79153657Y-70067714D01*
X79124628Y-70096742D01*
X79066571Y-70125771D01*
X79008514Y-70125771D01*
X78950457Y-70096742D01*
X78921428Y-70067714D01*
X78892400Y-70009657D01*
X78863371Y-69893542D01*
X78863371Y-69748400D01*
X78892400Y-69632285D01*
X78921428Y-69574228D01*
X78950457Y-69545200D01*
X79008514Y-69516171D01*
X79472971Y-70067714D02*
X79502000Y-70096742D01*
X79472971Y-70125771D01*
X79443942Y-70096742D01*
X79472971Y-70067714D01*
X79472971Y-70125771D01*
X80082571Y-70125771D02*
X79734228Y-70125771D01*
X79908400Y-70125771D02*
X79908400Y-69516171D01*
X79850342Y-69603257D01*
X79792285Y-69661314D01*
X79734228Y-69690342D01*
X80605085Y-69719371D02*
X80605085Y-70125771D01*
X80343828Y-69719371D02*
X80343828Y-70038685D01*
X80372857Y-70096742D01*
X80430914Y-70125771D01*
X80518000Y-70125771D01*
X80576057Y-70096742D01*
X80605085Y-70067714D01*
X81098571Y-69806457D02*
X80895371Y-69806457D01*
X80895371Y-70125771D02*
X80895371Y-69516171D01*
X81185657Y-69516171D01*
M02*
