G04 #@! TF.GenerationSoftware,KiCad,Pcbnew,(5.1.5)-3*
G04 #@! TF.CreationDate,2022-01-01T12:53:55-05:00*
G04 #@! TF.ProjectId,K3_RVFO,4b335f52-5646-44f2-9e6b-696361645f70,rev?*
G04 #@! TF.SameCoordinates,Original*
G04 #@! TF.FileFunction,Soldermask,Bot*
G04 #@! TF.FilePolarity,Negative*
%FSLAX46Y46*%
G04 Gerber Fmt 4.6, Leading zero omitted, Abs format (unit mm)*
G04 Created by KiCad (PCBNEW (5.1.5)-3) date 2022-01-01 12:53:55*
%MOMM*%
%LPD*%
G04 APERTURE LIST*
%ADD10C,0.100000*%
G04 APERTURE END LIST*
D10*
G36*
X150749943Y-126860248D02*
G01*
X151305189Y-127090238D01*
X151305190Y-127090239D01*
X151804899Y-127424134D01*
X152229866Y-127849101D01*
X152229867Y-127849103D01*
X152563762Y-128348811D01*
X152793752Y-128904057D01*
X152911000Y-129493501D01*
X152911000Y-130094499D01*
X152793752Y-130683943D01*
X152563762Y-131239189D01*
X152409919Y-131469431D01*
X152229866Y-131738899D01*
X151804899Y-132163866D01*
X151697164Y-132235852D01*
X151305189Y-132497762D01*
X150749943Y-132727752D01*
X150160499Y-132845000D01*
X149559501Y-132845000D01*
X148970057Y-132727752D01*
X148414811Y-132497762D01*
X148022836Y-132235852D01*
X147915101Y-132163866D01*
X147490134Y-131738899D01*
X147310081Y-131469431D01*
X147156238Y-131239189D01*
X146926248Y-130683943D01*
X146809000Y-130094499D01*
X146809000Y-129493501D01*
X146926248Y-128904057D01*
X147156238Y-128348811D01*
X147490133Y-127849103D01*
X147490134Y-127849101D01*
X147915101Y-127424134D01*
X148414810Y-127090239D01*
X148414811Y-127090238D01*
X148970057Y-126860248D01*
X149559501Y-126743000D01*
X150160499Y-126743000D01*
X150749943Y-126860248D01*
G37*
G36*
X72517943Y-126860248D02*
G01*
X73073189Y-127090238D01*
X73073190Y-127090239D01*
X73572899Y-127424134D01*
X73997866Y-127849101D01*
X73997867Y-127849103D01*
X74331762Y-128348811D01*
X74561752Y-128904057D01*
X74679000Y-129493501D01*
X74679000Y-130094499D01*
X74561752Y-130683943D01*
X74331762Y-131239189D01*
X74177919Y-131469431D01*
X73997866Y-131738899D01*
X73572899Y-132163866D01*
X73465164Y-132235852D01*
X73073189Y-132497762D01*
X72517943Y-132727752D01*
X71928499Y-132845000D01*
X71327501Y-132845000D01*
X70738057Y-132727752D01*
X70182811Y-132497762D01*
X69790836Y-132235852D01*
X69683101Y-132163866D01*
X69258134Y-131738899D01*
X69078081Y-131469431D01*
X68924238Y-131239189D01*
X68694248Y-130683943D01*
X68577000Y-130094499D01*
X68577000Y-129493501D01*
X68694248Y-128904057D01*
X68924238Y-128348811D01*
X69258133Y-127849103D01*
X69258134Y-127849101D01*
X69683101Y-127424134D01*
X70182810Y-127090239D01*
X70182811Y-127090238D01*
X70738057Y-126860248D01*
X71327501Y-126743000D01*
X71928499Y-126743000D01*
X72517943Y-126860248D01*
G37*
G36*
X98601765Y-130570620D02*
G01*
X98791288Y-130649123D01*
X98961854Y-130763092D01*
X99106908Y-130908146D01*
X99106909Y-130908148D01*
X99220878Y-131078714D01*
X99299380Y-131268235D01*
X99339400Y-131469430D01*
X99339400Y-131674570D01*
X99326604Y-131738899D01*
X99299380Y-131875765D01*
X99220877Y-132065288D01*
X99106908Y-132235854D01*
X98961854Y-132380908D01*
X98791288Y-132494877D01*
X98791287Y-132494878D01*
X98791286Y-132494878D01*
X98601765Y-132573380D01*
X98400570Y-132613400D01*
X98195430Y-132613400D01*
X97994235Y-132573380D01*
X97804714Y-132494878D01*
X97804713Y-132494878D01*
X97804712Y-132494877D01*
X97634146Y-132380908D01*
X97489092Y-132235854D01*
X97375123Y-132065288D01*
X97296620Y-131875765D01*
X97269396Y-131738899D01*
X97256600Y-131674570D01*
X97256600Y-131469430D01*
X97296620Y-131268235D01*
X97375122Y-131078714D01*
X97489091Y-130908148D01*
X97489092Y-130908146D01*
X97634146Y-130763092D01*
X97804712Y-130649123D01*
X97994235Y-130570620D01*
X98195430Y-130530600D01*
X98400570Y-130530600D01*
X98601765Y-130570620D01*
G37*
G36*
X101141765Y-130570620D02*
G01*
X101331288Y-130649123D01*
X101501854Y-130763092D01*
X101646908Y-130908146D01*
X101646909Y-130908148D01*
X101760878Y-131078714D01*
X101839380Y-131268235D01*
X101879400Y-131469430D01*
X101879400Y-131674570D01*
X101866604Y-131738899D01*
X101839380Y-131875765D01*
X101760877Y-132065288D01*
X101646908Y-132235854D01*
X101501854Y-132380908D01*
X101331288Y-132494877D01*
X101331287Y-132494878D01*
X101331286Y-132494878D01*
X101141765Y-132573380D01*
X100940570Y-132613400D01*
X100735430Y-132613400D01*
X100534235Y-132573380D01*
X100344714Y-132494878D01*
X100344713Y-132494878D01*
X100344712Y-132494877D01*
X100174146Y-132380908D01*
X100029092Y-132235854D01*
X99915123Y-132065288D01*
X99836620Y-131875765D01*
X99809396Y-131738899D01*
X99796600Y-131674570D01*
X99796600Y-131469430D01*
X99836620Y-131268235D01*
X99915122Y-131078714D01*
X100029091Y-130908148D01*
X100029092Y-130908146D01*
X100174146Y-130763092D01*
X100344712Y-130649123D01*
X100534235Y-130570620D01*
X100735430Y-130530600D01*
X100940570Y-130530600D01*
X101141765Y-130570620D01*
G37*
G36*
X109904765Y-130570620D02*
G01*
X110094288Y-130649123D01*
X110264854Y-130763092D01*
X110409908Y-130908146D01*
X110409909Y-130908148D01*
X110523878Y-131078714D01*
X110602380Y-131268235D01*
X110642400Y-131469430D01*
X110642400Y-131674570D01*
X110629604Y-131738899D01*
X110602380Y-131875765D01*
X110523877Y-132065288D01*
X110409908Y-132235854D01*
X110264854Y-132380908D01*
X110094288Y-132494877D01*
X110094287Y-132494878D01*
X110094286Y-132494878D01*
X109904765Y-132573380D01*
X109703570Y-132613400D01*
X109498430Y-132613400D01*
X109297235Y-132573380D01*
X109107714Y-132494878D01*
X109107713Y-132494878D01*
X109107712Y-132494877D01*
X108937146Y-132380908D01*
X108792092Y-132235854D01*
X108678123Y-132065288D01*
X108599620Y-131875765D01*
X108572396Y-131738899D01*
X108559600Y-131674570D01*
X108559600Y-131469430D01*
X108599620Y-131268235D01*
X108678122Y-131078714D01*
X108792091Y-130908148D01*
X108792092Y-130908146D01*
X108937146Y-130763092D01*
X109107712Y-130649123D01*
X109297235Y-130570620D01*
X109498430Y-130530600D01*
X109703570Y-130530600D01*
X109904765Y-130570620D01*
G37*
G36*
X112444765Y-130570620D02*
G01*
X112634288Y-130649123D01*
X112804854Y-130763092D01*
X112949908Y-130908146D01*
X112949909Y-130908148D01*
X113063878Y-131078714D01*
X113142380Y-131268235D01*
X113182400Y-131469430D01*
X113182400Y-131674570D01*
X113169604Y-131738899D01*
X113142380Y-131875765D01*
X113063877Y-132065288D01*
X112949908Y-132235854D01*
X112804854Y-132380908D01*
X112634288Y-132494877D01*
X112634287Y-132494878D01*
X112634286Y-132494878D01*
X112444765Y-132573380D01*
X112243570Y-132613400D01*
X112038430Y-132613400D01*
X111837235Y-132573380D01*
X111647714Y-132494878D01*
X111647713Y-132494878D01*
X111647712Y-132494877D01*
X111477146Y-132380908D01*
X111332092Y-132235854D01*
X111218123Y-132065288D01*
X111139620Y-131875765D01*
X111112396Y-131738899D01*
X111099600Y-131674570D01*
X111099600Y-131469430D01*
X111139620Y-131268235D01*
X111218122Y-131078714D01*
X111332091Y-130908148D01*
X111332092Y-130908146D01*
X111477146Y-130763092D01*
X111647712Y-130649123D01*
X111837235Y-130570620D01*
X112038430Y-130530600D01*
X112243570Y-130530600D01*
X112444765Y-130570620D01*
G37*
G36*
X121207765Y-130570620D02*
G01*
X121397288Y-130649123D01*
X121567854Y-130763092D01*
X121712908Y-130908146D01*
X121712909Y-130908148D01*
X121826878Y-131078714D01*
X121905380Y-131268235D01*
X121945400Y-131469430D01*
X121945400Y-131674570D01*
X121932604Y-131738899D01*
X121905380Y-131875765D01*
X121826877Y-132065288D01*
X121712908Y-132235854D01*
X121567854Y-132380908D01*
X121397288Y-132494877D01*
X121397287Y-132494878D01*
X121397286Y-132494878D01*
X121207765Y-132573380D01*
X121006570Y-132613400D01*
X120801430Y-132613400D01*
X120600235Y-132573380D01*
X120410714Y-132494878D01*
X120410713Y-132494878D01*
X120410712Y-132494877D01*
X120240146Y-132380908D01*
X120095092Y-132235854D01*
X119981123Y-132065288D01*
X119902620Y-131875765D01*
X119875396Y-131738899D01*
X119862600Y-131674570D01*
X119862600Y-131469430D01*
X119902620Y-131268235D01*
X119981122Y-131078714D01*
X120095091Y-130908148D01*
X120095092Y-130908146D01*
X120240146Y-130763092D01*
X120410712Y-130649123D01*
X120600235Y-130570620D01*
X120801430Y-130530600D01*
X121006570Y-130530600D01*
X121207765Y-130570620D01*
G37*
G36*
X123747765Y-130570620D02*
G01*
X123937288Y-130649123D01*
X124107854Y-130763092D01*
X124252908Y-130908146D01*
X124252909Y-130908148D01*
X124366878Y-131078714D01*
X124445380Y-131268235D01*
X124485400Y-131469430D01*
X124485400Y-131674570D01*
X124472604Y-131738899D01*
X124445380Y-131875765D01*
X124366877Y-132065288D01*
X124252908Y-132235854D01*
X124107854Y-132380908D01*
X123937288Y-132494877D01*
X123937287Y-132494878D01*
X123937286Y-132494878D01*
X123747765Y-132573380D01*
X123546570Y-132613400D01*
X123341430Y-132613400D01*
X123140235Y-132573380D01*
X122950714Y-132494878D01*
X122950713Y-132494878D01*
X122950712Y-132494877D01*
X122780146Y-132380908D01*
X122635092Y-132235854D01*
X122521123Y-132065288D01*
X122442620Y-131875765D01*
X122415396Y-131738899D01*
X122402600Y-131674570D01*
X122402600Y-131469430D01*
X122442620Y-131268235D01*
X122521122Y-131078714D01*
X122635091Y-130908148D01*
X122635092Y-130908146D01*
X122780146Y-130763092D01*
X122950712Y-130649123D01*
X123140235Y-130570620D01*
X123341430Y-130530600D01*
X123546570Y-130530600D01*
X123747765Y-130570620D01*
G37*
G36*
X69671165Y-123407820D02*
G01*
X69860688Y-123486323D01*
X70031254Y-123600292D01*
X70176308Y-123745346D01*
X70290277Y-123915912D01*
X70290278Y-123915914D01*
X70368780Y-124105435D01*
X70408800Y-124306630D01*
X70408800Y-124511770D01*
X70368780Y-124712965D01*
X70324837Y-124819054D01*
X70290277Y-124902488D01*
X70176308Y-125073054D01*
X70031254Y-125218108D01*
X69860688Y-125332077D01*
X69860687Y-125332078D01*
X69860686Y-125332078D01*
X69671165Y-125410580D01*
X69469970Y-125450600D01*
X69264830Y-125450600D01*
X69063635Y-125410580D01*
X68874114Y-125332078D01*
X68874113Y-125332078D01*
X68874112Y-125332077D01*
X68703546Y-125218108D01*
X68558492Y-125073054D01*
X68444523Y-124902488D01*
X68409964Y-124819054D01*
X68366020Y-124712965D01*
X68326000Y-124511770D01*
X68326000Y-124306630D01*
X68366020Y-124105435D01*
X68444522Y-123915914D01*
X68444523Y-123915912D01*
X68558492Y-123745346D01*
X68703546Y-123600292D01*
X68874112Y-123486323D01*
X69063635Y-123407820D01*
X69264830Y-123367800D01*
X69469970Y-123367800D01*
X69671165Y-123407820D01*
G37*
G36*
X74192365Y-123407820D02*
G01*
X74381888Y-123486323D01*
X74552454Y-123600292D01*
X74697508Y-123745346D01*
X74811477Y-123915912D01*
X74811478Y-123915914D01*
X74889980Y-124105435D01*
X74930000Y-124306630D01*
X74930000Y-124511770D01*
X74889980Y-124712965D01*
X74846037Y-124819054D01*
X74811477Y-124902488D01*
X74697508Y-125073054D01*
X74552454Y-125218108D01*
X74381888Y-125332077D01*
X74381887Y-125332078D01*
X74381886Y-125332078D01*
X74192365Y-125410580D01*
X73991170Y-125450600D01*
X73786030Y-125450600D01*
X73584835Y-125410580D01*
X73395314Y-125332078D01*
X73395313Y-125332078D01*
X73395312Y-125332077D01*
X73224746Y-125218108D01*
X73079692Y-125073054D01*
X72965723Y-124902488D01*
X72931164Y-124819054D01*
X72887220Y-124712965D01*
X72847200Y-124511770D01*
X72847200Y-124306630D01*
X72887220Y-124105435D01*
X72965722Y-123915914D01*
X72965723Y-123915912D01*
X73079692Y-123745346D01*
X73224746Y-123600292D01*
X73395312Y-123486323D01*
X73584835Y-123407820D01*
X73786030Y-123367800D01*
X73991170Y-123367800D01*
X74192365Y-123407820D01*
G37*
G36*
X147903165Y-123153820D02*
G01*
X148092688Y-123232323D01*
X148263254Y-123346292D01*
X148408308Y-123491346D01*
X148522277Y-123661912D01*
X148522278Y-123661914D01*
X148556837Y-123745348D01*
X148600780Y-123851435D01*
X148640800Y-124052631D01*
X148640800Y-124257769D01*
X148600780Y-124458965D01*
X148522277Y-124648488D01*
X148408308Y-124819054D01*
X148263254Y-124964108D01*
X148092688Y-125078077D01*
X148092687Y-125078078D01*
X148092686Y-125078078D01*
X147903165Y-125156580D01*
X147701970Y-125196600D01*
X147496830Y-125196600D01*
X147295635Y-125156580D01*
X147106114Y-125078078D01*
X147106113Y-125078078D01*
X147106112Y-125078077D01*
X146935546Y-124964108D01*
X146790492Y-124819054D01*
X146676523Y-124648488D01*
X146598020Y-124458965D01*
X146558000Y-124257769D01*
X146558000Y-124052631D01*
X146598020Y-123851435D01*
X146641963Y-123745348D01*
X146676522Y-123661914D01*
X146676523Y-123661912D01*
X146790492Y-123491346D01*
X146935546Y-123346292D01*
X147106112Y-123232323D01*
X147295635Y-123153820D01*
X147496830Y-123113800D01*
X147701970Y-123113800D01*
X147903165Y-123153820D01*
G37*
G36*
X152424365Y-123153820D02*
G01*
X152613888Y-123232323D01*
X152784454Y-123346292D01*
X152929508Y-123491346D01*
X153043477Y-123661912D01*
X153043478Y-123661914D01*
X153078037Y-123745348D01*
X153121980Y-123851435D01*
X153162000Y-124052631D01*
X153162000Y-124257769D01*
X153121980Y-124458965D01*
X153043477Y-124648488D01*
X152929508Y-124819054D01*
X152784454Y-124964108D01*
X152613888Y-125078077D01*
X152613887Y-125078078D01*
X152613886Y-125078078D01*
X152424365Y-125156580D01*
X152223170Y-125196600D01*
X152018030Y-125196600D01*
X151816835Y-125156580D01*
X151627314Y-125078078D01*
X151627313Y-125078078D01*
X151627312Y-125078077D01*
X151456746Y-124964108D01*
X151311692Y-124819054D01*
X151197723Y-124648488D01*
X151119220Y-124458965D01*
X151079200Y-124257769D01*
X151079200Y-124052631D01*
X151119220Y-123851435D01*
X151163163Y-123745348D01*
X151197722Y-123661914D01*
X151197723Y-123661912D01*
X151311692Y-123491346D01*
X151456746Y-123346292D01*
X151627312Y-123232323D01*
X151816835Y-123153820D01*
X152018030Y-123113800D01*
X152223170Y-123113800D01*
X152424365Y-123153820D01*
G37*
G36*
X74192365Y-116905420D02*
G01*
X74381888Y-116983923D01*
X74552454Y-117097892D01*
X74697508Y-117242946D01*
X74811477Y-117413512D01*
X74811478Y-117413514D01*
X74889980Y-117603035D01*
X74930000Y-117804230D01*
X74930000Y-118009370D01*
X74889980Y-118210565D01*
X74846037Y-118316654D01*
X74811477Y-118400088D01*
X74697508Y-118570654D01*
X74552454Y-118715708D01*
X74381888Y-118829677D01*
X74381887Y-118829678D01*
X74381886Y-118829678D01*
X74192365Y-118908180D01*
X73991170Y-118948200D01*
X73786030Y-118948200D01*
X73584835Y-118908180D01*
X73395314Y-118829678D01*
X73395313Y-118829678D01*
X73395312Y-118829677D01*
X73224746Y-118715708D01*
X73079692Y-118570654D01*
X72965723Y-118400088D01*
X72931164Y-118316654D01*
X72887220Y-118210565D01*
X72847200Y-118009370D01*
X72847200Y-117804230D01*
X72887220Y-117603035D01*
X72965722Y-117413514D01*
X72965723Y-117413512D01*
X73079692Y-117242946D01*
X73224746Y-117097892D01*
X73395312Y-116983923D01*
X73584835Y-116905420D01*
X73786030Y-116865400D01*
X73991170Y-116865400D01*
X74192365Y-116905420D01*
G37*
G36*
X69671165Y-116905420D02*
G01*
X69860688Y-116983923D01*
X70031254Y-117097892D01*
X70176308Y-117242946D01*
X70290277Y-117413512D01*
X70290278Y-117413514D01*
X70368780Y-117603035D01*
X70408800Y-117804230D01*
X70408800Y-118009370D01*
X70368780Y-118210565D01*
X70324837Y-118316654D01*
X70290277Y-118400088D01*
X70176308Y-118570654D01*
X70031254Y-118715708D01*
X69860688Y-118829677D01*
X69860687Y-118829678D01*
X69860686Y-118829678D01*
X69671165Y-118908180D01*
X69469970Y-118948200D01*
X69264830Y-118948200D01*
X69063635Y-118908180D01*
X68874114Y-118829678D01*
X68874113Y-118829678D01*
X68874112Y-118829677D01*
X68703546Y-118715708D01*
X68558492Y-118570654D01*
X68444523Y-118400088D01*
X68409964Y-118316654D01*
X68366020Y-118210565D01*
X68326000Y-118009370D01*
X68326000Y-117804230D01*
X68366020Y-117603035D01*
X68444522Y-117413514D01*
X68444523Y-117413512D01*
X68558492Y-117242946D01*
X68703546Y-117097892D01*
X68874112Y-116983923D01*
X69063635Y-116905420D01*
X69264830Y-116865400D01*
X69469970Y-116865400D01*
X69671165Y-116905420D01*
G37*
G36*
X152424365Y-116651420D02*
G01*
X152613888Y-116729923D01*
X152784454Y-116843892D01*
X152929508Y-116988946D01*
X153043477Y-117159512D01*
X153043478Y-117159514D01*
X153078037Y-117242948D01*
X153121980Y-117349035D01*
X153162000Y-117550231D01*
X153162000Y-117755369D01*
X153121980Y-117956565D01*
X153043477Y-118146088D01*
X152929508Y-118316654D01*
X152784454Y-118461708D01*
X152613888Y-118575677D01*
X152613887Y-118575678D01*
X152613886Y-118575678D01*
X152424365Y-118654180D01*
X152223170Y-118694200D01*
X152018030Y-118694200D01*
X151816835Y-118654180D01*
X151627314Y-118575678D01*
X151627313Y-118575678D01*
X151627312Y-118575677D01*
X151456746Y-118461708D01*
X151311692Y-118316654D01*
X151197723Y-118146088D01*
X151119220Y-117956565D01*
X151079200Y-117755369D01*
X151079200Y-117550231D01*
X151119220Y-117349035D01*
X151163163Y-117242948D01*
X151197722Y-117159514D01*
X151197723Y-117159512D01*
X151311692Y-116988946D01*
X151456746Y-116843892D01*
X151627312Y-116729923D01*
X151816835Y-116651420D01*
X152018030Y-116611400D01*
X152223170Y-116611400D01*
X152424365Y-116651420D01*
G37*
G36*
X147903165Y-116651420D02*
G01*
X148092688Y-116729923D01*
X148263254Y-116843892D01*
X148408308Y-116988946D01*
X148522277Y-117159512D01*
X148522278Y-117159514D01*
X148556837Y-117242948D01*
X148600780Y-117349035D01*
X148640800Y-117550231D01*
X148640800Y-117755369D01*
X148600780Y-117956565D01*
X148522277Y-118146088D01*
X148408308Y-118316654D01*
X148263254Y-118461708D01*
X148092688Y-118575677D01*
X148092687Y-118575678D01*
X148092686Y-118575678D01*
X147903165Y-118654180D01*
X147701970Y-118694200D01*
X147496830Y-118694200D01*
X147295635Y-118654180D01*
X147106114Y-118575678D01*
X147106113Y-118575678D01*
X147106112Y-118575677D01*
X146935546Y-118461708D01*
X146790492Y-118316654D01*
X146676523Y-118146088D01*
X146598020Y-117956565D01*
X146558000Y-117755369D01*
X146558000Y-117550231D01*
X146598020Y-117349035D01*
X146641963Y-117242948D01*
X146676522Y-117159514D01*
X146676523Y-117159512D01*
X146790492Y-116988946D01*
X146935546Y-116843892D01*
X147106112Y-116729923D01*
X147295635Y-116651420D01*
X147496830Y-116611400D01*
X147701970Y-116611400D01*
X147903165Y-116651420D01*
G37*
G36*
X69671165Y-109353152D02*
G01*
X69860688Y-109431655D01*
X70031254Y-109545624D01*
X70176308Y-109690678D01*
X70290277Y-109861244D01*
X70290278Y-109861246D01*
X70368780Y-110050767D01*
X70408800Y-110251962D01*
X70408800Y-110457102D01*
X70368780Y-110658297D01*
X70324837Y-110764386D01*
X70290277Y-110847820D01*
X70176308Y-111018386D01*
X70031254Y-111163440D01*
X69860688Y-111277409D01*
X69860687Y-111277410D01*
X69860686Y-111277410D01*
X69671165Y-111355912D01*
X69469970Y-111395932D01*
X69264830Y-111395932D01*
X69063635Y-111355912D01*
X68874114Y-111277410D01*
X68874113Y-111277410D01*
X68874112Y-111277409D01*
X68703546Y-111163440D01*
X68558492Y-111018386D01*
X68444523Y-110847820D01*
X68409964Y-110764386D01*
X68366020Y-110658297D01*
X68326000Y-110457102D01*
X68326000Y-110251962D01*
X68366020Y-110050767D01*
X68444522Y-109861246D01*
X68444523Y-109861244D01*
X68558492Y-109690678D01*
X68703546Y-109545624D01*
X68874112Y-109431655D01*
X69063635Y-109353152D01*
X69264830Y-109313132D01*
X69469970Y-109313132D01*
X69671165Y-109353152D01*
G37*
G36*
X74192365Y-109353152D02*
G01*
X74381888Y-109431655D01*
X74552454Y-109545624D01*
X74697508Y-109690678D01*
X74811477Y-109861244D01*
X74811478Y-109861246D01*
X74889980Y-110050767D01*
X74930000Y-110251962D01*
X74930000Y-110457102D01*
X74889980Y-110658297D01*
X74846037Y-110764386D01*
X74811477Y-110847820D01*
X74697508Y-111018386D01*
X74552454Y-111163440D01*
X74381888Y-111277409D01*
X74381887Y-111277410D01*
X74381886Y-111277410D01*
X74192365Y-111355912D01*
X73991170Y-111395932D01*
X73786030Y-111395932D01*
X73584835Y-111355912D01*
X73395314Y-111277410D01*
X73395313Y-111277410D01*
X73395312Y-111277409D01*
X73224746Y-111163440D01*
X73079692Y-111018386D01*
X72965723Y-110847820D01*
X72931164Y-110764386D01*
X72887220Y-110658297D01*
X72847200Y-110457102D01*
X72847200Y-110251962D01*
X72887220Y-110050767D01*
X72965722Y-109861246D01*
X72965723Y-109861244D01*
X73079692Y-109690678D01*
X73224746Y-109545624D01*
X73395312Y-109431655D01*
X73584835Y-109353152D01*
X73786030Y-109313132D01*
X73991170Y-109313132D01*
X74192365Y-109353152D01*
G37*
G36*
X152424365Y-109099152D02*
G01*
X152613888Y-109177655D01*
X152784454Y-109291624D01*
X152929508Y-109436678D01*
X153043477Y-109607244D01*
X153043478Y-109607246D01*
X153078037Y-109690680D01*
X153121980Y-109796767D01*
X153162000Y-109997963D01*
X153162000Y-110203101D01*
X153121980Y-110404297D01*
X153043477Y-110593820D01*
X152929508Y-110764386D01*
X152784454Y-110909440D01*
X152613888Y-111023409D01*
X152613887Y-111023410D01*
X152613886Y-111023410D01*
X152424365Y-111101912D01*
X152223170Y-111141932D01*
X152018030Y-111141932D01*
X151816835Y-111101912D01*
X151627314Y-111023410D01*
X151627313Y-111023410D01*
X151627312Y-111023409D01*
X151456746Y-110909440D01*
X151311692Y-110764386D01*
X151197723Y-110593820D01*
X151119220Y-110404297D01*
X151079200Y-110203101D01*
X151079200Y-109997963D01*
X151119220Y-109796767D01*
X151163163Y-109690680D01*
X151197722Y-109607246D01*
X151197723Y-109607244D01*
X151311692Y-109436678D01*
X151456746Y-109291624D01*
X151627312Y-109177655D01*
X151816835Y-109099152D01*
X152018030Y-109059132D01*
X152223170Y-109059132D01*
X152424365Y-109099152D01*
G37*
G36*
X147903165Y-109099152D02*
G01*
X148092688Y-109177655D01*
X148263254Y-109291624D01*
X148408308Y-109436678D01*
X148522277Y-109607244D01*
X148522278Y-109607246D01*
X148556837Y-109690680D01*
X148600780Y-109796767D01*
X148640800Y-109997963D01*
X148640800Y-110203101D01*
X148600780Y-110404297D01*
X148522277Y-110593820D01*
X148408308Y-110764386D01*
X148263254Y-110909440D01*
X148092688Y-111023409D01*
X148092687Y-111023410D01*
X148092686Y-111023410D01*
X147903165Y-111101912D01*
X147701970Y-111141932D01*
X147496830Y-111141932D01*
X147295635Y-111101912D01*
X147106114Y-111023410D01*
X147106113Y-111023410D01*
X147106112Y-111023409D01*
X146935546Y-110909440D01*
X146790492Y-110764386D01*
X146676523Y-110593820D01*
X146598020Y-110404297D01*
X146558000Y-110203101D01*
X146558000Y-109997963D01*
X146598020Y-109796767D01*
X146641963Y-109690680D01*
X146676522Y-109607246D01*
X146676523Y-109607244D01*
X146790492Y-109436678D01*
X146935546Y-109291624D01*
X147106112Y-109177655D01*
X147295635Y-109099152D01*
X147496830Y-109059132D01*
X147701970Y-109059132D01*
X147903165Y-109099152D01*
G37*
G36*
X69671165Y-102850752D02*
G01*
X69860688Y-102929255D01*
X70031254Y-103043224D01*
X70176308Y-103188278D01*
X70290277Y-103358844D01*
X70290278Y-103358846D01*
X70368780Y-103548367D01*
X70408800Y-103749562D01*
X70408800Y-103954702D01*
X70368780Y-104155897D01*
X70324837Y-104261986D01*
X70290277Y-104345420D01*
X70176308Y-104515986D01*
X70031254Y-104661040D01*
X69860688Y-104775009D01*
X69860687Y-104775010D01*
X69860686Y-104775010D01*
X69671165Y-104853512D01*
X69469970Y-104893532D01*
X69264830Y-104893532D01*
X69063635Y-104853512D01*
X68874114Y-104775010D01*
X68874113Y-104775010D01*
X68874112Y-104775009D01*
X68703546Y-104661040D01*
X68558492Y-104515986D01*
X68444523Y-104345420D01*
X68409964Y-104261986D01*
X68366020Y-104155897D01*
X68326000Y-103954702D01*
X68326000Y-103749562D01*
X68366020Y-103548367D01*
X68444522Y-103358846D01*
X68444523Y-103358844D01*
X68558492Y-103188278D01*
X68703546Y-103043224D01*
X68874112Y-102929255D01*
X69063635Y-102850752D01*
X69264830Y-102810732D01*
X69469970Y-102810732D01*
X69671165Y-102850752D01*
G37*
G36*
X74192365Y-102850752D02*
G01*
X74381888Y-102929255D01*
X74552454Y-103043224D01*
X74697508Y-103188278D01*
X74811477Y-103358844D01*
X74811478Y-103358846D01*
X74889980Y-103548367D01*
X74930000Y-103749562D01*
X74930000Y-103954702D01*
X74889980Y-104155897D01*
X74846037Y-104261986D01*
X74811477Y-104345420D01*
X74697508Y-104515986D01*
X74552454Y-104661040D01*
X74381888Y-104775009D01*
X74381887Y-104775010D01*
X74381886Y-104775010D01*
X74192365Y-104853512D01*
X73991170Y-104893532D01*
X73786030Y-104893532D01*
X73584835Y-104853512D01*
X73395314Y-104775010D01*
X73395313Y-104775010D01*
X73395312Y-104775009D01*
X73224746Y-104661040D01*
X73079692Y-104515986D01*
X72965723Y-104345420D01*
X72931164Y-104261986D01*
X72887220Y-104155897D01*
X72847200Y-103954702D01*
X72847200Y-103749562D01*
X72887220Y-103548367D01*
X72965722Y-103358846D01*
X72965723Y-103358844D01*
X73079692Y-103188278D01*
X73224746Y-103043224D01*
X73395312Y-102929255D01*
X73584835Y-102850752D01*
X73786030Y-102810732D01*
X73991170Y-102810732D01*
X74192365Y-102850752D01*
G37*
G36*
X152424365Y-102596752D02*
G01*
X152613888Y-102675255D01*
X152784454Y-102789224D01*
X152929508Y-102934278D01*
X153043477Y-103104844D01*
X153043478Y-103104846D01*
X153078037Y-103188280D01*
X153121980Y-103294367D01*
X153162000Y-103495563D01*
X153162000Y-103700701D01*
X153121980Y-103901897D01*
X153043477Y-104091420D01*
X152929508Y-104261986D01*
X152784454Y-104407040D01*
X152613888Y-104521009D01*
X152613887Y-104521010D01*
X152613886Y-104521010D01*
X152424365Y-104599512D01*
X152223170Y-104639532D01*
X152018030Y-104639532D01*
X151816835Y-104599512D01*
X151627314Y-104521010D01*
X151627313Y-104521010D01*
X151627312Y-104521009D01*
X151456746Y-104407040D01*
X151311692Y-104261986D01*
X151197723Y-104091420D01*
X151119220Y-103901897D01*
X151079200Y-103700701D01*
X151079200Y-103495563D01*
X151119220Y-103294367D01*
X151163163Y-103188280D01*
X151197722Y-103104846D01*
X151197723Y-103104844D01*
X151311692Y-102934278D01*
X151456746Y-102789224D01*
X151627312Y-102675255D01*
X151816835Y-102596752D01*
X152018030Y-102556732D01*
X152223170Y-102556732D01*
X152424365Y-102596752D01*
G37*
G36*
X147903165Y-102596752D02*
G01*
X148092688Y-102675255D01*
X148263254Y-102789224D01*
X148408308Y-102934278D01*
X148522277Y-103104844D01*
X148522278Y-103104846D01*
X148556837Y-103188280D01*
X148600780Y-103294367D01*
X148640800Y-103495563D01*
X148640800Y-103700701D01*
X148600780Y-103901897D01*
X148522277Y-104091420D01*
X148408308Y-104261986D01*
X148263254Y-104407040D01*
X148092688Y-104521009D01*
X148092687Y-104521010D01*
X148092686Y-104521010D01*
X147903165Y-104599512D01*
X147701970Y-104639532D01*
X147496830Y-104639532D01*
X147295635Y-104599512D01*
X147106114Y-104521010D01*
X147106113Y-104521010D01*
X147106112Y-104521009D01*
X146935546Y-104407040D01*
X146790492Y-104261986D01*
X146676523Y-104091420D01*
X146598020Y-103901897D01*
X146558000Y-103700701D01*
X146558000Y-103495563D01*
X146598020Y-103294367D01*
X146641963Y-103188280D01*
X146676522Y-103104846D01*
X146676523Y-103104844D01*
X146790492Y-102934278D01*
X146935546Y-102789224D01*
X147106112Y-102675255D01*
X147295635Y-102596752D01*
X147496830Y-102556732D01*
X147701970Y-102556732D01*
X147903165Y-102596752D01*
G37*
G36*
X49361228Y-98287703D02*
G01*
X49516100Y-98351853D01*
X49655481Y-98444985D01*
X49774015Y-98563519D01*
X49867147Y-98702900D01*
X49931297Y-98857772D01*
X49964000Y-99022184D01*
X49964000Y-99189816D01*
X49931297Y-99354228D01*
X49867147Y-99509100D01*
X49774015Y-99648481D01*
X49655481Y-99767015D01*
X49516100Y-99860147D01*
X49361228Y-99924297D01*
X49196816Y-99957000D01*
X49029184Y-99957000D01*
X48864772Y-99924297D01*
X48709900Y-99860147D01*
X48570519Y-99767015D01*
X48451985Y-99648481D01*
X48358853Y-99509100D01*
X48294703Y-99354228D01*
X48262000Y-99189816D01*
X48262000Y-99022184D01*
X48294703Y-98857772D01*
X48358853Y-98702900D01*
X48451985Y-98563519D01*
X48570519Y-98444985D01*
X48709900Y-98351853D01*
X48864772Y-98287703D01*
X49029184Y-98255000D01*
X49196816Y-98255000D01*
X49361228Y-98287703D01*
G37*
G36*
X46591228Y-98287703D02*
G01*
X46746100Y-98351853D01*
X46885481Y-98444985D01*
X47004015Y-98563519D01*
X47097147Y-98702900D01*
X47161297Y-98857772D01*
X47194000Y-99022184D01*
X47194000Y-99189816D01*
X47161297Y-99354228D01*
X47097147Y-99509100D01*
X47004015Y-99648481D01*
X46885481Y-99767015D01*
X46746100Y-99860147D01*
X46591228Y-99924297D01*
X46426816Y-99957000D01*
X46259184Y-99957000D01*
X46094772Y-99924297D01*
X45939900Y-99860147D01*
X45800519Y-99767015D01*
X45681985Y-99648481D01*
X45588853Y-99509100D01*
X45524703Y-99354228D01*
X45492000Y-99189816D01*
X45492000Y-99022184D01*
X45524703Y-98857772D01*
X45588853Y-98702900D01*
X45681985Y-98563519D01*
X45800519Y-98444985D01*
X45939900Y-98351853D01*
X46094772Y-98287703D01*
X46259184Y-98255000D01*
X46426816Y-98255000D01*
X46591228Y-98287703D01*
G37*
G36*
X52131228Y-98287703D02*
G01*
X52286100Y-98351853D01*
X52425481Y-98444985D01*
X52544015Y-98563519D01*
X52637147Y-98702900D01*
X52701297Y-98857772D01*
X52734000Y-99022184D01*
X52734000Y-99189816D01*
X52701297Y-99354228D01*
X52637147Y-99509100D01*
X52544015Y-99648481D01*
X52425481Y-99767015D01*
X52286100Y-99860147D01*
X52131228Y-99924297D01*
X51966816Y-99957000D01*
X51799184Y-99957000D01*
X51634772Y-99924297D01*
X51479900Y-99860147D01*
X51340519Y-99767015D01*
X51221985Y-99648481D01*
X51128853Y-99509100D01*
X51064703Y-99354228D01*
X51032000Y-99189816D01*
X51032000Y-99022184D01*
X51064703Y-98857772D01*
X51128853Y-98702900D01*
X51221985Y-98563519D01*
X51340519Y-98444985D01*
X51479900Y-98351853D01*
X51634772Y-98287703D01*
X51799184Y-98255000D01*
X51966816Y-98255000D01*
X52131228Y-98287703D01*
G37*
G36*
X54901228Y-98287703D02*
G01*
X55056100Y-98351853D01*
X55195481Y-98444985D01*
X55314015Y-98563519D01*
X55407147Y-98702900D01*
X55471297Y-98857772D01*
X55504000Y-99022184D01*
X55504000Y-99189816D01*
X55471297Y-99354228D01*
X55407147Y-99509100D01*
X55314015Y-99648481D01*
X55195481Y-99767015D01*
X55056100Y-99860147D01*
X54901228Y-99924297D01*
X54736816Y-99957000D01*
X54569184Y-99957000D01*
X54404772Y-99924297D01*
X54249900Y-99860147D01*
X54110519Y-99767015D01*
X53991985Y-99648481D01*
X53898853Y-99509100D01*
X53834703Y-99354228D01*
X53802000Y-99189816D01*
X53802000Y-99022184D01*
X53834703Y-98857772D01*
X53898853Y-98702900D01*
X53991985Y-98563519D01*
X54110519Y-98444985D01*
X54249900Y-98351853D01*
X54404772Y-98287703D01*
X54569184Y-98255000D01*
X54736816Y-98255000D01*
X54901228Y-98287703D01*
G37*
G36*
X63596254Y-94593818D02*
G01*
X63969511Y-94748426D01*
X63969513Y-94748427D01*
X64305436Y-94972884D01*
X64591116Y-95258564D01*
X64787572Y-95552580D01*
X64815574Y-95594489D01*
X64970182Y-95967746D01*
X65049000Y-96363993D01*
X65049000Y-96768007D01*
X64970182Y-97164254D01*
X64913438Y-97301246D01*
X64815573Y-97537513D01*
X64591116Y-97873436D01*
X64305436Y-98159116D01*
X63969513Y-98383573D01*
X63969512Y-98383574D01*
X63969511Y-98383574D01*
X63596254Y-98538182D01*
X63200007Y-98617000D01*
X62795993Y-98617000D01*
X62399746Y-98538182D01*
X62026489Y-98383574D01*
X62026488Y-98383574D01*
X62026487Y-98383573D01*
X61690564Y-98159116D01*
X61404884Y-97873436D01*
X61180427Y-97537513D01*
X61082562Y-97301246D01*
X61025818Y-97164254D01*
X60947000Y-96768007D01*
X60947000Y-96363993D01*
X61025818Y-95967746D01*
X61180426Y-95594489D01*
X61208429Y-95552580D01*
X61404884Y-95258564D01*
X61690564Y-94972884D01*
X62026487Y-94748427D01*
X62026489Y-94748426D01*
X62399746Y-94593818D01*
X62795993Y-94515000D01*
X63200007Y-94515000D01*
X63596254Y-94593818D01*
G37*
G36*
X38596254Y-94593818D02*
G01*
X38969511Y-94748426D01*
X38969513Y-94748427D01*
X39305436Y-94972884D01*
X39591116Y-95258564D01*
X39787572Y-95552580D01*
X39815574Y-95594489D01*
X39970182Y-95967746D01*
X40049000Y-96363993D01*
X40049000Y-96768007D01*
X39970182Y-97164254D01*
X39913438Y-97301246D01*
X39815573Y-97537513D01*
X39591116Y-97873436D01*
X39305436Y-98159116D01*
X38969513Y-98383573D01*
X38969512Y-98383574D01*
X38969511Y-98383574D01*
X38596254Y-98538182D01*
X38200007Y-98617000D01*
X37795993Y-98617000D01*
X37399746Y-98538182D01*
X37026489Y-98383574D01*
X37026488Y-98383574D01*
X37026487Y-98383573D01*
X36690564Y-98159116D01*
X36404884Y-97873436D01*
X36180427Y-97537513D01*
X36082562Y-97301246D01*
X36025818Y-97164254D01*
X35947000Y-96768007D01*
X35947000Y-96363993D01*
X36025818Y-95967746D01*
X36180426Y-95594489D01*
X36208429Y-95552580D01*
X36404884Y-95258564D01*
X36690564Y-94972884D01*
X37026487Y-94748427D01*
X37026489Y-94748426D01*
X37399746Y-94593818D01*
X37795993Y-94515000D01*
X38200007Y-94515000D01*
X38596254Y-94593818D01*
G37*
G36*
X69671165Y-95298486D02*
G01*
X69860688Y-95376989D01*
X70031254Y-95490958D01*
X70176308Y-95636012D01*
X70290277Y-95806578D01*
X70290278Y-95806580D01*
X70368780Y-95996101D01*
X70408800Y-96197296D01*
X70408800Y-96402436D01*
X70368780Y-96603631D01*
X70324837Y-96709720D01*
X70290277Y-96793154D01*
X70176308Y-96963720D01*
X70031254Y-97108774D01*
X69860688Y-97222743D01*
X69860687Y-97222744D01*
X69860686Y-97222744D01*
X69671165Y-97301246D01*
X69469970Y-97341266D01*
X69264830Y-97341266D01*
X69063635Y-97301246D01*
X68874114Y-97222744D01*
X68874113Y-97222744D01*
X68874112Y-97222743D01*
X68703546Y-97108774D01*
X68558492Y-96963720D01*
X68444523Y-96793154D01*
X68409964Y-96709720D01*
X68366020Y-96603631D01*
X68326000Y-96402436D01*
X68326000Y-96197296D01*
X68366020Y-95996101D01*
X68444522Y-95806580D01*
X68444523Y-95806578D01*
X68558492Y-95636012D01*
X68703546Y-95490958D01*
X68874112Y-95376989D01*
X69063635Y-95298486D01*
X69264830Y-95258466D01*
X69469970Y-95258466D01*
X69671165Y-95298486D01*
G37*
G36*
X74192365Y-95298486D02*
G01*
X74381888Y-95376989D01*
X74552454Y-95490958D01*
X74697508Y-95636012D01*
X74811477Y-95806578D01*
X74811478Y-95806580D01*
X74889980Y-95996101D01*
X74930000Y-96197296D01*
X74930000Y-96402436D01*
X74889980Y-96603631D01*
X74846037Y-96709720D01*
X74811477Y-96793154D01*
X74697508Y-96963720D01*
X74552454Y-97108774D01*
X74381888Y-97222743D01*
X74381887Y-97222744D01*
X74381886Y-97222744D01*
X74192365Y-97301246D01*
X73991170Y-97341266D01*
X73786030Y-97341266D01*
X73584835Y-97301246D01*
X73395314Y-97222744D01*
X73395313Y-97222744D01*
X73395312Y-97222743D01*
X73224746Y-97108774D01*
X73079692Y-96963720D01*
X72965723Y-96793154D01*
X72931164Y-96709720D01*
X72887220Y-96603631D01*
X72847200Y-96402436D01*
X72847200Y-96197296D01*
X72887220Y-95996101D01*
X72965722Y-95806580D01*
X72965723Y-95806578D01*
X73079692Y-95636012D01*
X73224746Y-95490958D01*
X73395312Y-95376989D01*
X73584835Y-95298486D01*
X73786030Y-95258466D01*
X73991170Y-95258466D01*
X74192365Y-95298486D01*
G37*
G36*
X50746228Y-95447703D02*
G01*
X50901100Y-95511853D01*
X51040481Y-95604985D01*
X51159015Y-95723519D01*
X51252147Y-95862900D01*
X51316297Y-96017772D01*
X51349000Y-96182184D01*
X51349000Y-96349816D01*
X51316297Y-96514228D01*
X51252147Y-96669100D01*
X51159015Y-96808481D01*
X51040481Y-96927015D01*
X50901100Y-97020147D01*
X50746228Y-97084297D01*
X50581816Y-97117000D01*
X50414184Y-97117000D01*
X50249772Y-97084297D01*
X50094900Y-97020147D01*
X49955519Y-96927015D01*
X49836985Y-96808481D01*
X49743853Y-96669100D01*
X49679703Y-96514228D01*
X49647000Y-96349816D01*
X49647000Y-96182184D01*
X49679703Y-96017772D01*
X49743853Y-95862900D01*
X49836985Y-95723519D01*
X49955519Y-95604985D01*
X50094900Y-95511853D01*
X50249772Y-95447703D01*
X50414184Y-95415000D01*
X50581816Y-95415000D01*
X50746228Y-95447703D01*
G37*
G36*
X45809000Y-97117000D02*
G01*
X44107000Y-97117000D01*
X44107000Y-95415000D01*
X45809000Y-95415000D01*
X45809000Y-97117000D01*
G37*
G36*
X47976228Y-95447703D02*
G01*
X48131100Y-95511853D01*
X48270481Y-95604985D01*
X48389015Y-95723519D01*
X48482147Y-95862900D01*
X48546297Y-96017772D01*
X48579000Y-96182184D01*
X48579000Y-96349816D01*
X48546297Y-96514228D01*
X48482147Y-96669100D01*
X48389015Y-96808481D01*
X48270481Y-96927015D01*
X48131100Y-97020147D01*
X47976228Y-97084297D01*
X47811816Y-97117000D01*
X47644184Y-97117000D01*
X47479772Y-97084297D01*
X47324900Y-97020147D01*
X47185519Y-96927015D01*
X47066985Y-96808481D01*
X46973853Y-96669100D01*
X46909703Y-96514228D01*
X46877000Y-96349816D01*
X46877000Y-96182184D01*
X46909703Y-96017772D01*
X46973853Y-95862900D01*
X47066985Y-95723519D01*
X47185519Y-95604985D01*
X47324900Y-95511853D01*
X47479772Y-95447703D01*
X47644184Y-95415000D01*
X47811816Y-95415000D01*
X47976228Y-95447703D01*
G37*
G36*
X56286228Y-95447703D02*
G01*
X56441100Y-95511853D01*
X56580481Y-95604985D01*
X56699015Y-95723519D01*
X56792147Y-95862900D01*
X56856297Y-96017772D01*
X56889000Y-96182184D01*
X56889000Y-96349816D01*
X56856297Y-96514228D01*
X56792147Y-96669100D01*
X56699015Y-96808481D01*
X56580481Y-96927015D01*
X56441100Y-97020147D01*
X56286228Y-97084297D01*
X56121816Y-97117000D01*
X55954184Y-97117000D01*
X55789772Y-97084297D01*
X55634900Y-97020147D01*
X55495519Y-96927015D01*
X55376985Y-96808481D01*
X55283853Y-96669100D01*
X55219703Y-96514228D01*
X55187000Y-96349816D01*
X55187000Y-96182184D01*
X55219703Y-96017772D01*
X55283853Y-95862900D01*
X55376985Y-95723519D01*
X55495519Y-95604985D01*
X55634900Y-95511853D01*
X55789772Y-95447703D01*
X55954184Y-95415000D01*
X56121816Y-95415000D01*
X56286228Y-95447703D01*
G37*
G36*
X53516228Y-95447703D02*
G01*
X53671100Y-95511853D01*
X53810481Y-95604985D01*
X53929015Y-95723519D01*
X54022147Y-95862900D01*
X54086297Y-96017772D01*
X54119000Y-96182184D01*
X54119000Y-96349816D01*
X54086297Y-96514228D01*
X54022147Y-96669100D01*
X53929015Y-96808481D01*
X53810481Y-96927015D01*
X53671100Y-97020147D01*
X53516228Y-97084297D01*
X53351816Y-97117000D01*
X53184184Y-97117000D01*
X53019772Y-97084297D01*
X52864900Y-97020147D01*
X52725519Y-96927015D01*
X52606985Y-96808481D01*
X52513853Y-96669100D01*
X52449703Y-96514228D01*
X52417000Y-96349816D01*
X52417000Y-96182184D01*
X52449703Y-96017772D01*
X52513853Y-95862900D01*
X52606985Y-95723519D01*
X52725519Y-95604985D01*
X52864900Y-95511853D01*
X53019772Y-95447703D01*
X53184184Y-95415000D01*
X53351816Y-95415000D01*
X53516228Y-95447703D01*
G37*
G36*
X147903165Y-95044486D02*
G01*
X148092688Y-95122989D01*
X148263254Y-95236958D01*
X148408308Y-95382012D01*
X148495065Y-95511853D01*
X148522278Y-95552580D01*
X148600780Y-95742101D01*
X148640800Y-95943297D01*
X148640800Y-96148435D01*
X148600780Y-96349631D01*
X148522277Y-96539154D01*
X148408308Y-96709720D01*
X148263254Y-96854774D01*
X148092688Y-96968743D01*
X148092687Y-96968744D01*
X148092686Y-96968744D01*
X147903165Y-97047246D01*
X147701970Y-97087266D01*
X147496830Y-97087266D01*
X147295635Y-97047246D01*
X147106114Y-96968744D01*
X147106113Y-96968744D01*
X147106112Y-96968743D01*
X146935546Y-96854774D01*
X146790492Y-96709720D01*
X146676523Y-96539154D01*
X146598020Y-96349631D01*
X146558000Y-96148435D01*
X146558000Y-95943297D01*
X146598020Y-95742101D01*
X146676522Y-95552580D01*
X146703735Y-95511853D01*
X146790492Y-95382012D01*
X146935546Y-95236958D01*
X147106112Y-95122989D01*
X147295635Y-95044486D01*
X147496830Y-95004466D01*
X147701970Y-95004466D01*
X147903165Y-95044486D01*
G37*
G36*
X152424365Y-95044486D02*
G01*
X152613888Y-95122989D01*
X152784454Y-95236958D01*
X152929508Y-95382012D01*
X153016265Y-95511853D01*
X153043478Y-95552580D01*
X153121980Y-95742101D01*
X153162000Y-95943297D01*
X153162000Y-96148435D01*
X153121980Y-96349631D01*
X153043477Y-96539154D01*
X152929508Y-96709720D01*
X152784454Y-96854774D01*
X152613888Y-96968743D01*
X152613887Y-96968744D01*
X152613886Y-96968744D01*
X152424365Y-97047246D01*
X152223170Y-97087266D01*
X152018030Y-97087266D01*
X151816835Y-97047246D01*
X151627314Y-96968744D01*
X151627313Y-96968744D01*
X151627312Y-96968743D01*
X151456746Y-96854774D01*
X151311692Y-96709720D01*
X151197723Y-96539154D01*
X151119220Y-96349631D01*
X151079200Y-96148435D01*
X151079200Y-95943297D01*
X151119220Y-95742101D01*
X151197722Y-95552580D01*
X151224935Y-95511853D01*
X151311692Y-95382012D01*
X151456746Y-95236958D01*
X151627312Y-95122989D01*
X151816835Y-95044486D01*
X152018030Y-95004466D01*
X152223170Y-95004466D01*
X152424365Y-95044486D01*
G37*
G36*
X74192365Y-88796086D02*
G01*
X74381888Y-88874589D01*
X74552454Y-88988558D01*
X74697508Y-89133612D01*
X74811477Y-89304178D01*
X74811478Y-89304180D01*
X74889980Y-89493701D01*
X74930000Y-89694896D01*
X74930000Y-89900036D01*
X74889980Y-90101231D01*
X74846037Y-90207320D01*
X74811477Y-90290754D01*
X74697508Y-90461320D01*
X74552454Y-90606374D01*
X74381888Y-90720343D01*
X74381887Y-90720344D01*
X74381886Y-90720344D01*
X74192365Y-90798846D01*
X73991170Y-90838866D01*
X73786030Y-90838866D01*
X73584835Y-90798846D01*
X73395314Y-90720344D01*
X73395313Y-90720344D01*
X73395312Y-90720343D01*
X73224746Y-90606374D01*
X73079692Y-90461320D01*
X72965723Y-90290754D01*
X72931164Y-90207320D01*
X72887220Y-90101231D01*
X72847200Y-89900036D01*
X72847200Y-89694896D01*
X72887220Y-89493701D01*
X72965722Y-89304180D01*
X72965723Y-89304178D01*
X73079692Y-89133612D01*
X73224746Y-88988558D01*
X73395312Y-88874589D01*
X73584835Y-88796086D01*
X73786030Y-88756066D01*
X73991170Y-88756066D01*
X74192365Y-88796086D01*
G37*
G36*
X69671165Y-88796086D02*
G01*
X69860688Y-88874589D01*
X70031254Y-88988558D01*
X70176308Y-89133612D01*
X70290277Y-89304178D01*
X70290278Y-89304180D01*
X70368780Y-89493701D01*
X70408800Y-89694896D01*
X70408800Y-89900036D01*
X70368780Y-90101231D01*
X70324837Y-90207320D01*
X70290277Y-90290754D01*
X70176308Y-90461320D01*
X70031254Y-90606374D01*
X69860688Y-90720343D01*
X69860687Y-90720344D01*
X69860686Y-90720344D01*
X69671165Y-90798846D01*
X69469970Y-90838866D01*
X69264830Y-90838866D01*
X69063635Y-90798846D01*
X68874114Y-90720344D01*
X68874113Y-90720344D01*
X68874112Y-90720343D01*
X68703546Y-90606374D01*
X68558492Y-90461320D01*
X68444523Y-90290754D01*
X68409964Y-90207320D01*
X68366020Y-90101231D01*
X68326000Y-89900036D01*
X68326000Y-89694896D01*
X68366020Y-89493701D01*
X68444522Y-89304180D01*
X68444523Y-89304178D01*
X68558492Y-89133612D01*
X68703546Y-88988558D01*
X68874112Y-88874589D01*
X69063635Y-88796086D01*
X69264830Y-88756066D01*
X69469970Y-88756066D01*
X69671165Y-88796086D01*
G37*
G36*
X152424365Y-88542086D02*
G01*
X152613888Y-88620589D01*
X152784454Y-88734558D01*
X152929508Y-88879612D01*
X153043477Y-89050178D01*
X153043478Y-89050180D01*
X153078037Y-89133614D01*
X153121980Y-89239701D01*
X153162000Y-89440897D01*
X153162000Y-89646035D01*
X153121980Y-89847231D01*
X153043477Y-90036754D01*
X152929508Y-90207320D01*
X152784454Y-90352374D01*
X152613888Y-90466343D01*
X152613887Y-90466344D01*
X152613886Y-90466344D01*
X152424365Y-90544846D01*
X152223170Y-90584866D01*
X152018030Y-90584866D01*
X151816835Y-90544846D01*
X151627314Y-90466344D01*
X151627313Y-90466344D01*
X151627312Y-90466343D01*
X151456746Y-90352374D01*
X151311692Y-90207320D01*
X151197723Y-90036754D01*
X151119220Y-89847231D01*
X151079200Y-89646035D01*
X151079200Y-89440897D01*
X151119220Y-89239701D01*
X151163163Y-89133614D01*
X151197722Y-89050180D01*
X151197723Y-89050178D01*
X151311692Y-88879612D01*
X151456746Y-88734558D01*
X151627312Y-88620589D01*
X151816835Y-88542086D01*
X152018030Y-88502066D01*
X152223170Y-88502066D01*
X152424365Y-88542086D01*
G37*
G36*
X147903165Y-88542086D02*
G01*
X148092688Y-88620589D01*
X148263254Y-88734558D01*
X148408308Y-88879612D01*
X148522277Y-89050178D01*
X148522278Y-89050180D01*
X148556837Y-89133614D01*
X148600780Y-89239701D01*
X148640800Y-89440897D01*
X148640800Y-89646035D01*
X148600780Y-89847231D01*
X148522277Y-90036754D01*
X148408308Y-90207320D01*
X148263254Y-90352374D01*
X148092688Y-90466343D01*
X148092687Y-90466344D01*
X148092686Y-90466344D01*
X147903165Y-90544846D01*
X147701970Y-90584866D01*
X147496830Y-90584866D01*
X147295635Y-90544846D01*
X147106114Y-90466344D01*
X147106113Y-90466344D01*
X147106112Y-90466343D01*
X146935546Y-90352374D01*
X146790492Y-90207320D01*
X146676523Y-90036754D01*
X146598020Y-89847231D01*
X146558000Y-89646035D01*
X146558000Y-89440897D01*
X146598020Y-89239701D01*
X146641963Y-89133614D01*
X146676522Y-89050180D01*
X146676523Y-89050178D01*
X146790492Y-88879612D01*
X146935546Y-88734558D01*
X147106112Y-88620589D01*
X147295635Y-88542086D01*
X147496830Y-88502066D01*
X147701970Y-88502066D01*
X147903165Y-88542086D01*
G37*
G36*
X69671165Y-81243820D02*
G01*
X69860688Y-81322323D01*
X70031254Y-81436292D01*
X70176308Y-81581346D01*
X70290277Y-81751912D01*
X70290278Y-81751914D01*
X70368780Y-81941435D01*
X70408800Y-82142630D01*
X70408800Y-82347770D01*
X70368780Y-82548965D01*
X70324837Y-82655054D01*
X70290277Y-82738488D01*
X70176308Y-82909054D01*
X70031254Y-83054108D01*
X69860688Y-83168077D01*
X69860687Y-83168078D01*
X69860686Y-83168078D01*
X69671165Y-83246580D01*
X69469970Y-83286600D01*
X69264830Y-83286600D01*
X69063635Y-83246580D01*
X68874114Y-83168078D01*
X68874113Y-83168078D01*
X68874112Y-83168077D01*
X68703546Y-83054108D01*
X68558492Y-82909054D01*
X68444523Y-82738488D01*
X68409964Y-82655054D01*
X68366020Y-82548965D01*
X68326000Y-82347770D01*
X68326000Y-82142630D01*
X68366020Y-81941435D01*
X68444522Y-81751914D01*
X68444523Y-81751912D01*
X68558492Y-81581346D01*
X68703546Y-81436292D01*
X68874112Y-81322323D01*
X69063635Y-81243820D01*
X69264830Y-81203800D01*
X69469970Y-81203800D01*
X69671165Y-81243820D01*
G37*
G36*
X74192365Y-81243820D02*
G01*
X74381888Y-81322323D01*
X74552454Y-81436292D01*
X74697508Y-81581346D01*
X74811477Y-81751912D01*
X74811478Y-81751914D01*
X74889980Y-81941435D01*
X74930000Y-82142630D01*
X74930000Y-82347770D01*
X74889980Y-82548965D01*
X74846037Y-82655054D01*
X74811477Y-82738488D01*
X74697508Y-82909054D01*
X74552454Y-83054108D01*
X74381888Y-83168077D01*
X74381887Y-83168078D01*
X74381886Y-83168078D01*
X74192365Y-83246580D01*
X73991170Y-83286600D01*
X73786030Y-83286600D01*
X73584835Y-83246580D01*
X73395314Y-83168078D01*
X73395313Y-83168078D01*
X73395312Y-83168077D01*
X73224746Y-83054108D01*
X73079692Y-82909054D01*
X72965723Y-82738488D01*
X72931164Y-82655054D01*
X72887220Y-82548965D01*
X72847200Y-82347770D01*
X72847200Y-82142630D01*
X72887220Y-81941435D01*
X72965722Y-81751914D01*
X72965723Y-81751912D01*
X73079692Y-81581346D01*
X73224746Y-81436292D01*
X73395312Y-81322323D01*
X73584835Y-81243820D01*
X73786030Y-81203800D01*
X73991170Y-81203800D01*
X74192365Y-81243820D01*
G37*
G36*
X152424365Y-80989820D02*
G01*
X152613888Y-81068323D01*
X152784454Y-81182292D01*
X152929508Y-81327346D01*
X153043477Y-81497912D01*
X153043478Y-81497914D01*
X153078037Y-81581348D01*
X153121980Y-81687435D01*
X153162000Y-81888631D01*
X153162000Y-82093769D01*
X153121980Y-82294965D01*
X153043477Y-82484488D01*
X152929508Y-82655054D01*
X152784454Y-82800108D01*
X152613888Y-82914077D01*
X152613887Y-82914078D01*
X152613886Y-82914078D01*
X152424365Y-82992580D01*
X152223170Y-83032600D01*
X152018030Y-83032600D01*
X151816835Y-82992580D01*
X151627314Y-82914078D01*
X151627313Y-82914078D01*
X151627312Y-82914077D01*
X151456746Y-82800108D01*
X151311692Y-82655054D01*
X151197723Y-82484488D01*
X151119220Y-82294965D01*
X151079200Y-82093769D01*
X151079200Y-81888631D01*
X151119220Y-81687435D01*
X151163163Y-81581348D01*
X151197722Y-81497914D01*
X151197723Y-81497912D01*
X151311692Y-81327346D01*
X151456746Y-81182292D01*
X151627312Y-81068323D01*
X151816835Y-80989820D01*
X152018030Y-80949800D01*
X152223170Y-80949800D01*
X152424365Y-80989820D01*
G37*
G36*
X147903165Y-80989820D02*
G01*
X148092688Y-81068323D01*
X148263254Y-81182292D01*
X148408308Y-81327346D01*
X148522277Y-81497912D01*
X148522278Y-81497914D01*
X148556837Y-81581348D01*
X148600780Y-81687435D01*
X148640800Y-81888631D01*
X148640800Y-82093769D01*
X148600780Y-82294965D01*
X148522277Y-82484488D01*
X148408308Y-82655054D01*
X148263254Y-82800108D01*
X148092688Y-82914077D01*
X148092687Y-82914078D01*
X148092686Y-82914078D01*
X147903165Y-82992580D01*
X147701970Y-83032600D01*
X147496830Y-83032600D01*
X147295635Y-82992580D01*
X147106114Y-82914078D01*
X147106113Y-82914078D01*
X147106112Y-82914077D01*
X146935546Y-82800108D01*
X146790492Y-82655054D01*
X146676523Y-82484488D01*
X146598020Y-82294965D01*
X146558000Y-82093769D01*
X146558000Y-81888631D01*
X146598020Y-81687435D01*
X146641963Y-81581348D01*
X146676522Y-81497914D01*
X146676523Y-81497912D01*
X146790492Y-81327346D01*
X146935546Y-81182292D01*
X147106112Y-81068323D01*
X147295635Y-80989820D01*
X147496830Y-80949800D01*
X147701970Y-80949800D01*
X147903165Y-80989820D01*
G37*
G36*
X107993000Y-77650218D02*
G01*
X107995402Y-77674604D01*
X108002515Y-77698053D01*
X108014066Y-77719664D01*
X108029611Y-77738606D01*
X108048553Y-77754151D01*
X108070164Y-77765702D01*
X108093613Y-77772815D01*
X108117999Y-77775217D01*
X108142385Y-77772815D01*
X108165834Y-77765702D01*
X108187445Y-77754151D01*
X108206387Y-77738606D01*
X108221932Y-77719664D01*
X108284009Y-77626760D01*
X108284010Y-77626758D01*
X108360758Y-77550010D01*
X108406188Y-77519655D01*
X108451005Y-77489709D01*
X108551279Y-77448174D01*
X108657730Y-77427000D01*
X108766270Y-77427000D01*
X108872721Y-77448174D01*
X108972995Y-77489709D01*
X109017812Y-77519655D01*
X109063242Y-77550010D01*
X109139990Y-77626758D01*
X109139991Y-77626760D01*
X109200291Y-77717005D01*
X109231516Y-77792389D01*
X109243067Y-77814000D01*
X109258612Y-77832941D01*
X109277554Y-77848487D01*
X109299165Y-77860038D01*
X109322614Y-77867151D01*
X109347000Y-77869553D01*
X109371386Y-77867151D01*
X109394835Y-77860038D01*
X109416446Y-77848487D01*
X109435387Y-77832942D01*
X109450933Y-77814000D01*
X109462484Y-77792389D01*
X109493709Y-77717005D01*
X109554009Y-77626760D01*
X109554010Y-77626758D01*
X109630758Y-77550010D01*
X109676188Y-77519655D01*
X109721005Y-77489709D01*
X109821279Y-77448174D01*
X109927730Y-77427000D01*
X110036270Y-77427000D01*
X110142721Y-77448174D01*
X110242995Y-77489709D01*
X110287812Y-77519655D01*
X110333242Y-77550010D01*
X110409990Y-77626758D01*
X110409991Y-77626760D01*
X110470291Y-77717005D01*
X110501516Y-77792389D01*
X110513067Y-77814000D01*
X110528612Y-77832941D01*
X110547554Y-77848487D01*
X110569165Y-77860038D01*
X110592614Y-77867151D01*
X110617000Y-77869553D01*
X110641386Y-77867151D01*
X110664835Y-77860038D01*
X110686446Y-77848487D01*
X110705387Y-77832942D01*
X110720933Y-77814000D01*
X110732484Y-77792389D01*
X110763709Y-77717005D01*
X110824009Y-77626760D01*
X110824010Y-77626758D01*
X110900758Y-77550010D01*
X110946188Y-77519655D01*
X110991005Y-77489709D01*
X111091279Y-77448174D01*
X111197730Y-77427000D01*
X111306270Y-77427000D01*
X111412721Y-77448174D01*
X111512995Y-77489709D01*
X111557812Y-77519655D01*
X111603242Y-77550010D01*
X111679990Y-77626758D01*
X111679991Y-77626760D01*
X111740291Y-77717005D01*
X111771516Y-77792389D01*
X111783067Y-77814000D01*
X111798612Y-77832941D01*
X111817554Y-77848487D01*
X111839165Y-77860038D01*
X111862614Y-77867151D01*
X111887000Y-77869553D01*
X111911386Y-77867151D01*
X111934835Y-77860038D01*
X111956446Y-77848487D01*
X111975387Y-77832942D01*
X111990933Y-77814000D01*
X112002484Y-77792389D01*
X112033709Y-77717005D01*
X112094009Y-77626760D01*
X112094010Y-77626758D01*
X112170758Y-77550010D01*
X112216188Y-77519655D01*
X112261005Y-77489709D01*
X112361279Y-77448174D01*
X112467730Y-77427000D01*
X112576270Y-77427000D01*
X112682721Y-77448174D01*
X112782995Y-77489709D01*
X112827812Y-77519655D01*
X112873242Y-77550010D01*
X112949990Y-77626758D01*
X112949991Y-77626760D01*
X113010291Y-77717005D01*
X113041516Y-77792389D01*
X113053067Y-77814000D01*
X113068612Y-77832941D01*
X113087554Y-77848487D01*
X113109165Y-77860038D01*
X113132614Y-77867151D01*
X113157000Y-77869553D01*
X113181386Y-77867151D01*
X113204835Y-77860038D01*
X113226446Y-77848487D01*
X113245387Y-77832942D01*
X113260933Y-77814000D01*
X113272484Y-77792389D01*
X113303709Y-77717005D01*
X113364009Y-77626760D01*
X113364010Y-77626758D01*
X113440758Y-77550010D01*
X113486188Y-77519655D01*
X113531005Y-77489709D01*
X113631279Y-77448174D01*
X113737730Y-77427000D01*
X113846270Y-77427000D01*
X113952721Y-77448174D01*
X114052995Y-77489709D01*
X114097812Y-77519655D01*
X114143242Y-77550010D01*
X114219990Y-77626758D01*
X114219991Y-77626760D01*
X114280291Y-77717005D01*
X114321826Y-77817279D01*
X114343000Y-77923730D01*
X114343000Y-78032270D01*
X114321826Y-78138721D01*
X114280291Y-78238995D01*
X114280290Y-78238996D01*
X114219990Y-78329242D01*
X114143242Y-78405990D01*
X114097812Y-78436345D01*
X114052995Y-78466291D01*
X113952721Y-78507826D01*
X113846270Y-78529000D01*
X113737730Y-78529000D01*
X113631279Y-78507826D01*
X113531005Y-78466291D01*
X113486188Y-78436345D01*
X113440758Y-78405990D01*
X113364010Y-78329242D01*
X113303710Y-78238996D01*
X113303709Y-78238995D01*
X113272484Y-78163611D01*
X113260933Y-78142000D01*
X113245388Y-78123059D01*
X113226446Y-78107513D01*
X113204835Y-78095962D01*
X113181386Y-78088849D01*
X113157000Y-78086447D01*
X113132614Y-78088849D01*
X113109165Y-78095962D01*
X113087554Y-78107513D01*
X113068613Y-78123058D01*
X113053067Y-78142000D01*
X113041516Y-78163611D01*
X113010291Y-78238995D01*
X113010290Y-78238996D01*
X112949990Y-78329242D01*
X112873242Y-78405990D01*
X112827812Y-78436345D01*
X112782995Y-78466291D01*
X112682721Y-78507826D01*
X112576270Y-78529000D01*
X112467730Y-78529000D01*
X112361279Y-78507826D01*
X112261005Y-78466291D01*
X112216188Y-78436345D01*
X112170758Y-78405990D01*
X112094010Y-78329242D01*
X112033710Y-78238996D01*
X112033709Y-78238995D01*
X112002484Y-78163611D01*
X111990933Y-78142000D01*
X111975388Y-78123059D01*
X111956446Y-78107513D01*
X111934835Y-78095962D01*
X111911386Y-78088849D01*
X111887000Y-78086447D01*
X111862614Y-78088849D01*
X111839165Y-78095962D01*
X111817554Y-78107513D01*
X111798613Y-78123058D01*
X111783067Y-78142000D01*
X111771516Y-78163611D01*
X111740291Y-78238995D01*
X111740290Y-78238996D01*
X111679990Y-78329242D01*
X111603242Y-78405990D01*
X111557812Y-78436345D01*
X111512995Y-78466291D01*
X111412721Y-78507826D01*
X111306270Y-78529000D01*
X111197730Y-78529000D01*
X111091279Y-78507826D01*
X110991005Y-78466291D01*
X110946188Y-78436345D01*
X110900758Y-78405990D01*
X110824010Y-78329242D01*
X110763710Y-78238996D01*
X110763709Y-78238995D01*
X110732484Y-78163611D01*
X110720933Y-78142000D01*
X110705388Y-78123059D01*
X110686446Y-78107513D01*
X110664835Y-78095962D01*
X110641386Y-78088849D01*
X110617000Y-78086447D01*
X110592614Y-78088849D01*
X110569165Y-78095962D01*
X110547554Y-78107513D01*
X110528613Y-78123058D01*
X110513067Y-78142000D01*
X110501516Y-78163611D01*
X110470291Y-78238995D01*
X110470290Y-78238996D01*
X110409990Y-78329242D01*
X110333242Y-78405990D01*
X110287812Y-78436345D01*
X110242995Y-78466291D01*
X110142721Y-78507826D01*
X110036270Y-78529000D01*
X109927730Y-78529000D01*
X109821279Y-78507826D01*
X109721005Y-78466291D01*
X109676188Y-78436345D01*
X109630758Y-78405990D01*
X109554010Y-78329242D01*
X109493710Y-78238996D01*
X109493709Y-78238995D01*
X109462484Y-78163611D01*
X109450933Y-78142000D01*
X109435388Y-78123059D01*
X109416446Y-78107513D01*
X109394835Y-78095962D01*
X109371386Y-78088849D01*
X109347000Y-78086447D01*
X109322614Y-78088849D01*
X109299165Y-78095962D01*
X109277554Y-78107513D01*
X109258613Y-78123058D01*
X109243067Y-78142000D01*
X109231516Y-78163611D01*
X109200291Y-78238995D01*
X109200290Y-78238996D01*
X109139990Y-78329242D01*
X109063242Y-78405990D01*
X109017812Y-78436345D01*
X108972995Y-78466291D01*
X108872721Y-78507826D01*
X108766270Y-78529000D01*
X108657730Y-78529000D01*
X108551279Y-78507826D01*
X108451005Y-78466291D01*
X108406188Y-78436345D01*
X108360758Y-78405990D01*
X108284010Y-78329242D01*
X108263012Y-78297816D01*
X108221932Y-78236336D01*
X108206386Y-78217394D01*
X108187444Y-78201849D01*
X108165833Y-78190298D01*
X108142385Y-78183185D01*
X108117998Y-78180783D01*
X108093612Y-78183185D01*
X108070163Y-78190298D01*
X108048553Y-78201849D01*
X108029611Y-78217395D01*
X108014066Y-78236337D01*
X108002515Y-78257948D01*
X107995402Y-78281396D01*
X107993000Y-78305782D01*
X107993000Y-78529000D01*
X106891000Y-78529000D01*
X106891000Y-77427000D01*
X107993000Y-77427000D01*
X107993000Y-77650218D01*
G37*
G36*
X57984971Y-74180204D02*
G01*
X58146871Y-74212408D01*
X58451883Y-74338748D01*
X58726387Y-74522166D01*
X58959834Y-74755613D01*
X59143252Y-75030117D01*
X59269592Y-75335129D01*
X59334000Y-75658928D01*
X59334000Y-75989072D01*
X59269592Y-76312871D01*
X59143252Y-76617883D01*
X58959834Y-76892387D01*
X58726387Y-77125834D01*
X58451883Y-77309252D01*
X58146871Y-77435592D01*
X58083617Y-77448174D01*
X57823073Y-77500000D01*
X57492927Y-77500000D01*
X57232383Y-77448174D01*
X57169129Y-77435592D01*
X56864117Y-77309252D01*
X56589613Y-77125834D01*
X56356166Y-76892387D01*
X56172748Y-76617883D01*
X56046408Y-76312871D01*
X55982000Y-75989072D01*
X55982000Y-75658928D01*
X56046408Y-75335129D01*
X56172748Y-75030117D01*
X56356166Y-74755613D01*
X56589613Y-74522166D01*
X56864117Y-74338748D01*
X57169129Y-74212408D01*
X57331029Y-74180204D01*
X57492927Y-74148000D01*
X57823073Y-74148000D01*
X57984971Y-74180204D01*
G37*
G36*
X74192365Y-74741420D02*
G01*
X74381888Y-74819923D01*
X74552454Y-74933892D01*
X74697508Y-75078946D01*
X74811477Y-75249512D01*
X74811478Y-75249514D01*
X74889980Y-75439035D01*
X74930000Y-75640230D01*
X74930000Y-75845370D01*
X74889980Y-76046565D01*
X74846037Y-76152654D01*
X74811477Y-76236088D01*
X74697508Y-76406654D01*
X74552454Y-76551708D01*
X74381888Y-76665677D01*
X74381887Y-76665678D01*
X74381886Y-76665678D01*
X74192365Y-76744180D01*
X73991170Y-76784200D01*
X73786030Y-76784200D01*
X73584835Y-76744180D01*
X73395314Y-76665678D01*
X73395313Y-76665678D01*
X73395312Y-76665677D01*
X73224746Y-76551708D01*
X73079692Y-76406654D01*
X72965723Y-76236088D01*
X72931164Y-76152654D01*
X72887220Y-76046565D01*
X72847200Y-75845370D01*
X72847200Y-75640230D01*
X72887220Y-75439035D01*
X72965722Y-75249514D01*
X72965723Y-75249512D01*
X73079692Y-75078946D01*
X73224746Y-74933892D01*
X73395312Y-74819923D01*
X73584835Y-74741420D01*
X73786030Y-74701400D01*
X73991170Y-74701400D01*
X74192365Y-74741420D01*
G37*
G36*
X69671165Y-74741420D02*
G01*
X69860688Y-74819923D01*
X70031254Y-74933892D01*
X70176308Y-75078946D01*
X70290277Y-75249512D01*
X70290278Y-75249514D01*
X70368780Y-75439035D01*
X70408800Y-75640230D01*
X70408800Y-75845370D01*
X70368780Y-76046565D01*
X70324837Y-76152654D01*
X70290277Y-76236088D01*
X70176308Y-76406654D01*
X70031254Y-76551708D01*
X69860688Y-76665677D01*
X69860687Y-76665678D01*
X69860686Y-76665678D01*
X69671165Y-76744180D01*
X69469970Y-76784200D01*
X69264830Y-76784200D01*
X69063635Y-76744180D01*
X68874114Y-76665678D01*
X68874113Y-76665678D01*
X68874112Y-76665677D01*
X68703546Y-76551708D01*
X68558492Y-76406654D01*
X68444523Y-76236088D01*
X68409964Y-76152654D01*
X68366020Y-76046565D01*
X68326000Y-75845370D01*
X68326000Y-75640230D01*
X68366020Y-75439035D01*
X68444522Y-75249514D01*
X68444523Y-75249512D01*
X68558492Y-75078946D01*
X68703546Y-74933892D01*
X68874112Y-74819923D01*
X69063635Y-74741420D01*
X69264830Y-74701400D01*
X69469970Y-74701400D01*
X69671165Y-74741420D01*
G37*
G36*
X147903165Y-74487420D02*
G01*
X148092688Y-74565923D01*
X148263254Y-74679892D01*
X148408308Y-74824946D01*
X148522277Y-74995512D01*
X148522278Y-74995514D01*
X148600780Y-75185035D01*
X148630636Y-75335130D01*
X148640800Y-75386231D01*
X148640800Y-75591369D01*
X148600780Y-75792565D01*
X148522277Y-75982088D01*
X148408308Y-76152654D01*
X148263254Y-76297708D01*
X148092688Y-76411677D01*
X148092687Y-76411678D01*
X148092686Y-76411678D01*
X147903165Y-76490180D01*
X147701970Y-76530200D01*
X147496830Y-76530200D01*
X147295635Y-76490180D01*
X147106114Y-76411678D01*
X147106113Y-76411678D01*
X147106112Y-76411677D01*
X146935546Y-76297708D01*
X146790492Y-76152654D01*
X146676523Y-75982088D01*
X146598020Y-75792565D01*
X146558000Y-75591369D01*
X146558000Y-75386231D01*
X146568165Y-75335130D01*
X146598020Y-75185035D01*
X146676522Y-74995514D01*
X146676523Y-74995512D01*
X146790492Y-74824946D01*
X146935546Y-74679892D01*
X147106112Y-74565923D01*
X147295635Y-74487420D01*
X147496830Y-74447400D01*
X147701970Y-74447400D01*
X147903165Y-74487420D01*
G37*
G36*
X152424365Y-74487420D02*
G01*
X152613888Y-74565923D01*
X152784454Y-74679892D01*
X152929508Y-74824946D01*
X153043477Y-74995512D01*
X153043478Y-74995514D01*
X153121980Y-75185035D01*
X153151836Y-75335130D01*
X153162000Y-75386231D01*
X153162000Y-75591369D01*
X153121980Y-75792565D01*
X153043477Y-75982088D01*
X152929508Y-76152654D01*
X152784454Y-76297708D01*
X152613888Y-76411677D01*
X152613887Y-76411678D01*
X152613886Y-76411678D01*
X152424365Y-76490180D01*
X152223170Y-76530200D01*
X152018030Y-76530200D01*
X151816835Y-76490180D01*
X151627314Y-76411678D01*
X151627313Y-76411678D01*
X151627312Y-76411677D01*
X151456746Y-76297708D01*
X151311692Y-76152654D01*
X151197723Y-75982088D01*
X151119220Y-75792565D01*
X151079200Y-75591369D01*
X151079200Y-75386231D01*
X151089365Y-75335130D01*
X151119220Y-75185035D01*
X151197722Y-74995514D01*
X151197723Y-74995512D01*
X151311692Y-74824946D01*
X151456746Y-74679892D01*
X151627312Y-74565923D01*
X151816835Y-74487420D01*
X152018030Y-74447400D01*
X152223170Y-74447400D01*
X152424365Y-74487420D01*
G37*
G36*
X49579000Y-74725000D02*
G01*
X47957000Y-74725000D01*
X47957000Y-73103000D01*
X49579000Y-73103000D01*
X49579000Y-74725000D01*
G37*
G36*
X51544560Y-71864166D02*
G01*
X51692153Y-71925301D01*
X51824982Y-72014055D01*
X51937945Y-72127018D01*
X51988283Y-72202353D01*
X52026700Y-72259849D01*
X52087834Y-72407440D01*
X52091617Y-72426456D01*
X52119000Y-72564123D01*
X52119000Y-72723877D01*
X52087834Y-72880560D01*
X52026699Y-73028153D01*
X51937945Y-73160982D01*
X51824982Y-73273945D01*
X51692153Y-73362699D01*
X51692152Y-73362700D01*
X51692151Y-73362700D01*
X51544560Y-73423834D01*
X51387878Y-73455000D01*
X51228122Y-73455000D01*
X51071440Y-73423834D01*
X50923849Y-73362700D01*
X50923848Y-73362700D01*
X50923847Y-73362699D01*
X50791018Y-73273945D01*
X50678055Y-73160982D01*
X50589301Y-73028153D01*
X50528166Y-72880560D01*
X50497000Y-72723877D01*
X50497000Y-72564123D01*
X50524384Y-72426456D01*
X50528166Y-72407440D01*
X50589300Y-72259849D01*
X50627718Y-72202353D01*
X50678055Y-72127018D01*
X50791018Y-72014055D01*
X50923847Y-71925301D01*
X51071440Y-71864166D01*
X51228122Y-71833000D01*
X51387878Y-71833000D01*
X51544560Y-71864166D01*
G37*
G36*
X109841512Y-70731927D02*
G01*
X109990812Y-70761624D01*
X110154784Y-70829544D01*
X110302354Y-70928147D01*
X110427853Y-71053646D01*
X110526456Y-71201216D01*
X110594376Y-71365188D01*
X110629000Y-71539259D01*
X110629000Y-71716741D01*
X110594376Y-71890812D01*
X110526456Y-72054784D01*
X110427853Y-72202354D01*
X110302354Y-72327853D01*
X110154784Y-72426456D01*
X109990812Y-72494376D01*
X109841512Y-72524073D01*
X109816742Y-72529000D01*
X109639258Y-72529000D01*
X109614488Y-72524073D01*
X109465188Y-72494376D01*
X109301216Y-72426456D01*
X109153646Y-72327853D01*
X109028147Y-72202354D01*
X108929544Y-72054784D01*
X108861624Y-71890812D01*
X108827000Y-71716741D01*
X108827000Y-71539259D01*
X108861624Y-71365188D01*
X108929544Y-71201216D01*
X109028147Y-71053646D01*
X109153646Y-70928147D01*
X109301216Y-70829544D01*
X109465188Y-70761624D01*
X109614488Y-70731927D01*
X109639258Y-70727000D01*
X109816742Y-70727000D01*
X109841512Y-70731927D01*
G37*
G36*
X105549000Y-72529000D02*
G01*
X103747000Y-72529000D01*
X103747000Y-70727000D01*
X105549000Y-70727000D01*
X105549000Y-72529000D01*
G37*
G36*
X107301512Y-70731927D02*
G01*
X107450812Y-70761624D01*
X107614784Y-70829544D01*
X107762354Y-70928147D01*
X107887853Y-71053646D01*
X107986456Y-71201216D01*
X108054376Y-71365188D01*
X108089000Y-71539259D01*
X108089000Y-71716741D01*
X108054376Y-71890812D01*
X107986456Y-72054784D01*
X107887853Y-72202354D01*
X107762354Y-72327853D01*
X107614784Y-72426456D01*
X107450812Y-72494376D01*
X107301512Y-72524073D01*
X107276742Y-72529000D01*
X107099258Y-72529000D01*
X107074488Y-72524073D01*
X106925188Y-72494376D01*
X106761216Y-72426456D01*
X106613646Y-72327853D01*
X106488147Y-72202354D01*
X106389544Y-72054784D01*
X106321624Y-71890812D01*
X106287000Y-71716741D01*
X106287000Y-71539259D01*
X106321624Y-71365188D01*
X106389544Y-71201216D01*
X106488147Y-71053646D01*
X106613646Y-70928147D01*
X106761216Y-70829544D01*
X106925188Y-70761624D01*
X107074488Y-70731927D01*
X107099258Y-70727000D01*
X107276742Y-70727000D01*
X107301512Y-70731927D01*
G37*
G36*
X117461512Y-70731927D02*
G01*
X117610812Y-70761624D01*
X117774784Y-70829544D01*
X117922354Y-70928147D01*
X118047853Y-71053646D01*
X118146456Y-71201216D01*
X118214376Y-71365188D01*
X118249000Y-71539259D01*
X118249000Y-71716741D01*
X118214376Y-71890812D01*
X118146456Y-72054784D01*
X118047853Y-72202354D01*
X117922354Y-72327853D01*
X117774784Y-72426456D01*
X117610812Y-72494376D01*
X117461512Y-72524073D01*
X117436742Y-72529000D01*
X117259258Y-72529000D01*
X117234488Y-72524073D01*
X117085188Y-72494376D01*
X116921216Y-72426456D01*
X116773646Y-72327853D01*
X116648147Y-72202354D01*
X116549544Y-72054784D01*
X116481624Y-71890812D01*
X116447000Y-71716741D01*
X116447000Y-71539259D01*
X116481624Y-71365188D01*
X116549544Y-71201216D01*
X116648147Y-71053646D01*
X116773646Y-70928147D01*
X116921216Y-70829544D01*
X117085188Y-70761624D01*
X117234488Y-70731927D01*
X117259258Y-70727000D01*
X117436742Y-70727000D01*
X117461512Y-70731927D01*
G37*
G36*
X112381512Y-70731927D02*
G01*
X112530812Y-70761624D01*
X112694784Y-70829544D01*
X112842354Y-70928147D01*
X112967853Y-71053646D01*
X113066456Y-71201216D01*
X113134376Y-71365188D01*
X113169000Y-71539259D01*
X113169000Y-71716741D01*
X113134376Y-71890812D01*
X113066456Y-72054784D01*
X112967853Y-72202354D01*
X112842354Y-72327853D01*
X112694784Y-72426456D01*
X112530812Y-72494376D01*
X112381512Y-72524073D01*
X112356742Y-72529000D01*
X112179258Y-72529000D01*
X112154488Y-72524073D01*
X112005188Y-72494376D01*
X111841216Y-72426456D01*
X111693646Y-72327853D01*
X111568147Y-72202354D01*
X111469544Y-72054784D01*
X111401624Y-71890812D01*
X111367000Y-71716741D01*
X111367000Y-71539259D01*
X111401624Y-71365188D01*
X111469544Y-71201216D01*
X111568147Y-71053646D01*
X111693646Y-70928147D01*
X111841216Y-70829544D01*
X112005188Y-70761624D01*
X112154488Y-70731927D01*
X112179258Y-70727000D01*
X112356742Y-70727000D01*
X112381512Y-70731927D01*
G37*
G36*
X114921512Y-70731927D02*
G01*
X115070812Y-70761624D01*
X115234784Y-70829544D01*
X115382354Y-70928147D01*
X115507853Y-71053646D01*
X115606456Y-71201216D01*
X115674376Y-71365188D01*
X115709000Y-71539259D01*
X115709000Y-71716741D01*
X115674376Y-71890812D01*
X115606456Y-72054784D01*
X115507853Y-72202354D01*
X115382354Y-72327853D01*
X115234784Y-72426456D01*
X115070812Y-72494376D01*
X114921512Y-72524073D01*
X114896742Y-72529000D01*
X114719258Y-72529000D01*
X114694488Y-72524073D01*
X114545188Y-72494376D01*
X114381216Y-72426456D01*
X114233646Y-72327853D01*
X114108147Y-72202354D01*
X114009544Y-72054784D01*
X113941624Y-71890812D01*
X113907000Y-71716741D01*
X113907000Y-71539259D01*
X113941624Y-71365188D01*
X114009544Y-71201216D01*
X114108147Y-71053646D01*
X114233646Y-70928147D01*
X114381216Y-70829544D01*
X114545188Y-70761624D01*
X114694488Y-70731927D01*
X114719258Y-70727000D01*
X114896742Y-70727000D01*
X114921512Y-70731927D01*
G37*
G36*
X150749943Y-66408248D02*
G01*
X151305189Y-66638238D01*
X151476942Y-66753000D01*
X151804899Y-66972134D01*
X152229866Y-67397101D01*
X152288012Y-67484123D01*
X152563762Y-67896811D01*
X152793752Y-68452057D01*
X152911000Y-69041501D01*
X152911000Y-69642499D01*
X152793752Y-70231943D01*
X152563762Y-70787189D01*
X152499186Y-70883834D01*
X152229866Y-71286899D01*
X151804899Y-71711866D01*
X151623609Y-71833000D01*
X151305189Y-72045762D01*
X150749943Y-72275752D01*
X150160499Y-72393000D01*
X149559501Y-72393000D01*
X148970057Y-72275752D01*
X148414811Y-72045762D01*
X148096391Y-71833000D01*
X147915101Y-71711866D01*
X147490134Y-71286899D01*
X147220814Y-70883834D01*
X147156238Y-70787189D01*
X146926248Y-70231943D01*
X146809000Y-69642499D01*
X146809000Y-69041501D01*
X146926248Y-68452057D01*
X147156238Y-67896811D01*
X147431988Y-67484123D01*
X147490134Y-67397101D01*
X147915101Y-66972134D01*
X148243058Y-66753000D01*
X148414811Y-66638238D01*
X148970057Y-66408248D01*
X149559501Y-66291000D01*
X150160499Y-66291000D01*
X150749943Y-66408248D01*
G37*
G36*
X72517943Y-66408248D02*
G01*
X73073189Y-66638238D01*
X73244942Y-66753000D01*
X73572899Y-66972134D01*
X73997866Y-67397101D01*
X74056012Y-67484123D01*
X74331762Y-67896811D01*
X74561752Y-68452057D01*
X74679000Y-69041501D01*
X74679000Y-69642499D01*
X74561752Y-70231943D01*
X74331762Y-70787189D01*
X74267186Y-70883834D01*
X73997866Y-71286899D01*
X73572899Y-71711866D01*
X73391609Y-71833000D01*
X73073189Y-72045762D01*
X72517943Y-72275752D01*
X71928499Y-72393000D01*
X71327501Y-72393000D01*
X70738057Y-72275752D01*
X70182811Y-72045762D01*
X69864391Y-71833000D01*
X69683101Y-71711866D01*
X69258134Y-71286899D01*
X68988814Y-70883834D01*
X68924238Y-70787189D01*
X68694248Y-70231943D01*
X68577000Y-69642499D01*
X68577000Y-69041501D01*
X68694248Y-68452057D01*
X68924238Y-67896811D01*
X69199988Y-67484123D01*
X69258134Y-67397101D01*
X69683101Y-66972134D01*
X70011058Y-66753000D01*
X70182811Y-66638238D01*
X70738057Y-66408248D01*
X71327501Y-66291000D01*
X71928499Y-66291000D01*
X72517943Y-66408248D01*
G37*
G36*
X49004560Y-70594166D02*
G01*
X49152153Y-70655301D01*
X49284982Y-70744055D01*
X49397945Y-70857018D01*
X49436688Y-70915000D01*
X49486700Y-70989849D01*
X49547834Y-71137440D01*
X49579000Y-71294122D01*
X49579000Y-71453878D01*
X49547834Y-71610560D01*
X49503853Y-71716741D01*
X49486699Y-71758153D01*
X49397945Y-71890982D01*
X49284982Y-72003945D01*
X49152153Y-72092699D01*
X49152152Y-72092700D01*
X49152151Y-72092700D01*
X49004560Y-72153834D01*
X48847878Y-72185000D01*
X48688122Y-72185000D01*
X48531440Y-72153834D01*
X48383849Y-72092700D01*
X48383848Y-72092700D01*
X48383847Y-72092699D01*
X48251018Y-72003945D01*
X48138055Y-71890982D01*
X48049301Y-71758153D01*
X48032148Y-71716741D01*
X47988166Y-71610560D01*
X47957000Y-71453878D01*
X47957000Y-71294122D01*
X47988166Y-71137440D01*
X48049300Y-70989849D01*
X48099313Y-70915000D01*
X48138055Y-70857018D01*
X48251018Y-70744055D01*
X48383847Y-70655301D01*
X48531440Y-70594166D01*
X48688122Y-70563000D01*
X48847878Y-70563000D01*
X49004560Y-70594166D01*
G37*
G36*
X51544560Y-69324166D02*
G01*
X51692153Y-69385301D01*
X51824982Y-69474055D01*
X51937945Y-69587018D01*
X52026699Y-69719847D01*
X52087834Y-69867440D01*
X52119000Y-70024123D01*
X52119000Y-70183877D01*
X52087834Y-70340560D01*
X52026699Y-70488153D01*
X51937945Y-70620982D01*
X51824982Y-70733945D01*
X51692153Y-70822699D01*
X51692152Y-70822700D01*
X51692151Y-70822700D01*
X51544560Y-70883834D01*
X51387878Y-70915000D01*
X51228122Y-70915000D01*
X51071440Y-70883834D01*
X50923849Y-70822700D01*
X50923848Y-70822700D01*
X50923847Y-70822699D01*
X50791018Y-70733945D01*
X50678055Y-70620982D01*
X50589301Y-70488153D01*
X50528166Y-70340560D01*
X50497000Y-70183877D01*
X50497000Y-70024123D01*
X50528166Y-69867440D01*
X50589301Y-69719847D01*
X50678055Y-69587018D01*
X50791018Y-69474055D01*
X50923847Y-69385301D01*
X51071440Y-69324166D01*
X51228122Y-69293000D01*
X51387878Y-69293000D01*
X51544560Y-69324166D01*
G37*
G36*
X49004560Y-68054166D02*
G01*
X49152153Y-68115301D01*
X49284982Y-68204055D01*
X49397945Y-68317018D01*
X49436688Y-68375000D01*
X49486700Y-68449849D01*
X49547834Y-68597440D01*
X49579000Y-68754123D01*
X49579000Y-68913877D01*
X49547834Y-69070560D01*
X49486699Y-69218153D01*
X49397945Y-69350982D01*
X49284982Y-69463945D01*
X49152153Y-69552699D01*
X49152152Y-69552700D01*
X49152151Y-69552700D01*
X49004560Y-69613834D01*
X48847878Y-69645000D01*
X48688122Y-69645000D01*
X48531440Y-69613834D01*
X48383849Y-69552700D01*
X48383848Y-69552700D01*
X48383847Y-69552699D01*
X48251018Y-69463945D01*
X48138055Y-69350982D01*
X48049301Y-69218153D01*
X47988166Y-69070560D01*
X47957000Y-68913877D01*
X47957000Y-68754123D01*
X47988166Y-68597440D01*
X48049300Y-68449849D01*
X48099313Y-68375000D01*
X48138055Y-68317018D01*
X48251018Y-68204055D01*
X48383847Y-68115301D01*
X48531440Y-68054166D01*
X48688122Y-68023000D01*
X48847878Y-68023000D01*
X49004560Y-68054166D01*
G37*
G36*
X51544560Y-66784166D02*
G01*
X51692153Y-66845301D01*
X51824982Y-66934055D01*
X51937945Y-67047018D01*
X52026699Y-67179847D01*
X52087834Y-67327440D01*
X52119000Y-67484123D01*
X52119000Y-67643877D01*
X52087834Y-67800560D01*
X52026699Y-67948153D01*
X51937945Y-68080982D01*
X51824982Y-68193945D01*
X51692153Y-68282699D01*
X51692152Y-68282700D01*
X51692151Y-68282700D01*
X51544560Y-68343834D01*
X51387878Y-68375000D01*
X51228122Y-68375000D01*
X51071440Y-68343834D01*
X50923849Y-68282700D01*
X50923848Y-68282700D01*
X50923847Y-68282699D01*
X50791018Y-68193945D01*
X50678055Y-68080982D01*
X50589301Y-67948153D01*
X50528166Y-67800560D01*
X50497000Y-67643877D01*
X50497000Y-67484123D01*
X50528166Y-67327440D01*
X50589301Y-67179847D01*
X50678055Y-67047018D01*
X50791018Y-66934055D01*
X50923847Y-66845301D01*
X51071440Y-66784166D01*
X51228122Y-66753000D01*
X51387878Y-66753000D01*
X51544560Y-66784166D01*
G37*
G36*
X57984971Y-64020204D02*
G01*
X58146871Y-64052408D01*
X58451883Y-64178748D01*
X58726387Y-64362166D01*
X58959834Y-64595613D01*
X59143252Y-64870117D01*
X59269592Y-65175129D01*
X59334000Y-65498928D01*
X59334000Y-65829072D01*
X59269592Y-66152871D01*
X59143252Y-66457883D01*
X58959834Y-66732387D01*
X58726387Y-66965834D01*
X58451883Y-67149252D01*
X58146871Y-67275592D01*
X57984971Y-67307796D01*
X57823073Y-67340000D01*
X57492927Y-67340000D01*
X57331029Y-67307796D01*
X57169129Y-67275592D01*
X56864117Y-67149252D01*
X56589613Y-66965834D01*
X56356166Y-66732387D01*
X56172748Y-66457883D01*
X56046408Y-66152871D01*
X55982000Y-65829072D01*
X55982000Y-65498928D01*
X56046408Y-65175129D01*
X56172748Y-64870117D01*
X56356166Y-64595613D01*
X56589613Y-64362166D01*
X56864117Y-64178748D01*
X57169129Y-64052408D01*
X57331029Y-64020204D01*
X57492927Y-63988000D01*
X57823073Y-63988000D01*
X57984971Y-64020204D01*
G37*
G36*
X124319512Y-59809927D02*
G01*
X124468812Y-59839624D01*
X124632784Y-59907544D01*
X124780354Y-60006147D01*
X124905853Y-60131646D01*
X125004456Y-60279216D01*
X125072376Y-60443188D01*
X125107000Y-60617259D01*
X125107000Y-60794741D01*
X125072376Y-60968812D01*
X125004456Y-61132784D01*
X124905853Y-61280354D01*
X124780354Y-61405853D01*
X124632784Y-61504456D01*
X124468812Y-61572376D01*
X124319512Y-61602073D01*
X124294742Y-61607000D01*
X124117258Y-61607000D01*
X124092488Y-61602073D01*
X123943188Y-61572376D01*
X123779216Y-61504456D01*
X123631646Y-61405853D01*
X123506147Y-61280354D01*
X123407544Y-61132784D01*
X123339624Y-60968812D01*
X123305000Y-60794741D01*
X123305000Y-60617259D01*
X123339624Y-60443188D01*
X123407544Y-60279216D01*
X123506147Y-60131646D01*
X123631646Y-60006147D01*
X123779216Y-59907544D01*
X123943188Y-59839624D01*
X124092488Y-59809927D01*
X124117258Y-59805000D01*
X124294742Y-59805000D01*
X124319512Y-59809927D01*
G37*
G36*
X129399512Y-59809927D02*
G01*
X129548812Y-59839624D01*
X129712784Y-59907544D01*
X129860354Y-60006147D01*
X129985853Y-60131646D01*
X130084456Y-60279216D01*
X130152376Y-60443188D01*
X130187000Y-60617259D01*
X130187000Y-60794741D01*
X130152376Y-60968812D01*
X130084456Y-61132784D01*
X129985853Y-61280354D01*
X129860354Y-61405853D01*
X129712784Y-61504456D01*
X129548812Y-61572376D01*
X129399512Y-61602073D01*
X129374742Y-61607000D01*
X129197258Y-61607000D01*
X129172488Y-61602073D01*
X129023188Y-61572376D01*
X128859216Y-61504456D01*
X128711646Y-61405853D01*
X128586147Y-61280354D01*
X128487544Y-61132784D01*
X128419624Y-60968812D01*
X128385000Y-60794741D01*
X128385000Y-60617259D01*
X128419624Y-60443188D01*
X128487544Y-60279216D01*
X128586147Y-60131646D01*
X128711646Y-60006147D01*
X128859216Y-59907544D01*
X129023188Y-59839624D01*
X129172488Y-59809927D01*
X129197258Y-59805000D01*
X129374742Y-59805000D01*
X129399512Y-59809927D01*
G37*
G36*
X131939512Y-59809927D02*
G01*
X132088812Y-59839624D01*
X132252784Y-59907544D01*
X132400354Y-60006147D01*
X132525853Y-60131646D01*
X132624456Y-60279216D01*
X132692376Y-60443188D01*
X132727000Y-60617259D01*
X132727000Y-60794741D01*
X132692376Y-60968812D01*
X132624456Y-61132784D01*
X132525853Y-61280354D01*
X132400354Y-61405853D01*
X132252784Y-61504456D01*
X132088812Y-61572376D01*
X131939512Y-61602073D01*
X131914742Y-61607000D01*
X131737258Y-61607000D01*
X131712488Y-61602073D01*
X131563188Y-61572376D01*
X131399216Y-61504456D01*
X131251646Y-61405853D01*
X131126147Y-61280354D01*
X131027544Y-61132784D01*
X130959624Y-60968812D01*
X130925000Y-60794741D01*
X130925000Y-60617259D01*
X130959624Y-60443188D01*
X131027544Y-60279216D01*
X131126147Y-60131646D01*
X131251646Y-60006147D01*
X131399216Y-59907544D01*
X131563188Y-59839624D01*
X131712488Y-59809927D01*
X131737258Y-59805000D01*
X131914742Y-59805000D01*
X131939512Y-59809927D01*
G37*
G36*
X134479512Y-59809927D02*
G01*
X134628812Y-59839624D01*
X134792784Y-59907544D01*
X134940354Y-60006147D01*
X135065853Y-60131646D01*
X135164456Y-60279216D01*
X135232376Y-60443188D01*
X135267000Y-60617259D01*
X135267000Y-60794741D01*
X135232376Y-60968812D01*
X135164456Y-61132784D01*
X135065853Y-61280354D01*
X134940354Y-61405853D01*
X134792784Y-61504456D01*
X134628812Y-61572376D01*
X134479512Y-61602073D01*
X134454742Y-61607000D01*
X134277258Y-61607000D01*
X134252488Y-61602073D01*
X134103188Y-61572376D01*
X133939216Y-61504456D01*
X133791646Y-61405853D01*
X133666147Y-61280354D01*
X133567544Y-61132784D01*
X133499624Y-60968812D01*
X133465000Y-60794741D01*
X133465000Y-60617259D01*
X133499624Y-60443188D01*
X133567544Y-60279216D01*
X133666147Y-60131646D01*
X133791646Y-60006147D01*
X133939216Y-59907544D01*
X134103188Y-59839624D01*
X134252488Y-59809927D01*
X134277258Y-59805000D01*
X134454742Y-59805000D01*
X134479512Y-59809927D01*
G37*
G36*
X137019512Y-59809927D02*
G01*
X137168812Y-59839624D01*
X137332784Y-59907544D01*
X137480354Y-60006147D01*
X137605853Y-60131646D01*
X137704456Y-60279216D01*
X137772376Y-60443188D01*
X137807000Y-60617259D01*
X137807000Y-60794741D01*
X137772376Y-60968812D01*
X137704456Y-61132784D01*
X137605853Y-61280354D01*
X137480354Y-61405853D01*
X137332784Y-61504456D01*
X137168812Y-61572376D01*
X137019512Y-61602073D01*
X136994742Y-61607000D01*
X136817258Y-61607000D01*
X136792488Y-61602073D01*
X136643188Y-61572376D01*
X136479216Y-61504456D01*
X136331646Y-61405853D01*
X136206147Y-61280354D01*
X136107544Y-61132784D01*
X136039624Y-60968812D01*
X136005000Y-60794741D01*
X136005000Y-60617259D01*
X136039624Y-60443188D01*
X136107544Y-60279216D01*
X136206147Y-60131646D01*
X136331646Y-60006147D01*
X136479216Y-59907544D01*
X136643188Y-59839624D01*
X136792488Y-59809927D01*
X136817258Y-59805000D01*
X136994742Y-59805000D01*
X137019512Y-59809927D01*
G37*
G36*
X139559512Y-59809927D02*
G01*
X139708812Y-59839624D01*
X139872784Y-59907544D01*
X140020354Y-60006147D01*
X140145853Y-60131646D01*
X140244456Y-60279216D01*
X140312376Y-60443188D01*
X140347000Y-60617259D01*
X140347000Y-60794741D01*
X140312376Y-60968812D01*
X140244456Y-61132784D01*
X140145853Y-61280354D01*
X140020354Y-61405853D01*
X139872784Y-61504456D01*
X139708812Y-61572376D01*
X139559512Y-61602073D01*
X139534742Y-61607000D01*
X139357258Y-61607000D01*
X139332488Y-61602073D01*
X139183188Y-61572376D01*
X139019216Y-61504456D01*
X138871646Y-61405853D01*
X138746147Y-61280354D01*
X138647544Y-61132784D01*
X138579624Y-60968812D01*
X138545000Y-60794741D01*
X138545000Y-60617259D01*
X138579624Y-60443188D01*
X138647544Y-60279216D01*
X138746147Y-60131646D01*
X138871646Y-60006147D01*
X139019216Y-59907544D01*
X139183188Y-59839624D01*
X139332488Y-59809927D01*
X139357258Y-59805000D01*
X139534742Y-59805000D01*
X139559512Y-59809927D01*
G37*
G36*
X142099512Y-59809927D02*
G01*
X142248812Y-59839624D01*
X142412784Y-59907544D01*
X142560354Y-60006147D01*
X142685853Y-60131646D01*
X142784456Y-60279216D01*
X142852376Y-60443188D01*
X142887000Y-60617259D01*
X142887000Y-60794741D01*
X142852376Y-60968812D01*
X142784456Y-61132784D01*
X142685853Y-61280354D01*
X142560354Y-61405853D01*
X142412784Y-61504456D01*
X142248812Y-61572376D01*
X142099512Y-61602073D01*
X142074742Y-61607000D01*
X141897258Y-61607000D01*
X141872488Y-61602073D01*
X141723188Y-61572376D01*
X141559216Y-61504456D01*
X141411646Y-61405853D01*
X141286147Y-61280354D01*
X141187544Y-61132784D01*
X141119624Y-60968812D01*
X141085000Y-60794741D01*
X141085000Y-60617259D01*
X141119624Y-60443188D01*
X141187544Y-60279216D01*
X141286147Y-60131646D01*
X141411646Y-60006147D01*
X141559216Y-59907544D01*
X141723188Y-59839624D01*
X141872488Y-59809927D01*
X141897258Y-59805000D01*
X142074742Y-59805000D01*
X142099512Y-59809927D01*
G37*
G36*
X144639512Y-59809927D02*
G01*
X144788812Y-59839624D01*
X144952784Y-59907544D01*
X145100354Y-60006147D01*
X145225853Y-60131646D01*
X145324456Y-60279216D01*
X145392376Y-60443188D01*
X145427000Y-60617259D01*
X145427000Y-60794741D01*
X145392376Y-60968812D01*
X145324456Y-61132784D01*
X145225853Y-61280354D01*
X145100354Y-61405853D01*
X144952784Y-61504456D01*
X144788812Y-61572376D01*
X144639512Y-61602073D01*
X144614742Y-61607000D01*
X144437258Y-61607000D01*
X144412488Y-61602073D01*
X144263188Y-61572376D01*
X144099216Y-61504456D01*
X143951646Y-61405853D01*
X143826147Y-61280354D01*
X143727544Y-61132784D01*
X143659624Y-60968812D01*
X143625000Y-60794741D01*
X143625000Y-60617259D01*
X143659624Y-60443188D01*
X143727544Y-60279216D01*
X143826147Y-60131646D01*
X143951646Y-60006147D01*
X144099216Y-59907544D01*
X144263188Y-59839624D01*
X144412488Y-59809927D01*
X144437258Y-59805000D01*
X144614742Y-59805000D01*
X144639512Y-59809927D01*
G37*
G36*
X119239512Y-59809927D02*
G01*
X119388812Y-59839624D01*
X119552784Y-59907544D01*
X119700354Y-60006147D01*
X119825853Y-60131646D01*
X119924456Y-60279216D01*
X119992376Y-60443188D01*
X120027000Y-60617259D01*
X120027000Y-60794741D01*
X119992376Y-60968812D01*
X119924456Y-61132784D01*
X119825853Y-61280354D01*
X119700354Y-61405853D01*
X119552784Y-61504456D01*
X119388812Y-61572376D01*
X119239512Y-61602073D01*
X119214742Y-61607000D01*
X119037258Y-61607000D01*
X119012488Y-61602073D01*
X118863188Y-61572376D01*
X118699216Y-61504456D01*
X118551646Y-61405853D01*
X118426147Y-61280354D01*
X118327544Y-61132784D01*
X118259624Y-60968812D01*
X118225000Y-60794741D01*
X118225000Y-60617259D01*
X118259624Y-60443188D01*
X118327544Y-60279216D01*
X118426147Y-60131646D01*
X118551646Y-60006147D01*
X118699216Y-59907544D01*
X118863188Y-59839624D01*
X119012488Y-59809927D01*
X119037258Y-59805000D01*
X119214742Y-59805000D01*
X119239512Y-59809927D01*
G37*
G36*
X116699512Y-59809927D02*
G01*
X116848812Y-59839624D01*
X117012784Y-59907544D01*
X117160354Y-60006147D01*
X117285853Y-60131646D01*
X117384456Y-60279216D01*
X117452376Y-60443188D01*
X117487000Y-60617259D01*
X117487000Y-60794741D01*
X117452376Y-60968812D01*
X117384456Y-61132784D01*
X117285853Y-61280354D01*
X117160354Y-61405853D01*
X117012784Y-61504456D01*
X116848812Y-61572376D01*
X116699512Y-61602073D01*
X116674742Y-61607000D01*
X116497258Y-61607000D01*
X116472488Y-61602073D01*
X116323188Y-61572376D01*
X116159216Y-61504456D01*
X116011646Y-61405853D01*
X115886147Y-61280354D01*
X115787544Y-61132784D01*
X115719624Y-60968812D01*
X115685000Y-60794741D01*
X115685000Y-60617259D01*
X115719624Y-60443188D01*
X115787544Y-60279216D01*
X115886147Y-60131646D01*
X116011646Y-60006147D01*
X116159216Y-59907544D01*
X116323188Y-59839624D01*
X116472488Y-59809927D01*
X116497258Y-59805000D01*
X116674742Y-59805000D01*
X116699512Y-59809927D01*
G37*
G36*
X114159512Y-59809927D02*
G01*
X114308812Y-59839624D01*
X114472784Y-59907544D01*
X114620354Y-60006147D01*
X114745853Y-60131646D01*
X114844456Y-60279216D01*
X114912376Y-60443188D01*
X114947000Y-60617259D01*
X114947000Y-60794741D01*
X114912376Y-60968812D01*
X114844456Y-61132784D01*
X114745853Y-61280354D01*
X114620354Y-61405853D01*
X114472784Y-61504456D01*
X114308812Y-61572376D01*
X114159512Y-61602073D01*
X114134742Y-61607000D01*
X113957258Y-61607000D01*
X113932488Y-61602073D01*
X113783188Y-61572376D01*
X113619216Y-61504456D01*
X113471646Y-61405853D01*
X113346147Y-61280354D01*
X113247544Y-61132784D01*
X113179624Y-60968812D01*
X113145000Y-60794741D01*
X113145000Y-60617259D01*
X113179624Y-60443188D01*
X113247544Y-60279216D01*
X113346147Y-60131646D01*
X113471646Y-60006147D01*
X113619216Y-59907544D01*
X113783188Y-59839624D01*
X113932488Y-59809927D01*
X113957258Y-59805000D01*
X114134742Y-59805000D01*
X114159512Y-59809927D01*
G37*
G36*
X126859512Y-59809927D02*
G01*
X127008812Y-59839624D01*
X127172784Y-59907544D01*
X127320354Y-60006147D01*
X127445853Y-60131646D01*
X127544456Y-60279216D01*
X127612376Y-60443188D01*
X127647000Y-60617259D01*
X127647000Y-60794741D01*
X127612376Y-60968812D01*
X127544456Y-61132784D01*
X127445853Y-61280354D01*
X127320354Y-61405853D01*
X127172784Y-61504456D01*
X127008812Y-61572376D01*
X126859512Y-61602073D01*
X126834742Y-61607000D01*
X126657258Y-61607000D01*
X126632488Y-61602073D01*
X126483188Y-61572376D01*
X126319216Y-61504456D01*
X126171646Y-61405853D01*
X126046147Y-61280354D01*
X125947544Y-61132784D01*
X125879624Y-60968812D01*
X125845000Y-60794741D01*
X125845000Y-60617259D01*
X125879624Y-60443188D01*
X125947544Y-60279216D01*
X126046147Y-60131646D01*
X126171646Y-60006147D01*
X126319216Y-59907544D01*
X126483188Y-59839624D01*
X126632488Y-59809927D01*
X126657258Y-59805000D01*
X126834742Y-59805000D01*
X126859512Y-59809927D01*
G37*
G36*
X103999512Y-59809927D02*
G01*
X104148812Y-59839624D01*
X104312784Y-59907544D01*
X104460354Y-60006147D01*
X104585853Y-60131646D01*
X104684456Y-60279216D01*
X104752376Y-60443188D01*
X104787000Y-60617259D01*
X104787000Y-60794741D01*
X104752376Y-60968812D01*
X104684456Y-61132784D01*
X104585853Y-61280354D01*
X104460354Y-61405853D01*
X104312784Y-61504456D01*
X104148812Y-61572376D01*
X103999512Y-61602073D01*
X103974742Y-61607000D01*
X103797258Y-61607000D01*
X103772488Y-61602073D01*
X103623188Y-61572376D01*
X103459216Y-61504456D01*
X103311646Y-61405853D01*
X103186147Y-61280354D01*
X103087544Y-61132784D01*
X103019624Y-60968812D01*
X102985000Y-60794741D01*
X102985000Y-60617259D01*
X103019624Y-60443188D01*
X103087544Y-60279216D01*
X103186147Y-60131646D01*
X103311646Y-60006147D01*
X103459216Y-59907544D01*
X103623188Y-59839624D01*
X103772488Y-59809927D01*
X103797258Y-59805000D01*
X103974742Y-59805000D01*
X103999512Y-59809927D01*
G37*
G36*
X106539512Y-59809927D02*
G01*
X106688812Y-59839624D01*
X106852784Y-59907544D01*
X107000354Y-60006147D01*
X107125853Y-60131646D01*
X107224456Y-60279216D01*
X107292376Y-60443188D01*
X107327000Y-60617259D01*
X107327000Y-60794741D01*
X107292376Y-60968812D01*
X107224456Y-61132784D01*
X107125853Y-61280354D01*
X107000354Y-61405853D01*
X106852784Y-61504456D01*
X106688812Y-61572376D01*
X106539512Y-61602073D01*
X106514742Y-61607000D01*
X106337258Y-61607000D01*
X106312488Y-61602073D01*
X106163188Y-61572376D01*
X105999216Y-61504456D01*
X105851646Y-61405853D01*
X105726147Y-61280354D01*
X105627544Y-61132784D01*
X105559624Y-60968812D01*
X105525000Y-60794741D01*
X105525000Y-60617259D01*
X105559624Y-60443188D01*
X105627544Y-60279216D01*
X105726147Y-60131646D01*
X105851646Y-60006147D01*
X105999216Y-59907544D01*
X106163188Y-59839624D01*
X106312488Y-59809927D01*
X106337258Y-59805000D01*
X106514742Y-59805000D01*
X106539512Y-59809927D01*
G37*
G36*
X111619512Y-59809927D02*
G01*
X111768812Y-59839624D01*
X111932784Y-59907544D01*
X112080354Y-60006147D01*
X112205853Y-60131646D01*
X112304456Y-60279216D01*
X112372376Y-60443188D01*
X112407000Y-60617259D01*
X112407000Y-60794741D01*
X112372376Y-60968812D01*
X112304456Y-61132784D01*
X112205853Y-61280354D01*
X112080354Y-61405853D01*
X111932784Y-61504456D01*
X111768812Y-61572376D01*
X111619512Y-61602073D01*
X111594742Y-61607000D01*
X111417258Y-61607000D01*
X111392488Y-61602073D01*
X111243188Y-61572376D01*
X111079216Y-61504456D01*
X110931646Y-61405853D01*
X110806147Y-61280354D01*
X110707544Y-61132784D01*
X110639624Y-60968812D01*
X110605000Y-60794741D01*
X110605000Y-60617259D01*
X110639624Y-60443188D01*
X110707544Y-60279216D01*
X110806147Y-60131646D01*
X110931646Y-60006147D01*
X111079216Y-59907544D01*
X111243188Y-59839624D01*
X111392488Y-59809927D01*
X111417258Y-59805000D01*
X111594742Y-59805000D01*
X111619512Y-59809927D01*
G37*
G36*
X109079512Y-59809927D02*
G01*
X109228812Y-59839624D01*
X109392784Y-59907544D01*
X109540354Y-60006147D01*
X109665853Y-60131646D01*
X109764456Y-60279216D01*
X109832376Y-60443188D01*
X109867000Y-60617259D01*
X109867000Y-60794741D01*
X109832376Y-60968812D01*
X109764456Y-61132784D01*
X109665853Y-61280354D01*
X109540354Y-61405853D01*
X109392784Y-61504456D01*
X109228812Y-61572376D01*
X109079512Y-61602073D01*
X109054742Y-61607000D01*
X108877258Y-61607000D01*
X108852488Y-61602073D01*
X108703188Y-61572376D01*
X108539216Y-61504456D01*
X108391646Y-61405853D01*
X108266147Y-61280354D01*
X108167544Y-61132784D01*
X108099624Y-60968812D01*
X108065000Y-60794741D01*
X108065000Y-60617259D01*
X108099624Y-60443188D01*
X108167544Y-60279216D01*
X108266147Y-60131646D01*
X108391646Y-60006147D01*
X108539216Y-59907544D01*
X108703188Y-59839624D01*
X108852488Y-59809927D01*
X108877258Y-59805000D01*
X109054742Y-59805000D01*
X109079512Y-59809927D01*
G37*
G36*
X121779512Y-59809927D02*
G01*
X121928812Y-59839624D01*
X122092784Y-59907544D01*
X122240354Y-60006147D01*
X122365853Y-60131646D01*
X122464456Y-60279216D01*
X122532376Y-60443188D01*
X122567000Y-60617259D01*
X122567000Y-60794741D01*
X122532376Y-60968812D01*
X122464456Y-61132784D01*
X122365853Y-61280354D01*
X122240354Y-61405853D01*
X122092784Y-61504456D01*
X121928812Y-61572376D01*
X121779512Y-61602073D01*
X121754742Y-61607000D01*
X121577258Y-61607000D01*
X121552488Y-61602073D01*
X121403188Y-61572376D01*
X121239216Y-61504456D01*
X121091646Y-61405853D01*
X120966147Y-61280354D01*
X120867544Y-61132784D01*
X120799624Y-60968812D01*
X120765000Y-60794741D01*
X120765000Y-60617259D01*
X120799624Y-60443188D01*
X120867544Y-60279216D01*
X120966147Y-60131646D01*
X121091646Y-60006147D01*
X121239216Y-59907544D01*
X121403188Y-59839624D01*
X121552488Y-59809927D01*
X121577258Y-59805000D01*
X121754742Y-59805000D01*
X121779512Y-59809927D01*
G37*
G36*
X63819855Y-59240140D02*
G01*
X63883618Y-59246420D01*
X63974404Y-59273960D01*
X64006336Y-59283646D01*
X64119425Y-59344094D01*
X64218554Y-59425446D01*
X64299906Y-59524575D01*
X64360354Y-59637664D01*
X64360355Y-59637668D01*
X64397580Y-59760382D01*
X64410149Y-59888000D01*
X64397580Y-60015618D01*
X64370040Y-60106404D01*
X64360354Y-60138336D01*
X64299906Y-60251425D01*
X64218554Y-60350554D01*
X64119425Y-60431906D01*
X64006336Y-60492354D01*
X63974404Y-60502040D01*
X63883618Y-60529580D01*
X63819855Y-60535860D01*
X63787974Y-60539000D01*
X63024026Y-60539000D01*
X62992145Y-60535860D01*
X62928382Y-60529580D01*
X62837596Y-60502040D01*
X62805664Y-60492354D01*
X62692575Y-60431906D01*
X62593446Y-60350554D01*
X62512094Y-60251425D01*
X62451646Y-60138336D01*
X62441960Y-60106404D01*
X62414420Y-60015618D01*
X62401851Y-59888000D01*
X62414420Y-59760382D01*
X62451645Y-59637668D01*
X62451646Y-59637664D01*
X62512094Y-59524575D01*
X62593446Y-59425446D01*
X62692575Y-59344094D01*
X62805664Y-59283646D01*
X62837596Y-59273960D01*
X62928382Y-59246420D01*
X62992145Y-59240140D01*
X63024026Y-59237000D01*
X63787974Y-59237000D01*
X63819855Y-59240140D01*
G37*
G36*
X60932348Y-58141820D02*
G01*
X60932350Y-58141821D01*
X60932351Y-58141821D01*
X61073574Y-58200317D01*
X61073577Y-58200319D01*
X61200669Y-58285239D01*
X61308761Y-58393331D01*
X61393681Y-58520423D01*
X61393683Y-58520426D01*
X61452179Y-58661649D01*
X61482000Y-58811571D01*
X61482000Y-58964429D01*
X61452179Y-59114351D01*
X61393683Y-59255574D01*
X61393681Y-59255577D01*
X61308761Y-59382669D01*
X61200669Y-59490761D01*
X61073577Y-59575681D01*
X61073574Y-59575683D01*
X60932351Y-59634179D01*
X60932350Y-59634179D01*
X60932348Y-59634180D01*
X60782431Y-59664000D01*
X60629569Y-59664000D01*
X60479652Y-59634180D01*
X60479650Y-59634179D01*
X60479649Y-59634179D01*
X60338426Y-59575683D01*
X60338423Y-59575681D01*
X60211331Y-59490761D01*
X60103239Y-59382669D01*
X60018319Y-59255577D01*
X60018317Y-59255574D01*
X59959821Y-59114351D01*
X59930000Y-58964429D01*
X59930000Y-58811571D01*
X59959821Y-58661649D01*
X60018317Y-58520426D01*
X60018319Y-58520423D01*
X60103239Y-58393331D01*
X60211331Y-58285239D01*
X60338423Y-58200319D01*
X60338426Y-58200317D01*
X60479649Y-58141821D01*
X60479650Y-58141821D01*
X60479652Y-58141820D01*
X60629569Y-58112000D01*
X60782431Y-58112000D01*
X60932348Y-58141820D01*
G37*
G36*
X73963000Y-56691000D02*
G01*
X72341000Y-56691000D01*
X72341000Y-55069000D01*
X73963000Y-55069000D01*
X73963000Y-56691000D01*
G37*
G36*
X78468560Y-55100166D02*
G01*
X78616153Y-55161301D01*
X78672896Y-55199216D01*
X78748982Y-55250055D01*
X78861945Y-55363018D01*
X78950700Y-55495849D01*
X79011834Y-55643440D01*
X79043000Y-55800123D01*
X79043000Y-55959877D01*
X79011834Y-56116560D01*
X78950699Y-56264153D01*
X78861945Y-56396982D01*
X78748982Y-56509945D01*
X78616153Y-56598699D01*
X78616152Y-56598700D01*
X78616151Y-56598700D01*
X78468560Y-56659834D01*
X78311878Y-56691000D01*
X78152122Y-56691000D01*
X77995440Y-56659834D01*
X77847849Y-56598700D01*
X77847848Y-56598700D01*
X77847847Y-56598699D01*
X77715018Y-56509945D01*
X77602055Y-56396982D01*
X77513301Y-56264153D01*
X77452166Y-56116560D01*
X77421000Y-55959877D01*
X77421000Y-55800123D01*
X77452166Y-55643440D01*
X77513300Y-55495849D01*
X77602055Y-55363018D01*
X77715018Y-55250055D01*
X77791104Y-55199216D01*
X77847847Y-55161301D01*
X77995440Y-55100166D01*
X78152122Y-55069000D01*
X78311878Y-55069000D01*
X78468560Y-55100166D01*
G37*
G36*
X75928560Y-55100166D02*
G01*
X76076153Y-55161301D01*
X76132896Y-55199216D01*
X76208982Y-55250055D01*
X76321945Y-55363018D01*
X76410700Y-55495849D01*
X76471834Y-55643440D01*
X76503000Y-55800123D01*
X76503000Y-55959877D01*
X76471834Y-56116560D01*
X76410699Y-56264153D01*
X76321945Y-56396982D01*
X76208982Y-56509945D01*
X76076153Y-56598699D01*
X76076152Y-56598700D01*
X76076151Y-56598700D01*
X75928560Y-56659834D01*
X75771878Y-56691000D01*
X75612122Y-56691000D01*
X75455440Y-56659834D01*
X75307849Y-56598700D01*
X75307848Y-56598700D01*
X75307847Y-56598699D01*
X75175018Y-56509945D01*
X75062055Y-56396982D01*
X74973301Y-56264153D01*
X74912166Y-56116560D01*
X74881000Y-55959877D01*
X74881000Y-55800123D01*
X74912166Y-55643440D01*
X74973300Y-55495849D01*
X75062055Y-55363018D01*
X75175018Y-55250055D01*
X75251104Y-55199216D01*
X75307847Y-55161301D01*
X75455440Y-55100166D01*
X75612122Y-55069000D01*
X75771878Y-55069000D01*
X75928560Y-55100166D01*
G37*
G36*
X97649512Y-54729927D02*
G01*
X97798812Y-54759624D01*
X97962784Y-54827544D01*
X98110354Y-54926147D01*
X98235853Y-55051646D01*
X98334456Y-55199216D01*
X98402376Y-55363188D01*
X98437000Y-55537259D01*
X98437000Y-55714741D01*
X98402376Y-55888812D01*
X98334456Y-56052784D01*
X98235853Y-56200354D01*
X98110354Y-56325853D01*
X97962784Y-56424456D01*
X97798812Y-56492376D01*
X97649512Y-56522073D01*
X97624742Y-56527000D01*
X97447258Y-56527000D01*
X97422488Y-56522073D01*
X97273188Y-56492376D01*
X97109216Y-56424456D01*
X96961646Y-56325853D01*
X96836147Y-56200354D01*
X96737544Y-56052784D01*
X96669624Y-55888812D01*
X96635000Y-55714741D01*
X96635000Y-55537259D01*
X96669624Y-55363188D01*
X96737544Y-55199216D01*
X96836147Y-55051646D01*
X96961646Y-54926147D01*
X97109216Y-54827544D01*
X97273188Y-54759624D01*
X97422488Y-54729927D01*
X97447258Y-54725000D01*
X97624742Y-54725000D01*
X97649512Y-54729927D01*
G37*
G36*
X60932348Y-53141820D02*
G01*
X60932350Y-53141821D01*
X60932351Y-53141821D01*
X61073574Y-53200317D01*
X61073577Y-53200319D01*
X61200669Y-53285239D01*
X61308761Y-53393331D01*
X61388575Y-53512782D01*
X61393683Y-53520426D01*
X61452179Y-53661649D01*
X61452180Y-53661652D01*
X61482000Y-53811569D01*
X61482000Y-53964431D01*
X61477511Y-53987000D01*
X61452179Y-54114351D01*
X61393683Y-54255574D01*
X61393681Y-54255577D01*
X61308761Y-54382669D01*
X61200669Y-54490761D01*
X61073577Y-54575681D01*
X61073574Y-54575683D01*
X60932351Y-54634179D01*
X60932350Y-54634179D01*
X60932348Y-54634180D01*
X60782431Y-54664000D01*
X60629569Y-54664000D01*
X60479652Y-54634180D01*
X60479650Y-54634179D01*
X60479649Y-54634179D01*
X60338426Y-54575683D01*
X60338423Y-54575681D01*
X60211331Y-54490761D01*
X60103239Y-54382669D01*
X60018319Y-54255577D01*
X60018317Y-54255574D01*
X59959821Y-54114351D01*
X59934490Y-53987000D01*
X59930000Y-53964431D01*
X59930000Y-53811569D01*
X59959820Y-53661652D01*
X59959821Y-53661649D01*
X60018317Y-53520426D01*
X60023425Y-53512782D01*
X60103239Y-53393331D01*
X60211331Y-53285239D01*
X60338423Y-53200319D01*
X60338426Y-53200317D01*
X60479649Y-53141821D01*
X60479650Y-53141821D01*
X60479652Y-53141820D01*
X60629569Y-53112000D01*
X60782431Y-53112000D01*
X60932348Y-53141820D01*
G37*
G36*
X79738560Y-52560166D02*
G01*
X79886153Y-52621301D01*
X79942896Y-52659216D01*
X80018982Y-52710055D01*
X80131945Y-52823018D01*
X80220700Y-52955849D01*
X80281834Y-53103440D01*
X80313000Y-53260122D01*
X80313000Y-53419878D01*
X80310607Y-53431906D01*
X80281834Y-53576560D01*
X80220699Y-53724153D01*
X80131945Y-53856982D01*
X80018982Y-53969945D01*
X79886153Y-54058699D01*
X79886152Y-54058700D01*
X79886151Y-54058700D01*
X79738560Y-54119834D01*
X79581878Y-54151000D01*
X79422122Y-54151000D01*
X79265440Y-54119834D01*
X79117849Y-54058700D01*
X79117848Y-54058700D01*
X79117847Y-54058699D01*
X78985018Y-53969945D01*
X78872055Y-53856982D01*
X78783301Y-53724153D01*
X78722166Y-53576560D01*
X78693393Y-53431906D01*
X78691000Y-53419878D01*
X78691000Y-53260122D01*
X78722166Y-53103440D01*
X78783300Y-52955849D01*
X78872055Y-52823018D01*
X78985018Y-52710055D01*
X79061104Y-52659216D01*
X79117847Y-52621301D01*
X79265440Y-52560166D01*
X79422122Y-52529000D01*
X79581878Y-52529000D01*
X79738560Y-52560166D01*
G37*
G36*
X74658560Y-52560166D02*
G01*
X74806153Y-52621301D01*
X74862896Y-52659216D01*
X74938982Y-52710055D01*
X75051945Y-52823018D01*
X75140700Y-52955849D01*
X75201834Y-53103440D01*
X75233000Y-53260122D01*
X75233000Y-53419878D01*
X75230607Y-53431906D01*
X75201834Y-53576560D01*
X75140699Y-53724153D01*
X75051945Y-53856982D01*
X74938982Y-53969945D01*
X74806153Y-54058699D01*
X74806152Y-54058700D01*
X74806151Y-54058700D01*
X74658560Y-54119834D01*
X74501878Y-54151000D01*
X74342122Y-54151000D01*
X74185440Y-54119834D01*
X74037849Y-54058700D01*
X74037848Y-54058700D01*
X74037847Y-54058699D01*
X73905018Y-53969945D01*
X73792055Y-53856982D01*
X73703301Y-53724153D01*
X73642166Y-53576560D01*
X73613393Y-53431906D01*
X73611000Y-53419878D01*
X73611000Y-53260122D01*
X73642166Y-53103440D01*
X73703300Y-52955849D01*
X73792055Y-52823018D01*
X73905018Y-52710055D01*
X73981104Y-52659216D01*
X74037847Y-52621301D01*
X74185440Y-52560166D01*
X74342122Y-52529000D01*
X74501878Y-52529000D01*
X74658560Y-52560166D01*
G37*
G36*
X77198560Y-52560166D02*
G01*
X77346153Y-52621301D01*
X77402896Y-52659216D01*
X77478982Y-52710055D01*
X77591945Y-52823018D01*
X77680700Y-52955849D01*
X77741834Y-53103440D01*
X77773000Y-53260122D01*
X77773000Y-53419878D01*
X77770607Y-53431906D01*
X77741834Y-53576560D01*
X77680699Y-53724153D01*
X77591945Y-53856982D01*
X77478982Y-53969945D01*
X77346153Y-54058699D01*
X77346152Y-54058700D01*
X77346151Y-54058700D01*
X77198560Y-54119834D01*
X77041878Y-54151000D01*
X76882122Y-54151000D01*
X76725440Y-54119834D01*
X76577849Y-54058700D01*
X76577848Y-54058700D01*
X76577847Y-54058699D01*
X76445018Y-53969945D01*
X76332055Y-53856982D01*
X76243301Y-53724153D01*
X76182166Y-53576560D01*
X76153393Y-53431906D01*
X76151000Y-53419878D01*
X76151000Y-53260122D01*
X76182166Y-53103440D01*
X76243300Y-52955849D01*
X76332055Y-52823018D01*
X76445018Y-52710055D01*
X76521104Y-52659216D01*
X76577847Y-52621301D01*
X76725440Y-52560166D01*
X76882122Y-52529000D01*
X77041878Y-52529000D01*
X77198560Y-52560166D01*
G37*
G36*
X97649512Y-52189927D02*
G01*
X97798812Y-52219624D01*
X97962784Y-52287544D01*
X98110354Y-52386147D01*
X98235853Y-52511646D01*
X98334456Y-52659216D01*
X98402376Y-52823188D01*
X98437000Y-52997259D01*
X98437000Y-53174741D01*
X98402376Y-53348812D01*
X98334456Y-53512784D01*
X98235853Y-53660354D01*
X98110354Y-53785853D01*
X97962784Y-53884456D01*
X97798812Y-53952376D01*
X97649512Y-53982073D01*
X97624742Y-53987000D01*
X97447258Y-53987000D01*
X97422488Y-53982073D01*
X97273188Y-53952376D01*
X97109216Y-53884456D01*
X96961646Y-53785853D01*
X96836147Y-53660354D01*
X96737544Y-53512784D01*
X96669624Y-53348812D01*
X96635000Y-53174741D01*
X96635000Y-52997259D01*
X96669624Y-52823188D01*
X96737544Y-52659216D01*
X96836147Y-52511646D01*
X96961646Y-52386147D01*
X97109216Y-52287544D01*
X97273188Y-52219624D01*
X97422488Y-52189927D01*
X97447258Y-52185000D01*
X97624742Y-52185000D01*
X97649512Y-52189927D01*
G37*
G36*
X63819855Y-52240140D02*
G01*
X63883618Y-52246420D01*
X63974404Y-52273960D01*
X64006336Y-52283646D01*
X64119425Y-52344094D01*
X64218554Y-52425446D01*
X64299906Y-52524575D01*
X64360354Y-52637664D01*
X64360355Y-52637668D01*
X64397580Y-52760382D01*
X64410149Y-52888000D01*
X64397580Y-53015618D01*
X64370939Y-53103440D01*
X64360354Y-53138336D01*
X64299906Y-53251425D01*
X64218554Y-53350554D01*
X64119425Y-53431906D01*
X64006336Y-53492354D01*
X63974404Y-53502040D01*
X63883618Y-53529580D01*
X63819855Y-53535860D01*
X63787974Y-53539000D01*
X63024026Y-53539000D01*
X62992145Y-53535860D01*
X62928382Y-53529580D01*
X62837596Y-53502040D01*
X62805664Y-53492354D01*
X62692575Y-53431906D01*
X62593446Y-53350554D01*
X62512094Y-53251425D01*
X62451646Y-53138336D01*
X62441061Y-53103440D01*
X62414420Y-53015618D01*
X62401851Y-52888000D01*
X62414420Y-52760382D01*
X62451645Y-52637668D01*
X62451646Y-52637664D01*
X62512094Y-52524575D01*
X62593446Y-52425446D01*
X62692575Y-52344094D01*
X62805664Y-52283646D01*
X62837596Y-52273960D01*
X62928382Y-52246420D01*
X62992145Y-52240140D01*
X63024026Y-52237000D01*
X63787974Y-52237000D01*
X63819855Y-52240140D01*
G37*
G36*
X97649512Y-49649927D02*
G01*
X97798812Y-49679624D01*
X97962784Y-49747544D01*
X98110354Y-49846147D01*
X98235853Y-49971646D01*
X98334456Y-50119216D01*
X98402376Y-50283188D01*
X98437000Y-50457259D01*
X98437000Y-50634741D01*
X98402376Y-50808812D01*
X98334456Y-50972784D01*
X98235853Y-51120354D01*
X98110354Y-51245853D01*
X97962784Y-51344456D01*
X97798812Y-51412376D01*
X97649512Y-51442073D01*
X97624742Y-51447000D01*
X97447258Y-51447000D01*
X97422488Y-51442073D01*
X97273188Y-51412376D01*
X97109216Y-51344456D01*
X96961646Y-51245853D01*
X96836147Y-51120354D01*
X96737544Y-50972784D01*
X96669624Y-50808812D01*
X96635000Y-50634741D01*
X96635000Y-50457259D01*
X96669624Y-50283188D01*
X96737544Y-50119216D01*
X96836147Y-49971646D01*
X96961646Y-49846147D01*
X97109216Y-49747544D01*
X97273188Y-49679624D01*
X97422488Y-49649927D01*
X97447258Y-49645000D01*
X97624742Y-49645000D01*
X97649512Y-49649927D01*
G37*
G36*
X97649512Y-47109927D02*
G01*
X97798812Y-47139624D01*
X97962784Y-47207544D01*
X98110354Y-47306147D01*
X98235853Y-47431646D01*
X98334456Y-47579216D01*
X98402376Y-47743188D01*
X98437000Y-47917259D01*
X98437000Y-48094741D01*
X98402376Y-48268812D01*
X98334456Y-48432784D01*
X98235853Y-48580354D01*
X98110354Y-48705853D01*
X97962784Y-48804456D01*
X97798812Y-48872376D01*
X97649512Y-48902073D01*
X97624742Y-48907000D01*
X97447258Y-48907000D01*
X97422488Y-48902073D01*
X97273188Y-48872376D01*
X97109216Y-48804456D01*
X96961646Y-48705853D01*
X96836147Y-48580354D01*
X96737544Y-48432784D01*
X96669624Y-48268812D01*
X96635000Y-48094741D01*
X96635000Y-47917259D01*
X96669624Y-47743188D01*
X96737544Y-47579216D01*
X96836147Y-47431646D01*
X96961646Y-47306147D01*
X97109216Y-47207544D01*
X97273188Y-47139624D01*
X97422488Y-47109927D01*
X97447258Y-47105000D01*
X97624742Y-47105000D01*
X97649512Y-47109927D01*
G37*
G36*
X81728971Y-45346204D02*
G01*
X81890871Y-45378408D01*
X82195883Y-45504748D01*
X82470387Y-45688166D01*
X82703834Y-45921613D01*
X82887252Y-46196117D01*
X83008059Y-46487771D01*
X83013592Y-46501130D01*
X83078000Y-46824927D01*
X83078000Y-47155073D01*
X83053452Y-47278481D01*
X83013592Y-47478871D01*
X82887252Y-47783883D01*
X82703834Y-48058387D01*
X82470387Y-48291834D01*
X82195883Y-48475252D01*
X81890871Y-48601592D01*
X81567073Y-48666000D01*
X81236927Y-48666000D01*
X80913129Y-48601592D01*
X80608117Y-48475252D01*
X80333613Y-48291834D01*
X80100166Y-48058387D01*
X79916748Y-47783883D01*
X79790408Y-47478871D01*
X79750548Y-47278481D01*
X79726000Y-47155073D01*
X79726000Y-46824927D01*
X79790408Y-46501130D01*
X79795941Y-46487771D01*
X79916748Y-46196117D01*
X80100166Y-45921613D01*
X80333613Y-45688166D01*
X80608117Y-45504748D01*
X80913129Y-45378408D01*
X81075029Y-45346204D01*
X81236927Y-45314000D01*
X81567073Y-45314000D01*
X81728971Y-45346204D01*
G37*
G36*
X71568971Y-45346204D02*
G01*
X71730871Y-45378408D01*
X72035883Y-45504748D01*
X72310387Y-45688166D01*
X72543834Y-45921613D01*
X72727252Y-46196117D01*
X72848059Y-46487771D01*
X72853592Y-46501130D01*
X72918000Y-46824927D01*
X72918000Y-47155073D01*
X72893452Y-47278481D01*
X72853592Y-47478871D01*
X72727252Y-47783883D01*
X72543834Y-48058387D01*
X72310387Y-48291834D01*
X72035883Y-48475252D01*
X71730871Y-48601592D01*
X71407073Y-48666000D01*
X71076927Y-48666000D01*
X70753129Y-48601592D01*
X70448117Y-48475252D01*
X70173613Y-48291834D01*
X69940166Y-48058387D01*
X69756748Y-47783883D01*
X69630408Y-47478871D01*
X69590548Y-47278481D01*
X69566000Y-47155073D01*
X69566000Y-46824927D01*
X69630408Y-46501130D01*
X69635941Y-46487771D01*
X69756748Y-46196117D01*
X69940166Y-45921613D01*
X70173613Y-45688166D01*
X70448117Y-45504748D01*
X70753129Y-45378408D01*
X70915029Y-45346204D01*
X71076927Y-45314000D01*
X71407073Y-45314000D01*
X71568971Y-45346204D01*
G37*
G36*
X63596254Y-44463818D02*
G01*
X63969511Y-44618426D01*
X63969513Y-44618427D01*
X64305436Y-44842884D01*
X64591116Y-45128564D01*
X64758057Y-45378408D01*
X64815574Y-45464489D01*
X64970182Y-45837746D01*
X65049000Y-46233993D01*
X65049000Y-46638007D01*
X64970182Y-47034254D01*
X64815574Y-47407511D01*
X64815573Y-47407513D01*
X64591116Y-47743436D01*
X64305436Y-48029116D01*
X63969513Y-48253573D01*
X63969512Y-48253574D01*
X63969511Y-48253574D01*
X63596254Y-48408182D01*
X63200007Y-48487000D01*
X62795993Y-48487000D01*
X62399746Y-48408182D01*
X62026489Y-48253574D01*
X62026488Y-48253574D01*
X62026487Y-48253573D01*
X61690564Y-48029116D01*
X61404884Y-47743436D01*
X61180427Y-47407513D01*
X61180426Y-47407511D01*
X61025818Y-47034254D01*
X60947000Y-46638007D01*
X60947000Y-46233993D01*
X61025818Y-45837746D01*
X61180426Y-45464489D01*
X61237944Y-45378408D01*
X61404884Y-45128564D01*
X61690564Y-44842884D01*
X62026487Y-44618427D01*
X62026489Y-44618426D01*
X62399746Y-44463818D01*
X62795993Y-44385000D01*
X63200007Y-44385000D01*
X63596254Y-44463818D01*
G37*
G36*
X38596254Y-44463818D02*
G01*
X38969511Y-44618426D01*
X38969513Y-44618427D01*
X39305436Y-44842884D01*
X39591116Y-45128564D01*
X39758057Y-45378408D01*
X39815574Y-45464489D01*
X39970182Y-45837746D01*
X40049000Y-46233993D01*
X40049000Y-46638007D01*
X39970182Y-47034254D01*
X39815574Y-47407511D01*
X39815573Y-47407513D01*
X39591116Y-47743436D01*
X39305436Y-48029116D01*
X38969513Y-48253573D01*
X38969512Y-48253574D01*
X38969511Y-48253574D01*
X38596254Y-48408182D01*
X38200007Y-48487000D01*
X37795993Y-48487000D01*
X37399746Y-48408182D01*
X37026489Y-48253574D01*
X37026488Y-48253574D01*
X37026487Y-48253573D01*
X36690564Y-48029116D01*
X36404884Y-47743436D01*
X36180427Y-47407513D01*
X36180426Y-47407511D01*
X36025818Y-47034254D01*
X35947000Y-46638007D01*
X35947000Y-46233993D01*
X36025818Y-45837746D01*
X36180426Y-45464489D01*
X36237944Y-45378408D01*
X36404884Y-45128564D01*
X36690564Y-44842884D01*
X37026487Y-44618427D01*
X37026489Y-44618426D01*
X37399746Y-44463818D01*
X37795993Y-44385000D01*
X38200007Y-44385000D01*
X38596254Y-44463818D01*
G37*
G36*
X53516228Y-45917703D02*
G01*
X53671100Y-45981853D01*
X53810481Y-46074985D01*
X53929015Y-46193519D01*
X54022147Y-46332900D01*
X54086297Y-46487772D01*
X54119000Y-46652184D01*
X54119000Y-46819816D01*
X54086297Y-46984228D01*
X54022147Y-47139100D01*
X53929015Y-47278481D01*
X53810481Y-47397015D01*
X53671100Y-47490147D01*
X53516228Y-47554297D01*
X53351816Y-47587000D01*
X53184184Y-47587000D01*
X53019772Y-47554297D01*
X52864900Y-47490147D01*
X52725519Y-47397015D01*
X52606985Y-47278481D01*
X52513853Y-47139100D01*
X52449703Y-46984228D01*
X52417000Y-46819816D01*
X52417000Y-46652184D01*
X52449703Y-46487772D01*
X52513853Y-46332900D01*
X52606985Y-46193519D01*
X52725519Y-46074985D01*
X52864900Y-45981853D01*
X53019772Y-45917703D01*
X53184184Y-45885000D01*
X53351816Y-45885000D01*
X53516228Y-45917703D01*
G37*
G36*
X50746228Y-45917703D02*
G01*
X50901100Y-45981853D01*
X51040481Y-46074985D01*
X51159015Y-46193519D01*
X51252147Y-46332900D01*
X51316297Y-46487772D01*
X51349000Y-46652184D01*
X51349000Y-46819816D01*
X51316297Y-46984228D01*
X51252147Y-47139100D01*
X51159015Y-47278481D01*
X51040481Y-47397015D01*
X50901100Y-47490147D01*
X50746228Y-47554297D01*
X50581816Y-47587000D01*
X50414184Y-47587000D01*
X50249772Y-47554297D01*
X50094900Y-47490147D01*
X49955519Y-47397015D01*
X49836985Y-47278481D01*
X49743853Y-47139100D01*
X49679703Y-46984228D01*
X49647000Y-46819816D01*
X49647000Y-46652184D01*
X49679703Y-46487772D01*
X49743853Y-46332900D01*
X49836985Y-46193519D01*
X49955519Y-46074985D01*
X50094900Y-45981853D01*
X50249772Y-45917703D01*
X50414184Y-45885000D01*
X50581816Y-45885000D01*
X50746228Y-45917703D01*
G37*
G36*
X47976228Y-45917703D02*
G01*
X48131100Y-45981853D01*
X48270481Y-46074985D01*
X48389015Y-46193519D01*
X48482147Y-46332900D01*
X48546297Y-46487772D01*
X48579000Y-46652184D01*
X48579000Y-46819816D01*
X48546297Y-46984228D01*
X48482147Y-47139100D01*
X48389015Y-47278481D01*
X48270481Y-47397015D01*
X48131100Y-47490147D01*
X47976228Y-47554297D01*
X47811816Y-47587000D01*
X47644184Y-47587000D01*
X47479772Y-47554297D01*
X47324900Y-47490147D01*
X47185519Y-47397015D01*
X47066985Y-47278481D01*
X46973853Y-47139100D01*
X46909703Y-46984228D01*
X46877000Y-46819816D01*
X46877000Y-46652184D01*
X46909703Y-46487772D01*
X46973853Y-46332900D01*
X47066985Y-46193519D01*
X47185519Y-46074985D01*
X47324900Y-45981853D01*
X47479772Y-45917703D01*
X47644184Y-45885000D01*
X47811816Y-45885000D01*
X47976228Y-45917703D01*
G37*
G36*
X45809000Y-47587000D02*
G01*
X44107000Y-47587000D01*
X44107000Y-45885000D01*
X45809000Y-45885000D01*
X45809000Y-47587000D01*
G37*
G36*
X56286228Y-45917703D02*
G01*
X56441100Y-45981853D01*
X56580481Y-46074985D01*
X56699015Y-46193519D01*
X56792147Y-46332900D01*
X56856297Y-46487772D01*
X56889000Y-46652184D01*
X56889000Y-46819816D01*
X56856297Y-46984228D01*
X56792147Y-47139100D01*
X56699015Y-47278481D01*
X56580481Y-47397015D01*
X56441100Y-47490147D01*
X56286228Y-47554297D01*
X56121816Y-47587000D01*
X55954184Y-47587000D01*
X55789772Y-47554297D01*
X55634900Y-47490147D01*
X55495519Y-47397015D01*
X55376985Y-47278481D01*
X55283853Y-47139100D01*
X55219703Y-46984228D01*
X55187000Y-46819816D01*
X55187000Y-46652184D01*
X55219703Y-46487772D01*
X55283853Y-46332900D01*
X55376985Y-46193519D01*
X55495519Y-46074985D01*
X55634900Y-45981853D01*
X55789772Y-45917703D01*
X55954184Y-45885000D01*
X56121816Y-45885000D01*
X56286228Y-45917703D01*
G37*
G36*
X52131228Y-43077703D02*
G01*
X52286100Y-43141853D01*
X52425481Y-43234985D01*
X52544015Y-43353519D01*
X52637147Y-43492900D01*
X52701297Y-43647772D01*
X52734000Y-43812184D01*
X52734000Y-43979816D01*
X52701297Y-44144228D01*
X52637147Y-44299100D01*
X52544015Y-44438481D01*
X52425481Y-44557015D01*
X52286100Y-44650147D01*
X52131228Y-44714297D01*
X51966816Y-44747000D01*
X51799184Y-44747000D01*
X51634772Y-44714297D01*
X51479900Y-44650147D01*
X51340519Y-44557015D01*
X51221985Y-44438481D01*
X51128853Y-44299100D01*
X51064703Y-44144228D01*
X51032000Y-43979816D01*
X51032000Y-43812184D01*
X51064703Y-43647772D01*
X51128853Y-43492900D01*
X51221985Y-43353519D01*
X51340519Y-43234985D01*
X51479900Y-43141853D01*
X51634772Y-43077703D01*
X51799184Y-43045000D01*
X51966816Y-43045000D01*
X52131228Y-43077703D01*
G37*
G36*
X49361228Y-43077703D02*
G01*
X49516100Y-43141853D01*
X49655481Y-43234985D01*
X49774015Y-43353519D01*
X49867147Y-43492900D01*
X49931297Y-43647772D01*
X49964000Y-43812184D01*
X49964000Y-43979816D01*
X49931297Y-44144228D01*
X49867147Y-44299100D01*
X49774015Y-44438481D01*
X49655481Y-44557015D01*
X49516100Y-44650147D01*
X49361228Y-44714297D01*
X49196816Y-44747000D01*
X49029184Y-44747000D01*
X48864772Y-44714297D01*
X48709900Y-44650147D01*
X48570519Y-44557015D01*
X48451985Y-44438481D01*
X48358853Y-44299100D01*
X48294703Y-44144228D01*
X48262000Y-43979816D01*
X48262000Y-43812184D01*
X48294703Y-43647772D01*
X48358853Y-43492900D01*
X48451985Y-43353519D01*
X48570519Y-43234985D01*
X48709900Y-43141853D01*
X48864772Y-43077703D01*
X49029184Y-43045000D01*
X49196816Y-43045000D01*
X49361228Y-43077703D01*
G37*
G36*
X54901228Y-43077703D02*
G01*
X55056100Y-43141853D01*
X55195481Y-43234985D01*
X55314015Y-43353519D01*
X55407147Y-43492900D01*
X55471297Y-43647772D01*
X55504000Y-43812184D01*
X55504000Y-43979816D01*
X55471297Y-44144228D01*
X55407147Y-44299100D01*
X55314015Y-44438481D01*
X55195481Y-44557015D01*
X55056100Y-44650147D01*
X54901228Y-44714297D01*
X54736816Y-44747000D01*
X54569184Y-44747000D01*
X54404772Y-44714297D01*
X54249900Y-44650147D01*
X54110519Y-44557015D01*
X53991985Y-44438481D01*
X53898853Y-44299100D01*
X53834703Y-44144228D01*
X53802000Y-43979816D01*
X53802000Y-43812184D01*
X53834703Y-43647772D01*
X53898853Y-43492900D01*
X53991985Y-43353519D01*
X54110519Y-43234985D01*
X54249900Y-43141853D01*
X54404772Y-43077703D01*
X54569184Y-43045000D01*
X54736816Y-43045000D01*
X54901228Y-43077703D01*
G37*
G36*
X46591228Y-43077703D02*
G01*
X46746100Y-43141853D01*
X46885481Y-43234985D01*
X47004015Y-43353519D01*
X47097147Y-43492900D01*
X47161297Y-43647772D01*
X47194000Y-43812184D01*
X47194000Y-43979816D01*
X47161297Y-44144228D01*
X47097147Y-44299100D01*
X47004015Y-44438481D01*
X46885481Y-44557015D01*
X46746100Y-44650147D01*
X46591228Y-44714297D01*
X46426816Y-44747000D01*
X46259184Y-44747000D01*
X46094772Y-44714297D01*
X45939900Y-44650147D01*
X45800519Y-44557015D01*
X45681985Y-44438481D01*
X45588853Y-44299100D01*
X45524703Y-44144228D01*
X45492000Y-43979816D01*
X45492000Y-43812184D01*
X45524703Y-43647772D01*
X45588853Y-43492900D01*
X45681985Y-43353519D01*
X45800519Y-43234985D01*
X45939900Y-43141853D01*
X46094772Y-43077703D01*
X46259184Y-43045000D01*
X46426816Y-43045000D01*
X46591228Y-43077703D01*
G37*
G36*
X126859512Y-42029927D02*
G01*
X127008812Y-42059624D01*
X127172784Y-42127544D01*
X127320354Y-42226147D01*
X127445853Y-42351646D01*
X127544456Y-42499216D01*
X127612376Y-42663188D01*
X127647000Y-42837259D01*
X127647000Y-43014741D01*
X127612376Y-43188812D01*
X127544456Y-43352784D01*
X127445853Y-43500354D01*
X127320354Y-43625853D01*
X127172784Y-43724456D01*
X127008812Y-43792376D01*
X126859512Y-43822073D01*
X126834742Y-43827000D01*
X126657258Y-43827000D01*
X126632488Y-43822073D01*
X126483188Y-43792376D01*
X126319216Y-43724456D01*
X126171646Y-43625853D01*
X126046147Y-43500354D01*
X125947544Y-43352784D01*
X125879624Y-43188812D01*
X125845000Y-43014741D01*
X125845000Y-42837259D01*
X125879624Y-42663188D01*
X125947544Y-42499216D01*
X126046147Y-42351646D01*
X126171646Y-42226147D01*
X126319216Y-42127544D01*
X126483188Y-42059624D01*
X126632488Y-42029927D01*
X126657258Y-42025000D01*
X126834742Y-42025000D01*
X126859512Y-42029927D01*
G37*
G36*
X137019512Y-42029927D02*
G01*
X137168812Y-42059624D01*
X137332784Y-42127544D01*
X137480354Y-42226147D01*
X137605853Y-42351646D01*
X137704456Y-42499216D01*
X137772376Y-42663188D01*
X137807000Y-42837259D01*
X137807000Y-43014741D01*
X137772376Y-43188812D01*
X137704456Y-43352784D01*
X137605853Y-43500354D01*
X137480354Y-43625853D01*
X137332784Y-43724456D01*
X137168812Y-43792376D01*
X137019512Y-43822073D01*
X136994742Y-43827000D01*
X136817258Y-43827000D01*
X136792488Y-43822073D01*
X136643188Y-43792376D01*
X136479216Y-43724456D01*
X136331646Y-43625853D01*
X136206147Y-43500354D01*
X136107544Y-43352784D01*
X136039624Y-43188812D01*
X136005000Y-43014741D01*
X136005000Y-42837259D01*
X136039624Y-42663188D01*
X136107544Y-42499216D01*
X136206147Y-42351646D01*
X136331646Y-42226147D01*
X136479216Y-42127544D01*
X136643188Y-42059624D01*
X136792488Y-42029927D01*
X136817258Y-42025000D01*
X136994742Y-42025000D01*
X137019512Y-42029927D01*
G37*
G36*
X104787000Y-43827000D02*
G01*
X102985000Y-43827000D01*
X102985000Y-42025000D01*
X104787000Y-42025000D01*
X104787000Y-43827000D01*
G37*
G36*
X106539512Y-42029927D02*
G01*
X106688812Y-42059624D01*
X106852784Y-42127544D01*
X107000354Y-42226147D01*
X107125853Y-42351646D01*
X107224456Y-42499216D01*
X107292376Y-42663188D01*
X107327000Y-42837259D01*
X107327000Y-43014741D01*
X107292376Y-43188812D01*
X107224456Y-43352784D01*
X107125853Y-43500354D01*
X107000354Y-43625853D01*
X106852784Y-43724456D01*
X106688812Y-43792376D01*
X106539512Y-43822073D01*
X106514742Y-43827000D01*
X106337258Y-43827000D01*
X106312488Y-43822073D01*
X106163188Y-43792376D01*
X105999216Y-43724456D01*
X105851646Y-43625853D01*
X105726147Y-43500354D01*
X105627544Y-43352784D01*
X105559624Y-43188812D01*
X105525000Y-43014741D01*
X105525000Y-42837259D01*
X105559624Y-42663188D01*
X105627544Y-42499216D01*
X105726147Y-42351646D01*
X105851646Y-42226147D01*
X105999216Y-42127544D01*
X106163188Y-42059624D01*
X106312488Y-42029927D01*
X106337258Y-42025000D01*
X106514742Y-42025000D01*
X106539512Y-42029927D01*
G37*
G36*
X134479512Y-42029927D02*
G01*
X134628812Y-42059624D01*
X134792784Y-42127544D01*
X134940354Y-42226147D01*
X135065853Y-42351646D01*
X135164456Y-42499216D01*
X135232376Y-42663188D01*
X135267000Y-42837259D01*
X135267000Y-43014741D01*
X135232376Y-43188812D01*
X135164456Y-43352784D01*
X135065853Y-43500354D01*
X134940354Y-43625853D01*
X134792784Y-43724456D01*
X134628812Y-43792376D01*
X134479512Y-43822073D01*
X134454742Y-43827000D01*
X134277258Y-43827000D01*
X134252488Y-43822073D01*
X134103188Y-43792376D01*
X133939216Y-43724456D01*
X133791646Y-43625853D01*
X133666147Y-43500354D01*
X133567544Y-43352784D01*
X133499624Y-43188812D01*
X133465000Y-43014741D01*
X133465000Y-42837259D01*
X133499624Y-42663188D01*
X133567544Y-42499216D01*
X133666147Y-42351646D01*
X133791646Y-42226147D01*
X133939216Y-42127544D01*
X134103188Y-42059624D01*
X134252488Y-42029927D01*
X134277258Y-42025000D01*
X134454742Y-42025000D01*
X134479512Y-42029927D01*
G37*
G36*
X109079512Y-42029927D02*
G01*
X109228812Y-42059624D01*
X109392784Y-42127544D01*
X109540354Y-42226147D01*
X109665853Y-42351646D01*
X109764456Y-42499216D01*
X109832376Y-42663188D01*
X109867000Y-42837259D01*
X109867000Y-43014741D01*
X109832376Y-43188812D01*
X109764456Y-43352784D01*
X109665853Y-43500354D01*
X109540354Y-43625853D01*
X109392784Y-43724456D01*
X109228812Y-43792376D01*
X109079512Y-43822073D01*
X109054742Y-43827000D01*
X108877258Y-43827000D01*
X108852488Y-43822073D01*
X108703188Y-43792376D01*
X108539216Y-43724456D01*
X108391646Y-43625853D01*
X108266147Y-43500354D01*
X108167544Y-43352784D01*
X108099624Y-43188812D01*
X108065000Y-43014741D01*
X108065000Y-42837259D01*
X108099624Y-42663188D01*
X108167544Y-42499216D01*
X108266147Y-42351646D01*
X108391646Y-42226147D01*
X108539216Y-42127544D01*
X108703188Y-42059624D01*
X108852488Y-42029927D01*
X108877258Y-42025000D01*
X109054742Y-42025000D01*
X109079512Y-42029927D01*
G37*
G36*
X111619512Y-42029927D02*
G01*
X111768812Y-42059624D01*
X111932784Y-42127544D01*
X112080354Y-42226147D01*
X112205853Y-42351646D01*
X112304456Y-42499216D01*
X112372376Y-42663188D01*
X112407000Y-42837259D01*
X112407000Y-43014741D01*
X112372376Y-43188812D01*
X112304456Y-43352784D01*
X112205853Y-43500354D01*
X112080354Y-43625853D01*
X111932784Y-43724456D01*
X111768812Y-43792376D01*
X111619512Y-43822073D01*
X111594742Y-43827000D01*
X111417258Y-43827000D01*
X111392488Y-43822073D01*
X111243188Y-43792376D01*
X111079216Y-43724456D01*
X110931646Y-43625853D01*
X110806147Y-43500354D01*
X110707544Y-43352784D01*
X110639624Y-43188812D01*
X110605000Y-43014741D01*
X110605000Y-42837259D01*
X110639624Y-42663188D01*
X110707544Y-42499216D01*
X110806147Y-42351646D01*
X110931646Y-42226147D01*
X111079216Y-42127544D01*
X111243188Y-42059624D01*
X111392488Y-42029927D01*
X111417258Y-42025000D01*
X111594742Y-42025000D01*
X111619512Y-42029927D01*
G37*
G36*
X114159512Y-42029927D02*
G01*
X114308812Y-42059624D01*
X114472784Y-42127544D01*
X114620354Y-42226147D01*
X114745853Y-42351646D01*
X114844456Y-42499216D01*
X114912376Y-42663188D01*
X114947000Y-42837259D01*
X114947000Y-43014741D01*
X114912376Y-43188812D01*
X114844456Y-43352784D01*
X114745853Y-43500354D01*
X114620354Y-43625853D01*
X114472784Y-43724456D01*
X114308812Y-43792376D01*
X114159512Y-43822073D01*
X114134742Y-43827000D01*
X113957258Y-43827000D01*
X113932488Y-43822073D01*
X113783188Y-43792376D01*
X113619216Y-43724456D01*
X113471646Y-43625853D01*
X113346147Y-43500354D01*
X113247544Y-43352784D01*
X113179624Y-43188812D01*
X113145000Y-43014741D01*
X113145000Y-42837259D01*
X113179624Y-42663188D01*
X113247544Y-42499216D01*
X113346147Y-42351646D01*
X113471646Y-42226147D01*
X113619216Y-42127544D01*
X113783188Y-42059624D01*
X113932488Y-42029927D01*
X113957258Y-42025000D01*
X114134742Y-42025000D01*
X114159512Y-42029927D01*
G37*
G36*
X131939512Y-42029927D02*
G01*
X132088812Y-42059624D01*
X132252784Y-42127544D01*
X132400354Y-42226147D01*
X132525853Y-42351646D01*
X132624456Y-42499216D01*
X132692376Y-42663188D01*
X132727000Y-42837259D01*
X132727000Y-43014741D01*
X132692376Y-43188812D01*
X132624456Y-43352784D01*
X132525853Y-43500354D01*
X132400354Y-43625853D01*
X132252784Y-43724456D01*
X132088812Y-43792376D01*
X131939512Y-43822073D01*
X131914742Y-43827000D01*
X131737258Y-43827000D01*
X131712488Y-43822073D01*
X131563188Y-43792376D01*
X131399216Y-43724456D01*
X131251646Y-43625853D01*
X131126147Y-43500354D01*
X131027544Y-43352784D01*
X130959624Y-43188812D01*
X130925000Y-43014741D01*
X130925000Y-42837259D01*
X130959624Y-42663188D01*
X131027544Y-42499216D01*
X131126147Y-42351646D01*
X131251646Y-42226147D01*
X131399216Y-42127544D01*
X131563188Y-42059624D01*
X131712488Y-42029927D01*
X131737258Y-42025000D01*
X131914742Y-42025000D01*
X131939512Y-42029927D01*
G37*
G36*
X116699512Y-42029927D02*
G01*
X116848812Y-42059624D01*
X117012784Y-42127544D01*
X117160354Y-42226147D01*
X117285853Y-42351646D01*
X117384456Y-42499216D01*
X117452376Y-42663188D01*
X117487000Y-42837259D01*
X117487000Y-43014741D01*
X117452376Y-43188812D01*
X117384456Y-43352784D01*
X117285853Y-43500354D01*
X117160354Y-43625853D01*
X117012784Y-43724456D01*
X116848812Y-43792376D01*
X116699512Y-43822073D01*
X116674742Y-43827000D01*
X116497258Y-43827000D01*
X116472488Y-43822073D01*
X116323188Y-43792376D01*
X116159216Y-43724456D01*
X116011646Y-43625853D01*
X115886147Y-43500354D01*
X115787544Y-43352784D01*
X115719624Y-43188812D01*
X115685000Y-43014741D01*
X115685000Y-42837259D01*
X115719624Y-42663188D01*
X115787544Y-42499216D01*
X115886147Y-42351646D01*
X116011646Y-42226147D01*
X116159216Y-42127544D01*
X116323188Y-42059624D01*
X116472488Y-42029927D01*
X116497258Y-42025000D01*
X116674742Y-42025000D01*
X116699512Y-42029927D01*
G37*
G36*
X129399512Y-42029927D02*
G01*
X129548812Y-42059624D01*
X129712784Y-42127544D01*
X129860354Y-42226147D01*
X129985853Y-42351646D01*
X130084456Y-42499216D01*
X130152376Y-42663188D01*
X130187000Y-42837259D01*
X130187000Y-43014741D01*
X130152376Y-43188812D01*
X130084456Y-43352784D01*
X129985853Y-43500354D01*
X129860354Y-43625853D01*
X129712784Y-43724456D01*
X129548812Y-43792376D01*
X129399512Y-43822073D01*
X129374742Y-43827000D01*
X129197258Y-43827000D01*
X129172488Y-43822073D01*
X129023188Y-43792376D01*
X128859216Y-43724456D01*
X128711646Y-43625853D01*
X128586147Y-43500354D01*
X128487544Y-43352784D01*
X128419624Y-43188812D01*
X128385000Y-43014741D01*
X128385000Y-42837259D01*
X128419624Y-42663188D01*
X128487544Y-42499216D01*
X128586147Y-42351646D01*
X128711646Y-42226147D01*
X128859216Y-42127544D01*
X129023188Y-42059624D01*
X129172488Y-42029927D01*
X129197258Y-42025000D01*
X129374742Y-42025000D01*
X129399512Y-42029927D01*
G37*
G36*
X121779512Y-42029927D02*
G01*
X121928812Y-42059624D01*
X122092784Y-42127544D01*
X122240354Y-42226147D01*
X122365853Y-42351646D01*
X122464456Y-42499216D01*
X122532376Y-42663188D01*
X122567000Y-42837259D01*
X122567000Y-43014741D01*
X122532376Y-43188812D01*
X122464456Y-43352784D01*
X122365853Y-43500354D01*
X122240354Y-43625853D01*
X122092784Y-43724456D01*
X121928812Y-43792376D01*
X121779512Y-43822073D01*
X121754742Y-43827000D01*
X121577258Y-43827000D01*
X121552488Y-43822073D01*
X121403188Y-43792376D01*
X121239216Y-43724456D01*
X121091646Y-43625853D01*
X120966147Y-43500354D01*
X120867544Y-43352784D01*
X120799624Y-43188812D01*
X120765000Y-43014741D01*
X120765000Y-42837259D01*
X120799624Y-42663188D01*
X120867544Y-42499216D01*
X120966147Y-42351646D01*
X121091646Y-42226147D01*
X121239216Y-42127544D01*
X121403188Y-42059624D01*
X121552488Y-42029927D01*
X121577258Y-42025000D01*
X121754742Y-42025000D01*
X121779512Y-42029927D01*
G37*
G36*
X124319512Y-42029927D02*
G01*
X124468812Y-42059624D01*
X124632784Y-42127544D01*
X124780354Y-42226147D01*
X124905853Y-42351646D01*
X125004456Y-42499216D01*
X125072376Y-42663188D01*
X125107000Y-42837259D01*
X125107000Y-43014741D01*
X125072376Y-43188812D01*
X125004456Y-43352784D01*
X124905853Y-43500354D01*
X124780354Y-43625853D01*
X124632784Y-43724456D01*
X124468812Y-43792376D01*
X124319512Y-43822073D01*
X124294742Y-43827000D01*
X124117258Y-43827000D01*
X124092488Y-43822073D01*
X123943188Y-43792376D01*
X123779216Y-43724456D01*
X123631646Y-43625853D01*
X123506147Y-43500354D01*
X123407544Y-43352784D01*
X123339624Y-43188812D01*
X123305000Y-43014741D01*
X123305000Y-42837259D01*
X123339624Y-42663188D01*
X123407544Y-42499216D01*
X123506147Y-42351646D01*
X123631646Y-42226147D01*
X123779216Y-42127544D01*
X123943188Y-42059624D01*
X124092488Y-42029927D01*
X124117258Y-42025000D01*
X124294742Y-42025000D01*
X124319512Y-42029927D01*
G37*
G36*
X119239512Y-42029927D02*
G01*
X119388812Y-42059624D01*
X119552784Y-42127544D01*
X119700354Y-42226147D01*
X119825853Y-42351646D01*
X119924456Y-42499216D01*
X119992376Y-42663188D01*
X120027000Y-42837259D01*
X120027000Y-43014741D01*
X119992376Y-43188812D01*
X119924456Y-43352784D01*
X119825853Y-43500354D01*
X119700354Y-43625853D01*
X119552784Y-43724456D01*
X119388812Y-43792376D01*
X119239512Y-43822073D01*
X119214742Y-43827000D01*
X119037258Y-43827000D01*
X119012488Y-43822073D01*
X118863188Y-43792376D01*
X118699216Y-43724456D01*
X118551646Y-43625853D01*
X118426147Y-43500354D01*
X118327544Y-43352784D01*
X118259624Y-43188812D01*
X118225000Y-43014741D01*
X118225000Y-42837259D01*
X118259624Y-42663188D01*
X118327544Y-42499216D01*
X118426147Y-42351646D01*
X118551646Y-42226147D01*
X118699216Y-42127544D01*
X118863188Y-42059624D01*
X119012488Y-42029927D01*
X119037258Y-42025000D01*
X119214742Y-42025000D01*
X119239512Y-42029927D01*
G37*
G36*
X144639512Y-42029927D02*
G01*
X144788812Y-42059624D01*
X144952784Y-42127544D01*
X145100354Y-42226147D01*
X145225853Y-42351646D01*
X145324456Y-42499216D01*
X145392376Y-42663188D01*
X145427000Y-42837259D01*
X145427000Y-43014741D01*
X145392376Y-43188812D01*
X145324456Y-43352784D01*
X145225853Y-43500354D01*
X145100354Y-43625853D01*
X144952784Y-43724456D01*
X144788812Y-43792376D01*
X144639512Y-43822073D01*
X144614742Y-43827000D01*
X144437258Y-43827000D01*
X144412488Y-43822073D01*
X144263188Y-43792376D01*
X144099216Y-43724456D01*
X143951646Y-43625853D01*
X143826147Y-43500354D01*
X143727544Y-43352784D01*
X143659624Y-43188812D01*
X143625000Y-43014741D01*
X143625000Y-42837259D01*
X143659624Y-42663188D01*
X143727544Y-42499216D01*
X143826147Y-42351646D01*
X143951646Y-42226147D01*
X144099216Y-42127544D01*
X144263188Y-42059624D01*
X144412488Y-42029927D01*
X144437258Y-42025000D01*
X144614742Y-42025000D01*
X144639512Y-42029927D01*
G37*
G36*
X142099512Y-42029927D02*
G01*
X142248812Y-42059624D01*
X142412784Y-42127544D01*
X142560354Y-42226147D01*
X142685853Y-42351646D01*
X142784456Y-42499216D01*
X142852376Y-42663188D01*
X142887000Y-42837259D01*
X142887000Y-43014741D01*
X142852376Y-43188812D01*
X142784456Y-43352784D01*
X142685853Y-43500354D01*
X142560354Y-43625853D01*
X142412784Y-43724456D01*
X142248812Y-43792376D01*
X142099512Y-43822073D01*
X142074742Y-43827000D01*
X141897258Y-43827000D01*
X141872488Y-43822073D01*
X141723188Y-43792376D01*
X141559216Y-43724456D01*
X141411646Y-43625853D01*
X141286147Y-43500354D01*
X141187544Y-43352784D01*
X141119624Y-43188812D01*
X141085000Y-43014741D01*
X141085000Y-42837259D01*
X141119624Y-42663188D01*
X141187544Y-42499216D01*
X141286147Y-42351646D01*
X141411646Y-42226147D01*
X141559216Y-42127544D01*
X141723188Y-42059624D01*
X141872488Y-42029927D01*
X141897258Y-42025000D01*
X142074742Y-42025000D01*
X142099512Y-42029927D01*
G37*
G36*
X139559512Y-42029927D02*
G01*
X139708812Y-42059624D01*
X139872784Y-42127544D01*
X140020354Y-42226147D01*
X140145853Y-42351646D01*
X140244456Y-42499216D01*
X140312376Y-42663188D01*
X140347000Y-42837259D01*
X140347000Y-43014741D01*
X140312376Y-43188812D01*
X140244456Y-43352784D01*
X140145853Y-43500354D01*
X140020354Y-43625853D01*
X139872784Y-43724456D01*
X139708812Y-43792376D01*
X139559512Y-43822073D01*
X139534742Y-43827000D01*
X139357258Y-43827000D01*
X139332488Y-43822073D01*
X139183188Y-43792376D01*
X139019216Y-43724456D01*
X138871646Y-43625853D01*
X138746147Y-43500354D01*
X138647544Y-43352784D01*
X138579624Y-43188812D01*
X138545000Y-43014741D01*
X138545000Y-42837259D01*
X138579624Y-42663188D01*
X138647544Y-42499216D01*
X138746147Y-42351646D01*
X138871646Y-42226147D01*
X139019216Y-42127544D01*
X139183188Y-42059624D01*
X139332488Y-42029927D01*
X139357258Y-42025000D01*
X139534742Y-42025000D01*
X139559512Y-42029927D01*
G37*
M02*
