M48
; DRILL file {KiCad (5.1.5)-3} date 1/5/2022 12:25:41 PM
; FORMAT={-:-/ absolute / inch / decimal}
; #@! TF.CreationDate,2022-01-05T12:25:41-05:00
; #@! TF.GenerationSoftware,Kicad,Pcbnew,(5.1.5)-3
; #@! TF.FileFunction,Plated,1,2,PTH
FMAT,2
INCH
T1C0.0157
T2C0.0236
T3C0.0256
T4C0.0299
T5C0.0320
T6C0.0335
T7C0.0394
T8C0.0400
T9C0.1181
T10C0.1260
%
G90
G05
T1
X2.05Y-2.27
X2.24Y-2.27
X2.28Y-2.19
X2.91Y-2.51
X3.07Y-2.43
X3.3Y-2.28
X3.35Y-2.3
X3.39Y-2.22
X3.49Y-2.77
X3.55Y-1.96
X3.7Y-2.4
X3.75Y-2.3285
X3.99Y-2.48
X4.22Y-2.52
X4.39Y-2.55
X4.39Y-2.61
X4.76Y-2.52
X4.8038Y-2.9741
X4.84Y-2.54
X5.4874Y-1.9426
X5.8Y-2.04
T3
X4.23Y-3.07
X4.28Y-3.07
X4.33Y-3.07
X4.38Y-3.07
X4.43Y-3.07
X4.48Y-3.07
T4
X2.88Y-2.2
X2.93Y-2.1
X2.98Y-2.2
X3.03Y-2.1
X3.08Y-2.2
X3.13Y-2.1
X1.92Y-2.71
X1.92Y-2.81
X1.92Y-2.91
X2.02Y-2.66
X2.02Y-2.76
X2.02Y-2.86
T5
X3.87Y-5.18
X3.97Y-5.18
X4.76Y-5.18
X4.86Y-5.18
X4.315Y-5.18
X4.415Y-5.18
T6
X2.39Y-2.1216
X2.39Y-2.3184
T7
X3.84Y-1.89
X3.84Y-1.99
X3.84Y-2.09
X3.84Y-2.19
X4.09Y-1.69
X4.09Y-2.39
X4.19Y-1.69
X4.19Y-2.39
X4.29Y-1.69
X4.29Y-2.39
X4.39Y-1.69
X4.39Y-2.39
X4.49Y-1.69
X4.49Y-2.39
X4.59Y-1.69
X4.59Y-2.39
X4.69Y-1.69
X4.69Y-2.39
X4.79Y-1.69
X4.79Y-2.39
X4.89Y-1.69
X4.89Y-2.39
X4.99Y-1.69
X4.99Y-2.39
X5.09Y-1.69
X5.09Y-2.39
X5.19Y-1.69
X5.19Y-2.39
X5.29Y-1.69
X5.29Y-2.39
X5.39Y-1.69
X5.39Y-2.39
X5.49Y-1.69
X5.49Y-2.39
X5.59Y-1.69
X5.59Y-2.39
X5.69Y-1.69
X5.69Y-2.39
X1.77Y-1.84
X1.8245Y-1.7282
X1.8791Y-1.84
X1.9336Y-1.7282
X1.9881Y-1.84
X2.0426Y-1.7282
X2.0972Y-1.84
X2.1517Y-1.7282
X2.2062Y-1.84
X4.12Y-2.82
X4.22Y-2.82
X4.32Y-2.82
X4.42Y-2.82
X4.52Y-2.82
X4.62Y-2.82
X1.77Y-3.79
X1.8245Y-3.9018
X1.8791Y-3.79
X1.9336Y-3.9018
X1.9881Y-3.79
X2.0426Y-3.9018
X2.0972Y-3.79
X2.1517Y-3.9018
X2.2062Y-3.79
T8
X2.731Y-2.982
X2.731Y-3.238
X2.909Y-2.982
X2.909Y-3.238
X2.731Y-4.642
X2.731Y-4.898
X2.909Y-4.642
X2.909Y-4.898
X5.811Y-3.5253
X5.811Y-3.7813
X5.989Y-3.5253
X5.989Y-3.7813
X5.811Y-2.972
X5.811Y-3.228
X5.989Y-2.972
X5.989Y-3.228
X5.811Y-4.0787
X5.811Y-4.3347
X5.989Y-4.0787
X5.989Y-4.3347
X2.731Y-4.0887
X2.731Y-4.3447
X2.909Y-4.0887
X2.909Y-4.3447
X5.811Y-4.632
X5.811Y-4.888
X5.989Y-4.632
X5.989Y-4.888
X2.731Y-3.5353
X2.731Y-3.7913
X2.909Y-3.5353
X2.909Y-3.7913
T9
X5.9Y-2.73
X2.82Y-5.11
X2.82Y-2.73
X5.9Y-5.11
T10
X1.496Y-1.8282
X2.4802Y-1.8282
X1.496Y-3.8018
X2.4802Y-3.8018
T2
G00X2.4825Y-2.0822
M15
G01X2.5101Y-2.0822
M16
G05
G00X2.5101Y-2.3578
M15
G01X2.4825Y-2.3578
M16
G05
T0
M30
